<?xml version="1.0" encoding="utf-8"?>
<!-- Generator: Adobe Illustrator 23.1.1, SVG Export Plug-In . SVG Version: 6.00 Build 0)  -->
<svg version="1.1" id="Layer_1" xmlns="http://www.w3.org/2000/svg" xmlns:xlink="http://www.w3.org/1999/xlink" x="0px" y="0px"
	 viewBox="0 0 158.5 90.6" style="enable-background:new 0 0 158.5 90.6;" xml:space="preserve">
<style type="text/css">
	.st0{fill:none;}
	.st1{fill-rule:evenodd;clip-rule:evenodd;fill:#CD1F36;}
	.st2{fill-rule:evenodd;clip-rule:evenodd;fill:#CD8680;}
	.st3{fill-rule:evenodd;clip-rule:evenodd;fill:#FEFEFE;}
	.st4{fill-rule:evenodd;clip-rule:evenodd;fill:#F4712A;}
	.st5{fill-rule:evenodd;clip-rule:evenodd;fill:#A41A17;}
	.st6{fill-rule:evenodd;clip-rule:evenodd;fill:#A51B18;}
	.st7{fill-rule:evenodd;clip-rule:evenodd;fill:#F5CD52;}
	.st8{fill-rule:evenodd;clip-rule:evenodd;fill:#D61D25;}
	.st9{fill-rule:evenodd;clip-rule:evenodd;fill:#E12F23;}
	.st10{fill-rule:evenodd;clip-rule:evenodd;fill:#E42F24;}
	.st11{fill-rule:evenodd;clip-rule:evenodd;fill:#F37A2A;}
	.st12{fill-rule:evenodd;clip-rule:evenodd;fill:#AC1C1B;}
	.st13{fill-rule:evenodd;clip-rule:evenodd;fill:#F5D253;}
	.st14{fill-rule:evenodd;clip-rule:evenodd;fill:#F16A2A;}
	.st15{fill-rule:evenodd;clip-rule:evenodd;fill:#F26D2A;}
	.st16{fill-rule:evenodd;clip-rule:evenodd;fill:#F8D652;}
	.st17{fill:#FEFEFE;}
</style>
<g id="Layer_x0020_1">
	<polyline class="st0" points="0,90.6 0,0 158.5,0 158.5,90.6 	"/>
</g>
<g id="_1207393440">
	<polygon class="st1" points="9.1,74.9 152.3,74.8 152.3,15.8 9.1,15.8 	"/>
	<line class="st2" x1="152.3" y1="89.6" x2="9.1" y2="89.7"/>
	<rect x="18.2" y="31.3" class="st3" width="44.4" height="28.2"/>
	<g>
		<path class="st4" d="M31.2,43.5L31.2,43.5l0.2-0.1c0.1-0.1,0.1-0.1,0.1-0.2l0.6-0.7c0-0.1,0.1-0.1,0.1-0.2l4-5
			c0.6-0.7,4-5.1,4.2-5.2c0,0,0,0,0,0c0,0,0,0,0,0c0,0,0,0,0,0l3.4,4.2c0.1,0.1,0.1,0.1,0.1,0.2c0.4,0.5,1.3,1.7,1.6,2l0.7,0.9
			c0.1,0.1,0.1,0.1,0.1,0.2l2.9,3.6c0.1,0.2,0.2,0.2,0.3,0.5h0c0-0.2,0.7-1.3,0.8-1.5l4.4-7.2c0.2-0.3,1.6-2.7,1.8-2.9H24
			c0.6,1,1.2,1.9,1.8,2.9L31.2,43.5L31.2,43.5z"/>
		<path class="st5" d="M19.1,48.8c1,0.4,1.9,0.9,2.9,1.3c0.5,0.2,1,0.4,1.4,0.7c0.3,0.2,1.4,0.7,1.4,0.7l3.4-4.2
			c0.2-0.2,2.9-3.5,2.9-3.7L25.9,35c-0.6-1-1.1-1.8-1.7-2.8l-5.1-0.1V48.8z"/>
		<path class="st6" d="M49.7,43.7c0.2,0.1,3.9,4.9,4.7,5.8l1.5,2c0.2,0,1.2-0.5,1.4-0.7c0.5-0.2,1-0.5,1.4-0.7
			c1-0.4,1.9-0.9,2.9-1.3V32.1h-5c-0.2,0.2-1.6,2.6-1.8,2.9l-4.4,7.2C50.4,42.4,49.7,43.4,49.7,43.7L49.7,43.7z"/>
		<path class="st7" d="M40.4,45.9c0.9,0,1.6,0.1,2.4,0.2c0.5,0.1,1.7,0.4,2,0.6l0.7,0.2c0,0,1.5,0.8,1.5,0.8c0.2-0.2,0.5-0.7,0.6-1
			c0.2-0.4,0.4-0.7,0.6-1c0.2-0.3,1.2-1.9,1.3-2c0-0.2-0.2-0.3-0.3-0.5l-2.9-3.6c-0.1-0.1-0.1-0.1-0.1-0.2l-0.7-0.9
			c-0.3-0.3-1.2-1.5-1.6-2c-0.1-0.1-0.1-0.1-0.1-0.2l-3.4-4.2c0,0,0,0,0,0c0,0,0,0,0,0c0,0,0,0,0,0L40.4,45.9L40.4,45.9z"/>
		<path class="st8" d="M31.3,43.5c-0.1,0.2,0,0,0,0.1c0.2,0.2,2,3.3,2.4,3.8c0.1,0.2,0.1,0.2,0.2,0.3c0.1-0.2,1.1-0.6,1.3-0.7
			c0.5-0.2,1-0.4,1.5-0.6c1.2-0.4,2.4-0.6,3.8-0.6V32.1c-0.1,0.1-3.7,4.5-4.2,5.2l-4,5c0,0.1-0.1,0.1-0.1,0.2l-0.6,0.7
			c-0.1,0.1-0.1,0.1-0.1,0.2L31.3,43.5L31.3,43.5z"/>
		<path class="st9" d="M28.9,53.3L28.9,53.3c0.5,0.2,1,0.5,1.4,0.7c0.5,0.2,0.9,0.4,1.4,0.7c1,0.4,1.9,0.9,2.9,1.3
			c0.9,0.4,2.1,1,2.9,1.3c0.5,0.2,1,0.5,1.4,0.7l1.4,0.7c-1-0.1-2.2,0-3.2,0c-2,0-4.3,0-6.3,0c-0.7,0-2.6,0.1-3.1,0v0.1h25.5v-0.1
			c-0.3,0.1-2.6,0-3.1,0c-1.1,0-2.1,0-3.2,0c-2.1,0-4.2,0.1-6.3,0c-0.1-0.1-0.1-0.1-0.1,0c-0.2-0.2-1.4-2.2-1.7-2.7
			c-0.1-0.2-0.3-0.5-0.4-0.7c-0.6-1.1-1.4-2.3-2.1-3.4c-0.4-0.6-2.4-3.8-2.5-4c-0.3,0.1-0.6,0.4-0.8,0.5c-0.1,0.1-0.2,0.2-0.4,0.3
			c-0.4,0.3-0.5,0.4-0.7,0.6l-1,1c-0.2,0.3-0.4,0.5-0.6,0.7C29.6,51.9,29.6,51.9,28.9,53.3L28.9,53.3z"/>
		<path class="st10" d="M40.6,58.5l8.6-3.9c0.5-0.2,1-0.5,1.4-0.7c0.4-0.1,1.2-0.6,1.4-0.7l0,0c-0.1-0.2-0.3-0.6-0.5-0.9
			c-0.4-0.7-0.6-0.9-0.9-1.3c-0.1-0.1-0.1-0.1-0.1-0.2c-0.6-0.7-0.7-0.8-1.3-1.4c-0.4-0.4-1.7-1.5-2.2-1.7c0,0,0,0,0,0
			c0,0-5.5,9.1-6.6,10.7C40.5,58.5,40.4,58.6,40.6,58.5L40.6,58.5z"/>
		<path class="st11" d="M33.8,47.7L33.8,47.7c0.1,0.3,2.1,3.5,2.5,4.1c0.7,1.1,1.4,2.3,2.1,3.4c0.1,0.2,0.3,0.5,0.4,0.7
			c0.3,0.5,1.5,2.5,1.7,2.7V45.8c-1.3,0-2.6,0.2-3.8,0.6c-0.6,0.2-1.1,0.4-1.5,0.6C34.9,47.1,34,47.5,33.8,47.7z"/>
		<path class="st12" d="M40.4,58.6c0.1,0,0,0,0.1,0v-0.1C40.4,58.6,40.5,58.5,40.4,58.6c1.1-1.7,6.6-10.8,6.6-10.8s0,0,0,0v0
			c0,0-1.5-0.8-1.5-0.8s-0.6-0.2-1.1-0.4c-0.6-0.2-1.2-0.3-1.5-0.4c-0.9-0.2-1.5-0.2-2.4-0.2L40.4,58.6L40.4,58.6z"/>
		<path class="st13" d="M52,53.3L52,53.3c0.3,0.8,0.7,1.5,0.9,2.4c0.2,0.7,0.4,2.1,0.3,2.9v0.1h6.4c0.4,0,0.7,0,1.1,0
			c0.2,0,0.9,0.1,1-0.1c-0.2-0.1-4-5-4.3-5.3l-1.1-1.3c-0.3-0.3-0.2-0.4-0.4-0.4c-0.3,0.2-0.7,0.3-1,0.5c-0.3,0.2-0.7,0.3-1,0.4
			C53.4,52.7,52.7,53,52,53.3L52,53.3z"/>
		<path class="st14" d="M24.9,51.4c0.1,0,0.4,0.2,0.5,0.3c0.1,0,2.1,1,2.5,1.1c0.1,0.1,0.3,0.1,0.4,0.2c0.2,0.1,0.3,0.2,0.5,0.2
			c0.7-1.3,0.7-1.3,1.4-2.4c0.2-0.3,0.4-0.5,0.6-0.7l1-1c0.2-0.2,0.4-0.3,0.7-0.6c0.1-0.1,0.2-0.2,0.4-0.3c0.2-0.2,0.6-0.4,0.8-0.5
			v0c-0.1-0.1-0.1-0.1-0.2-0.3c-0.4-0.6-2.2-3.7-2.4-3.8c0.1-0.2-0.1,0.1,0-0.1l-0.1,0c0,0.2-2.7,3.5-2.9,3.7L24.9,51.4L24.9,51.4z"
			/>
		<path class="st15" d="M47.1,47.7L47.1,47.7c0.5,0.2,1.8,1.3,2.2,1.7c0.6,0.6,0.7,0.7,1.3,1.4c0.1,0.1,0.1,0.1,0.1,0.2
			c0.3,0.5,0.5,0.7,0.9,1.3c0.1,0.3,0.3,0.7,0.5,0.9c0.6-0.3,1.3-0.6,1.9-0.9c0.3-0.1,0.7-0.3,1-0.4c0.3-0.2,0.7-0.3,1-0.5l0,0
			l-1.5-2c-0.8-1-4.5-5.8-4.7-5.8h0c-0.1,0.1-1.1,1.7-1.3,2c-0.2,0.3-0.4,0.7-0.6,1C47.6,46.9,47.3,47.5,47.1,47.7L47.1,47.7z"/>
		<path class="st6" d="M40.6,58.5L40.6,58.5c2.1,0.1,4.2,0.1,6.3,0.1c1.1,0,2.1,0,3.2,0c0.5,0,2.8,0.1,3.1,0
			c0.1-0.7-0.2-2.1-0.3-2.9c-0.2-0.9-0.6-1.6-0.8-2.4c-0.3,0.1-1.1,0.5-1.4,0.7c-0.5,0.2-1,0.5-1.4,0.7L40.6,58.5L40.6,58.5z"/>
		<path class="st5" d="M27.7,58.6c0.5,0.1,2.5,0,3.1,0c2,0,4.3,0,6.3,0c1,0,2.2-0.1,3.2,0l-1.4-0.7c-0.5-0.2-1-0.5-1.4-0.7
			c-0.8-0.3-2-1-2.9-1.3c-1-0.4-1.9-0.9-2.9-1.3c-0.5-0.2-1-0.5-1.4-0.7c-0.5-0.2-1-0.5-1.4-0.7c-0.1,0.3-0.3,0.8-0.5,1.2
			c-0.1,0.4-0.3,0.8-0.4,1.3C27.8,56.5,27.5,57.8,27.7,58.6L27.7,58.6z"/>
		<path class="st15" d="M24.9,51.4c0,0-4.8-2.2-5.8-2.6l0,9.8L24.9,51.4z"/>
		<path class="st14" d="M55.9,51.4L55.9,51.4c0.1,0.1,0.1,0.1,0.4,0.4l1.1,1.3c0.3,0.4,4.2,5.3,4.3,5.3v-9.8
			c-0.9,0.4-1.9,0.9-2.9,1.3c-0.5,0.2-1,0.5-1.4,0.7C57.1,50.9,56.1,51.4,55.9,51.4L55.9,51.4z"/>
		<path class="st16" d="M24.9,51.4c0,0-5.7,7.1-5.8,7.2l8.7,0v-0.1c-0.1-0.8,0.2-2.1,0.3-2.9c0.1-0.4,0.2-0.9,0.4-1.3
			c0.1-0.4,0.4-0.9,0.5-1.2h0C28.8,53.2,24.9,51.4,24.9,51.4z"/>
	</g>
	<g>
		<path class="st17" d="M72.1,37.6h1.6L73,33.4h-0.1L72.1,37.6L72.1,37.6z M69.3,41.5l2.1-10.2h3l2.1,10.2h-2.1L74,39.7h-2.3
			l-0.3,1.8H69.3z M77.3,41.5V31.3H81c1,0,1.8,0.3,2.2,0.9c0.4,0.6,0.6,1.7,0.6,3.2v2.1c0,1.5-0.2,2.6-0.6,3.2S82,41.6,81,41.6
			L77.3,41.5L77.3,41.5z M79.2,39.3h1.5c0.4,0,0.8-0.1,0.9-0.3c0.2-0.2,0.2-0.8,0.2-1.6v-1.7c0-0.9-0.1-1.4-0.2-1.7
			c-0.2-0.2-0.4-0.3-0.9-0.3h-1.5V39.3L79.2,39.3z M85,41.5V31.3h2v10.2H85z M89.9,41.5v-8H88v-2.3h5.7v2.3h-1.9v8H89.9L89.9,41.5z
			 M93.9,31.3h2.2l1.3,4l1.3-4h2.2L98.5,38v3.6h-1.9V38L93.9,31.3L93.9,31.3z M102.9,37.7h1.6l-0.7-4.2h-0.1L102.9,37.7L102.9,37.7z
			 M100.1,41.6l2.1-10.2h3l2.1,10.2h-2.1l-0.3-1.8h-2.3l-0.3,1.8H100.1z M111.6,31.3h3.5c0.9,0,1.5,0.2,1.9,0.5s0.5,1,0.5,1.8v0.6
			c0,0.6-0.1,1-0.3,1.4c-0.2,0.3-0.5,0.5-0.9,0.6c0.4,0.1,0.8,0.4,1,0.7c0.2,0.4,0.4,0.8,0.4,1.4V39c0,1-0.2,1.7-0.5,2.1
			c-0.4,0.4-1.1,0.6-2.1,0.6h-3.4L111.6,31.3L111.6,31.3z M113.5,33.6v1.8h1.4c0.2,0,0.4-0.1,0.4-0.2c0.1-0.1,0.2-0.3,0.2-0.5v-0.4
			c0-0.3-0.1-0.4-0.2-0.5c-0.1-0.1-0.2-0.2-0.4-0.2H113.5z M113.5,37.4v1.9h1.5c0.2,0,0.4-0.1,0.5-0.2c0.1-0.1,0.2-0.3,0.2-0.5v-0.4
			c0-0.3-0.1-0.4-0.2-0.5c-0.1-0.1-0.3-0.2-0.5-0.2L113.5,37.4L113.5,37.4z M118.8,41.6V31.4h2v10.2H118.8z M129.4,41.6V31.4h2v7.8
			h3.2v2.4H129.4z M138,37.7h1.6l-0.7-4.2h-0.1L138,37.7L138,37.7z M135.1,41.6l2.1-10.2h3l2.1,10.2h-2.1l-0.3-1.8h-2.3l-0.3,1.8
			H135.1z"/>
		<path class="st17" d="M124.6,33.1h-0.4v2.8h0.4c0.5,0,1-0.1,1.2-0.4s0.4-0.6,0.4-1.1c0-0.5-0.2-0.8-0.4-1S125.1,33.1,124.6,33.1
			L124.6,33.1z M122.1,41.5V31.3h2.3c0.8,0,1.4,0.1,1.7,0.2c0.4,0.1,0.8,0.3,1.1,0.5c0.3,0.3,0.6,0.6,0.8,1c0.2,0.4,0.3,0.8,0.3,1.2
			c0,0.6-0.2,1.2-0.4,1.7c-0.3,0.5-0.7,0.9-1.2,1.1l1.7,4.4h-2.1l-1.6-4h-0.5v4H122.1L122.1,41.5z"/>
	</g>
	<path class="st17" d="M77.9,53.7v0.4c0,1.9-0.3,3.2-0.9,4.1c-0.6,0.8-1.6,1.2-2.9,1.2h-0.9c-1.5,0-2.5-0.4-3-1.3
		c-0.6-0.9-0.9-2.4-0.9-4.7v-3c0-2.2,0.3-3.7,0.9-4.7c0.6-0.9,1.6-1.3,3-1.3H74c1.5,0,2.4,0.4,3,1.1c0.6,0.8,0.9,2.1,0.9,4.1V50
		h-2.8v-0.3c0-0.6-0.1-1.1-0.3-1.4c-0.2-0.3-0.6-0.4-1.1-0.4c-0.6,0-1,0.2-1.2,0.5s-0.3,1.1-0.3,2.4v2.4c0,1.2,0.1,2,0.3,2.3
		c0.2,0.3,0.6,0.5,1.2,0.5c0.5,0,0.9-0.2,1.1-0.4c0.2-0.3,0.3-0.8,0.3-1.6v-0.3L77.9,53.7L77.9,53.7z M84.1,53.8h2.3l-1-6.1h-0.2
		L84.1,53.8L84.1,53.8z M80.2,59.3l3-14.6h4.2l2.9,14.6h-3l-0.5-2.5h-3.2l-0.5,2.5h-3H80.2z M93.2,59.3V44.7h4.8
		c1.4,0,2.3,0.4,2.9,1.1s0.9,2,0.9,3.7v1c0,1.7-0.3,3-0.9,3.7s-1.6,1.1-2.9,1.1H96v3.9L93.2,59.3L93.2,59.3z M96,52.1h1.9
		c0.4,0,0.8-0.1,0.9-0.3s0.2-0.7,0.2-1.4v-0.9c0-0.6-0.1-1-0.3-1.2c-0.2-0.2-0.5-0.4-1-0.4H96V52.1z M105.1,59.3V44.7h2.8v14.6
		H105.1z M113.8,59.3V48h-2.7v-3.2h8.1V48h-2.7v11.3H113.8z M124,53.8h2.3l-1-6.1h-0.2L124,53.8L124,53.8z M120,59.3l3-14.6h4.2
		l2.9,14.6h-3l-0.5-2.5h-3.2l-0.5,2.5h-3H120z M133.1,59.3V44.7h2.8v11.2h6.4v3.4L133.1,59.3L133.1,59.3z"/>
</g>
</svg>
