<?xml version="1.0" encoding="utf-8"?>
<!-- Generator: Adobe Illustrator 21.0.0, SVG Export Plug-In . SVG Version: 6.00 Build 0)  -->
<svg version="1.1" id="Layer_1" xmlns="http://www.w3.org/2000/svg" xmlns:xlink="http://www.w3.org/1999/xlink" x="0px" y="0px"
	 viewBox="0 0 115.5 66" style="enable-background:new 0 0 115.5 66;" xml:space="preserve">
<style type="text/css">
	.st0{fill:none;}
	.st1{fill:#C7232A;}
	.st2{fill:#A12021;}
	.st3{fill:#FFFFFF;}
	.st4{fill:#F3722B;}
	.st5{fill:#A41E22;}
	.st6{fill:#A51E22;}
	.st7{fill:#F6CE54;}
	.st8{fill:#D62027;}
	.st9{fill:#E13226;}
	.st10{fill:#E33226;}
	.st11{fill:#F37B29;}
	.st12{fill:#AC1F23;}
	.st13{fill:#F5D254;}
	.st14{fill:#F16B2B;}
	.st15{fill:#F36E2B;}
	.st16{fill:#F9D652;}
</style>
<g id="Layer_x0020_1">
	<rect y="0" class="st0" width="115.5" height="66"/>
</g>
<g id="XMLID_1_">
	<path id="XMLID_434_" class="st1" d="M11.8,58.8c-0.6,0-0.7-0.1-0.7-0.7c0-16.7,0-33.4,0-50.1c0-0.6,0.1-0.7,0.7-0.7
		c32.2,0,64.4,0,96.7,0c0.6,0,0.7,0.1,0.7,0.7c0,16.7,0,33.4,0,50.1c0,0.6-0.1,0.7-0.7,0.7C92.3,58.8,27.8,58.8,11.8,58.8z"/>
	<g id="XMLID_2_">
		<path id="XMLID_17_" class="st2" d="M30.3,41.9L30.3,41.9L30.3,41.9z"/>
	</g>
</g>
<g id="Layer_x0020_1_1_">
	<g id="_1207393440">
		<polygon id="XMLID_80_" class="st3" points="16.7,24.2 47.9,24.2 47.9,44.1 16.7,44 		"/>
		<g id="XMLID_173_">
			<path id="XMLID_79_" class="st4" d="M29.3,28.6c0.4-0.5,2.8-3.6,2.9-3.7l0,0l0,0l0,0l6.6,8l4.7-8.1H20.9c0.4,0.7,0.8,1.3,1.2,2
				l3.8,6L29.3,28.6z"/>
			<path id="XMLID_78_" class="st5" d="M17.4,36.6c0.7,0.3,1.3,0.6,2,0.9c0.4,0.2,0.7,0.3,1,0.5c0.2,0.1,0.8,0.4,1,0.5l2.3-2.9
				c0.1-0.2,2.2-2.8,2.2-2.8l-5-8h-3.5L17.4,36.6L17.4,36.6z"/>
			<path id="XMLID_77_" class="st6" d="M43.2,38.4c0.1,0,3.4-1.6,4-1.9V24.8h-3.7l-4.7,8.1L43.2,38.4z"/>
			<path id="XMLID_76_" class="st7" d="M34.9,35c1.2,0.3,2.1,0.8,2.1,0.8l1.8-2.9l-6.6-8.1l0.2,9.7C32.4,34.5,33.7,34.7,34.9,35z"/>
			<path id="XMLID_75_" class="st8" d="M25.9,32.8L25.9,32.8c0.1,0.2,1.8,3,1.8,3s1.6-0.6,2-0.7c0.8-0.3,1.8-0.6,2.7-0.6l-0.2-9.7
				C32.2,24.8,26,32.7,25.9,32.8L25.9,32.8L25.9,32.8L25.9,32.8z"/>
			<path class="st9" d="M27.7,35.8c0,0-2,1.3-2.1,1.5c-0.5,0.6-1.4,2.4-1.4,2.4s3.3,1.7,4,2c0.6,0.3,1.5,0.7,2,0.9
				c0.4,0.1,2.1,0.9,2.1,0.9L27.7,35.8z"/>
			<path id="XMLID_73_" class="st10" d="M32.3,43.4l8.1-3.7v-0.1c-0.1-0.2-1.1-2-1.2-2c-0.7-0.7-1.9-1.7-2.2-1.8l0,0L32.3,43.4z"/>
			<path id="XMLID_72_" class="st11" d="M27.7,35.8l4.6,7.6l0.1-8.9c-0.9,0-1.8,0.1-2.6,0.4C28.8,35.2,27.7,35.8,27.7,35.8z"/>
			<path id="XMLID_71_" class="st12" d="M32.3,43.4C32.4,43.4,32.3,43.4,32.3,43.4L32.3,43.4C32.3,43.4,32.4,43.4,32.3,43.4
				c0.8-1.2,1.6-2.6,2.4-3.8c0.2-0.3,0.4-0.6,0.6-0.9c0.1-0.2,0.2-0.3,0.3-0.5s0.2-0.3,0.3-0.5l1.1-1.9l0,0l0,0c0,0-1.1-0.7-2-1
				c-1.3-0.4-2.6-0.3-2.6-0.3L32.3,43.4L32.3,43.4z"/>
			<path id="XMLID_70_" class="st13" d="M40.4,39.7L40.4,39.7c0.2,0.6,0.5,1.1,0.6,1.7c0.1,0.5,0.2,1.6,0.2,2l0,0h4.5
				c0.3,0,0.5,0,0.8,0c0.2,0,0.7,0,0.7,0l-4-5C43.2,38.4,40.9,39.5,40.4,39.7L40.4,39.7z"/>
			<path id="XMLID_69_" class="st14" d="M24.2,39.6c0.4-0.7,0.8-1.6,1.5-2.3c0.9-0.9,2-1.6,2-1.6l-1.8-3l-4.5,5.5
				C21.4,38.3,24.1,39.6,24.2,39.6z"/>
			<path id="XMLID_68_" class="st15" d="M37,35.8L37,35.8c0.4,0.2,1.4,1,1.9,1.6c0.9,1,1.5,2.3,1.5,2.3c0.1,0,2.8-1.3,2.8-1.3l0,0
				l-4.4-5.5C38.8,32.9,37.1,35.6,37,35.8L37,35.8z"/>
			<path id="XMLID_66_" class="st6" d="M36.8,43.4c0.8,0,1.5,0,2.2,0c0.4,0,2,0,2.2,0c0-0.5,0-1.2-0.1-1.7c-0.1-0.7-0.7-2-0.7-2
				l-8.1,3.7C32.3,43.4,35.3,43.4,36.8,43.4z"/>
			<path id="XMLID_62_" class="st5" d="M23.4,43.4c0,0,8.1,0,8.9,0l-8.1-3.8c0,0-0.6,1-0.7,1.3C23.2,41.7,23.3,42.9,23.4,43.4
				L23.4,43.4z"/>
			<path id="XMLID_61_" class="st15" d="M17.4,43.4l4-5.1l-4-1.7V43.4L17.4,43.4z"/>
			<path id="XMLID_60_" class="st14" d="M47.2,43.4l0-6.9c0,0-3.9,1.8-4,1.9L47.2,43.4z"/>
			<path class="st16" d="M21.4,38.3l-4,5.1h6c0,0,0-1,0.1-1.9c0.1-0.8,0.7-1.9,0.7-1.9L21.4,38.3z M19.9,40.5L19.9,40.5L19.9,40.5
				L19.9,40.5z"/>
		</g>
	</g>
</g>
<polygon id="XMLID_3_" class="st0" points="110.2,61.7 10.5,61.7 9.8,4.2 109.6,4.2 "/>
<g>
	<path class="st3" d="M52.4,30.8l2-5.9h1l2,5.9h-1.3l-0.4-1.3H54l-0.4,1.3H52.4z M55.5,28.7l-0.6-2.1h0l-0.6,2.1H55.5z"/>
	<path class="st3" d="M58,30.8v-5.9h1.9c0.7,0,1.3,0.1,1.6,0.4S62,26,62,26.4v2.7c0,0.6-0.2,1-0.6,1.2c-0.4,0.3-1,0.4-1.7,0.4H58z
		 M59.2,25.7V30h0.6c0.4,0,0.6-0.1,0.7-0.2c0.1-0.1,0.2-0.3,0.2-0.6v-2.8c0-0.2-0.1-0.4-0.2-0.5c-0.1-0.1-0.4-0.2-0.8-0.2H59.2z"/>
	<path class="st3" d="M63.2,30.8v-5.9h1.3v5.9H63.2z"/>
	<path class="st3" d="M66.5,30.8v-5.1h-1.4v-0.8h4.1v0.8h-1.4v5.1H66.5z"/>
	<path class="st3" d="M70.9,30.8v-2.5l-1.7-3.4h1.3l1,2.3h0l1-2.3h1.3l-1.7,3.4v2.5H70.9z"/>
	<path class="st3" d="M73.3,30.8l2-5.9h1l2,5.9H77l-0.4-1.3h-1.7l-0.4,1.3H73.3z M76.4,28.7l-0.6-2.1h0l-0.6,2.1H76.4z"/>
	<path class="st3" d="M81.1,30.8v-5.9h1.8c0.4,0,0.7,0,1,0.1s0.5,0.2,0.7,0.3c0.2,0.1,0.3,0.3,0.4,0.5c0.1,0.2,0.1,0.4,0.1,0.6v0.2
		c0,0.2,0,0.3-0.1,0.4c0,0.1-0.1,0.2-0.2,0.3c-0.1,0.2-0.4,0.3-0.6,0.4c0.3,0.1,0.5,0.2,0.7,0.4c0.1,0.2,0.2,0.4,0.2,0.7v0.3
		c0,0.5-0.2,0.9-0.6,1.2s-1,0.4-1.8,0.4H81.1z M82.4,25.7v1.6h0.6c0.4,0,0.7-0.1,0.8-0.2c0.1-0.1,0.2-0.3,0.2-0.6
		c0-0.3-0.1-0.5-0.2-0.6c-0.2-0.1-0.4-0.2-0.9-0.2H82.4z M82.4,28.1V30h0.5c0.3,0,0.5,0,0.6-0.1c0.1,0,0.3-0.1,0.3-0.2
		c0.1-0.1,0.1-0.2,0.1-0.3c0-0.1,0-0.3,0-0.4c0-0.1,0-0.3,0-0.4c0-0.1-0.1-0.2-0.1-0.3c-0.1-0.1-0.2-0.1-0.3-0.2
		c-0.1,0-0.3-0.1-0.6-0.1H82.4z"/>
	<path class="st3" d="M86.4,30.8v-5.9h1.3v5.9H86.4z"/>
	<path class="st3" d="M88.8,30.8v-5.9h2c1.5,0,2.2,0.6,2.2,1.7c0,0.3-0.1,0.6-0.2,0.9c-0.2,0.2-0.4,0.4-0.8,0.6l1.3,2.7H92l-1.2-2.5
		h-0.7v2.5H88.8z M90.1,25.7v1.8h0.7c0.2,0,0.4,0,0.5-0.1c0.1,0,0.2-0.1,0.3-0.2c0.1-0.1,0.1-0.2,0.1-0.3s0-0.2,0-0.4s0-0.3,0-0.4
		s-0.1-0.2-0.1-0.3c-0.2-0.2-0.5-0.2-0.9-0.2H90.1z"/>
	<path class="st3" d="M94.1,30.8v-5.9h1.3v5h2.5v0.8H94.1z"/>
	<path class="st3" d="M98,30.8l2-5.9h1l2,5.9h-1.3l-0.4-1.3h-1.7l-0.4,1.3H98z M101.1,28.7l-0.6-2.1h0l-0.6,2.1H101.1z"/>
	<path class="st3" d="M59.9,40.4V41c0,0.3-0.1,0.6-0.3,0.8c-0.2,0.3-0.4,0.5-0.7,0.7c-0.3,0.2-0.6,0.4-1,0.5
		c-0.4,0.1-0.8,0.2-1.3,0.2c-0.4,0-0.8,0-1.2-0.1s-0.8-0.2-1.1-0.4s-0.6-0.4-0.8-0.7c-0.2-0.3-0.3-0.6-0.3-1.1v-5.3
		c0-0.3,0.1-0.6,0.2-0.9c0.2-0.3,0.4-0.5,0.7-0.7c0.3-0.2,0.6-0.4,1.1-0.5c0.4-0.1,0.9-0.2,1.4-0.2c1,0,1.8,0.2,2.4,0.6
		c0.3,0.2,0.5,0.5,0.7,0.7c0.2,0.3,0.3,0.6,0.3,0.9v0.5h-2.1v-0.5c0-0.3-0.1-0.5-0.3-0.7c-0.2-0.2-0.5-0.3-0.9-0.3
		c-0.5,0-0.8,0.1-1,0.3c-0.2,0.2-0.3,0.5-0.3,0.8v4.9c0,0.3,0.1,0.5,0.3,0.7c0.2,0.2,0.5,0.3,1,0.3c0.1,0,0.3,0,0.4,0
		c0.2,0,0.3-0.1,0.4-0.2c0.1-0.1,0.2-0.2,0.3-0.3s0.1-0.3,0.1-0.5v-0.5H59.9z"/>
	<path class="st3" d="M60.6,43.2l3.2-9.6h1.7l3.2,9.6h-2.1l-0.6-2.1h-2.8l-0.6,2.1H60.6z M65.7,39.8l-1-3.5h0l-1,3.5H65.7z"/>
	<path class="st3" d="M69.7,43.2v-9.6h3.1c0.6,0,1.1,0,1.5,0.1c0.4,0.1,0.8,0.3,1.2,0.5c0.3,0.3,0.6,0.5,0.7,0.9
		c0.1,0.3,0.2,0.8,0.2,1.4c0,0.4,0,0.8-0.1,1.1c-0.1,0.3-0.2,0.6-0.5,0.8c-0.3,0.3-0.7,0.6-1.1,0.7c-0.5,0.2-1.1,0.3-1.9,0.3h-1v3.8
		H69.7z M71.8,34.8v3.3h1c0.4,0,0.7,0,1-0.1c0.2-0.1,0.4-0.2,0.5-0.3c0.1-0.1,0.2-0.3,0.2-0.5c0-0.2,0-0.4,0-0.7c0-0.2,0-0.4,0-0.6
		s-0.1-0.4-0.2-0.5S74,35,73.8,35c-0.2-0.1-0.5-0.1-0.9-0.1H71.8z"/>
	<path class="st3" d="M78,43.2v-9.6H80v9.6H78z"/>
	<path class="st3" d="M83.4,43.2v-8.3H81v-1.3h6.8v1.3h-2.4v8.3H83.4z"/>
	<path class="st3" d="M86.7,43.2l3.2-9.6h1.7l3.2,9.6h-2.1l-0.6-2.1h-2.8l-0.6,2.1H86.7z M91.8,39.8l-1-3.5h0l-1,3.5H91.8z"/>
	<path class="st3" d="M95.8,43.2v-9.6h2.1v8.3h4.1v1.4H95.8z"/>
</g>
</svg>
