<?xml version="1.0" encoding="UTF-8"?>
<!DOCTYPE svg PUBLIC "-//W3C//DTD SVG 1.1//EN" "http://www.w3.org/Graphics/SVG/1.1/DTD/svg11.dtd">
<!-- Creator: CorelDRAW X6 -->
<svg xmlns="http://www.w3.org/2000/svg" xml:space="preserve" width="55.9202mm" height="31.949mm" version="1.1" style="shape-rendering:geometricPrecision; text-rendering:geometricPrecision; image-rendering:optimizeQuality; fill-rule:evenodd; clip-rule:evenodd"
viewBox="0 0 3099 1770"
 xmlns:xlink="http://www.w3.org/1999/xlink">
 <defs>
  <style type="text/css">
   <![CDATA[
    .fil0 {fill:none}
    .fil1 {fill:#08315F}
    .fil6 {fill:#6F293B}
    .fil10 {fill:#8598AA}
    .fil8 {fill:#879CB3}
    .fil5 {fill:#C94945}
    .fil2 {fill:#DA251C}
    .fil4 {fill:#DE827D}
    .fil9 {fill:#E2A7A2}
    .fil3 {fill:#E6938F}
    .fil7 {fill:#F39B98}
    .fil11 {fill:#08315F;fill-rule:nonzero}
   ]]>
  </style>
 </defs>
 <g id="Layer_x0020_1">
  <metadata id="CorelCorpID_0Corel-Layer"/>
  <rect class="fil0" width="3099" height="1770"/>
  <g id="_687612576">
   <path class="fil1" d="M560 922c0,7 -1,17 1,22 9,4 20,10 29,14 50,23 124,43 174,13 10,-6 17,-13 23,-20 11,-12 12,-21 17,-26l50 2c1,10 -9,46 -12,55 -16,46 -45,90 -95,107 -63,22 -128,-11 -169,-55l-16 -18c-3,16 0,55 0,74 0,18 2,55 0,72l-70 24c-1,1 -1,1 -2,2 -1,1 -1,1 -2,1 -2,1 -4,1 -6,2l-6 1c-2,3 2,0 -4,3 -1,1 -3,1 -4,1 -4,1 -5,2 -10,3l-6 1c-1,-12 2,-140 0,-144 -10,6 -18,14 -30,21 -9,5 -24,12 -34,15 -2,1 1,0 -3,2 -1,0 -3,1 -4,1 -21,2 -27,7 -58,4 -17,-2 -34,-7 -48,-14 -55,-27 -91,-83 -101,-144 -16,-105 -4,-213 107,-251 51,-17 100,-9 141,24 6,5 11,9 17,14 4,4 12,11 17,14l1 -125c4,-3 99,-34 103,-34l1 148c5,-2 14,-10 19,-14 19,-13 42,-24 65,-30 69,-18 138,10 175,67 13,20 33,65 34,94l-47 0c-5,-9 -17,-19 -25,-25 -60,-47 -130,9 -171,47l-48 53zm-499 61c1,1 0,-1 2,3 1,2 0,2 1,3 2,13 14,37 19,49 14,27 23,41 40,64 16,22 31,36 50,54 36,33 79,61 126,81 13,6 36,16 50,19 2,0 3,0 4,1 2,1 2,1 2,2 10,2 22,6 32,8 76,17 150,18 226,3 12,-2 23,-6 34,-8 0,0 1,0 1,-1l6 -2 16 -4c1,-1 0,-1 3,-2 2,-1 1,0 3,-1 27,-5 81,-35 104,-50 34,-22 62,-45 85,-70 53,-57 91,-127 100,-211 19,-172 -91,-312 -235,-383 -160,-78 -356,-62 -496,26 -62,39 -115,92 -151,160 -30,57 -44,125 -38,193 1,12 3,23 5,34 2,10 6,22 7,31z"/>
   <path class="fil2" d="M1179 588c-1,1 0,1 -3,2 -2,1 -2,0 -3,1l-91 27 0 365 101 0 0 -145c4,4 37,66 41,72 7,12 35,66 41,73l121 0c-3,-10 -94,-141 -105,-162 3,-5 8,-11 12,-16 4,-6 9,-11 13,-17 9,-12 73,-94 75,-99l-111 0 -86 120 0 -221 -4 1z"/>
   <path class="fil2" d="M2270 982l101 0 0 -142c1,-5 0,-2 2,-4l4 0 81 147 121 0c-4,-11 -102,-145 -110,-162 3,-6 19,-26 25,-33 7,-10 73,-93 75,-99l-111 0c-14,20 -28,41 -41,62 -7,11 -14,21 -21,31 -3,5 -7,10 -10,16 -2,3 -3,5 -5,8 -3,5 -2,5 -8,5l0 -222 -101 35 0 359z"/>
   <path class="fil2" d="M1510 751c94,-20 106,148 27,164 -47,10 -76,-26 -79,-68 -4,-48 13,-89 52,-97zm-58 225c3,0 2,0 4,1 4,2 0,0 3,2 8,1 22,5 33,7 75,11 160,-15 192,-88 18,-40 15,-96 -4,-133 -59,-115 -258,-115 -314,4 -28,59 -17,136 35,179 17,14 29,19 51,29z"/>
   <path class="fil2" d="M2132 851c0,61 -60,88 -94,59 -18,-15 -18,-41 12,-53 21,-8 58,-7 82,-6zm-112 -167c-1,1 1,0 -3,2 -3,1 0,0 -2,1 -1,0 -5,0 -6,1l-7 1c-2,1 2,0 -3,2 -1,0 -3,0 -5,1 -5,1 -22,6 -26,9l0 70 23 -9c1,-1 0,-1 3,-2 1,-1 2,0 3,-1 49,-11 134,-23 133,42 -45,-10 -103,-5 -142,11 -37,15 -68,47 -59,102 7,44 42,68 89,74 35,4 73,-1 97,-25 4,-4 16,-15 19,-22 2,-3 -3,-1 3,-2l0 7 5 37c11,2 76,1 91,0 -2,-28 -5,-25 -5,-60 0,-22 0,-43 0,-65 0,-41 4,-85 -13,-118 -32,-60 -104,-64 -166,-59 -10,1 -21,3 -29,4z"/>
   <path class="fil2" d="M1687 689c-2,7 -2,63 0,70 13,0 45,-2 55,1l0 131c-1,17 6,44 14,56 9,15 20,24 38,32 44,18 86,7 124,5 2,-8 -3,-54 -4,-66 -19,0 -31,11 -51,0 -11,-6 -21,-22 -19,-41 -1,-2 -1,2 -1,-3l0 -11c0,-23 -1,-89 0,-102 8,-3 57,-1 69,-1 2,-4 2,-60 1,-68l-66 0c-7,0 -2,0 -4,-2l0 -100 -96 35 0 66 -59 0z"/>
   <path class="fil1" d="M453 865l0 -42c-5,-2 -20,-10 -35,-16 -40,-15 -89,-22 -130,-10 -28,8 -50,21 -63,39 -15,20 -24,52 -13,81 18,49 78,72 137,47 23,-10 46,-29 59,-43 10,-10 41,-44 46,-55z"/>
   <path class="fil2" d="M450 1055c3,5 0,132 0,144l6 -1c3,-3 14,-6 18,-7l6 -1c1,-2 0,-2 5,-3 1,0 5,-1 6,-1l70 -24c3,-16 0,-53 0,-72 0,-19 -3,-57 0,-74 -2,-6 -1,-52 -1,-64l1 -8c-2,-5 -1,-16 -1,-22 -9,9 -19,23 -28,34l-53 69c-5,6 -9,11 -14,16 -4,5 -11,9 -15,14z"/>
   <path class="fil2" d="M453 740l0 83 0 42c6,-5 41,-60 49,-71 5,-7 8,-11 13,-17 10,-13 17,-20 28,-32l15 -15 -1 -148c-4,0 -99,31 -103,34l-1 125z"/>
   <path class="fil3" d="M2270 982l24 2c9,0 17,0 26,0 13,0 40,1 51,0 3,-10 -1,-122 1,-147 -2,2 -1,-1 -2,4l0 142 -101 0z"/>
   <path class="fil3" d="M1742 890l0 -131c-11,-3 -42,0 -55,-1 -1,-7 -1,-63 0,-70 -3,2 -1,-1 -2,3 0,1 0,4 0,5 0,3 0,6 0,9 0,11 -1,49 1,55l55 0c1,19 -1,116 1,126 0,4 0,1 1,3z"/>
   <path class="fil4" d="M1844 876l0 -115c10,-2 64,0 67,0 3,-1 1,0 3,-2l-2 0c-13,1 -62,-2 -69,1 -1,13 0,79 0,102l0 11c1,5 0,2 1,3z"/>
   <path class="fil5" d="M1912 758l2 0 0 -70 -71 0c2,2 -4,2 4,2l66 0c1,7 1,64 -1,68z"/>
   <path class="fil6" d="M456 1198c5,0 5,-1 10,-3 1,0 3,-1 4,-1 6,-3 2,0 4,-3 -5,1 -15,4 -18,7z"/>
   <path class="fil6" d="M480 1190c2,0 4,-1 6,-2 1,0 1,0 2,-1 2,-1 1,-1 2,-2 -2,0 -5,1 -6,1 -4,1 -3,2 -5,3z"/>
   <path class="fil3" d="M2135 940c3,2 1,2 3,5l0 -7c-6,1 -1,0 -3,2z"/>
   <path class="fil3" d="M2010 687c1,0 5,0 6,-1 2,0 -1,1 2,-1 4,-1 1,-1 3,-2 -2,0 -4,0 -6,1 0,0 -1,0 -2,0 -2,1 -2,1 -3,2z"/>
   <path class="fil7" d="M1996 690c1,0 3,0 5,-1 5,-2 2,-1 3,-2 -1,0 -3,0 -4,1 -4,1 -2,1 -4,2z"/>
   <path class="fil3" d="M1172 591c2,0 1,0 3,-1 4,-1 2,-1 3,-2 -2,0 -1,0 -3,1 -5,2 -2,1 -3,2z"/>
   <path class="fil8" d="M378 1093c1,0 3,-1 4,-1 5,-2 2,-1 3,-2 -4,1 -4,0 -7,3z"/>
   <path class="fil9" d="M1993 761c1,0 2,0 3,-1 4,-1 2,-1 3,-2 -1,0 -2,0 -3,1 -3,1 -2,1 -3,2z"/>
   <path class="fil9" d="M1458 979c-2,-2 2,0 -3,-2 -2,-1 -1,0 -4,-1 4,2 -5,-1 3,2 3,1 1,0 3,1z"/>
   <path class="fil10" d="M63 990c0,-1 0,-1 -1,-3 -2,-4 -1,-2 -2,-3 0,2 0,1 1,3 2,6 0,1 2,3z"/>
   <path class="fil11" d="M1165 1137l0 -19 70 0 0 61c-11,9 -22,15 -33,19 -11,4 -23,6 -35,6 -16,0 -31,-3 -44,-10 -13,-7 -23,-17 -30,-30 -7,-13 -10,-28 -10,-44 0,-16 3,-31 10,-45 7,-14 16,-24 29,-31 13,-7 27,-10 44,-10 12,0 23,2 32,6 10,4 17,9 23,16 6,7 10,16 13,27l-20 5c-3,-8 -6,-15 -9,-20 -4,-5 -9,-9 -16,-12 -7,-3 -14,-4 -23,-4 -10,0 -19,2 -26,5 -7,3 -13,7 -18,12 -4,5 -8,10 -10,16 -4,10 -6,21 -6,33 0,15 3,27 8,37 5,10 12,17 22,22 10,5 20,7 31,7 9,0 19,-2 28,-6 9,-4 16,-8 21,-12l0 -31 -49 0z"/>
   <path id="1" class="fil11" d="M1353 1163l21 3c-3,12 -9,22 -18,29 -9,7 -20,10 -34,10 -18,0 -31,-5 -42,-16 -10,-11 -15,-26 -15,-45 0,-20 5,-36 16,-47 10,-11 24,-17 40,-17 16,0 29,5 39,16 10,11 15,26 15,46 0,1 0,3 0,5l-89 0c1,13 4,23 11,30 7,7 15,10 25,10 7,0 14,-2 19,-6 5,-4 9,-10 13,-19zm-67 -33l67 0c-1,-10 -3,-18 -8,-23 -6,-8 -15,-12 -25,-12 -9,0 -17,3 -24,9 -6,6 -10,15 -11,25z"/>
   <path id="2" class="fil11" d="M1405 1202l0 -120 18 0 0 17c9,-13 22,-20 38,-20 7,0 14,1 20,4 6,3 11,6 14,10 3,4 5,9 6,15 1,4 1,10 1,20l0 74 -20 0 0 -73c0,-8 -1,-15 -2,-19 -2,-4 -4,-7 -8,-10 -4,-2 -9,-4 -14,-4 -9,0 -16,3 -22,8 -6,5 -9,16 -9,31l0 66 -20 0z"/>
   <path id="3" class="fil11" d="M1622 1163l21 3c-3,12 -9,22 -18,29 -9,7 -20,10 -34,10 -18,0 -31,-5 -42,-16 -10,-11 -15,-26 -15,-45 0,-20 5,-36 16,-47 10,-11 24,-17 40,-17 16,0 29,5 39,16 10,11 15,26 15,46 0,1 0,3 0,5l-89 0c1,13 4,23 11,30 7,7 15,10 25,10 7,0 14,-2 19,-6 5,-4 9,-10 13,-19zm-67 -33l67 0c-1,-10 -3,-18 -8,-23 -6,-8 -15,-12 -25,-12 -9,0 -17,3 -24,9 -6,6 -10,15 -11,25z"/>
   <path id="4" class="fil11" d="M1674 1202l0 -120 18 0 0 18c5,-9 9,-14 13,-17 4,-3 8,-4 13,-4 7,0 14,2 21,6l-7 19c-5,-3 -10,-4 -15,-4 -4,0 -8,1 -12,4 -4,3 -6,6 -8,11 -2,7 -3,15 -3,24l0 63 -20 0z"/>
   <path id="5" class="fil11" d="M1836 1187c-8,6 -15,11 -22,14 -7,3 -14,4 -22,4 -13,0 -23,-3 -30,-10 -7,-6 -11,-15 -11,-25 0,-6 1,-11 4,-16 3,-5 6,-9 11,-12 4,-3 9,-5 15,-7 4,-1 10,-2 18,-3 16,-2 29,-4 36,-7 0,-3 0,-5 0,-5 0,-8 -2,-14 -6,-17 -5,-5 -13,-7 -23,-7 -10,0 -17,2 -21,5 -5,3 -8,9 -10,18l-20 -3c2,-9 5,-15 9,-21 4,-5 10,-9 18,-12 8,-3 17,-4 27,-4 10,0 19,1 25,4 6,2 11,5 14,9 3,4 5,8 6,14 1,3 1,10 1,19l0 27c0,19 0,31 1,36 1,5 3,10 5,15l-21 0c-2,-4 -3,-9 -4,-15zm-2 -45c-7,3 -19,6 -33,8 -8,1 -14,3 -18,4 -3,2 -6,4 -8,7 -2,3 -3,6 -3,10 0,5 2,10 6,13 4,4 10,5 18,5 8,0 15,-2 21,-5 6,-3 11,-8 13,-14 2,-5 3,-11 3,-20l0 -7z"/>
   <polygon id="6" class="fil11" points="1892,1202 1892,1036 1912,1036 1912,1202 "/>
   <polygon id="7" class="fil11" points="2020,1202 2020,1036 2042,1036 2042,1202 "/>
   <path id="8" class="fil11" d="M2084 1202l0 -120 18 0 0 17c9,-13 22,-20 38,-20 7,0 14,1 20,4 6,3 11,6 14,10 3,4 5,9 6,15 1,4 1,10 1,20l0 74 -20 0 0 -73c0,-8 -1,-15 -2,-19 -2,-4 -4,-7 -8,-10 -4,-2 -9,-4 -14,-4 -9,0 -16,3 -22,8 -6,5 -9,16 -9,31l0 66 -20 0z"/>
   <path id="9" class="fil11" d="M2211 1166l20 -3c1,8 4,14 9,19 5,4 12,6 22,6 9,0 16,-2 21,-6 5,-4 7,-8 7,-13 0,-5 -2,-8 -6,-11 -3,-2 -10,-4 -21,-7 -15,-4 -25,-7 -31,-10 -6,-3 -10,-7 -13,-11 -3,-5 -4,-10 -4,-16 0,-5 1,-10 4,-15 2,-5 6,-8 10,-11 3,-2 7,-4 13,-6 5,-2 11,-2 18,-2 9,0 18,1 25,4 7,3 12,6 16,11 3,5 6,11 7,19l-20 3c-1,-6 -4,-11 -8,-15 -4,-4 -10,-5 -18,-5 -9,0 -16,2 -20,5 -4,3 -6,7 -6,11 0,3 1,5 2,7 2,2 4,4 8,5 2,1 8,3 18,5 14,4 24,7 30,9 6,2 10,6 13,11 3,5 5,10 5,17 0,7 -2,13 -6,19 -4,6 -10,11 -17,14 -7,3 -16,5 -25,5 -16,0 -28,-3 -36,-10 -8,-6 -13,-16 -16,-29z"/>
   <path id="10" class="fil11" d="M2419 1202l0 -18c-9,14 -22,20 -38,20 -7,0 -14,-1 -20,-4 -6,-3 -11,-6 -14,-10 -3,-4 -5,-9 -6,-15 -1,-4 -1,-10 -1,-19l0 -74 20 0 0 66c0,11 0,18 1,21 1,5 4,10 8,13 4,3 9,5 15,5 6,0 12,-2 17,-5 5,-3 9,-7 11,-13 2,-5 3,-13 3,-23l0 -64 20 0 0 120 -18 0z"/>
   <path id="11" class="fil11" d="M2475 1202l0 -120 18 0 0 18c5,-9 9,-14 13,-17 4,-3 8,-4 13,-4 7,0 14,2 21,6l-7 19c-5,-3 -10,-4 -15,-4 -4,0 -8,1 -12,4 -4,3 -6,6 -8,11 -2,7 -3,15 -3,24l0 63 -20 0z"/>
   <path id="12" class="fil11" d="M2636 1187c-8,6 -15,11 -22,14 -7,3 -14,4 -22,4 -13,0 -23,-3 -30,-10 -7,-6 -11,-15 -11,-25 0,-6 1,-11 4,-16 3,-5 6,-9 11,-12 4,-3 9,-5 15,-7 4,-1 10,-2 18,-3 16,-2 29,-4 36,-7 0,-3 0,-5 0,-5 0,-8 -2,-14 -6,-17 -5,-5 -13,-7 -23,-7 -10,0 -17,2 -21,5 -5,3 -8,9 -10,18l-20 -3c2,-9 5,-15 9,-21 4,-5 10,-9 18,-12 8,-3 17,-4 27,-4 10,0 19,1 25,4 6,2 11,5 14,9 3,4 5,8 6,14 1,3 1,10 1,19l0 27c0,19 0,31 1,36 1,5 3,10 5,15l-21 0c-2,-4 -3,-9 -4,-15zm-2 -45c-7,3 -19,6 -33,8 -8,1 -14,3 -18,4 -3,2 -6,4 -8,7 -2,3 -3,6 -3,10 0,5 2,10 6,13 4,4 10,5 18,5 8,0 15,-2 21,-5 6,-3 11,-8 13,-14 2,-5 3,-11 3,-20l0 -7z"/>
   <path id="13" class="fil11" d="M2693 1202l0 -120 18 0 0 17c9,-13 22,-20 38,-20 7,0 14,1 20,4 6,3 11,6 14,10 3,4 5,9 6,15 1,4 1,10 1,20l0 74 -20 0 0 -73c0,-8 -1,-15 -2,-19 -2,-4 -4,-7 -8,-10 -4,-2 -9,-4 -14,-4 -9,0 -16,3 -22,8 -6,5 -9,16 -9,31l0 66 -20 0z"/>
   <path id="14" class="fil11" d="M2906 1158l20 3c-2,14 -8,24 -17,32 -9,8 -20,12 -33,12 -16,0 -30,-5 -40,-16 -10,-11 -15,-26 -15,-46 0,-13 2,-24 6,-34 4,-10 11,-17 20,-22 9,-5 18,-7 29,-7 13,0 24,3 32,10 8,7 14,16 16,28l-20 3c-2,-8 -5,-14 -10,-18 -5,-4 -11,-6 -17,-6 -10,0 -19,4 -25,11 -6,7 -10,19 -10,35 0,16 3,28 9,35 6,7 14,11 24,11 8,0 15,-2 20,-7 5,-5 9,-12 10,-23z"/>
   <path id="15" class="fil11" d="M3031 1163l21 3c-3,12 -9,22 -18,29 -9,7 -20,10 -34,10 -18,0 -31,-5 -42,-16 -10,-11 -15,-26 -15,-45 0,-20 5,-36 16,-47 10,-11 24,-17 40,-17 16,0 29,5 39,16 10,11 15,26 15,46 0,1 0,3 0,5l-89 0c1,13 4,23 11,30 7,7 15,10 25,10 7,0 14,-2 19,-6 5,-4 9,-10 13,-19zm-67 -33l67 0c-1,-10 -3,-18 -8,-23 -6,-8 -15,-12 -25,-12 -9,0 -17,3 -24,9 -6,6 -10,15 -11,25z"/>
  </g>
 </g>
</svg>
