<?xml version="1.0" encoding="UTF-8"?>
<!DOCTYPE svg PUBLIC "-//W3C//DTD SVG 1.1//EN" "http://www.w3.org/Graphics/SVG/1.1/DTD/svg11.dtd">
<!-- Creator: CorelDRAW X8 -->
<svg xmlns="http://www.w3.org/2000/svg" xml:space="preserve" width="1.60427in" height="0.916732in" version="1.1" style="shape-rendering:geometricPrecision; text-rendering:geometricPrecision; image-rendering:optimizeQuality; fill-rule:evenodd; clip-rule:evenodd"
viewBox="0 0 2482 1418"
 xmlns:xlink="http://www.w3.org/1999/xlink">
 <defs>
  <style type="text/css">
   <![CDATA[
    .fil0 {fill:none}
    .fil2 {fill:black}
    .fil1 {fill:#FFCB00}
   ]]>
  </style>
 </defs>
 <g id="Layer_x0020_1">
  <metadata id="CorelCorpID_0Corel-Layer"/>
  <rect class="fil0" width="2482" height="1418"/>
  <g id="_1675669516032">
   <rect class="fil1" x="30" y="422" width="2423" height="574"/>
   <path class="fil2" d="M164 721l125 0c3,-1 3,-2 4,-5l24 -41 -98 -1c0,-3 34,-61 39,-69 1,-1 39,-68 41,-69 20,-5 55,2 73,8 38,13 71,42 90,77 10,20 17,41 19,66 6,95 -71,175 -163,174l80 -140 46 0 27 -46 -126 -1c-2,1 -26,43 -27,47l52 0c-1,5 -59,105 -68,120 -3,6 -7,12 -10,18 -13,1 -44,-13 -53,-18 -15,-8 -31,-21 -40,-31 -21,-23 -40,-53 -44,-97 -6,-59 21,-113 64,-146 10,-7 32,-20 47,-24 -2,5 -21,37 -25,45l-77 133zm339 -3c12,-109 -70,-196 -166,-206 -109,-12 -195,70 -205,166 -12,102 63,195 166,206 109,11 195,-71 205,-166z"/>
   <path class="fil2" d="M812 707c4,10 30,44 31,51 -15,12 -49,12 -59,-4 -14,-23 9,-43 28,-47zm14 -34c-4,-9 -13,-18 -8,-32 7,-18 37,-18 40,-2 4,19 -15,31 -32,34zm16 23c11,-5 20,-8 29,-15 30,-23 25,-65 -13,-77 -33,-10 -79,5 -76,49 2,17 10,23 13,30 -9,4 -18,7 -25,12 -6,4 -14,11 -18,18 -10,17 -11,40 0,57 19,28 65,29 97,17 4,-2 7,-4 11,-6l7 10 40 0c-3,-7 -18,-24 -21,-32 15,-15 28,-40 31,-69l-32 0c-1,14 -8,37 -17,44l-26 -38z"/>
   <path class="fil2" d="M2249 709c4,-16 15,-30 32,-32 24,-3 30,9 28,32l-60 0zm91 25c4,-3 4,-22 4,-26 1,-27 -8,-48 -36,-56 -40,-10 -69,12 -84,33 -30,45 -22,136 96,102l4 -28c-18,5 -29,12 -52,9 -18,-3 -29,-13 -28,-34l96 0z"/>
   <path class="fil2" d="M1988 653l-35 1c-2,8 -29,133 -29,137l36 0c5,-20 9,-44 14,-65 4,-22 12,-43 32,-47 13,-3 23,2 26,12 2,9 -2,26 -3,35 -3,11 -5,22 -7,33 -2,7 -6,25 -6,32l35 0c5,-16 8,-37 12,-53 3,-17 10,-39 6,-56 -4,-17 -16,-28 -34,-31 -26,-4 -35,7 -49,15l2 -13z"/>
   <path class="fil2" d="M1626 653c-5,21 -9,45 -14,66 -4,21 -12,42 -31,47 -13,3 -24,-2 -27,-12 -2,-10 2,-27 4,-36 2,-12 12,-57 13,-65l-36 0c-5,15 -8,38 -12,54 -3,17 -10,38 -6,56 4,17 17,28 34,31 26,4 35,-7 49,-16l-1 13 34 0c3,-11 5,-23 7,-35 3,-14 21,-95 22,-103l-36 0z"/>
   <path class="fil2" d="M1288 653l-34 0c-5,24 -10,47 -15,70 -2,10 -14,62 -14,68l35 0c3,-6 6,-24 8,-32 6,-30 10,-74 38,-80 12,-3 23,2 26,11 3,9 -1,27 -3,36 -2,10 -13,59 -13,65l36 0c5,-16 8,-37 12,-53 3,-17 9,-39 6,-56 -4,-17 -17,-28 -34,-31 -23,-4 -33,4 -47,13 -2,2 0,1 -2,2l1 -13z"/>
   <path class="fil2" d="M1868 728c-6,39 -39,47 -54,36 -7,-5 -8,-22 9,-31 13,-6 29,-5 45,-5zm-67 -41c7,-2 12,-5 20,-7 22,-6 58,-9 51,25 -14,4 -98,-10 -97,52 0,22 15,36 37,37 12,1 22,-1 31,-6 9,-5 12,-11 19,-17l-3 20 30 0c4,-19 7,-38 11,-57 3,-16 9,-41 4,-57 -14,-37 -80,-28 -99,-19l-4 29z"/>
   <path class="fil2" d="M1037 634c15,0 29,0 44,0 10,0 8,-1 10,-12 1,-5 3,-13 3,-18l-144 0 -6 30 52 0 -33 157 38 0c3,-6 15,-66 18,-79l12 -59c1,-4 2,-7 3,-10 0,-2 0,-5 1,-6 1,-5 -1,-1 2,-3z"/>
   <path class="fil2" d="M644 762c0,-9 32,-143 33,-158l-37 0 -40 187 111 0 6 -29 -73 0z"/>
   <path class="fil2" d="M1493 683c2,-7 7,-21 8,-27 -19,-8 -56,-8 -74,1 -24,11 -31,36 -20,54 6,9 13,14 23,20 33,20 19,38 -9,37 -15,-1 -20,-6 -31,-10l-8 28c16,10 53,10 73,4 30,-9 49,-47 12,-75 -9,-6 -18,-10 -24,-18 -10,-11 4,-19 15,-20 15,-2 23,3 35,6z"/>
   <path class="fil2" d="M2201 684c2,-3 9,-25 9,-29 -29,-8 -59,-7 -82,8 -17,12 -33,33 -35,64 -4,54 36,75 80,66 3,-1 7,-2 10,-3 4,-2 3,-3 4,-8 1,-7 2,-15 3,-22 -14,4 -32,12 -47,2 -11,-8 -15,-26 -11,-44 3,-17 12,-29 23,-35 7,-4 15,-5 24,-5 4,0 8,1 12,2 4,2 6,3 10,4z"/>
   <path class="fil2" d="M1188 791c2,-5 4,-17 5,-23 5,-23 34,-156 34,-164l-39 0c-4,15 -6,32 -10,48 -3,17 -29,132 -29,139l39 0z"/>
   <path class="fil2" d="M1783 651c-15,-2 -24,-1 -34,6 -12,7 -16,16 -20,20l4 -24 -34 0 -28 138 36 0c5,-14 9,-54 16,-73 4,-12 10,-21 18,-27 13,-9 18,-6 35,-5l7 -35z"/>
  </g>
 </g>
</svg>
