<?xml version="1.0" encoding="UTF-8"?>
<!-- Generator: Adobe Illustrator 24.0.1, SVG Export Plug-In . SVG Version: 6.00 Build 0)  -->
<svg version="1.1" id="Layer_1" xmlns="http://www.w3.org/2000/svg" xmlns:xlink="http://www.w3.org/1999/xlink" x="0px" y="0px" viewBox="0 0 115.5 66" style="enable-background:new 0 0 115.5 66;" xml:space="preserve">
<style type="text/css">
	.st0{fill:none;}
	.st1{fill:#01AEF0;}
	.st2{fill:#05AFF0;}
	.st3{fill:#03AEF0;}
	.st4{fill:#04AFF0;}
	.st5{fill:#04AFEF;}
	.st6{fill:#03AEEF;}
	.st7{fill:#05AFEF;}
	.st8{fill:#FEFEFE;}
	.st9{fill:#FDFEFE;}
	.st10{fill:#FCFEFD;}
	.st11{fill:#FDAF17;}
	.st12{fill:#03AFF0;}
	.st13{fill:#02AEF0;}
</style>
<g id="Layer_x0020_1">
	<rect x="0" class="st0" width="115.4" height="66"/>
</g>
<g>
	<path class="st1" d="M111.1,26.4c0,6.6,0,13.2,0,19.8c0,0.2,0,0.3,0,0.5c0,0.3-0.1,0.4-0.4,0.4c-0.2,0-0.3,0-0.5,0   c-13.2,0-26.5,0-39.7,0c-1,0-0.9,0.1-0.9-0.9c0-13.2,0-26.4,0-39.6c0-1-0.1-0.9,0.9-0.9c13.2,0,26.5,0,39.7,0c1,0,0.8-0.1,0.8,0.9   C111.1,13.2,111.1,19.8,111.1,26.4z"/>
	<path class="st1" d="M7.5,33.1c0.2,0,0.2-0.1,0.2-0.2c0.7-1.4,1.9-2.2,3.3-2.5c1.5-0.4,3.1-0.3,4.6,0.2c1.8,0.6,2.9,1.9,3.5,3.6   c0.4,1.1,0.5,2.3,0.5,3.5c0,2.9,0,5.8,0,8.8c0,0.6,0,0.6-0.6,0.6c-0.7,0-1.5,0-2.2,0c-0.3,0-0.5-0.1-0.5-0.4c0-0.2,0-0.5,0-0.7   c0-2.5,0-5,0-7.4c0-0.7,0-1.5-0.2-2.2c-0.4-2-1.7-3.1-3.7-3.2c-0.4,0-0.8,0-1.3,0c-1.8,0.2-2.9,1.2-3.4,2.9c-0.3,1-0.3,2.1-0.4,3.2   c0,2.4,0,4.7,0,7.1c0,0.2,0,0.3,0,0.5c0,0.2-0.1,0.3-0.3,0.3c-0.9,0-1.8,0-2.7,0c-0.2,0-0.3-0.1-0.3-0.3c0-0.1,0-0.3,0-0.4   c0-4.6,0-9.2,0-13.8c0-0.2,0-0.4,0-0.6c0.1-0.5,0.3-0.9,0.6-1.2c0.3-0.2,0.5-0.3,0.9-0.3c0.4-0.1,1-0.1,1.7,0.1   C7.5,31.5,7.5,32.3,7.5,33.1z"/>
	<path class="st1" d="M37.4,43.4c0.4-0.6,0.5-1.2,0.8-1.7c1.3-3.2,2.6-6.4,3.9-9.5c0.1-0.2,0.1-0.4,0.2-0.5c0.4-0.7,0.9-1.1,1.7-1.1   c0.7,0,1.5,0,2.2,0c0.1,0.2,0,0.4-0.1,0.5c-2.3,5.1-4.5,10.3-6.8,15.5c-0.2,0.4-0.4,0.6-0.9,0.6c-0.7,0-1.4,0-2.1,0   c-0.4,0-0.7-0.1-0.8-0.5c-1.5-3.6-3.1-7.1-4.6-10.7c-0.7-1.6-1.4-3.3-2.1-4.9c-0.1-0.1-0.1-0.2-0.1-0.4c0.1-0.2,0.3-0.1,0.4-0.1   c0.8,0,1.6,0,2.4,0c0.7,0,0.6,0,0.9,0.6c1.3,3.1,2.5,6.1,3.8,9.2C36.5,41.3,36.9,42.3,37.4,43.4z"/>
	<path class="st1" d="M23.2,30.5c0.5,0.1,1.2,0.3,2.1,0.2c0.4,0,0.8-0.1,1.1-0.2c0,0.2,0,0.4,0,0.7c0,10.4,0,14.9,0,15.1   c0,0.1,0,0.2,0,0.3c0,0.3-0.1,0.5-0.4,0.5c-0.8,0-1.6,0-2.4,0c-0.1,0-0.2,0-0.3-0.1c-0.1-0.1-0.1-0.3-0.1-0.4   C23.1,41.3,23.1,35.9,23.2,30.5z"/>
	<path class="st2" d="M21.2,57.1c0,0.9,0,1.7,0,2.6c0,0.4-0.5,0.7-0.9,0.4c-0.1-0.1-0.1-0.2-0.1-0.4c0-0.6,0-1.2,0-1.8   c0-0.3-0.1-0.5-0.4-0.4c-0.7,0-1.4,0-2,0c-0.3,0-0.4,0.1-0.4,0.4c0,0.6,0,1.2,0,1.8c0,0.4,0,0.4-0.5,0.4c-0.5,0-0.5,0-0.5-0.4   c0-1.8,0-3.5,0-5.2c0-0.5,0-0.5,0.6-0.5c0.4,0,0.5,0.1,0.5,0.5c0,0.6,0,1.1,0,1.7c0,0.3,0.1,0.5,0.4,0.5c0.7,0,1.4,0,2,0   c0.3,0,0.4-0.1,0.4-0.4c0-0.5,0-0.9,0-1.4c0-0.8,0-0.8,0.5-0.8c0.5,0,0.5,0,0.5,0.8C21.2,55.6,21.2,56.4,21.2,57.1z"/>
	<path class="st3" d="M43.3,55.8c0.5-0.4,1-0.6,1.5-0.6c1.2,0,1.8,0.5,2,1.6c0.1,1,0,2,0,3c0,0.4-0.3,0.3-0.5,0.3   c-0.2,0-0.4,0-0.4-0.3c0-0.2,0-0.4,0-0.6c0-0.7,0-1.4,0-2c-0.1-0.9-0.5-1.2-1.3-1.2c-0.7,0-1.2,0.4-1.2,1.3c0,0.8,0,1.5,0,2.3   c0,0.5-0.4,0.7-0.8,0.5c-0.1,0-0.1-0.1-0.1-0.2c0-0.1,0-0.2,0-0.3c0-1.8,0-3.6,0-5.4c0-0.5,0.4-0.7,0.8-0.5   c0.2,0.1,0.1,0.2,0.1,0.4C43.3,54.7,43.3,55.3,43.3,55.8z"/>
	<path class="st4" d="M55.5,56c0.4-0.6,1-0.7,1.7-0.7c1,0.1,1.6,0.5,1.7,1.4c0.2,1.1,0,2.1,0.1,3.2c0,0.3-0.2,0.3-0.4,0.3   c-0.2,0-0.5,0.1-0.5-0.3c0-0.2,0-0.4,0-0.6c0-0.7,0-1.4,0-2.2c-0.1-0.7-0.4-1.1-1.1-1.1c-0.8,0-1.1,0.2-1.3,0.9   c-0.1,0.3-0.1,0.5-0.1,0.8c0,0.6,0,1.2,0,1.8c0,0.5-0.3,0.7-0.8,0.5c-0.1,0-0.1-0.1-0.2-0.2c0-0.1,0-0.2,0-0.3c0-1.3,0-2.6,0-3.9   c0-0.3-0.1-0.5,0.4-0.5c0.5,0,0.5,0,0.6,0.5C55.4,55.8,55.5,55.9,55.5,56z"/>
	<path class="st4" d="M83.5,56c0.5-0.5,1-0.7,1.5-0.7c1.1,0,1.8,0.5,1.9,1.6c0.1,1,0,2,0,3c0,0.4-0.3,0.3-0.5,0.3   c-0.2,0-0.5,0-0.5-0.3c0-0.7,0-1.3,0-2c0-0.2,0-0.5,0-0.7c-0.1-0.7-0.5-1.1-1.1-1.1c-0.8,0-1.2,0.3-1.3,0.9c-0.1,0.5-0.1,1-0.1,1.5   c0,0.4,0,0.9,0,1.3c0,0.4-0.2,0.4-0.5,0.4c-0.3,0-0.5,0-0.5-0.4c0-1.4,0-2.8,0-4.1c0-0.3,0.1-0.4,0.4-0.4c0.2,0,0.6-0.2,0.6,0.3   C83.5,55.7,83.5,55.8,83.5,56z"/>
	<path class="st5" d="M69.5,59.7c-0.5,0.6-1.2,0.7-1.9,0.6c-0.7-0.1-1.2-0.5-1.4-1.2c-0.1-0.3-0.1-0.6-0.1-1c0-0.7,0-1.4,0-2.1   c0-0.6,0-0.6,0.5-0.6c0.5,0,0.5,0,0.5,0.6c0,0.6,0,1.3,0,1.9c0,0.2,0,0.3,0,0.5c0.1,0.8,0.5,1.1,1.2,1.1c0.7,0,1.2-0.4,1.3-1.1   c0.1-0.8,0-1.6,0-2.4c0-0.5,0-0.5,0.5-0.5c0.4,0,0.5,0,0.5,0.5c0,1.3,0,2.6,0,3.9c0,0.2,0.1,0.5-0.3,0.5   C69.9,60.3,69.7,60.2,69.5,59.7C69.6,59.8,69.6,59.7,69.5,59.7z"/>
	<path class="st6" d="M64.6,56.4c-0.4,0.2-0.8,0.3-1.2,0c-0.4-0.3-1-0.3-1.5-0.1c-0.2,0.1-0.4,0.3-0.4,0.5c0,0.3,0.2,0.4,0.4,0.5   c0.4,0.1,0.9,0.2,1.3,0.3c0.3,0,0.5,0.1,0.7,0.2c0.9,0.4,1,1.5,0.3,2.2c-1,0.9-3.2,0.6-3.9-0.5c0-0.1,0-0.1-0.1-0.2   c0.4-0.2,0.8-0.3,1.2,0.1c0.5,0.4,1.1,0.4,1.7,0.2c0.3-0.1,0.4-0.3,0.4-0.6c0-0.3-0.2-0.4-0.4-0.5c-0.3-0.1-0.6-0.1-0.9-0.2   c-0.4-0.1-0.8-0.1-1.2-0.3c-0.8-0.4-0.9-1.4-0.2-2C61.8,55,64,55.1,64.6,56.4z"/>
	<path class="st5" d="M93,56.9c-0.4,0.2-0.7,0.2-1-0.3c-0.6-0.9-1.9-0.7-2.4,0.2c-0.3,0.5-0.3,1.1,0,1.7c0.4,1,1.7,1.2,2.5,0.3   c0.1-0.1,0.1-0.4,0.4-0.4c0.2,0,0.5,0,0.6,0.1c0.1,0.2,0,0.4-0.1,0.5c-0.4,0.8-1.2,1.2-2.1,1.1c-0.9,0-1.7-0.4-2.1-1.3   c-0.4-0.8-0.4-1.7,0-2.5c0.4-0.9,1.3-1.3,2.5-1.2C92.1,55.4,92.7,55.9,93,56.9z"/>
	<path class="st4" d="M40.3,60.3c-1.2,0-1.7-0.5-1.7-1.6c0-0.7,0-1.3,0-2c0-0.3,0-0.6-0.4-0.5c-0.3,0-0.3-0.2-0.3-0.4   c0-0.2,0-0.4,0.3-0.4c0.3,0,0.4-0.1,0.4-0.5c0-0.4,0.4-0.7,0.8-0.6c0.2,0.1,0.2,0.2,0.2,0.3c0.1,0.7,0.1,0.7,0.8,0.7   c0.1,0,0.2,0,0.4,0c0.2,0,0.3,0.1,0.3,0.4c0,0.2,0,0.4-0.3,0.4c-0.3,0-0.5,0-0.8,0c-0.3,0-0.3,0.2-0.3,0.4c0,0.7,0,1.3,0,2   c0,0.7,0.3,0.9,1,1c0.2,0,0.4,0,0.4,0.2c0.1,0.4,0,0.5-0.4,0.5C40.5,60.3,40.4,60.3,40.3,60.3z"/>
	<path class="st2" d="M73.4,55.9c0.4-0.4,0.8-0.6,1.2-0.6c0.2,0,0.4,0,0.4,0.3c0,0.2,0.1,0.6-0.3,0.6c-0.4,0-0.8,0.1-1.1,0.4   c-0.3,0.4-0.3,0.9-0.3,1.4c0,0.6,0,1.2,0,1.8c0,0.5,0,0.5-0.5,0.5c-0.5,0-0.5,0-0.5-0.5c0-1.3,0-2.6,0-3.9c0-0.2-0.1-0.5,0.3-0.5   C73.2,55.3,73.3,55.3,73.4,55.9z"/>
	<path class="st2" d="M35.5,56.9c0-0.9,0-1.8,0-2.7c0-0.4,0-0.4,0.5-0.4c0.3,0,0.5,0,0.5,0.4c0,1.9,0,3.7,0,5.6c0,0.4,0,0.4-0.5,0.4   c-0.4,0-0.5,0-0.5-0.5C35.5,58.8,35.5,57.9,35.5,56.9z"/>
	<path class="st7" d="M52.6,57.2c0,0.8,0,1.7,0,2.5c0,0.5,0,0.5-0.5,0.5c-0.5,0-0.5,0-0.5-0.5c0-1.7,0-3.4,0-5.2   c0-0.4,0.5-0.7,0.9-0.5c0.2,0.1,0.1,0.3,0.1,0.4C52.6,55.4,52.6,56.3,52.6,57.2z"/>
	<path class="st8" d="M100.5,10.8c-0.3,1.1-0.5,2.1-0.7,3.1c-0.7,2.9-1.4,5.9-2.1,8.8c-0.1,0.4-0.2,0.8-0.5,1.1   c-0.4,0.6-0.9,0.5-1.2-0.1c-0.4-0.8-0.5-1.6-0.7-2.5c-0.1-0.4-0.1-0.7-0.3-1.1c-0.1-0.4-0.2-0.4-0.6-0.2c-0.1,0-0.1,0.1-0.2,0.1   c-1,0.8-2.2,1-3.4,1c-2.4-0.1-4.8,0-7.2,0c-0.2,0-0.5,0.2-0.5-0.2c0-0.5,0.2-0.9,0.6-0.9c2.5,0,5,0,7.5,0c0.9,0,1.6-0.2,2.3-0.8   c0.2-0.2,0.5-0.4,0.7-0.5c0.7-0.4,1.3-0.2,1.6,0.5c0.3,0.6,0.4,1.3,0.6,2c0.1,0.4,0.1,0.8,0.3,1.3c0.3-0.7,0.4-1.4,0.5-2.1   c0.8-3.7,1.7-7.3,2.6-11c0.1-0.5,0.3-0.9,0.6-1.3c0.4-0.4,0.8-0.4,1,0.1c0.1,0.3,0.2,0.6,0.2,0.9c0,0.7,0.1,1.4,0.1,2.1   c0.1,2.6,0.2,5.2,0.3,7.8c0,0.1,0,0.2,0.1,0.3c0.2-0.2,0.3-0.5,0.5-0.7c0.3-0.4,0.6-0.8,1-1.2c0.6-0.7,1.1-0.7,1.8-0.2   c0.2,0.1,0.4,0.3,0.6,0.5c0.7,0.6,1.4,0.8,2.3,0.8c0.2,0,0.5,0,0.7,0c0.1,0.1,0.1,0.1,0.1,0.2c-0.2,1,0,0.9-1.1,0.9   c-1,0-1.8-0.3-2.6-0.8c-0.2-0.1-0.3-0.2-0.5-0.3c-0.4-0.2-0.6-0.2-0.9,0.2c-0.4,0.5-0.8,1.1-1.2,1.7c-0.1,0.2-0.2,0.4-0.4,0.5   c-0.3,0.3-0.5,0.5-1,0.4c-0.4-0.1-0.5-0.5-0.5-0.8c-0.1-0.8-0.1-1.7-0.2-2.5c-0.1-2.1-0.1-4.3-0.2-6.4   C100.6,11.1,100.6,11,100.5,10.8z"/>
	<path class="st9" d="M71.7,16.3c0.4-2.2,0.8-4.2,1.1-6.3c0.1-0.3,0.2-0.4,0.5-0.4c0.7,0,1.4,0,2.1,0c0.9,0,1.5,0.4,1.7,1.1   c0.2,0.8-0.1,1.5-0.9,2c0,0-0.1,0.1-0.1,0.1c0,0.1,0.1,0.2,0.1,0.2c0.7,0.6,0.9,1.4,0.4,2.2c-0.4,0.7-1.1,1-1.9,1.1   C73.8,16.3,72.8,16.3,71.7,16.3z"/>
	<path class="st9" d="M84,15.7c-0.1,0.7-0.3,1.4-0.4,2c0,0.2,0,0.4-0.3,0.5c-0.3,0-0.5-0.1-0.7-0.4c-0.1-0.2,0-0.5,0-0.7   c0.3-1.6,0.6-3.3,0.9-4.9c0-0.2-0.1-0.6,0.3-0.6c0.4-0.1,0.6,0.1,0.8,0.4c0,0,0.1,0.1,0.1,0.1c0.5-0.4,1-0.6,1.6-0.6   c0.8,0,1.5,0.4,1.7,1.2c0.4,1.1,0.2,2.1-0.6,3C86.6,16.6,85.3,16.7,84,15.7z"/>
	<path class="st10" d="M92.2,15.8c-0.2,0.2-0.6,0.4-1,0.5c-1.3,0.3-2.3-0.4-2.4-1.7c-0.1-0.9,0.2-1.8,0.9-2.5   c0.9-0.9,2.1-0.9,3.2-0.1c0.2-0.1,0.1-0.5,0.4-0.5c0.7-0.1,0.8,0,0.7,0.7c-0.2,1.1-0.4,2.3-0.6,3.4c0,0.2,0,0.5-0.3,0.6   c-0.3,0.1-0.6,0-0.8-0.4C92.4,15.9,92.4,15.8,92.2,15.8z"/>
	<path class="st10" d="M77.7,14.7c0.2-1,0.3-1.9,0.5-2.9c0-0.3,0.2-0.3,0.4-0.3c0.4,0,0.6,0.2,0.6,0.5c0,0.1,0,0.3,0,0.4   c-0.1,0.6-0.2,1.2-0.3,1.9c-0.1,0.7,0.1,1,0.6,1.2c0.7,0.2,1.3-0.1,1.5-0.7c0.2-0.6,0.2-1.1,0.3-1.7c0.1-0.3,0.1-0.7,0.2-1   c0-0.2,0.1-0.5,0.4-0.5c0.4,0,0.6,0.2,0.7,0.5c0,0.1,0,0.2,0,0.3c-0.2,0.8-0.3,1.7-0.5,2.5c-0.4,1.4-2.3,2.1-3.5,1.3   C77.9,15.8,77.7,15.3,77.7,14.7z"/>
	<path class="st1" d="M63.3,46.3c0-5,0-10,0-15c0-0.2,0-0.3,0-0.5c0-0.2-0.1-0.3-0.3-0.3c-0.9,0-1.8,0-2.7,0c-0.3,0-0.3,0.2-0.3,0.4   c0,0.7,0,1.3,0,2c0,0.2,0,0.3,0,0.5c-0.2-0.1-0.2-0.2-0.3-0.3c-0.8-1.3-1.9-2.1-3.4-2.6c-0.9-0.3-1.8-0.4-2.7-0.3   c-2.8,0.2-4.9,1.5-6.1,4c-1.2,2.5-1.3,5.1-0.6,7.8c1,3.6,3.9,5.7,7.6,5.5c2.2-0.1,4-1,5.1-2.9c0-0.1,0.1-0.2,0.3-0.2   c0,0.2,0,0.5,0,0.7c-0.1,1.2,0.6,2.1,2,2c0.2,0,0.3,0,0.5,0C63.3,47.1,63.3,47.1,63.3,46.3z M59.7,41.4c-0.9,2.4-3.1,3.5-5.5,3.2   c-2-0.3-3.4-1.4-4-3.4c-0.6-1.8-0.6-3.6,0.2-5.3c0.8-1.9,2.5-3,4.7-3c2.1,0,3.8,1.1,4.6,3.1c0.2,0.4,0.3,0.8,0.4,1.3   c0.1,0.5,0.1,1,0.1,1.5C60.1,39.7,60,40.6,59.7,41.4z"/>
	<path class="st11" d="M24.8,18.2c-2.3,0-4.1,1.8-4.1,4.1c0,2.2,1.8,4,4.1,4c1.9,0.1,4.1-1.4,4.2-4C28.9,20,27,18.2,24.8,18.2z    M24.7,24.2c-1.1,0-1.9-0.9-1.9-1.9c0-1.1,0.9-1.9,1.9-1.9c1,0,1.9,0.9,1.9,1.9C26.7,23.3,25.8,24.2,24.7,24.2z"/>
	<path class="st5" d="M80.1,55.3c-0.5,0-0.3,0.4-0.5,0.7c-0.1-0.1-0.2-0.2-0.3-0.3c-0.8-0.6-2-0.6-2.8,0.1c-1,0.9-1,3-0.1,3.9   c0.3,0.3,0.6,0.4,0.9,0.5c0.9,0.2,1.6,0,2.3-0.7c0.1,0.7,0.1,0.7,0.6,0.7c0.4,0,0.4,0,0.4-0.6c0-1.2,0-2.5,0-3.7   C80.7,55.3,80.6,55.3,80.1,55.3z M79.7,57.8c0,0.9-0.4,1.5-1.2,1.7c-0.7,0.1-1.3-0.2-1.6-0.8c-0.2-0.5-0.2-0.9-0.1-1.4   c0.2-0.8,0.8-1.2,1.5-1.2c0.8,0.1,1.3,0.6,1.4,1.4C79.7,57.6,79.7,57.7,79.7,57.8z"/>
	<path class="st12" d="M33.7,55.9c0-0.6-0.1-0.6-0.6-0.6c-0.5,0-0.2,0.4-0.4,0.7c-0.1-0.1-0.2-0.1-0.2-0.2c-1.2-1-3-0.6-3.5,0.9   c-0.2,0.7-0.2,1.4,0,2.1c0.5,1.5,2.3,2,3.5,1c0.1-0.1,0.1-0.2,0.3-0.1c0.1,0.6,0.1,0.6,0.6,0.6c0.5,0,0.4-0.4,0.4-0.6   C33.7,58.4,33.7,57.1,33.7,55.9z M30.8,59.4c-0.4-0.1-0.7-0.4-0.9-0.9c-0.1-0.3-0.2-0.5-0.1-0.8c0-1,0.7-1.7,1.5-1.7   c0.9,0,1.5,0.7,1.5,1.7C32.8,59,31.9,59.8,30.8,59.4z"/>
	<path class="st6" d="M95.6,58c1,0,2,0,2.9,0c0.3,0,0.5-0.1,0.4-0.5c0-1-0.6-1.9-1.5-2.2c-1-0.4-2.2-0.1-2.8,0.7   C94.1,57,94,58,94.4,59c0.4,1,1.2,1.3,2.2,1.3c1.1,0,1.9-0.4,2.2-1.3c-0.4-0.2-0.7-0.2-1.1,0.2c-0.8,0.7-2.1,0.4-2.5-0.5   C95.1,58.1,95.1,58,95.6,58z M95.3,56.8c0-0.1,0.1-0.2,0.2-0.3c0.4-0.5,1-0.6,1.6-0.5c0.6,0.1,0.9,0.5,1,1.2c-0.9,0-1.7,0-2.5,0   C95.2,57.3,95.2,57.1,95.3,56.8z"/>
	<path class="st6" d="M24.2,58c1,0,1.9,0,2.9,0c0.5,0,0.5,0,0.5-0.5c0-0.9-0.4-1.7-1.3-2.1c-0.9-0.4-1.9-0.3-2.7,0.4   c-1,0.8-1.1,2.6-0.3,3.6c0.8,0.9,2.5,1.2,3.5,0.5c0.3-0.2,0.6-0.5,0.7-0.9c-0.4-0.2-0.7-0.3-1.1,0.1c-0.8,0.7-2.2,0.4-2.5-0.5   C23.6,58.1,23.7,58,24.2,58z M25.1,56c0.8,0,1.3,0.4,1.4,1.2c-0.9,0-1.8,0-2.8,0C23.9,56.4,24.3,56.1,25.1,56z"/>
	<path class="st12" d="M73.1,15.5c0.1-0.7,0.2-1.3,0.3-1.9c0-0.2,0.1-0.3,0.3-0.3c0.4,0,0.9-0.1,1.3,0.1c0.6,0.2,0.9,0.7,0.6,1.3   c-0.2,0.5-0.6,0.8-1.2,0.8C74,15.5,73.6,15.5,73.1,15.5z"/>
	<path class="st4" d="M74.5,12.5c-0.3,0-0.4,0-0.5,0c-0.3,0-0.4-0.1-0.3-0.4c0.1-0.5,0.2-1,0.3-1.5c0-0.2,0.2-0.3,0.4-0.3   c0.2,0,0.4,0,0.6,0c0.6,0,1,0.3,1,0.7c0.1,0.6-0.2,1.2-0.8,1.3C74.9,12.5,74.6,12.5,74.5,12.5z"/>
	<path class="st13" d="M87,13.6c0,0.6-0.1,1.1-0.5,1.5c-0.3,0.4-0.9,0.6-1.4,0.5c-0.5-0.2-0.7-0.6-0.7-1.2c0-0.6,0.1-1.1,0.4-1.5   c0.4-0.5,0.9-0.7,1.4-0.6C86.7,12.5,87,12.9,87,13.6z"/>
	<path class="st13" d="M90,14.1c0-0.5,0.2-1,0.5-1.4c0.3-0.4,0.8-0.5,1.3-0.4c0.4,0.1,0.7,0.5,0.8,1.1c0,0.5-0.1,0.9-0.3,1.3   c-0.4,0.6-1,1-1.6,0.8C90.3,15.3,90,14.9,90,14.1z"/>
</g>
</svg>