<?xml version="1.0" encoding="UTF-8"?>
<!DOCTYPE svg PUBLIC "-//W3C//DTD SVG 1.1//EN" "http://www.w3.org/Graphics/SVG/1.1/DTD/svg11.dtd">
<!-- Creator: CorelDRAW X8 -->
<svg xmlns="http://www.w3.org/2000/svg" xml:space="preserve" width="1.60427in" height="0.916732in" version="1.1" style="shape-rendering:geometricPrecision; text-rendering:geometricPrecision; image-rendering:optimizeQuality; fill-rule:evenodd; clip-rule:evenodd"
viewBox="0 0 2482 1418"
 xmlns:xlink="http://www.w3.org/1999/xlink">
 <defs>
  <style type="text/css">
   <![CDATA[
    .fil0 {fill:none}
    .fil1 {fill:#0093DC}
    .fil2 {fill:#1E1A17}
    .fil5 {fill:#1E1A19}
    .fil4 {fill:#1F1B18}
    .fil3 {fill:#201C19}
    .fil7 {fill:#8A8785}
    .fil6 {fill:#918E8C}
   ]]>
  </style>
 </defs>
 <g id="Layer_x0020_1">
  <metadata id="CorelCorpID_0Corel-Layer"/>
  <rect class="fil0" width="2482" height="1418"/>
  <g id="_1675741712960">
   <path class="fil1" d="M433 891l0 -232c-26,-6 -49,-35 -43,-71 5,-27 31,-52 64,-50 31,1 56,26 59,56 4,34 -20,60 -47,66l-1 231c41,-1 84,-15 115,-30 62,-31 111,-83 139,-147 81,-186 -53,-407 -267,-408 -160,-2 -291,127 -295,283 -2,92 36,164 79,210 46,49 125,92 197,92z"/>
   <path class="fil2" d="M1145 455c19,-1 51,0 67,6 44,16 38,70 24,102 -16,37 -56,52 -96,48 -26,-2 -31,-16 -26,-42 5,-20 10,-39 15,-57 3,-10 13,-51 16,-57zm3 -11c3,-15 28,-110 33,-122 9,-18 54,-11 69,3 12,11 15,27 13,49 -1,20 -7,33 -17,45 -19,24 -69,29 -98,25zm-59 -133c60,1 43,17 32,62l-49 182c-7,24 -10,48 -32,55 -9,3 -17,1 -26,2l-3 10c18,2 46,-1 65,-1 61,-1 132,12 180,-20 52,-35 50,-107 6,-132 -6,-4 -14,-8 -22,-11 -7,-2 -22,-5 -27,-7 3,-3 58,-7 81,-35 20,-24 23,-61 1,-86 -16,-19 -53,-30 -88,-29 -19,0 -38,2 -57,2 -13,-1 -48,-3 -58,-2l-3 10z"/>
   <path class="fil2" d="M829 522l-9 -1c-2,6 -16,86 -15,91 8,0 13,-9 20,-20 6,3 9,10 32,22 73,37 161,-2 155,-84 -3,-47 -43,-80 -76,-110 -5,-5 -9,-9 -14,-14 -8,-10 -16,-17 -20,-32 -17,-53 41,-83 81,-59 23,13 32,39 33,74l8 1c3,-5 17,-73 18,-83 -11,0 -8,5 -21,17 -20,-15 -43,-28 -78,-28 -35,1 -59,16 -73,36 -16,23 -16,59 -2,84 28,54 123,94 96,164 -5,14 -13,22 -24,29 -26,16 -63,7 -82,-9 -7,-7 -15,-20 -20,-34 -6,-16 -5,-29 -9,-44z"/>
   <path class="fil2" d="M1684 311c15,2 40,-2 42,15 2,9 -8,37 -11,47l-49 182c-12,47 -15,57 -58,57l-3 11c23,-1 45,-2 68,-2 66,0 141,3 205,2l21 -82 -11 0c-7,21 -19,39 -32,51 -16,14 -38,18 -64,20 -21,1 -61,3 -75,-7 -18,-12 -7,-41 0,-64 12,-44 23,-88 35,-132 6,-21 12,-44 19,-65 4,-11 8,-20 15,-26 11,-7 22,-5 36,-7l2 -10c-22,-1 -46,1 -68,2 -20,0 -52,-4 -69,-2l-3 10z"/>
   <path class="fil2" d="M2104 419l-40 0 -3 10 39 1c-4,21 -20,78 -26,103 -9,35 -18,71 -27,105 -9,34 -16,74 -36,95 -4,5 -12,11 -23,9 -9,-2 -10,-11 -14,-20 -9,-23 -37,-6 -23,15 15,22 63,23 91,-8 21,-24 32,-52 43,-88 10,-34 18,-71 27,-106 4,-17 8,-35 13,-52 4,-17 10,-37 12,-53l42 0 3 -11 -42 0c3,-16 9,-39 14,-54 6,-20 20,-59 46,-56 11,1 11,10 14,19 9,26 38,9 24,-13 -13,-21 -60,-27 -92,9 -16,19 -36,64 -42,95z"/>
   <path class="fil2" d="M1371 311c50,2 50,4 33,64l-52 180c-11,40 -11,57 -59,57l-2 11c22,-1 45,-2 67,-2 23,0 46,2 68,2l3 -11c-52,-1 -47,-5 -30,-63l52 -179c17,-57 17,-55 59,-59l2 -10c-23,0 -45,1 -68,2 -23,0 -47,-3 -69,-2l-4 10z"/>
   <path class="fil2" d="M2212 531c5,-25 30,-82 49,-98 7,-6 23,-17 34,-6 14,16 -9,52 -24,66 -12,11 -39,31 -59,38zm92 35c-2,-3 -5,-5 -7,-7 -16,16 -38,59 -75,58 -22,0 -25,-21 -22,-42 5,-35 5,-29 28,-39 34,-14 63,-30 82,-52 23,-27 22,-78 -29,-71 -62,8 -112,93 -117,150 -5,67 60,87 110,39 8,-7 26,-27 30,-36z"/>
   <path class="fil2" d="M1910 474l9 5 10 -15c3,-6 6,-11 10,-16 3,-4 8,-10 12,-13 4,-4 9,-9 18,-7 9,8 0,30 -4,41 -5,13 -10,26 -15,38 -8,20 -26,58 -29,77 -6,35 24,56 53,37 17,-11 43,-46 46,-61l-9 -5c-3,4 -14,25 -26,40 -20,24 -36,23 -32,4 3,-14 11,-34 17,-48 10,-25 32,-74 34,-98 5,-43 -38,-56 -68,-19 -5,6 -23,31 -26,40z"/>
   <path class="fil3" d="M800 941c2,2 -1,2 10,2 56,-1 121,0 177,0l1320 0c6,0 3,1 5,-2 -1,-2 0,-3 -10,-3 -54,2 -122,0 -177,0l-1320 0c-8,1 -2,0 -5,3z"/>
   <path class="fil2" d="M974 1102c3,-2 3,-7 4,-11 6,-21 21,-75 23,-88l-14 0 -19 79 -11 -39c-4,-13 -8,-27 -11,-40l-15 1c-3,6 -17,64 -23,79l-18 -80 -14 0 25 99 14 0c5,-7 17,-64 24,-81l23 81 12 0z"/>
   <path class="fil2" d="M1540 836c2,-9 5,-18 7,-27 1,-5 2,-9 6,-11 18,-4 23,15 13,29 -6,8 -14,9 -26,9zm-23 -40c13,6 16,-8 0,52 -3,9 -6,29 -13,32 -6,3 -6,-1 -7,7 8,1 16,0 24,0 4,0 8,0 12,0 7,1 6,2 8,-4 -1,-1 0,0 -2,-1l-9 -2c-1,-6 5,-28 7,-35 2,-3 1,-1 2,-2 29,0 9,22 18,38 9,15 37,7 38,-4l-3 -3c-4,2 -6,8 -14,5 -4,-5 -1,-17 -3,-25 -3,-11 -7,-9 -16,-14 12,-2 22,-5 27,-12 6,-7 8,-21 2,-28 -10,-11 -53,-10 -70,-8l-1 4z"/>
   <path class="fil2" d="M2242 796c6,2 6,0 11,4 1,8 -9,38 -11,47 -3,11 -5,28 -12,33 -7,4 -7,-1 -8,8l80 0 8 -28c-12,0 -5,6 -16,15 -6,4 -44,17 -37,-10 2,-9 5,-16 7,-25 16,-2 19,2 19,16 7,0 4,2 9,-16 2,-7 4,-15 5,-21 -15,0 2,14 -31,13l9 -33c8,-1 19,-2 26,2 13,7 4,15 15,15l-2 -24c-12,-1 -25,-1 -37,-1 -7,0 -13,0 -19,0 -8,0 -15,-2 -16,5z"/>
   <path class="fil4" d="M1875 796c6,2 6,0 11,4 1,6 -14,61 -18,72 -4,15 -13,4 -13,15l32 0 0 -4c-4,-3 -5,0 -10,-5 -2,-9 12,-55 14,-68 3,4 8,15 10,20 8,15 22,48 29,60l6 -1c5,-15 20,-82 26,-88 4,-5 8,-1 9,-8 -2,-1 -1,-1 -3,-1l-29 0 0 4c5,3 6,1 11,5 1,10 -10,47 -12,59 -6,-7 -29,-62 -35,-68 -5,0 -10,0 -15,0 -13,-1 -12,-2 -13,4z"/>
   <path class="fil4" d="M966 796c12,5 16,-7 0,51 -3,12 -6,30 -13,33 -7,3 -8,0 -8,7l32 0 1 -4c-3,-2 -6,-2 -11,-5 -2,-9 12,-55 14,-68 4,5 18,35 20,40 6,11 14,30 20,39l6 0c4,-14 20,-82 25,-88 5,-5 8,-1 9,-8 -3,-2 -29,-2 -31,0 -1,7 4,2 10,8 2,9 -9,47 -12,59 -2,-3 -30,-61 -33,-68 -6,-1 -11,0 -17,0 -7,0 -12,-3 -12,4z"/>
   <path class="fil2" d="M1959 1070l-10 0c1,27 20,38 48,34 13,-2 22,-7 27,-15 6,-10 4,-25 -3,-32 -7,-7 -18,-9 -30,-12 -11,-2 -26,-3 -26,-16 -1,-22 44,-25 47,3l12 0c-1,-31 -31,-35 -50,-30 -24,6 -31,39 -9,49 14,7 40,7 46,16 10,12 -3,32 -32,25 -16,-3 -16,-13 -18,-18 -1,-3 1,-2 -2,-4z"/>
   <path class="fil2" d="M1325 796c5,2 6,0 11,4 1,14 -13,43 -13,62 1,22 24,32 47,26 34,-10 34,-75 44,-87 6,-6 10,0 10,-9l-23 0c-5,-1 -5,-1 -8,1 0,7 -2,3 3,4 5,2 3,-1 6,4 4,7 -8,43 -11,52 -5,15 -14,33 -36,26 -19,-6 -10,-29 -5,-46 2,-8 4,-17 6,-25 6,-17 15,-5 17,-17 -9,1 -17,1 -26,1 -4,0 -9,0 -13,-1 -8,0 -9,-1 -9,5z"/>
   <path class="fil2" d="M1247 1070c-3,-5 -1,-24 -1,-32 0,-11 0,-23 0,-34l-12 0 0 69c-2,30 42,41 64,23 12,-10 13,-20 13,-40 0,-9 1,-47 -1,-53l-12 0c-3,19 4,64 -4,78 -10,19 -47,15 -47,-11z"/>
   <path class="fil2" d="M2117 881c3,3 1,3 3,6l4 0 8 -31c-8,0 -5,1 -9,8 -17,30 -56,24 -45,-23 3,-17 12,-33 22,-41 7,-4 17,-6 24,0 3,2 5,4 7,9 3,8 0,11 4,12 5,1 4,-2 6,-12 1,-6 2,-12 3,-18 -9,1 -5,1 -10,7 -8,-5 -10,-9 -23,-9 -46,1 -75,65 -43,93 12,11 36,10 49,-1z"/>
   <path class="fil4" d="M1710 850c2,-6 8,-13 12,-18 4,-6 7,-11 11,-16l1 34 -24 0zm-38 37c5,0 28,1 31,0l1 -4c-5,-3 -17,0 -6,-16 9,-13 3,-10 36,-10 1,6 1,17 0,22 -13,6 -11,-1 -13,8 5,1 40,1 43,0 1,-13 -9,4 -10,-18l-4 -80c-10,0 -13,8 -22,22l-36 53c-5,8 -8,13 -16,17 -5,2 -4,0 -4,6z"/>
   <path class="fil2" d="M1145 888c9,-1 4,-1 9,-7 8,4 11,8 23,8 10,1 18,-2 24,-7 14,-14 11,-30 0,-43 -6,-7 -30,-21 -24,-35 3,-8 25,-15 29,8 1,6 -1,4 3,6 5,1 4,-2 5,-12 2,-10 3,-9 2,-13l0 -2c-6,1 -5,1 -7,6 -9,-4 -13,-10 -28,-7 -21,4 -28,27 -16,43 3,3 5,6 9,9 3,3 5,5 9,8 25,25 -3,39 -18,29 -15,-10 -6,-22 -14,-22 -3,1 -3,2 -3,6 -1,3 -1,6 -1,8 -1,6 -2,11 -2,17z"/>
   <path class="fil2" d="M2196 1060c1,-27 39,-30 39,0l-39 0zm51 20l-12 0c-4,7 -8,15 -23,13 -12,-1 -16,-10 -16,-23l51 0c3,-12 -3,-38 -24,-42 -22,-3 -36,10 -39,28 -12,59 58,60 63,24z"/>
   <path class="fil2" d="M1871 1060l-39 0c0,-26 39,-31 39,0zm12 19c-21,1 -7,2 -19,11 -8,6 -31,9 -32,-20l52 0c6,-50 -57,-57 -64,-13 -11,58 58,59 63,22z"/>
   <path class="fil2" d="M1114 1102c0,-27 -6,-61 18,-63 17,-1 17,9 17,24 0,13 0,26 0,39l12 0c0,-38 8,-75 -26,-74 -12,0 -15,6 -21,11l0 -36 -12 1 0 98 12 0z"/>
   <path class="fil2" d="M828 796c5,2 6,0 11,4 0,7 -14,59 -18,71 -5,18 -11,3 -13,16l37 1c6,0 6,1 8,-5l-3 -1c-1,0 -2,0 -3,0 -2,-1 -3,-1 -5,-2 -2,-8 8,-38 11,-48 2,-9 6,-29 11,-33 7,-4 7,1 9,-8 -8,1 -17,1 -25,1 -4,0 -8,0 -13,-1 -7,0 -7,-1 -7,5z"/>
   <path class="fil2" d="M1594 1039c30,-6 33,49 9,54 -16,3 -24,-9 -25,-22 -2,-16 3,-30 16,-32zm-29 33c5,47 72,42 66,-12 -5,-48 -71,-42 -66,12z"/>
   <path class="fil2" d="M1483 1003l13 22c5,7 8,14 13,21 8,12 11,14 11,23 0,8 -2,27 0,33l12 0c2,-7 1,-25 1,-34 0,-14 31,-50 37,-65l-16 0c-2,6 -10,18 -14,24 -4,8 -9,16 -14,23 -4,-4 -22,-39 -28,-47l-15 0z"/>
   <path class="fil2" d="M1344 1079l-11 0c2,33 45,29 55,15 4,-5 7,-17 1,-24 -8,-11 -37,-10 -41,-17 -8,-15 23,-20 29,-8 0,0 1,2 1,2 0,1 0,1 0,1 0,0 1,1 1,1l11 1c-1,-17 -18,-26 -36,-21 -17,4 -26,24 -13,35 12,9 42,5 39,20 -2,12 -24,12 -31,6 -5,-5 -3,-6 -5,-11z"/>
   <path class="fil2" d="M1665 1030l-12 0c0,14 -2,54 2,63 4,7 12,11 23,11 13,0 15,-6 21,-12l0 10 12 0c0,-11 2,-65 -1,-72l-11 0c-4,22 9,60 -17,63 -15,3 -17,-8 -17,-21 0,-14 0,-28 0,-42z"/>
   <path class="fil2" d="M2050 1030c0,39 -9,77 27,74 14,-1 13,-8 20,-12l0 10 11 0 0 -72 -12 0c0,25 6,61 -18,63 -15,2 -16,-9 -16,-23 0,-13 0,-27 0,-40l-12 0z"/>
   <path class="fil2" d="M1999 303c-29,7 -18,50 10,43 28,-7 18,-49 -10,-43z"/>
   <path class="fil2" d="M1060 1029c-3,3 -4,2 -10,2l0 9c8,0 6,-1 10,1 1,20 -4,53 4,59 5,3 13,4 19,2l0 -9c-15,-1 -11,-5 -11,-20 0,-11 0,-22 0,-33l11 0 0 -9 -11 -1 0 -20 -12 0 0 19z"/>
   <path class="fil2" d="M1783 1102c0,-41 -7,-59 23,-61l0 -12c-14,-3 -18,7 -24,12l0 -11 -11 0 0 72 12 0z"/>
   <path class="fil2" d="M2147 1041l-1 -11 -11 0 0 72 12 0c0,-37 -7,-61 23,-61l0 -13c-15,-1 -17,7 -23,13z"/>
   <polygon class="fil2" points="1020,1102 1032,1102 1032,1030 1020,1030 "/>
   <polygon class="fil2" points="1735,1008 1735,1031 1735,1038 1745,1038 1745,1003 1735,1003 "/>
   <path class="fil5" d="M1421 1102c0,4 0,8 -2,11 -4,5 -5,-1 -5,9 16,-2 15,-22 14,-35l-14 1 0 8 0 6 7 0z"/>
   <path class="fil6" d="M1234 1073l0 -69 12 0c0,11 0,23 0,34 0,8 -2,27 1,32l0 -67 -14 0c-2,7 -2,65 1,70z"/>
   <polygon class="fil4" points="1020,1017 1032,1017 1032,1003 1020,1003 "/>
   <path class="fil7" d="M1060 1041c-4,-2 -2,-1 -10,-1l0 -9c6,0 7,1 10,-2l-10 1 -1 10 11 1z"/>
  </g>
 </g>
</svg>
