<?xml version="1.0" encoding="utf-8"?>
<!-- Generator: Adobe Illustrator 21.0.0, SVG Export Plug-In . SVG Version: 6.00 Build 0)  -->
<svg version="1.1" id="Layer_1" xmlns="http://www.w3.org/2000/svg" xmlns:xlink="http://www.w3.org/1999/xlink" x="0px" y="0px"
	 viewBox="0 0 158.5 90.6" style="enable-background:new 0 0 158.5 90.6;" xml:space="preserve">
<style type="text/css">
	.st0{fill:#343434;}
	.st1{fill:#00A0E2;}
	.st2{fill:#292929;}
	.st3{fill:#313131;}
	.st4{fill:#2A2A2A;}
	.st5{fill:#2B2B2B;}
	.st6{fill:#2C2C2C;}
	.st7{fill:#2E2E2E;}
	.st8{fill:#303030;}
	.st9{fill:#323232;}
	.st10{fill:#434343;}
</style>
<g>
	<path class="st0" d="M92.5,74.1c-0.1-0.2,0.3-0.6-0.3-0.7c-0.2,0-0.1-0.5-0.1-0.7c0.1-0.3,0.4-0.1,0.6-0.1c0.3,0,0.2,0.2,0.2,0.4
		c0,0.4-0.1,0.7-0.1,1.1C92.8,74.1,92.7,74.1,92.5,74.1z"/>
	<path class="st1" d="M26.3,52.6c0-2.5,0-4.9,0-7.4c0-0.5,0.1-0.7,0.6-0.8c1.9-0.6,3-2.6,2.6-4.5c-0.4-1.9-2.2-3.2-4.2-3.1
		c-1.9,0.2-3.5,1.8-3.6,3.8c-0.1,1.6,0.9,3.1,2.5,3.7c0.4,0.2,0.5,0.4,0.5,0.8c0,5,0,10,0,15.1c0,0.4,0,0.6-0.5,0.6
		c-4.9-0.4-9.2-2.2-12.7-5.7C6.9,50.4,4.9,44.7,5.7,38c1.1-8.7,7.8-15.7,16.3-17.2c11.1-2,21.6,5.4,23.5,16.6
		c1.8,10.9-5.6,21.3-16.5,23.1c-0.7,0.1-1.4,0.1-2.1,0.3c-0.4,0.1-0.6-0.1-0.6-0.5C26.4,57.7,26.3,55.2,26.3,52.6z"/>
	<path class="st2" d="M57.2,43c-2.1-0.1-4.1-0.7-5.7-2.1c-0.3-0.3-0.4-0.3-0.6,0.1c-0.2,0.3-0.4,0.5-0.6,0.8
		c-0.1,0.2-0.3,0.2-0.4,0.2c-0.2-0.1-0.1-0.2-0.1-0.4c0.3-1.8,0.6-3.6,1-5.4c0-0.3,0.2-0.3,0.4-0.3c0.3,0,0.3,0.1,0.4,0.4
		c0.1,1.2,0.4,2.4,0.9,3.6c1.3,2.6,4,2.9,5.7,2.4c2.3-0.7,3.4-3.3,2.5-5.7c-0.4-0.9-1-1.7-1.6-2.4c-1.2-1.3-2.6-2.3-3.7-3.6
		c-1.3-1.5-2.1-3.2-1.9-5.2c0.3-2.4,2.2-4.1,4.7-4.5c2.2-0.3,4.2,0.2,6,1.5c0.3,0.2,0.5,0.3,0.7-0.1c0.2-0.3,0.4-0.5,0.6-0.7
		c0.1-0.1,0.3-0.1,0.4-0.1c0.1,0.1,0.1,0.2,0,0.3c-0.3,1.6-0.7,3.3-1,4.9c0,0.2-0.1,0.4-0.4,0.4c-0.3,0-0.3-0.2-0.3-0.4
		c-0.1-1-0.3-2-0.7-3c-1-1.9-3.3-2.8-5.3-1.9c-1.6,0.7-2.3,2.5-1.7,4.3c0.3,0.9,1,1.7,1.7,2.4c1.1,1.1,2.4,2.1,3.5,3.3
		c1.3,1.4,2.2,2.9,2.3,4.8c0.2,3.6-2.4,6.4-6.1,6.5C57.5,43,57.3,43,57.2,43z"/>
	<path class="st2" d="M104,42.5c0-0.5,0.2-0.6,0.8-0.6c1.7,0,2.4-0.5,2.8-2.1c1.2-4.1,2.3-8.3,3.4-12.4c0.4-1.4,0.8-2.8,1.1-4.2
		c0.2-1-0.1-1.4-1.1-1.6c-0.4-0.1-0.8-0.1-1.2-0.1c-0.2,0-0.5,0.1-0.4-0.2c0-0.3,0.1-0.5,0.4-0.4c1,0,2,0,3,0.1
		c1.8,0.1,3.7-0.1,5.5-0.1c0.2,0,0.5-0.2,0.5,0.2c0,0.3-0.1,0.6-0.5,0.5c-0.2,0-0.5,0-0.7,0c-1.1,0.1-1.8,0.6-2.2,1.6
		c-0.8,2.1-1.3,4.3-1.9,6.4c-0.8,3.1-1.6,6.1-2.4,9.2c0,0.2-0.1,0.4-0.1,0.5c-0.3,1.6,0.2,2.4,1.8,2.5c1.9,0.2,3.8,0.1,5.7-0.2
		c1.9-0.3,3.2-1.5,4-3.2c0.2-0.3,0.4-0.7,0.5-1.1c0.1-0.4,0.4-0.4,0.7-0.3c0.3,0.1,0.1,0.3,0,0.5c-0.4,1.5-0.8,3-1.2,4.5
		c-0.1,0.5-0.3,0.6-0.8,0.5c-4.2-0.1-8.4-0.1-12.6-0.1C107.5,42.5,105.7,42.5,104,42.5z"/>
	<path class="st2" d="M137.5,29.5c-0.9,0-1.8,0-2.6,0c0-0.6,0.2-0.8,0.8-0.7c0.5,0,1,0,1.5,0c0.4,0,0.6-0.1,0.7-0.5
		c0.5-1.6,1-3.3,1.9-4.7c0.9-1.5,2-2.6,3.8-2.9c1-0.2,1.9,0,2.7,0.5c0.5,0.3,0.8,0.8,0.8,1.4c0,0.4-0.2,0.8-0.6,0.9
		c-0.4,0.1-0.8,0-1-0.4c-0.2-0.3-0.3-0.6-0.4-0.9c-0.3-0.8-0.8-1.1-1.6-0.7c-0.5,0.2-0.8,0.6-1.1,1c-0.9,1.4-1.3,3-1.7,4.5
		c-0.1,0.5-0.2,1-0.4,1.4c-0.1,0.3,0,0.4,0.3,0.4c0.6,0,1.3,0,1.9,0c0.2,0,0.5-0.1,0.5,0.2c0,0.3-0.1,0.5-0.5,0.5
		c-0.6,0-1.2,0-1.9,0c-0.5,0-0.6,0.1-0.7,0.6c-0.9,3.9-1.9,7.8-2.8,11.7c-0.5,2.2-1.1,4.3-2.2,6.2c-0.9,1.5-1.9,2.8-3.7,3.3
		c-1,0.3-2,0.2-3-0.3c-0.6-0.3-0.9-0.7-1-1.4c0-0.5,0.2-0.8,0.6-0.9c0.5-0.1,0.9,0,1.1,0.5c0.1,0.2,0.2,0.5,0.3,0.7
		c0.3,0.8,1,1.1,1.8,0.6c0.5-0.3,0.9-0.8,1.2-1.3c0.8-1.4,1.1-3,1.5-4.5c1.3-4.9,2.5-9.7,3.8-14.6C137.4,29.9,137.4,29.8,137.5,29.5
		z"/>
	<path class="st2" d="M91.9,41.9c0,0.5-0.1,0.8-0.7,0.7c-2.7-0.1-5.4-0.1-8.1,0c-0.2,0-0.5,0.2-0.5-0.2c0-0.3,0.1-0.6,0.5-0.5
		c0.1,0,0.3,0,0.4,0c1.5-0.1,2.1-0.5,2.6-1.9c0.5-1.5,0.9-3.1,1.4-4.6c1.1-3.9,2.3-7.8,3.3-11.7c0.1-0.2,0.1-0.4,0.1-0.6
		c0.1-0.7-0.2-1.1-0.9-1.3c-0.5-0.1-1-0.1-1.5-0.2c-0.2,0-0.5,0.2-0.4-0.2c0-0.2,0.1-0.5,0.5-0.5c0.8,0.1,1.6,0,2.5,0.1
		c2,0.1,4-0.1,6,0c0.2,0,0.5-0.2,0.4,0.2c0,0.2-0.1,0.6-0.5,0.5c-2-0.2-2.8,1-3.3,2.7c-1.5,5.3-3,10.5-4.5,15.8
		c-0.4,1.3,0,1.8,1.3,1.8C91,41.9,91.5,41.9,91.9,41.9z"/>
	<path class="st3" d="M100.6,63.9c16.8,0,33.6,0,50.5,0c0.2,0,0.4,0,0.6,0c0.2,0,0.2,0.2,0.2,0.3c0,0.2,0,0.3-0.2,0.3
		c-0.2,0-0.3,0-0.5,0c-33.7,0-67.3,0-101,0c-0.2,0-0.3,0-0.5,0c-0.2,0-0.2-0.2-0.2-0.3c0-0.2,0-0.3,0.2-0.3c0.2,0,0.4,0,0.6,0
		C67,63.9,83.8,63.9,100.6,63.9z"/>
	<path class="st2" d="M124.6,32.5c0.6-1,1.2-2,2-2.9c0.6-0.6,1.3-1.2,2.2-1.2c1.2-0.1,2.1,0.7,2.2,1.9c0.1,1.1-0.2,2-0.6,3
		c-0.9,2.3-1.9,4.6-2.7,7c-0.1,0.3-0.2,0.6-0.2,0.8c-0.1,0.3,0,0.5,0.2,0.7c0.2,0.2,0.5,0.1,0.8,0c0.4-0.2,0.8-0.5,1.1-0.9
		c0.7-0.8,1.3-1.6,1.7-2.5c0.2-0.3,0.3-0.4,0.6-0.2c0.3,0.2,0.2,0.3,0.1,0.5c-0.7,1.3-1.4,2.5-2.6,3.4c-0.1,0.1-0.3,0.2-0.4,0.3
		c-0.9,0.5-1.8,0.8-2.7,0.2c-0.9-0.6-1.1-1.6-1-2.6c0.1-0.9,0.5-1.8,0.9-2.7c0.9-2.1,1.8-4.1,2.4-6.3c0.1-0.2,0.1-0.4,0.2-0.7
		c0.1-0.4,0.1-0.7-0.3-0.9c-0.4-0.2-0.7,0-1,0.2c-0.4,0.3-0.8,0.7-1.1,1.2c-0.4,0.5-0.7,1-1,1.6C125.3,33,125,32.9,124.6,32.5z"/>
	<path class="st2" d="M148.4,60.6c-0.8,0-1.6,0-2.3,0c-0.1,0-0.3,0.1-0.3-0.1c0-0.2,0-0.3,0.2-0.3c0.4-0.1,0.6-0.4,0.7-0.8
		c0.4-1.4,0.7-2.7,1.1-4c0.1-0.4,0.2-0.8-0.5-0.8c-0.2,0-0.2-0.1-0.2-0.2c0-0.2,0.2-0.2,0.4-0.2c0.9,0,1.8,0,2.7,0
		c0.2,0,0.4,0,0.6,0c1.3,0,1.4,0.1,1.3,1.4c0,0.1,0,0.3-0.1,0.3c-0.2,0-0.2-0.1-0.3-0.2c-0.5-0.9-1-1.1-2-1c-0.3,0-0.4,0.1-0.5,0.4
		c-0.1,0.5-0.3,1-0.4,1.5c-0.1,0.2-0.1,0.4,0.3,0.4c0.6,0,1-0.1,1.3-0.6c0.1-0.2,0.1-0.3,0.3-0.3c0.2,0.1,0.1,0.3,0,0.4
		c-0.1,0.6-0.3,1.2-0.4,1.7c0,0.2,0,0.4-0.3,0.3c-0.2,0-0.1-0.2-0.1-0.3c0-0.5-0.3-0.7-0.8-0.8c-0.5-0.1-0.6,0.2-0.7,0.6
		c-0.1,0.4-0.2,0.8-0.3,1.3c-0.1,0.6,0,0.9,0.6,0.9c1,0.1,1.9-0.1,2.5-1.1c0.1-0.2,0.2-0.4,0.4-0.3c0.2,0.1,0,0.3,0,0.4
		c-0.3,1.4-0.3,1.4-1.8,1.4C149.3,60.6,148.9,60.6,148.4,60.6z"/>
	<path class="st2" d="M64.8,58.8c0.3-1.2,0.6-2.3,0.8-3.4c0.1-0.4,0.1-0.8-0.5-0.9c-0.1,0-0.2-0.1-0.2-0.2c0-0.2,0.2-0.2,0.3-0.2
		c0.5,0,1.1,0,1.6,0c0.1,0,0.2,0,0.2,0.1c0,0.1,0,0.2-0.2,0.3c-0.5,0.1-0.6,0.5-0.7,1c-0.4,1.6-0.8,3.1-1.3,4.7
		c-0.1,0.2,0,0.5-0.3,0.6c-0.3,0-0.4-0.3-0.5-0.5c-0.8-1.6-1.5-3.2-2.3-4.8c-0.2,0.2-0.2,0.5-0.3,0.7c-0.3,1-0.5,2.1-0.8,3.1
		c-0.1,0.4-0.2,0.8,0.5,0.9c0.1,0,0.2,0.1,0.2,0.2c0,0.2-0.2,0.2-0.3,0.2c-0.5,0-1.1,0-1.6,0c-0.1,0-0.3,0-0.3-0.2
		c0-0.2,0.1-0.2,0.2-0.2c0.5-0.1,0.6-0.4,0.8-0.9c0.3-1.3,0.7-2.6,1.1-3.9c0.1-0.5,0.3-0.9-0.5-0.9c-0.1,0-0.2,0-0.2-0.1
		c0-0.1,0.1-0.2,0.2-0.2c0.5,0,1,0,1.5,0c0.3,0,0.3,0.3,0.4,0.4C63.4,55.9,64.1,57.2,64.8,58.8z"/>
	<path class="st2" d="M126.5,58.7c0.3-1.2,0.6-2.3,0.8-3.4c0.1-0.4,0-0.7-0.5-0.8c-0.1,0-0.3,0-0.3-0.2c0-0.2,0.2-0.2,0.3-0.2
		c0.5,0,1,0,1.5,0c0.1,0,0.3,0,0.3,0.2c0,0.1,0,0.2-0.2,0.2c-0.6,0.1-0.7,0.6-0.8,1.1c-0.4,1.5-0.8,3.1-1.2,4.6
		c-0.1,0.2,0,0.5-0.3,0.5c-0.3,0-0.3-0.3-0.4-0.4c-0.8-1.6-1.6-3.2-2.4-4.8c-0.2,0.1-0.2,0.3-0.2,0.4c-0.3,1.1-0.6,2.3-0.8,3.4
		c-0.1,0.4-0.2,0.8,0.5,0.9c0.1,0,0.2,0.1,0.2,0.2c0,0.2-0.2,0.2-0.3,0.2c-0.5,0-1.1,0-1.6,0c-0.1,0-0.3,0-0.3-0.2
		c0-0.2,0.1-0.2,0.2-0.2c0.5-0.1,0.7-0.5,0.8-0.9c0.3-1.3,0.7-2.5,1-3.8c0.1-0.5,0.3-1-0.5-1c-0.1,0-0.2-0.1-0.1-0.2
		c0-0.1,0.1-0.2,0.1-0.2c0.6,0,1.2,0,1.8,0c0.1,0,0.2,0.3,0.3,0.4c0.6,1.2,1.2,2.4,1.8,3.6C126.2,58.3,126.3,58.5,126.5,58.7z"/>
	<path class="st4" d="M66.9,72.4c0.3-1.2,0.5-2.2,0.8-3.2c0.1-0.3,0.2-0.6,0.2-1c0-0.3,0.2-0.4,0.4-0.4c0.4,0,0.5,0.1,0.3,0.4
		c-0.4,1.6-0.8,3.2-1.2,4.8c-0.1,0.3-0.2,0.4-0.5,0.4c-0.3,0-0.4-0.1-0.5-0.4c-0.4-1.4-0.8-2.7-1.2-4.2c-0.4,1.3-0.7,2.5-1,3.6
		c-0.1,0.2-0.1,0.4-0.2,0.7c-0.1,0.3-0.3,0.3-0.5,0.4c-0.3,0-0.4-0.1-0.5-0.4c-0.4-1.6-0.8-3.1-1.2-4.7c0-0.2-0.3-0.4,0.1-0.5
		c0.3-0.1,0.6,0,0.7,0.4c0.3,1.3,0.6,2.6,0.9,3.8c0,0,0,0,0,0.1c0.3-0.3,0.3-0.6,0.4-1c0.3-1,0.6-1.9,0.8-2.9
		c0.1-0.3,0.2-0.5,0.6-0.5c0.4,0,0.5,0.2,0.5,0.5C66.2,69.7,66.5,71,66.9,72.4z"/>
	<path class="st2" d="M86.6,54.1c0.4,0,0.8,0,1.2,0c0.1,0,0.3,0,0.3,0.1c0,0.1-0.1,0.2-0.2,0.2c-0.8,0-0.9,0.6-1,1.2
		c-0.2,0.9-0.5,1.8-0.7,2.7c-0.2,0.6-0.1,1.2,0.5,1.5c0.6,0.3,1.4,0.2,1.9-0.2c0.2-0.2,0.4-0.5,0.5-0.8c0.5-1.2,0.8-2.4,1-3.7
		c0.1-0.4,0-0.7-0.4-0.7c-0.1,0-0.3,0-0.2-0.2c0-0.1,0.1-0.2,0.3-0.2c0.5,0,1.1,0,1.6,0c0.1,0,0.2,0,0.2,0.1c0,0.1-0.1,0.2-0.2,0.3
		c-0.5,0.1-0.6,0.5-0.7,0.9c-0.3,1.2-0.6,2.4-1.1,3.5c-0.6,1.5-1.9,2.1-3.4,1.7c-1-0.3-1.4-1-1.4-2c0.1-1.1,0.5-2.1,0.7-3.1
		c0.1-0.5,0.4-1-0.5-1c-0.1,0-0.1-0.1-0.1-0.2c0-0.1,0.1-0.2,0.3-0.2C85.7,54.1,86.1,54.1,86.6,54.1z"/>
	<path class="st2" d="M134.4,58.1c0-2.1,1.6-4,3.5-4.1c0.6,0,1.1,0,1.6,0.4c0.2,0.2,0.3,0.2,0.5-0.1c0.1-0.2,0.2-0.2,0.4-0.1
		c0.1,0.1,0.1,0.2,0,0.3c-0.1,0.4-0.2,0.8-0.2,1.3c0,0.2,0,0.4-0.2,0.4c-0.2,0-0.2-0.2-0.2-0.3c0-0.2-0.1-0.3-0.1-0.5
		c-0.3-0.8-1-1.1-1.8-0.7c-0.2,0.1-0.4,0.2-0.5,0.4c-1,1.1-1.4,2.4-1.3,3.9c0.1,1.3,1.3,1.8,2.4,1c0.4-0.3,0.7-0.7,0.9-1.2
		c0.1-0.1,0.1-0.3,0.3-0.2c0.2,0.1,0.1,0.2,0.1,0.4c-0.1,0.5-0.2,1-0.4,1.5c-0.1,0.2-0.3,0.4-0.4,0.2c-0.2-0.5-0.4-0.2-0.6-0.1
		C136.3,61.4,134.4,60.2,134.4,58.1z"/>
	<path class="st2" d="M74.8,60.7c-0.2,0-0.6-0.1-0.9-0.3c-0.3-0.1-0.6-0.5-0.8,0.1c0,0-0.2,0.1-0.2,0c-0.1,0-0.1-0.1-0.1-0.2
		c0.1-0.5,0.1-1,0.2-1.5c0-0.1,0-0.3,0.2-0.3c0.2,0,0.2,0.2,0.2,0.3c0.1,0.7,0.5,1.2,1.2,1.4c0.5,0.1,0.9,0,1.2-0.4
		c0.3-0.4,0.3-0.9,0-1.3c-0.3-0.4-0.7-0.8-1.1-1.1c-0.4-0.3-0.7-0.7-0.9-1.2c-0.2-0.7,0-1.5,0.5-1.9c0.7-0.5,1.5-0.6,2.3-0.2
		c0.2,0.1,0.5,0.4,0.7-0.1c0,0,0.2,0,0.2,0c0.1,0,0.1,0.2,0.1,0.3c-0.1,0.4-0.2,0.8-0.2,1.2c0,0.1,0,0.3-0.2,0.3
		c-0.2,0-0.2-0.2-0.2-0.3c-0.1-0.6-0.3-1-0.9-1.1c-0.4-0.1-0.8,0-1.1,0.4c-0.3,0.4-0.1,0.8,0.2,1.1c0.4,0.4,0.9,0.9,1.3,1.3
		c0.5,0.5,0.8,1.1,0.7,1.8C77,60.1,76.1,60.7,74.8,60.7z"/>
	<path class="st4" d="M125.7,73.6c-1.3,0-2.1-0.6-2.3-1.6c0-0.2-0.1-0.4,0.2-0.4c0.2,0,0.4-0.1,0.5,0.2c0.3,1,1.4,1.4,2.4,0.9
		c0.4-0.2,0.5-0.5,0.5-0.8c0-0.4-0.2-0.6-0.6-0.7c-0.6-0.2-1.1-0.3-1.7-0.4c-0.9-0.2-1.2-0.6-1.2-1.3c0-0.8,0.5-1.4,1.3-1.6
		c0.8-0.2,1.6-0.1,2.3,0.5c0.2,0.2,0.3,0.5,0.4,0.8c0,0.2,0.2,0.4-0.1,0.4c-0.2,0-0.4,0.1-0.6-0.2c-0.4-0.8-1-1.1-1.8-0.9
		c-0.4,0.1-0.7,0.4-0.7,0.8c0,0.4,0.2,0.6,0.6,0.7c0.5,0.1,0.9,0.2,1.4,0.4c1.1,0.3,1.5,0.7,1.5,1.5c0,0.9-0.4,1.4-1.5,1.6
		C126,73.6,125.7,73.6,125.7,73.6z"/>
	<path class="st2" d="M52.8,54.1c0.4,0,0.8,0,1.2,0c0.1,0,0.2,0,0.2,0.1c0,0.1,0,0.2-0.1,0.2c-0.6,0.1-0.7,0.6-0.8,1.1
		c-0.3,1.3-0.7,2.5-1,3.8c-0.1,0.4-0.2,0.8,0.4,0.9c0.1,0,0.2,0.1,0.2,0.2c0,0.2-0.2,0.2-0.3,0.2c-0.8,0-1.6,0-2.4,0
		c-0.1,0-0.2,0-0.2-0.1c0-0.1,0-0.3,0.2-0.3c0.5-0.1,0.6-0.5,0.8-0.9c0.4-1.3,0.7-2.7,1.1-4c0.1-0.4,0.1-0.7-0.4-0.8
		c-0.1,0-0.2-0.1-0.2-0.2c0-0.2,0.2-0.2,0.3-0.2C51.9,54.1,52.4,54.1,52.8,54.1z"/>
	<path class="st4" d="M85.5,69.9c0-0.5,0-1.1,0-1.6c0-0.3,0-0.5,0.4-0.5c0.3,0,0.4,0.1,0.4,0.4c0,1.2,0.1,2.3-0.1,3.5
		c-0.2,1.2-0.9,1.8-2,1.8c-1.2,0-2-0.5-2.2-1.7c-0.2-1.2,0-2.5-0.1-3.8c0-0.3,0.2-0.3,0.4-0.3c0.2,0,0.4,0,0.4,0.3
		c0,0.9,0,1.9,0,2.8c0,0.3,0,0.5,0.1,0.8c0.2,0.9,0.6,1.2,1.5,1.1c0.8,0,1.3-0.5,1.3-1.3C85.5,71,85.5,70.5,85.5,69.9
		C85.5,69.9,85.5,69.9,85.5,69.9z"/>
	<path class="st4" d="M75.2,69.9c0.4-0.5,0.8-0.6,1.3-0.6c0.8,0,1.2,0.4,1.3,1.1c0.1,0.9,0,1.8,0.1,2.7c0,0.3-0.1,0.3-0.4,0.3
		c-0.3,0-0.3-0.1-0.3-0.4c0-0.7,0-1.5,0-2.2c0-0.5-0.1-0.9-0.7-1c-0.6-0.1-1.1,0.3-1.2,0.8c-0.1,0.7,0,1.5-0.1,2.2
		c0,0.2,0.1,0.5-0.3,0.5c-0.4,0-0.3-0.3-0.3-0.5c0-1.5,0-3.1,0-4.6c0-0.2-0.1-0.5,0.3-0.5c0.4,0,0.3,0.3,0.3,0.5
		C75.2,68.8,75.2,69.3,75.2,69.9z"/>
	<path class="st4" d="M90.7,70.5c-0.3,0.1-0.6,0.1-0.8-0.3c-0.2-0.4-1.1-0.4-1.4-0.1c-0.3,0.3-0.2,0.6,0.2,0.8
		c0.4,0.2,0.8,0.2,1.2,0.3c0.8,0.2,1.1,0.6,1.1,1.1c0,0.6-0.5,1.1-1.2,1.2c-1,0.2-1.9-0.2-2.1-0.9c0-0.2-0.2-0.4,0.1-0.5
		c0.2-0.1,0.4-0.1,0.6,0.2c0.2,0.6,1.2,0.8,1.7,0.4c0.4-0.3,0.3-0.7-0.1-0.9c-0.4-0.2-0.9-0.3-1.3-0.4c-0.5-0.1-0.9-0.4-0.9-1
		c0-0.6,0.3-1,0.9-1.2C89.6,69,90.6,69.5,90.7,70.5z"/>
	<path class="st4" d="M96.7,68c0.6-0.2,0.9,0,1.2,0.5c0.4,0.7,0.8,1.4,1.3,2.1c0.4-0.7,0.9-1.4,1.3-2.1c0.3-0.5,0.6-0.7,1.1-0.5
		c0,0.3-0.2,0.4-0.3,0.6c-0.2,0.4-0.4,0.8-0.7,1.1c-0.8,1-1.1,2-1,3.2c0,0.3,0.1,0.6-0.4,0.6c-0.5,0-0.4-0.3-0.4-0.5
		c0.2-1.2-0.2-2.3-1-3.2C97.4,69.2,97.1,68.6,96.7,68z"/>
	<path class="st2" d="M132.4,22.5c0,0.8-0.7,1.5-1.5,1.5c-0.8,0-1.5-0.6-1.5-1.5c0-0.9,0.6-1.5,1.4-1.5
		C131.8,20.9,132.4,21.6,132.4,22.5z"/>
	<path class="st5" d="M131.6,73c-0.4,0.5-0.8,0.6-1.3,0.6c-0.7,0-1.1-0.4-1.2-1.1c-0.1-0.9,0-1.9-0.1-2.8c0-0.3,0.2-0.3,0.4-0.3
		c0.3,0,0.3,0.1,0.3,0.3c0,0.7,0,1.4,0,2.2c0,0.5,0,1,0.7,1.1c0.5,0.1,1-0.3,1.1-0.9c0.2-0.7,0-1.4,0.1-2.2c0-0.2-0.2-0.5,0.3-0.5
		c0.4,0,0.4,0.2,0.4,0.5c0,1,0,2.1,0,3.1c0,0.2,0.1,0.5-0.3,0.5C131.7,73.5,131.6,73.3,131.6,73z"/>
	<path class="st4" d="M109.2,72.9c-0.4,0.5-0.8,0.6-1.3,0.6c-0.8,0-1.3-0.4-1.3-1.2c0-0.9,0-1.7,0-2.6c0-0.2,0-0.4,0.3-0.4
		c0.3,0,0.3,0.1,0.3,0.4c0,0.7,0,1.4,0,2.2c0,0.7,0.2,1,0.8,1.1c0.5,0,1-0.4,1-1c0.1-0.7,0-1.4,0.1-2.1c0-0.2,0-0.5,0.4-0.5
		c0.4,0,0.3,0.2,0.3,0.5c0,1,0,2.1,0,3.1c0,0.2,0.1,0.4-0.2,0.5C109.3,73.5,109.1,73.4,109.2,72.9z"/>
	<path class="st6" d="M72.1,71.5c0-0.3,0-0.7,0-1c0-0.2,0.1-0.5-0.3-0.5c-0.2,0-0.2-0.1-0.2-0.2c0-0.1,0-0.3,0.1-0.3
		c0.5,0,0.4-0.4,0.4-0.6c0-0.3,0-0.5,0.4-0.5c0.4,0,0.3,0.3,0.3,0.5c0,0.3-0.1,0.7,0.5,0.6c0.2,0,0.2,0.2,0.2,0.3
		c0,0.2-0.1,0.3-0.3,0.2c-0.4-0.1-0.4,0.2-0.4,0.4c0,0.7,0,1.4,0,2c0,0.3,0,0.5,0.4,0.5c0.2,0,0.3,0.1,0.3,0.3
		c0,0.2-0.1,0.3-0.3,0.3c-0.7,0.1-1-0.2-1-0.9C72,72.3,72.1,71.9,72.1,71.5C72.1,71.5,72.1,71.5,72.1,71.5z"/>
	<path class="st7" d="M113.9,70c0.4-0.3,0.6-0.6,0.9-0.6c0.2,0,0.4-0.2,0.5,0.2c0,0.2,0.1,0.5-0.3,0.5c-0.7,0.1-1,0.4-1,1.1
		c0,0.6,0,1.3,0,1.9c0,0.2,0,0.4-0.3,0.4c-0.3,0-0.4-0.1-0.4-0.4c0-1.1,0-2.1,0-3.2c0-0.2-0.1-0.5,0.3-0.5
		C113.9,69.4,114,69.5,113.9,70z"/>
	<path class="st4" d="M134.5,70c0.3-0.3,0.5-0.5,0.8-0.6c0.2,0,0.5-0.2,0.5,0.2c0,0.2,0.1,0.5-0.4,0.5c-0.6,0-0.9,0.4-0.9,1.1
		c0,0.6,0,1.2,0,1.8c0,0.2,0.1,0.5-0.3,0.5c-0.4,0-0.3-0.2-0.3-0.5c0-1,0-2.1,0-3.1c0-0.2-0.2-0.5,0.3-0.5
		C134.5,69.4,134.4,69.7,134.5,70z"/>
	<path class="st8" d="M69.8,71.5c0-0.6,0-1.1,0-1.7c0-0.2,0-0.4,0.3-0.4c0.3,0,0.4,0,0.4,0.4c0,1.1,0,2.2,0,3.3
		c0,0.3-0.1,0.4-0.4,0.4c-0.4,0-0.3-0.2-0.3-0.4C69.8,72.5,69.8,72,69.8,71.5z"/>
	<path class="st9" d="M111.2,68.2c0-0.3,0.1-0.4,0.3-0.4c0.3,0,0.4,0.1,0.3,0.4c0,0.5-0.1,1.1-0.1,1.6c0,0.2-0.1,0.3-0.3,0.3
		c-0.2,0-0.2-0.2-0.2-0.3C111.3,69.5,111.3,68.5,111.2,68.2z"/>
	<path class="st10" d="M70.5,68.3c0,0.3,0,0.4-0.4,0.4c-0.3,0-0.4-0.1-0.4-0.4c0-0.3,0-0.5,0.4-0.4C70.5,67.9,70.5,68,70.5,68.3z"/>
	<path class="st2" d="M145.1,37.2c0.8-0.3,1.6-0.6,2.3-1c2.2-1.1,4.4-2.2,5.3-4.8c0.1-0.5,0.1-0.9,0-1.4c-0.4-1.6-1.7-1.9-3.3-1.5
		c-0.9,0.2-1.7,0.6-2.4,1.1c-1.8,1.3-3.1,3.1-4,5.2c-0.7,1.6-1.2,3.3-1.1,5.1c0.1,1.6,1.1,2.8,2.7,3.1c1.2,0.3,2.4,0,3.4-0.6
		c1.3-0.8,2.2-1.9,3.1-3.1c0.1-0.2,0.4-0.3,0-0.6c-0.3-0.2-0.4-0.1-0.6,0.2c-0.7,0.9-1.4,1.9-2.3,2.6c-0.6,0.5-1.3,0.9-2.1,0.9
		c-1.1,0.1-1.8-0.5-1.9-1.6c-0.1-1,0.2-2,0.5-3C144.7,37.4,144.9,37.3,145.1,37.2z M148.1,30.1c0.4-0.5,0.9-0.9,1.5-1
		c0.8-0.1,1.3,0.3,1.3,1.1c0,0.8-0.3,1.6-0.7,2.2c-1.2,1.9-3.1,3-5.2,4C145.7,34.1,146.5,31.9,148.1,30.1z"/>
	<path class="st2" d="M79.1,31.5c-0.5-0.2-1.1-0.3-1.6-0.5c2-0.4,3.5-0.9,4.7-1.7c2.5-1.8,2.5-5.5,0-7.2c-1.2-0.8-2.7-1.2-4.1-1.2
		c-2.8,0-5.7,0.1-8.5,0c-0.1,0-0.1,0-0.2,0C69,20.9,69,21.2,69,21.3c-0.1,0.3,0.2,0.2,0.3,0.2c0.4,0,0.8,0,1.2,0.1
		c1.1,0.1,1.5,0.6,1.2,1.8c-0.4,1.4-0.8,2.9-1.2,4.3c-1.1,4.1-2.1,8.2-3.3,12.2c-0.5,1.6-1.1,2.1-2.8,2c-0.6,0-0.8,0.2-0.8,0.7
		c0.3,0,0.6,0,0.9,0c2.2-0.1,4.5-0.1,6.7,0c1.3,0.1,2.7,0.1,4,0c1.7-0.1,3.3-0.5,4.8-1.3c2-1.2,3-3.1,2.8-5.4
		C82.7,33.4,81.2,32.2,79.1,31.5z M74.6,24.3c0.2-0.6,0.4-1.2,0.5-1.8c0.2-0.6,0.5-0.8,1.1-0.9c1-0.1,1.9,0,2.8,0.3
		c1,0.4,1.6,1.1,1.7,2.2c0.3,2.1,0,3.9-1.8,5.3c-0.6,0.5-1.4,0.8-2.2,0.9c-1.2,0.3-2.5,0.1-3.8,0.2C73.5,28.4,74,26.4,74.6,24.3z
		 M77.6,40.3c-1.7,1.6-3.8,1.8-5.9,1.4c-0.9-0.2-1.2-0.9-1.1-1.8c0.2-1.5,0.7-3,1.1-4.5c0.3-1.2,0.7-2.4,1-3.6
		c0.1-0.5,0.3-0.7,0.8-0.6c0.2,0,0.5,0,0.9,0c0.8,0,1.8,0.1,2.7,0.3c1.5,0.4,2.4,1.3,2.5,2.8C79.7,36.7,79.3,38.8,77.6,40.3z"/>
	<path class="st2" d="M103.2,59.8c-0.2-0.2-0.3,0-0.4,0.1c-0.5,0.3-0.7,0.2-0.8-0.4c0-0.2,0-0.3,0-0.5c0-0.8-0.2-1.4-1.2-1.7
		c0.7-0.1,1.2-0.2,1.6-0.6c0.5-0.4,0.7-0.9,0.6-1.6c-0.1-0.6-0.5-0.9-1.1-1c-1.2-0.3-2.5-0.1-3.7-0.1c-0.1,0-0.2,0-0.2,0.2
		c0,0.1,0.1,0.2,0.2,0.2c0.6,0,0.6,0.4,0.4,0.8c-0.4,1.3-0.7,2.7-1.1,4c-0.1,0.4-0.3,0.8-0.8,0.9c-0.2,0-0.2,0.1-0.2,0.3
		c0,0.1,0.2,0.1,0.2,0.1c0.8,0,1.6,0,2.3,0c0.2,0,0.3,0,0.3-0.2c0-0.2-0.1-0.2-0.3-0.2c-0.5,0-0.5-0.4-0.4-0.7
		c0.1-0.5,0.2-0.9,0.4-1.4c0.1-0.2,0-0.6,0.5-0.6c0.4,0,0.8,0.2,0.8,0.7c0,0.3,0,0.6,0,0.9c0,0.6,0,1.2,0.7,1.5
		c0.6,0.3,1.4,0.1,1.8-0.3C103.1,60.2,103.4,60.1,103.2,59.8z M99.5,57c0.2-0.7,0.4-1.3,0.5-2c0.1-0.4,0.4-0.6,0.8-0.5
		c0.4,0.1,0.7,0.2,0.8,0.7C101.7,56.4,100.9,57.2,99.5,57z"/>
	<path class="st2" d="M114.5,60.2c-0.5-0.1-0.4-0.4-0.5-0.7c-0.1-1.6-0.2-3.2-0.3-4.8c0-0.2,0.1-0.6-0.2-0.7
		c-0.3-0.1-0.4,0.2-0.6,0.4c-1.1,1.6-2.2,3.3-3.3,4.9c-0.3,0.4-0.5,0.8-1,0.9c-0.1,0-0.2,0.1-0.2,0.3c0,0.1,0.1,0.1,0.2,0.1
		c0.5,0,1.1,0,1.6,0c0.1,0,0.3,0,0.3-0.2c0-0.2-0.1-0.2-0.2-0.2c-0.2,0-0.4-0.1-0.4-0.3c-0.1-0.3,0.6-1.4,1-1.4c0.5,0,1,0,1.5,0
		c0.1,0,0.3,0,0.3,0.1c0,0.4,0.1,0.8,0,1.2c0,0.3-0.4,0.3-0.6,0.3c-0.1,0-0.2,0.1-0.2,0.2c0,0.2,0.2,0.1,0.3,0.1c0.4,0,0.7,0,1.1,0
		c0.4,0,0.8,0,1.2,0c0.1,0,0.3,0,0.3-0.2C114.7,60.3,114.6,60.2,114.5,60.2z M112.3,58.1c-0.4,0-1.3,0-1.3,0l1.6-2.2
		c0,0,0,1.2,0,1.8C112.7,58,112.6,58.1,112.3,58.1z"/>
	<path class="st4" d="M138.9,69.4c-0.9-0.2-1.7,0.2-2.1,1.1c-0.3,0.7-0.3,1.4,0,2c0.3,0.7,0.8,1.1,1.6,1.1c0.8,0,1.4-0.3,1.7-1
		c0.1-0.1,0.2-0.3,0-0.4c-0.1-0.1-0.4-0.1-0.5,0c-0.1,0.1-0.2,0.2-0.2,0.4c-0.5,0.6-1.5,0.5-1.8-0.2c-0.3-0.6-0.2-0.8,0.5-0.8
		c0.3,0,0.5,0,0.8,0c0.4,0,0.8,0,1.2,0c0.2,0,0.3,0,0.4-0.3C140.3,70.4,139.8,69.6,138.9,69.4z M139,71.1c-0.2,0-0.4,0-0.7,0
		c-0.2,0-0.3,0-0.5,0c-0.2,0-0.5,0.1-0.6-0.1c-0.1-0.2,0.1-0.5,0.2-0.7c0.5-0.7,1.5-0.5,1.8,0.2C139.5,70.9,139.5,71.2,139,71.1z"/>
	<path class="st5" d="M117.1,71.6c0.3,0,0.7,0,1,0c0.4,0,0.8,0,1.2,0c0.2,0,0.3-0.1,0.3-0.3c0.1-0.9-0.4-1.8-1.3-2
		c-0.9-0.2-1.8,0.2-2.1,1c-0.3,0.7-0.3,1.4,0,2.1c0.3,0.7,0.8,1.1,1.6,1.1c0.8,0,1.4-0.2,1.7-0.9c0.1-0.1,0.3-0.3,0-0.5
		c-0.2-0.1-0.5-0.1-0.6,0.1c0,0.1-0.1,0.1-0.1,0.2c-0.3,0.4-0.7,0.5-1.2,0.4c-0.5-0.1-0.7-0.4-0.8-0.9
		C116.7,71.8,116.7,71.6,117.1,71.6z M116.9,70.4c0.3-0.5,1.1-0.6,1.5-0.3c0.3,0.2,0.5,0.5,0.4,0.8c0,0.2-0.1,0.1-0.3,0.2
		c-0.1,0-1.4,0-1.5,0c-0.2,0-0.2,0-0.2-0.1C116.7,70.8,116.8,70.6,116.9,70.4z"/>
	<path class="st4" d="M104.3,69.5c-1.4-0.6-2.6,0.3-2.7,2c0,1.5,0.9,2.4,2.3,2.1c0.9-0.2,1.4-0.8,1.5-1.9
		C105.5,70.6,105.1,69.8,104.3,69.5z M104.7,71.4c0,1.1-0.4,1.6-1.1,1.6c-0.5,0-0.9-0.2-1-0.7c-0.2-0.5-0.2-1-0.1-1.5
		c0.2-0.7,0.6-1,1.3-1c0.6,0.1,0.9,0.5,1,1.2C104.7,71.2,104.7,71.3,104.7,71.4z"/>
</g>
</svg>
