<?xml version="1.0" encoding="UTF-8"?>
<!DOCTYPE svg PUBLIC "-//W3C//DTD SVG 1.1//EN" "http://www.w3.org/Graphics/SVG/1.1/DTD/svg11.dtd">
<!-- Creator: CorelDRAW X8 -->
<svg xmlns="http://www.w3.org/2000/svg" xml:space="preserve" width="1.60427in" height="0.916732in" version="1.1" style="shape-rendering:geometricPrecision; text-rendering:geometricPrecision; image-rendering:optimizeQuality; fill-rule:evenodd; clip-rule:evenodd"
viewBox="0 0 2482 1418"
 xmlns:xlink="http://www.w3.org/1999/xlink">
 <defs>
  <style type="text/css">
   <![CDATA[
    .fil0 {fill:none}
    .fil1 {fill:#0172B9}
    .fil2 {fill:#D21245}
    .fil3 {fill:#0172B9;fill-rule:nonzero}
   ]]>
  </style>
 </defs>
 <g id="Layer_x0020_1">
  <metadata id="CorelCorpID_0Corel-Layer"/>
  <rect class="fil0" width="2482" height="1418"/>
  <g id="_1675696984704">
   <path class="fil1" d="M1013 766l128 1c12,-21 26,-65 35,-90 11,-28 23,-67 36,-92l66 182 131 0 -130 -311 -138 -1 -128 311z"/>
   <path class="fil1" d="M363 766l127 1c15,-19 57,-161 72,-182l65 182 130 0 -129 -311 -139 -1 -126 311z"/>
   <polygon class="fil1" points="728,546 821,548 822,767 956,767 957,546 1049,545 1049,456 728,455 "/>
   <path class="fil1" d="M75 547l95 1 0 219 133 0 0 -219c18,-5 69,-2 91,-2l2 -91 -321 0 0 92z"/>
   <path class="fil2" d="M2195 629c5,-19 14,-41 21,-60 5,-14 12,-53 27,-51 13,1 21,40 26,55 4,13 18,48 18,58 -32,3 -61,9 -92,-2zm-120 138l71 0 28 -79c21,1 40,7 66,7 28,0 47,-6 70,-7l27 79 70 0c-7,-26 -23,-61 -33,-86 -11,-28 -22,-57 -34,-85 -11,-28 -21,-57 -33,-85 -13,-32 -21,-54 -64,-55 -41,-1 -56,20 -67,51 -11,29 -23,57 -34,86 -11,27 -22,57 -33,85 -10,24 -29,64 -34,89z"/>
   <path class="fil2" d="M1779 631c-54,7 -37,6 -92,-1 5,-20 13,-39 20,-59 5,-15 12,-52 25,-53 15,-2 22,37 27,51 7,18 17,42 20,62zm-213 136l72 0 28 -79c21,2 39,7 66,7 28,0 48,-6 69,-7l28 78 69 1c-4,-19 -56,-144 -67,-173 -11,-29 -23,-58 -33,-85 -13,-32 -25,-54 -66,-53 -41,0 -53,22 -65,53 -17,43 -95,234 -101,258z"/>
   <polygon class="fil2" points="1953,767 2021,767 2021,456 1953,455 "/>
   <polygon class="fil3" points="1568,963 1568,854 1590,854 1590,944 1645,944 1645,963 "/>
   <polygon id="1" class="fil3" points="1835,963 1835,853 1858,853 1858,963 "/>
   <polygon id="2" class="fil3" points="2054,963 2054,853 2130,853 2130,872 2076,872 2076,898 2123,898 2123,916 2076,916 2076,963 "/>
   <polygon id="3" class="fil3" points="2323,963 2323,853 2405,853 2405,872 2346,872 2346,896 2401,896 2401,915 2346,915 2346,944 2407,944 2407,963 "/>
  </g>
 </g>
</svg>
