<?xml version="1.0" encoding="UTF-8"?>
<!DOCTYPE svg PUBLIC "-//W3C//DTD SVG 1.1//EN" "http://www.w3.org/Graphics/SVG/1.1/DTD/svg11.dtd">
<!-- Creator: CorelDRAW X6 -->
<svg xmlns="http://www.w3.org/2000/svg" xml:space="preserve" width="55.9202mm" height="31.949mm" version="1.1" style="shape-rendering:geometricPrecision; text-rendering:geometricPrecision; image-rendering:optimizeQuality; fill-rule:evenodd; clip-rule:evenodd"
viewBox="0 0 64116 36632"
 xmlns:xlink="http://www.w3.org/1999/xlink">
 <defs>
  <style type="text/css">
   <![CDATA[
    .fil2 {fill:none}
    .fil0 {fill:#FEFEFE}
    .fil1 {fill:#2D3091}
   ]]>
  </style>
 </defs>
 <g id="Layer_x0020_1">
  <metadata id="CorelCorpID_0Corel-Layer"/>
  <g id="_866090608">
   <g>
    <ellipse class="fil0" cx="32058" cy="18316" rx="16951" ry="17374"/>
    <g>
     <path class="fil1" d="M26991 9606l88 0 0 -87 70 0c1,-56 -6,-87 53,-87l718 0 0 -87 88 0 0 -87 333 0 0 87 87 0 0 175c86,2 86,1 88,87l70 0c2,86 1,86 88,87 0,77 -4,103 87,105 3,137 89,87 350,87 2,86 1,86 87,87l0 87 88 0 0 87 70 0c3,124 77,87 175,87 3,133 96,87 227,87 58,0 51,-31 53,-87l158 0 21 -87c72,-7 65,-11 66,-88 98,0 172,36 175,-87 98,0 172,36 175,-87l315 0c6,77 5,86 88,87 2,86 1,86 87,87 0,98 -36,172 87,175l0 333 -87 0 0 175 -87 0 0 262c-124,3 -88,77 -88,175l-70 0 0 70c-86,2 -86,1 -88,87 -137,3 -87,61 -87,507 0,58 31,51 87,53l0 70c86,2 86,1 88,87l70 0 0 612 -70 0 0 630 158 0c3,137 89,87 350,87 2,86 1,86 87,87l0 70 70 0 0 438 -70 0c0,166 47,259 -87,262 0,183 -48,277 87,280l0 87 70 0c0,167 8,175 175,175 2,86 1,86 88,87 3,113 88,87 175,87l0 70 175 0 0 87c86,2 86,1 87,87l245 0 0 87 595 0 0 87 525 0 0 105 175 0 0 88 245 0c3,124 77,87 175,87 3,137 61,87 508,87 1,56 -6,87 53,87l560 0 0 -87c98,0 172,36 175,-87 56,-1 88,6 88,-53l0 -735c86,-2 86,-1 87,-87 86,-2 86,-1 87,-87l315 0c0,98 -36,172 87,175l0 245 87 0 0 87 88 0 0 87 1120 0c3,-135 96,-87 263,-87l0 -263 -88 0 0 -87 -87 0 0 -157c86,-2 86,-1 87,-87l245 0 0 -87 175 0 0 -175 87 0 0 -175c86,-2 86,-1 88,-87 91,-2 87,-28 87,-105l175 0 0 -87 87 0 0 -87 158 0c2,-86 1,-86 87,-87 3,-124 77,-88 175,-88 2,-86 1,-86 87,-87l0 -70c447,0 504,49 508,-87 86,-2 86,-1 87,-87 86,-2 86,-1 88,-87l140 0c6,73 14,81 87,87 2,82 11,81 87,87l0 420 525 0 0 87 87 0 0 350 -87 0 0 87 -87 0 0 87 -87 0 0 87 -175 0 0 87 -175 0 0 70c-80,7 -86,21 -87,105l-158 0c-2,86 -1,86 -87,87l0 612 -87 0c0,98 36,172 -88,175 0,322 -73,67 -87,245l-70 0 0 385 70 0 0 245 -70 0 0 175 -87 0 0 87 -175 0 0 87 -175 0 0 87 -87 0c0,104 -42,190 87,193l0 770 -87 0 0 175 -88 0 0 175 -140 0c-2,-86 -1,-86 -87,-87l0 -87 -87 0 0 -175 -88 0 0 -175 -87 0 0 -438 -105 0c0,98 36,172 -87,175l0 263c-86,2 -86,1 -88,87l-157 0 0 -87c-124,-3 -88,-77 -88,-175l-70 0 0 -682 70 0 0 -87c91,-2 88,-29 88,-105l87 0 0 -87 87 0 0 -175 -1103 0 0 -87 -88 0 0 -88 -87 0 0 -175 -87 0 0 -175 -87 -21 -1 -66 -613 0 0 70 -87 18 0 174 87 21c3,82 2,82 88,84 0,98 -36,172 87,175l0 158 -87 0 0 87 -87 0 0 87 -88 0c0,104 -42,190 88,193 2,86 1,86 87,87 2,86 1,86 87,87 2,86 1,86 87,87 0,466 -49,522 88,525l0 87 87 0 0 87 87 0 0 158 88 13 -1 250c49,4 70,0 70,53l0 472 -525 0c-58,0 -51,-31 -53,-87l-193 0 0 87c-86,2 -86,1 -87,88l-70 0c-2,86 -1,86 -87,87 -2,86 -1,86 -87,87l0 175 -87 0 0 262 -88 0 0 175 -87 0 0 87c-86,2 -86,1 -87,87l-70 0c-3,124 -77,87 -175,87l0 87 -175 0 0 87 -175 0 0 88 -87 0 0 175c-86,2 -86,1 -87,87 -124,3 -87,77 -87,175l-70 0c-2,86 -1,86 -87,87l0 87 -88 0 0 175 -87 0 0 87 -87 0 0 87 -88 0 0 87 -70 0c-2,86 -1,86 -87,87 -2,86 -1,86 -88,88l0 87 -87 0 0 87 -87 0 0 87 -88 0 0 87 -87 0 0 87 -87 0 0 87c-86,2 -86,1 -87,87 -86,2 -86,1 -88,87l-70 0c-3,124 -77,87 -175,87l0 87 -87 0 0 87 -88 0 0 87c-98,0 -172,-36 -175,87l-70 0 0 87 -87 0 0 88 -175 0 0 87 -175 0 0 87 -87 0 0 927c0,58 31,51 87,53l0 1207 -87 0 0 175 -88 0 0 87c-56,1 -87,-6 -87,52l0 997c-86,2 -86,1 -87,87l-70 0 0 88 -87 0 0 87 -87 0 0 175 -88 0 0 437c-98,0 -172,-36 -175,87l-158 0c-3,124 -77,87 -175,87l0 87 -87 0 0 175 -87 0 0 87c-166,0 -260,-47 -263,88l-228 0 0 -88 -87 0 0 -175 -87 0 0 -87 -88 0 0 -175 -87 0 0 -87 -87 0 0 -175 -87 0 0 -175 -88 0 0 -175 -70 0c0,-363 49,-434 -88,-438l0 -175 -87 0 0 -175 -87 0 0 -87 -88 0 0 -175 -87 0 0 -87 -87 0 0 -175 -70 0c0,-98 36,-172 -87,-175 0,-98 36,-172 -87,-175l0 -262 -88 0 0 -175 -87 0 0 -262 -87 0 0 -175 -87 0 0 -263 -88 0 0 -175 -87 0 0 -262 -70 0c0,-166 47,-259 -87,-262l0 -175 -87 0 0 -262 -88 0 0 -350 -87 0 0 -175 -87 0 0 -350c-135,-3 -87,-96 -87,-262 -124,-3 -88,-77 -88,-175l-70 0 0 -560c0,-58 -31,-51 -88,-53l0 -1837 -105 0 0 87 -87 0 0 262 -87 0 0 87 -87 0 0 87 -88 0 0 87 -158 0 0 87 -508 0 0 -87 -87 0 0 -87 -70 0c-2,-86 -1,-86 -87,-87l0 -87 -175 0 0 -87 -88 0 0 -87 -87 0 0 -87c-98,0 -172,36 -175,-87l-70 0c0,-98 36,-172 -87,-175l0 -333c240,0 329,49 333,-87 126,0 175,38 175,-105l-420 0c-3,-124 -77,-87 -175,-87l0 -87 -87 0 0 -87 -87 0 0 -262 -88 0 0 -175c-119,-3 -87,-64 -87,-158l770 0 0 -87c261,0 347,49 350,-87l245 0 0 -87c204,0 175,10 175,-193l-87 0 0 -175 -88 0 0 -87 -87 0 0 -87 -70 0c0,-261 49,-347 -87,-350l0 -88 -87 0 0 -87 -87 0 0 -87 -88 -13 1 -162 -87 -21 -1 -223c124,-3 87,-77 87,-175 91,-2 88,-28 88,-105l87 0 0 -175 87 0 0 -87 928 0c2,-86 1,-86 87,-87l0 -70c124,-3 88,-77 88,-175 86,-2 86,-1 87,-87 86,-2 86,-1 87,-87 86,-2 86,-1 87,-87 124,-3 88,-77 88,-175l70 0 0 -87 88 0 0 -88c86,-2 86,-1 87,-87 129,-3 87,-88 87,-192l87 0 0 -87 88 0 0 -87 87 0 0 -88 87 0 0 -157c76,-6 68,-10 70,-87 137,-3 87,-89 87,-350l88 0 0 -175c136,-3 87,-96 87,-280l87 0 0 -175 87 0 0 -87 -87 0 0 -87 -87 0 0 -87 -175 0 0 -87c-86,-2 -86,-1 -87,-87l-158 0 0 -87 -87 0 0 -175 -88 0c0,-280 50,-364 -87,-367l0 -420 87 0 0 -577c0,-81 -119,-53 -175,-53l-13 -88 -232 1c-6,-77 -5,-86 -88,-87l0 -507zm-4936 8434c0,1046 33,1749 280,2730 141,560 389,1357 642,1861 145,290 256,550 418,824 164,278 306,517 483,777 390,572 479,621 832,1041 265,315 652,655 946,927 774,714 2152,1482 3161,1826 2127,727 4305,719 6428,17 228,-75 692,-256 899,-361 659,-333 967,-486 1586,-917 133,-93 239,-167 363,-267 119,-97 238,-177 349,-281 109,-103 228,-192 333,-297 109,-110 206,-206 315,-315 1747,-1747 2971,-4394 2971,-7074 0,-993 -47,-1720 -276,-2628 -222,-877 -282,-1032 -619,-1849 -398,-967 -1274,-2232 -1988,-2946 -924,-924 -1672,-1480 -2857,-2078 -1086,-548 -2683,-962 -3973,-962 -1121,0 -1654,29 -2730,298 -1200,300 -2377,869 -3341,1577 -245,180 -455,344 -681,544 -113,100 -216,182 -324,289 -565,566 -948,957 -1417,1663 -161,243 -333,495 -469,756 -134,257 -308,556 -418,825 -119,290 -248,569 -351,874 -100,299 -214,641 -281,962 -139,670 -281,1378 -281,2186z"/>
     <path class="fil1" d="M16331 18356c0,-3435 1020,-6552 2723,-9106 251,-376 1053,-1470 1385,-1800l367 -386c132,-158 678,-699 865,-850 49,-39 76,-79 125,-120 1234,-1035 2031,-1601 3542,-2356 1215,-608 3068,-1208 4501,-1380 1200,-144 1426,-154 2611,-154 615,0 1242,70 1793,150 1538,223 3164,700 4497,1366 1734,867 3205,1904 4532,3291 46,48 57,76 104,123 44,45 79,76 123,122 444,463 1201,1455 1511,1919 133,199 246,393 375,588 277,420 833,1494 1013,1927 621,1501 1073,2948 1263,4599 291,2533 60,4884 -733,7264 -126,379 -386,1082 -551,1427 -573,1201 -1018,2041 -1822,3113 -418,557 -883,1116 -1371,1604 -168,168 -322,322 -490,490 -195,195 -872,753 -1067,911 -773,627 -1528,1078 -2396,1559 -1060,587 -2427,1066 -3599,1354 -1699,418 -3645,540 -5446,306 -485,-63 -814,-119 -1277,-211 -995,-198 -2483,-675 -3362,-1119 -505,-255 -791,-381 -1295,-683 -1387,-829 -2206,-1490 -3342,-2626 -1322,-1322 -2435,-3039 -3198,-4747 -776,-1735 -1383,-4071 -1383,-6579zm-595 -333l0 578c0,1076 202,2656 448,3629 218,862 396,1519 720,2325 565,1410 1282,2718 2193,3932 439,585 896,1132 1413,1649 347,347 666,668 1042,988 188,160 367,301 559,456 410,333 1340,989 1816,1246 431,233 869,512 1340,707 252,104 399,192 702,313 1199,477 1872,669 3148,930 1004,205 2026,273 3088,273 2526,0 4909,-690 6628,-1511 1127,-538 2476,-1338 3423,-2160 667,-579 668,-561 1331,-1224 617,-617 1350,-1501 1833,-2227 424,-636 787,-1223 1132,-1913l490 -1050c361,-814 659,-1828 878,-2692 261,-1033 459,-2508 459,-3618 0,-1087 -16,-1478 -140,-2572 -212,-1864 -879,-3853 -1686,-5471 -117,-234 -245,-446 -362,-671 -112,-215 -250,-425 -378,-638 -365,-610 -846,-1235 -1291,-1789 -849,-1058 -2085,-2189 -3180,-2963 -398,-281 -809,-554 -1248,-800 -1292,-724 -2147,-1107 -3577,-1534 -1382,-413 -3012,-636 -4487,-641 -307,-1 -669,25 -981,35 -738,22 -1937,228 -2664,399 -1227,289 -1929,571 -3047,1049 -425,182 -935,483 -1343,705 -713,389 -2141,1420 -2664,1938l-266 242c-216,168 -644,650 -890,895l-602 693c-496,619 -860,1115 -1280,1783 -137,217 -252,425 -385,647 -310,518 -747,1469 -988,2074 -266,665 -586,1649 -732,2348 -253,1216 -454,2332 -454,3641z"/>
     <path class="fil1" d="M32224 29187l-333 0c-2191,0 -4417,-840 -5981,-1999 -950,-704 -1637,-1409 -2335,-2337l-775 -1220c-152,-254 -319,-608 -438,-892 -526,-1258 -920,-2641 -920,-4417 0,-2606 915,-5076 2448,-6949 272,-332 495,-583 794,-886 64,-65 114,-96 175,-157 543,-544 1258,-1052 1913,-1447 289,-175 580,-312 883,-465 599,-302 1318,-530 1981,-696 1729,-434 3632,-350 5325,129 169,48 349,99 505,160 330,130 657,238 958,390 324,164 543,267 874,456 495,283 764,486 1199,814 208,157 950,809 1063,950l317 348c1223,1320 2106,3082 2509,4858 214,940 232,1426 287,2391 7,119 -5,226 -15,318 -11,99 -1,227 -2,330 -7,448 -145,1375 -233,1780 -156,728 -372,1414 -643,2035 -556,1275 -1243,2277 -2123,3232 -236,256 -766,734 -1040,955 -1703,1372 -3993,2322 -6394,2322zm-11377 -10884c0,1828 424,3414 981,4689 676,1549 1716,3005 2998,4090 256,216 511,436 789,628 581,403 1132,750 1784,1051 2132,984 4661,1345 7148,754 541,-129 1081,-294 1595,-505 490,-202 955,-423 1410,-690 298,-175 585,-344 855,-545 225,-167 590,-428 787,-613l373 -327c113,-88 247,-241 353,-347 1380,-1380 2559,-3392 3008,-5392 431,-1918 436,-3576 17,-5498 -166,-762 -427,-1411 -700,-2065 -219,-524 -669,-1293 -983,-1764 -737,-1106 -1649,-2012 -2705,-2808 -1087,-819 -2388,-1399 -3733,-1780 -348,-98 -778,-179 -1151,-232 -1056,-151 -2176,-151 -3232,0 -1747,249 -3540,1003 -4934,2049 -546,410 -1016,831 -1489,1311 -60,61 -92,111 -157,175 -267,262 -879,1089 -1072,1378 -1179,1767 -1943,4054 -1943,6439z"/>
     <path class="fil1" d="M15211 18338c0,-1863 224,-3085 619,-4683 104,-421 246,-805 380,-1212 479,-1446 1522,-3371 2398,-4532 152,-202 301,-411 466,-601l359 -428c42,-49 87,-106 130,-150l512 -555c153,-199 1109,-1063 1369,-1273 762,-615 1325,-1027 2196,-1549 114,-68 217,-128 333,-192 276,-153 802,-435 1066,-544l726 -325c248,-109 513,-203 772,-296 505,-182 1096,-371 1648,-488 1488,-315 2321,-459 3951,-459 1496,0 2408,171 3779,456 288,60 548,148 831,219 570,142 1403,488 1946,714 225,94 900,417 1072,521 201,122 441,233 687,381 628,378 1918,1246 2462,1773 89,86 193,156 280,245 238,242 591,528 815,795 77,92 177,174 262,263 85,89 160,190 245,280 596,643 1346,1676 1809,2426 170,276 425,721 573,1019 32,65 54,110 87,175l269 536c523,1048 942,2404 1217,3560 864,3633 403,7663 -1019,10922 -427,978 -920,1870 -1484,2716 -283,425 -572,817 -886,1214l-478 572c-73,76 -191,199 -250,275 -102,133 -649,676 -783,810l-271 254c-438,403 -968,825 -1444,1182 -397,298 -824,582 -1258,842 -227,137 -445,247 -672,378 -541,314 -1642,797 -2174,994 -999,369 -2278,692 -3359,841 -3273,454 -6585,-47 -9486,-1469 -476,-234 -923,-463 -1369,-731 -1173,-707 -1994,-1371 -2986,-2282 -414,-381 -662,-684 -1032,-1085l-479 -571c-895,-1093 -1833,-2640 -2381,-3954 -428,-1029 -814,-2078 -1035,-3183 -233,-1167 -416,-2388 -416,-3802zm-193 -367c0,1066 5,1607 145,2689 98,756 328,1926 557,2645 263,827 493,1549 861,2341 692,1488 1423,2678 2460,3945 318,388 659,768 1013,1122l394 394c212,208 740,668 988,867 708,568 1416,1080 2210,1535 219,126 453,269 686,381 232,112 482,254 717,350l745 322c252,109 512,200 773,295 3386,1227 7594,1227 10979,0 653,-237 1629,-633 2245,-975 119,-66 228,-122 343,-182 118,-61 222,-137 344,-198l1611 -1066c450,-335 1065,-842 1462,-1233 52,-51 87,-69 141,-122l411 -412c910,-910 2144,-2517 2752,-3688 59,-114 126,-216 187,-338 64,-130 120,-232 187,-356 32,-60 52,-123 82,-181 32,-63 61,-118 94,-186l484 -1126c342,-871 531,-1557 759,-2460 323,-1275 448,-2828 448,-4189 0,-2465 -559,-4853 -1488,-6981 -586,-1343 -1476,-2834 -2395,-3957 -80,-98 -159,-183 -240,-285 -82,-103 -163,-180 -242,-283 -81,-104 -166,-176 -250,-275 -276,-330 -991,-1025 -1341,-1319 -394,-331 -755,-635 -1172,-945 -2147,-1596 -4851,-2705 -7507,-3081 -2642,-374 -5666,-120 -8131,842 -1020,398 -1932,780 -2855,1363 -222,140 -425,260 -644,406 -222,148 -418,286 -634,434 -200,137 -407,302 -595,455l-1260 1102c-278,273 -665,671 -902,953 -517,614 -923,1082 -1388,1780 -618,929 -862,1397 -1337,2338 -151,299 -351,800 -478,1115 -737,1838 -1220,4178 -1220,6164z"/>
     <path class="fil1" d="M32347 33649c-1542,0 -2486,-87 -3886,-437 -928,-232 -1276,-382 -2095,-705 -229,-90 -431,-206 -650,-295 -244,-100 -972,-504 -1220,-653 -713,-428 -1548,-1033 -2165,-1581 -3282,-2911 -5247,-7075 -5247,-11640 0,-1252 155,-2375 369,-3411 103,-499 253,-1018 408,-1482 475,-1425 1042,-2594 1863,-3825 426,-639 759,-1035 1234,-1601 67,-80 153,-173 227,-246 85,-83 148,-166 236,-254 161,-161 309,-316 472,-473l754 -664c481,-416 1417,-1055 1939,-1369 897,-539 2272,-1152 3302,-1441 2195,-616 3724,-706 5963,-492 548,52 1097,175 1605,286 936,204 1938,594 2790,973 211,94 408,203 619,309 218,109 408,213 610,335 1795,1081 3209,2326 4475,4013 134,178 270,361 395,550 507,765 990,1575 1348,2432 415,993 706,1713 939,2823 108,516 214,1046 279,1611 16,136 32,297 48,425 19,155 10,286 33,440 43,295 0,615 26,919 29,338 -28,1361 -76,1763 -319,2642 -1048,4744 -2473,6942 -126,194 -260,368 -389,556 -127,185 -270,363 -408,537 -277,347 -564,700 -877,1013 -421,421 -743,765 -1206,1139 -466,377 -835,677 -1345,1017 -190,126 -387,242 -578,367 -618,407 -1899,990 -2540,1223 -470,171 -920,320 -1440,450 -1003,251 -2257,444 -3336,444zm-15455 -15486c0,2378 414,4382 1335,6540 363,850 858,1710 1343,2437 292,437 869,1197 1238,1597 77,84 146,165 220,253 75,89 167,158 244,246 158,180 787,785 966,924l514 431c893,729 1883,1307 2915,1828 424,214 879,373 1337,553 467,184 960,306 1460,448 887,252 2365,439 3359,439l490 0c168,0 315,-18 454,-18 132,0 319,-5 453,-20 807,-87 1667,-183 2434,-402 495,-141 980,-263 1447,-443 239,-92 446,-171 680,-265 591,-236 1384,-631 1897,-956 198,-125 389,-237 581,-364 587,-389 827,-591 1355,-1007l750 -668c104,-105 633,-617 713,-722 51,-66 160,-186 223,-249 79,-80 141,-171 219,-254 72,-76 148,-172 216,-257 2136,-2677 3491,-6076 3491,-9774 0,-1401 -115,-2516 -399,-3713 -207,-875 -572,-2039 -955,-2860l-460 -957c-372,-730 -1218,-2013 -1718,-2587 -489,-564 -842,-972 -1382,-1488l-252 -220c-88,-71 -172,-162 -260,-230 -87,-67 -163,-145 -255,-218 -785,-620 -1043,-818 -1969,-1374 -3132,-1879 -7121,-2542 -10925,-1649 -1898,445 -3666,1266 -5247,2384 -186,131 -357,268 -540,405 -279,208 -515,436 -778,657 -95,80 -169,147 -261,229 -354,311 -1093,1130 -1383,1488 -975,1206 -1534,2140 -2190,3550 -409,880 -700,1838 -953,2861 -240,968 -406,2235 -406,3426z"/>
     <path class="fil1" d="M32102 30342c-2352,0 -4570,-695 -6315,-1858 -326,-217 -547,-385 -853,-617 -76,-57 -135,-101 -205,-163 -69,-61 -137,-102 -201,-166 -217,-214 -549,-478 -770,-717 -405,-440 -638,-698 -1012,-1193 -1459,-1933 -2423,-4519 -2423,-7167 0,-1990 327,-3400 1058,-5137 292,-694 660,-1293 1053,-1887 729,-1100 1825,-2221 2913,-2985 609,-428 745,-501 1360,-846 347,-195 1161,-541 1552,-670 484,-160 643,-212 1149,-339 2525,-636 5337,-268 7497,764 170,81 327,156 496,239 169,84 309,174 472,263 482,263 1332,901 1733,1242 1000,848 2033,2112 2660,3273 571,1057 942,1997 1231,3231 178,761 203,1200 264,1959 16,196 34,519 34,718l-83 1388c-164,1343 -399,2304 -932,3530 -299,687 -646,1318 -1044,1914 -316,474 -901,1222 -1324,1651 -494,502 -1012,952 -1586,1372 -807,591 -1957,1217 -2924,1539 -1294,432 -2278,663 -3800,663zm-11499 -18460c-355,0 -157,-420 -35,-420 136,0 135,-16 210,89 42,59 41,60 20,139 -25,95 -82,192 -195,192zm1873 -875l-18 18 18 -18zm0 0l0 0zm298 -385l-244 -58c-11,118 -196,360 -277,104 -47,-149 130,-344 294,-344 280,0 224,50 385,88 -17,62 -119,152 -158,210zm-1558 -962c323,217 367,309 367,630 0,252 -163,420 -420,420 248,-370 39,-612 -263,-612 18,-77 256,-398 315,-437zm1243 1365l-577 893c-808,1399 -1319,2722 -1591,4359 -35,208 -70,430 -89,646 -117,1294 -102,2224 97,3489 177,1128 578,2375 1081,3381 553,1105 1268,2198 2134,3064l376 376c124,121 244,247 377,358 69,58 136,108 200,167 196,181 409,334 625,495 388,292 935,655 1370,871 804,399 1163,601 2091,885 1048,320 1444,368 2478,497 176,22 495,45 687,48 755,11 1368,-31 2106,-135 677,-96 1179,-255 1798,-425 468,-129 1180,-432 1598,-642 792,-396 1109,-625 1846,-1129 242,-166 606,-453 822,-665l752 -735c457,-452 954,-1122 1307,-1651 103,-154 189,-289 285,-450 1154,-1929 1773,-4114 1773,-6416 0,-1133 -176,-2198 -445,-3265 -188,-747 -480,-1470 -804,-2171 -229,-496 -520,-972 -817,-1423 -277,-420 -762,-1093 -1133,-1456 -73,-71 -111,-130 -184,-201 -127,-126 -241,-241 -368,-367 -767,-767 -1828,-1537 -2808,-2022 -256,-127 -490,-255 -756,-364 -176,-73 -346,-141 -538,-215 -674,-258 -1560,-495 -2367,-608 -776,-109 -1945,-187 -2816,-79 -1698,211 -3048,556 -4550,1400 -667,375 -1412,842 -1979,1364l-390 345c-234,180 -519,533 -740,748 -72,70 -111,145 -188,197 -60,-14 -95,-40 -164,-64 -355,-123 -557,7 -606,-6l-673 -552c-56,-44 -183,-168 -238,-183 21,-88 61,-93 105,-175 -75,-50 -150,-139 -227,-157 -21,77 -414,530 -493,645 -498,725 -505,671 -902,1391 -90,164 -374,596 -409,746 79,42 149,81 227,123 184,-275 417,-759 599,-1064 62,-103 263,-456 348,-492 89,-38 228,33 255,129 32,116 -75,227 -116,290 -43,-11 -99,-48 -140,-70 -128,242 -271,477 -403,717 -136,248 -317,552 47,723 335,157 545,-157 653,-373 52,-103 141,-291 59,-445 -66,-123 -175,-203 -357,-203 13,-54 92,-183 122,-227 109,9 223,100 380,84 137,-14 258,-67 342,-149 168,-163 293,-363 293,-687 66,18 179,148 262,192 -89,133 -213,336 -111,531 151,292 360,144 479,116z"/>
     <path class="fil1" d="M25188 6982c-5,0 -105,-65 -105,-105l0 -158c0,-71 190,-161 253,-144 125,35 141,155 150,266 -118,79 -78,140 -298,140zm-1068 -525c-77,0 -116,-50 -142,-103 -208,-426 343,-662 665,-792 324,-132 716,-137 1175,-137 -67,58 -352,161 -461,222l-1237 811zm4323 -1732c6,288 217,330 -24,693 -224,337 -557,228 -588,112 139,-11 298,-165 298,-315 0,-114 -107,-292 -193,-315 41,-56 451,-174 508,-175zm-2783 437c-458,0 -983,115 -1313,245 -194,76 -580,310 -670,503 -221,472 48,613 145,758 -100,67 -195,142 -298,210l140 227c53,-14 191,-121 245,-157 45,86 100,149 154,231 56,85 104,158 163,239 51,69 297,417 312,475 75,-20 244,-163 315,-210 -128,-191 -574,-823 -648,-962l531 -344c191,-114 371,-226 555,-337 244,-147 301,-188 559,-316 198,-98 420,-178 613,-280 18,77 45,73 53,158 -298,158 -677,223 -683,472l-47 -57c-144,181 -1074,493 -1074,827 0,273 164,420 438,420 126,0 867,-288 582,-739 -58,-91 -102,-96 -144,-153 100,-53 185,-107 280,-158 217,409 748,-96 1068,-122l49 56c-37,169 -48,192 -194,270 -394,211 -557,58 -677,58 -51,0 -167,215 -193,263 300,159 748,-51 998,-175 681,-337 387,-753 157,-753 -145,0 -293,86 -408,135 -251,107 -292,186 -468,145 0,-180 92,-159 309,-268 120,-60 292,-121 391,-187l-139 -333c1,0 705,-297 822,-297 59,0 219,125 149,288 -37,87 -235,150 -359,150 24,101 134,257 206,319 370,325 790,93 1072,-232l70 297 350 -87c-14,-160 -280,-982 -280,-1138 116,-10 203,-67 333,-70 20,87 214,1098 241,1119 29,23 330,-57 354,-69 -31,-133 -228,-1008 -228,-1137l158 -31 -47 -268c-200,2 -1290,297 -1523,375l-941 337c-75,26 -162,52 -233,82 -127,54 -605,288 -671,292 -154,9 -405,-70 -577,-70z"/>
     <path class="fil1" d="M39856 7244l0 0zm123 -437c113,76 492,344 560,437 -15,57 -151,219 -193,280 -154,-103 -300,-211 -455,-315 130,-194 108,-238 87,-402zm-5303 -2345c92,8 178,28 254,61 57,24 184,60 254,61 -32,137 -49,353 -135,443 -280,292 -704,268 -775,-40 190,0 316,4 396,-111 75,-109 69,-296 7,-413zm5181 2782c-22,81 -83,112 -105,193 46,63 364,263 403,315 -22,80 -239,309 -298,420 95,64 181,157 280,210 53,-35 673,-855 683,-892 118,10 51,76 193,87 14,-54 105,-158 140,-210 -217,-145 -426,-342 -632,-505 -236,-187 -1097,-811 -1340,-935 -254,-130 -494,-274 -753,-402 -248,-123 -542,-303 -756,-382 -268,-98 -562,-221 -828,-327 -715,-286 -381,-18 -582,-555 -82,-220 -289,-571 -466,-690l-267 258c342,186 487,431 634,739l-893 -245c-75,-41 7,-40 -202,-78 -227,-41 -1051,-203 -1215,-203l-35 263c177,41 490,58 532,133 19,34 41,149 36,177 -26,136 -166,153 -272,130 -232,-49 -201,-132 -191,120 17,419 390,636 716,612 199,-15 295,-81 369,-87l-78 348 357 75 259 -1142c91,59 161,94 302,106l-144 556c-31,121 -136,462 -136,581l348 96 286 -1127c269,62 576,196 834,299 90,36 189,60 253,132 63,71 58,215 -2,290 -70,87 -172,61 -280,27 -120,-37 -455,-204 -564,-206l-95 242c225,115 198,8 232,233 54,358 121,405 420,525 74,30 265,118 353,120l90 -244c-81,-43 -183,-76 -275,-114 -174,-69 -129,-38 -270,-132l0 -158c138,11 317,138 557,15 144,-73 243,-265 195,-470 67,16 223,100 283,137l872 423c173,86 377,220 525,333 77,58 182,120 250,187 91,89 100,166 100,338 -147,98 -162,156 -347,32 -109,-73 -208,-151 -318,-224 -45,67 -103,141 -140,210 27,41 130,109 175,140 -216,451 20,568 336,784 93,64 160,126 259,178 45,-67 103,-141 140,-210 -94,-63 -185,-139 -284,-206 -160,-110 -173,-93 -154,-319 95,22 126,71 250,84 112,12 194,-41 258,-84z"/>
     <path class="fil1" d="M45002 12721c89,-47 125,-88 245,-88 261,0 431,610 35,875 -25,-105 -94,-272 -133,-392 -26,-77 -43,-119 -72,-191 -28,-70 -47,-142 -75,-205zm-560 -595c7,87 82,182 105,280 -201,106 -915,423 -1015,490 19,80 103,254 140,332 125,-29 383,-170 519,-233 111,-51 425,-230 531,-239l475 1345c19,83 -3,22 4,104 4,48 43,187 64,231l-192 55c-57,-109 -137,-248 -263,-282 23,-97 86,-150 86,-280 0,-90 -43,-236 -75,-308 -263,-577 -886,-318 -886,63 0,391 22,243 88,525 96,-8 107,-45 193,-53 0,-172 -126,-336 49,-460 146,-104 371,73 371,180 0,258 3,205 -263,333 77,330 99,175 263,175 100,0 206,84 227,175l-682 195c-1,123 61,254 87,365 153,-36 1017,-308 1103,-315 21,254 100,151 298,105 -3,-147 -127,-395 -134,-528 -7,-134 43,1 -43,-257 -27,-80 -65,-179 -85,-265 162,-108 367,-477 367,-735l0 -105c0,-303 -220,-717 -508,-717 -205,0 -226,22 -403,140 -38,-80 -158,-329 -175,-402 -82,7 -159,67 -245,87z"/>
     <path class="fil1" d="M18502 14681c-329,0 -435,-134 -313,-453 76,-200 258,-334 541,-334 -62,268 -164,515 -227,787zm-210 315l122 0 -86 403 262 70 65 -281 1108 280 91 -365 -1107 -281c6,-77 302,-1072 368,-1208 48,23 147,65 210,70 -48,205 -175,424 -175,665 0,230 162,367 385,367 341,0 596,-484 578,-787l-20 -157 317 34 60 -330 -252 -1c-157,0 -247,-50 -368,-53l-97 294c294,81 67,616 -148,616 -438,0 12,-650 18,-892 -126,-29 -274,-110 -403,-140l103 -316c-50,-27 -189,-81 -260,-87 -7,83 -124,391 -164,519 -31,99 -10,116 -107,138 -246,55 -446,87 -652,293 -418,418 -352,1151 154,1151z"/>
     <path class="fil1" d="M21950 27997l0 0zm-630 -770l0 0zm858 -105l0 0zm0 0c-32,120 -763,1028 -858,1207 46,53 193,200 210,262 107,-2 802,-437 902,-498l900 -517c-14,-53 -184,-248 -227,-280l-1155 700c29,-109 770,-988 805,-1120 -37,-56 -213,-264 -262,-297 -109,58 -1100,628 -1173,647 82,-155 674,-846 823,-1067 -40,-61 -177,-244 -245,-262 -13,48 -540,721 -615,820l-628 825c29,43 209,256 245,280 58,-13 256,-134 318,-172 123,-74 885,-511 959,-528z"/>
     <path class="fil1" d="M41672 8237c104,153 272,273 382,414 62,80 117,129 187,198 48,47 155,165 188,214 -25,37 -473,447 -504,459 -102,40 -252,-79 -306,-140 -139,-158 -91,-151 -48,-337 191,-16 106,-83 273,42 188,142 94,138 182,203l127 -118c-378,-768 -967,-549 -967,-109 0,279 325,558 560,612 -51,77 -102,75 -158,157 47,89 191,209 210,280 92,-24 353,-317 455,-385 44,23 99,45 140,70 79,50 280,218 280,367 0,329 -428,167 -455,-158 -63,5 -109,55 -158,87 6,267 275,630 525,630 379,0 539,-460 197,-844 -69,-78 -256,-267 -354,-293 45,-67 177,-182 245,-227 54,36 314,413 375,500 61,88 326,476 378,514 83,-44 127,-96 210,-140 -63,-119 -729,-1044 -827,-1150 -86,-93 -142,-173 -220,-270 -113,-139 -628,-629 -720,-767l-197 188z"/>
     <path class="fil1" d="M18121 16921c-97,22 -199,98 -284,140 -80,40 -216,88 -263,157 79,21 431,237 543,262l-27 648c106,-10 398,-297 534,-333 183,97 347,238 525,333l-37 -647c175,-40 375,-223 545,-263 -18,-69 -140,-105 -257,-163 -76,-38 -212,-117 -286,-134l32 -648c-69,6 -201,118 -259,158 -336,224 -197,230 -532,7 -68,-45 -202,-148 -273,-165l39 647z"/>
     <path class="fil1" d="M18747 24270c51,96 90,204 140,297l1134 -567c-85,139 -837,1116 -837,1162 0,65 109,257 140,315 146,-77 296,-139 449,-216l1354 -677c-26,-113 -98,-194 -122,-298 -143,33 -439,202 -583,274 -126,63 -482,261 -589,286 94,-141 858,-1143 858,-1172 0,-82 -101,-203 -123,-298 -95,8 -778,372 -910,438 -301,150 -614,298 -910,455z"/>
     <path class="fil1" d="M44937 16920c-170,39 -375,222 -548,263 18,69 140,105 257,163 102,51 198,93 286,152l-22 630 524 -340 525 348 -35 -655c169,-39 374,-222 548,-263 -18,-69 -140,-105 -257,-163 -76,-38 -212,-117 -286,-134l22 -647c-142,36 -392,296 -530,332 -114,-60 -444,-314 -525,-333l41 647z"/>
     <path class="fil1" d="M35402 31044c234,-55 604,-263 683,41 32,125 28,194 -40,259 -65,63 -398,161 -513,188l-130 -488zm-430 -247l410 1480c35,124 123,387 132,498l332 -89 -218 -836c290,-27 203,-114 530,212 100,100 341,317 407,416 102,-49 273,-69 385,-122l-346 -389c-117,-116 -244,-269 -425,-310 54,-73 280,-148 280,-472 0,-285 -186,-647 -490,-647 -166,0 -370,74 -515,115 -134,38 -377,97 -482,148z"/>
     <path class="fil1" d="M23070 30009c91,48 162,119 245,175 103,-69 667,-952 753,-1015l-220 1433c114,29 183,166 308,177 33,-123 1129,-1564 1155,-1662 -65,-44 -201,-168 -280,-175 -14,54 -307,455 -363,530 -124,167 -243,371 -373,520l221 -1453c-63,-46 -204,-184 -291,-191l-1155 1662z"/>
     <path class="fil1" d="M38613 29187c2,100 98,218 143,294l504 861c-102,-24 -1182,-770 -1208,-770 -62,0 -271,138 -298,175 73,139 166,291 251,432 91,151 169,294 258,442 86,142 164,281 251,431 56,96 233,360 255,445 60,-14 227,-122 280,-158 -22,-93 -247,-435 -309,-548 -105,-192 -222,-368 -321,-554 114,27 1140,747 1190,752 55,-15 244,-139 298,-175l-1033 -1767c-67,35 -200,125 -263,140z"/>
     <path class="fil1" d="M46118 20210l-1309 -129c-2,-317 70,-640 437,-640 210,0 663,25 800,163 143,144 86,384 72,607zm-1695 193l1995 209c34,-314 79,-573 70,-874 -22,-702 -1599,-929 -1925,-297 -63,122 -141,762 -141,962z"/>
     <path class="fil1" d="M24996 30902l665 -1155c111,30 438,243 438,437 0,238 -247,616 -365,755 -315,373 -564,9 -738,-38zm-473 122c190,127 684,455 910,455 525,0 1015,-848 1015,-1312 0,-311 -147,-443 -339,-571 -102,-68 -474,-317 -571,-339 -131,248 -992,1667 -1015,1767z"/>
     <path class="fil1" d="M43129 25092c0,-186 81,-332 234,-396 362,-151 1044,303 1044,641 0,125 -19,229 -118,320 -347,322 -1160,-194 -1160,-565zm-368 -70l0 87c0,454 565,845 925,965 963,319 1514,-815 676,-1445 -397,-299 -970,-509 -1378,-102 -97,97 -223,309 -223,495z"/>
     <path class="fil1" d="M18029 22065c0,94 46,241 68,317 32,107 51,208 83,319 60,206 116,418 164,624l331 -92 -223 -906 520 -147 200 811 345 -87 -215 -820c130,-12 289,-79 408,-106l231 874 328 -91c1,-75 -292,-1181 -296,-1187 -35,-55 -249,32 -375,64l-1568 427z"/>
     <path class="fil1" d="M19535 25862c93,176 628,1010 648,1085 99,-8 192,-129 298,-157 -2,-96 -418,-740 -473,-822 164,-87 293,-194 455,-280 73,108 382,659 438,700 100,-27 191,-134 280,-158 -11,-133 -388,-631 -420,-752 112,-26 258,-181 367,-210 51,96 425,717 473,752 90,-48 195,-118 280,-175 -14,-58 -534,-885 -630,-1067 -80,19 -1621,1022 -1715,1085z"/>
     <path class="fil1" d="M40280 27984l683 744c103,112 640,690 713,739l897 -888c-27,-38 -200,-228 -232,-249 -114,30 -517,531 -665,630 -47,-31 -335,-337 -368,-385 46,-31 559,-525 578,-595l-231 -241 -587 578c-107,-73 -183,-223 -302,-302l634 -643 -245 -253 -875 866z"/>
     <path class="fil1" d="M17662 20298l53 350c168,0 672,-140 840,-140 48,0 122,574 122,630l-841 154c-17,44 24,229 31,272 19,116 12,79 224,40 207,-39 387,-71 592,-108 393,-71 808,-130 1183,-217l-56 -332c-259,-1 -539,122 -785,122l-105 -630 770 -144 -49 -347 -1981 350z"/>
     <path class="fil1" d="M30666 31637c0,734 858,508 858,962 0,206 -373,346 -563,91 -78,-104 -50,-193 -102,-301l-315 18c0,515 177,711 640,778 415,60 690,-253 690,-673 0,-655 -719,-599 -829,-817 -50,-98 -46,-115 1,-185 55,-82 78,-101 198,-101 230,0 297,121 315,333l333 0c16,-189 -15,-345 -119,-476 -250,-315 -1106,-342 -1106,371z"/>
     <path class="fil1" d="M32119 31602c0,305 85,511 390,625 243,91 573,86 573,372 0,208 -516,502 -665,-140l-332 53c4,172 91,390 179,485 132,141 212,181 459,207 181,19 401,-66 503,-148 252,-201 402,-950 -308,-1151 -136,-38 -356,-69 -420,-176 -86,-144 -21,-304 235,-304 287,0 238,285 298,280l315 -21c2,-338 -230,-609 -507,-609l-193 0c-291,0 -525,234 -525,525z"/>
     <path class="fil1" d="M22125 8137c14,54 117,180 158,210 140,-94 699,-617 823,-700 38,57 102,118 140,175 -119,80 -560,425 -560,612 0,224 162,245 298,245 176,0 474,-343 655,-466 158,-107 396,104 -62,447 -246,184 -280,89 -453,89 -59,254 -309,385 -53,385 398,0 367,-360 808,-178 76,31 108,74 172,91 78,-52 273,-189 280,-280 -219,-51 -47,-133 -490,-84 33,-49 137,-136 197,-209 234,-291 95,-599 -179,-599 -241,0 -617,507 -735,507 -47,0 -48,-8 -87,-17 0,-162 33,-166 255,-340 110,-86 212,-199 323,-273 -69,-102 -189,-208 -245,-315 31,-46 191,-195 245,-210 -6,-72 -110,-193 -158,-227 -36,10 -1287,1074 -1330,1137z"/>
     <path class="fil1" d="M27782 31672c-74,-34 -325,-121 -406,-140 36,-68 398,-584 438,-612l-32 752zm-1228 437c34,16 282,105 315,105 51,0 262,-332 298,-385 180,86 440,136 613,227 -34,466 -65,468 133,532 65,21 140,58 199,63l38 -2170c-396,-88 -250,-279 -654,311l-634 871c-63,88 -286,363 -308,445z"/>
     <path class="fil1" d="M29774 31444l68 735 -399 -77c5,-65 289,-609 331,-658zm-1085 1347l350 72 211 -422 533 96c100,18 107,8 115,112 40,479 15,381 205,425 56,13 121,32 196,32 0,-200 -52,-427 -71,-629l-151 -1248c-32,-244 5,-247 -73,-277 -30,-12 -250,-50 -300,-50 -36,0 -471,843 -519,933l-496 957z"/>
     <path class="fil1" d="M37164 30604c61,44 435,467 486,543 -67,35 -321,160 -385,175l-101 -718zm-371 -419c0,192 95,836 124,1083 40,344 110,726 138,1069l333 -157 -72 -490c142,-33 473,-238 580,-263 51,34 277,293 315,350 108,-25 257,-108 350,-158l-827 -905c-78,-76 -130,-147 -210,-227 -82,-82 -363,-438 -430,-436 -51,1 -216,115 -300,134z"/>
     <path class="fil1" d="M34378 30887c7,93 48,266 68,366 52,265 194,913 194,1118 0,127 -105,280 -298,280 -320,0 -344,-353 -405,-715l-173 -912 -333 53c0,122 174,982 208,1156 63,314 156,786 579,786l122 0c331,0 648,-218 648,-542 0,-295 -66,-567 -115,-830 -30,-163 -147,-702 -147,-815l-350 55z"/>
     <path class="fil1" d="M30666 3986c0,152 -11,159 18,284l193 0c0,555 -90,1275 362,1528 278,156 739,48 881,-163 -36,-54 -207,-208 -263,-245 -82,123 -142,210 -298,210 -387,0 -315,-631 -315,-980 0,-466 -130,-367 455,-367l0 612c0,89 -84,153 -122,210l298 140c64,-96 175,-193 175,-350l0 -630 123 0 0 -280 -1505 31z"/>
     <path class="fil1" d="M41098 29729c0,-373 -51,-274 -105,-507 -100,0 -282,69 -350,105 38,164 87,71 87,385 0,134 -306,549 -808,-67 -95,-116 -277,-367 -277,-563 0,-161 125,-350 333,-350 119,0 207,73 280,122l193 -297c-138,-92 -270,-216 -502,-202 -521,32 -877,612 -454,1315 260,432 828,903 1336,527 124,-92 267,-260 267,-468z"/>
     <path class="fil1" d="M41886 26370c0,662 966,1399 1529,1126 165,-80 396,-321 396,-549 0,-316 -37,-346 -228,-630 -57,15 -269,150 -298,193 15,54 54,79 89,138 151,258 63,544 -299,544 -220,0 -905,-469 -826,-842 90,-424 504,-229 546,-226 39,-81 101,-240 122,-333 -187,-44 -120,-87 -420,-87 -317,0 -613,358 -613,665z"/>
     <path class="fil1" d="M32329 4252c0,263 364,297 578,297 75,0 95,-20 157,-35l-70 -158c-131,63 -222,40 -280,-70 33,-139 139,-188 294,-137 228,74 248,166 248,330 0,342 -328,215 -718,210 -287,-3 -280,-116 -280,210l175 0c116,500 446,535 928,542 257,4 200,84 227,-245 -145,-12 -297,-29 -455,-35 -175,-7 -266,-58 -280,-227l280 18c310,0 525,-187 525,-490 0,-330 -392,-525 -735,-525 -230,0 -595,36 -595,315z"/>
     <path class="fil1" d="M44105 21749c55,25 267,72 336,88 60,-124 69,-378 122,-490l1610 385 78 -348 -1620 -381c19,-43 106,-436 106,-496l-333 -71 -301 1312z"/>
     <path class="fil1" d="M19220 19038l-1645 124 20 348 1437 -100c313,-43 199,38 233,283 31,230 -75,204 290,187 145,-7 59,-45 50,-404 -5,-170 -21,-335 -33,-491 -7,-90 -12,-174 -17,-245 -14,-181 84,-242 -269,-196 -113,15 -100,6 -90,95 15,120 25,285 25,400z"/>
     <path class="fil1" d="M45474 22940l-1559 -522 -111 328 1897 632c33,-63 350,-1061 350,-1120 0,-35 -267,-111 -315,-122 -43,81 -99,285 -134,391 -43,132 -100,291 -129,414z"/>
     <path class="fil1" d="M26046 31864c49,26 269,129 315,140 44,-189 810,-1721 823,-1872l-294 -146c-88,167 -822,1786 -843,1879z"/>
     <path class="fil1" d="M22528 29519c56,15 180,149 245,192 44,-32 274,-310 325,-375l988 -1165c-38,-56 -195,-209 -262,-227l-1231 1446c-53,60 -62,33 -64,129z"/>
     <path class="fil1" d="M38263 6247c67,0 245,89 245,158 0,87 -5,262 -123,262 -390,0 -350,-420 -122,-420zm-508 105c0,364 479,577 753,577 164,0 298,-195 298,-420 112,26 223,131 333,140l75 -173c-212,-51 -915,-510 -1125,-510 -182,0 -333,201 -333,385z"/>
     <path class="fil1" d="M42674 11321c0,174 116,269 240,259 126,-10 267,-68 267,-206 0,-378 -307,-373 -418,-226 -33,43 -89,106 -89,173z"/>
     <path class="fil1" d="M44371 15643c0,269 521,313 504,-89 -2,-44 -59,-123 -87,-153 -81,-85 -416,-111 -416,241z"/>
     <path class="fil1" d="M42936 8854c0,269 239,284 345,187 72,-65 105,-224 35,-305 -141,-162 -380,-12 -380,118z"/>
     <path class="fil1" d="M23053 6544c-265,0 -235,276 -163,355 201,220 489,-67 311,-276 -20,-24 -112,-79 -148,-79z"/>
     <path class="fil1" d="M46174 18758c0,85 127,53 350,53 84,0 53,-117 53,-333 -212,-29 -182,-21 -403,-17l0 297z"/>
     <path class="fil1" d="M44809 24532c114,55 240,99 350,157 27,-51 118,-254 123,-315 -107,-57 -243,-101 -350,-157 -27,51 -118,254 -123,315z"/>
    </g>
   </g>
   <rect class="fil2" width="64116" height="36632"/>
  </g>
 </g>
</svg>
