<svg width="210" height="30" viewBox="0 0 210 30" fill="none" xmlns="http://www.w3.org/2000/svg">
<path d="M11.0509 5.10646C11.598 4.9415 12.1851 4.9689 12.7145 5.18411C13.2439 5.39932 13.6836 5.78934 13.9604 6.28926L14.0529 6.47556L14.8806 8.31478C15.1318 8.87303 15.2134 9.49281 15.1151 10.097C15.0168 10.7013 14.7431 11.2633 14.328 11.7132L14.1617 11.8782L12.8576 13.0948C12.6225 13.3173 12.7988 14.1788 13.649 15.6517C14.4142 16.977 15.0369 17.5959 15.3432 17.6297H15.397L15.4633 17.6172L18.0264 16.8332C18.3709 16.7276 18.7385 16.7234 19.0853 16.8212C19.4321 16.919 19.7434 17.1146 19.9819 17.3846L20.0957 17.5284L21.7924 19.879C22.1249 20.3397 22.2906 20.9 22.2622 21.4675C22.2338 22.035 22.013 22.5758 21.6361 23.0011L21.4836 23.1586L20.8059 23.8013C20.1974 24.3776 19.4361 24.767 18.6127 24.9233C17.7893 25.0795 16.9383 24.996 16.1609 24.6827C13.7416 23.7075 11.5435 21.4794 9.54674 18.021C7.54623 14.5539 6.71476 11.5319 7.08611 8.94369C7.19848 8.16133 7.52065 7.424 8.01839 6.81001C8.51614 6.19603 9.17088 5.72832 9.91309 5.45655L10.1544 5.37653L11.0509 5.10646V5.10646Z" fill="white"/>
<path d="M45 5C39.48 5 35 9.48 35 15C35 20.52 39.48 25 45 25C50.52 25 55 20.52 55 15C55 9.48 50.52 5 45 5ZM44 22.93C40.05 22.44 37 19.08 37 15C37 14.38 37.08 13.79 37.21 13.21L42 18V19C42 20.1 42.9 21 44 21V22.93ZM50.9 20.39C50.64 19.58 49.9 19 49 19H48V16C48 15.45 47.55 15 47 15H41V13H43C43.55 13 44 12.55 44 12V10H46C47.1 10 48 9.1 48 8V7.59C50.93 8.78 53 11.65 53 15C53 17.08 52.2 18.97 50.9 20.39Z" fill="white"/>
<path fill-rule="evenodd" clip-rule="evenodd" d="M72.6097 9.87809C72.4157 9.87809 72.2296 9.95518 72.0923 10.0924C71.9551 10.2296 71.878 10.4157 71.878 10.6098V15.9756C71.878 16.3798 71.5504 16.7074 71.1463 16.7074C70.7422 16.7074 70.4146 16.3798 70.4146 15.9756V10.6098C70.4146 10.0276 70.6459 9.46927 71.0575 9.05761C71.4692 8.64594 72.0276 8.41467 72.6097 8.41467C73.1919 8.41467 73.7503 8.64594 74.1619 9.05761C74.5736 9.46927 74.8049 10.0276 74.8049 10.6098V15.9756C74.8049 16.3798 74.4773 16.7074 74.0731 16.7074C73.669 16.7074 73.3414 16.3798 73.3414 15.9756V10.6098C73.3414 10.4157 73.2644 10.2296 73.1271 10.0924C72.9899 9.95518 72.8038 9.87809 72.6097 9.87809Z" fill="white"/>
<path fill-rule="evenodd" clip-rule="evenodd" d="M71.1464 14.7562C71.5505 14.7562 71.8781 15.0838 71.8781 15.4879V18.6587C71.8781 21.3526 74.0622 23.5367 76.7561 23.5367H77.2439C79.9379 23.5367 82.122 21.3526 82.122 18.6587V15.4879C82.122 15.0838 82.4496 14.7562 82.8537 14.7562C83.2578 14.7562 83.5854 15.0838 83.5854 15.4879V18.6587C83.5854 22.1608 80.7461 25.0001 77.2439 25.0001H76.7561C73.254 25.0001 70.4147 22.1608 70.4147 18.6587V15.4879C70.4147 15.0838 70.7423 14.7562 71.1464 14.7562Z" fill="white"/>
<path fill-rule="evenodd" clip-rule="evenodd" d="M75.5367 14.2685C75.3426 14.2685 75.1565 14.3456 75.0193 14.4828C74.8821 14.62 74.805 14.8061 74.805 15.0002V17.4392C74.805 17.8433 74.4774 18.1709 74.0733 18.1709C73.6691 18.1709 73.3416 17.8433 73.3416 17.4392V15.0002C73.3416 14.418 73.5728 13.8597 73.9845 13.448C74.3962 13.0363 74.9545 12.8051 75.5367 12.8051C76.1189 12.8051 76.6772 13.0363 77.0889 13.448C77.5005 13.8597 77.7318 14.418 77.7318 15.0002V17.4392C77.7318 17.8433 77.4042 18.1709 77.0001 18.1709C76.596 18.1709 76.2684 17.8433 76.2684 17.4392V15.0002C76.2684 14.8061 76.1913 14.62 76.0541 14.4828C75.9168 14.3456 75.7307 14.2685 75.5367 14.2685Z" fill="white"/>
<path fill-rule="evenodd" clip-rule="evenodd" d="M78.4635 14.2685C78.2694 14.2685 78.0833 14.3456 77.9461 14.4828C77.8089 14.62 77.7318 14.8061 77.7318 15.0002V17.4392C77.7318 17.8433 77.4042 18.1709 77.0001 18.1709C76.596 18.1709 76.2684 17.8433 76.2684 17.4392V15.0002C76.2684 14.418 76.4996 13.8597 76.9113 13.448C77.323 13.0363 77.8813 12.8051 78.4635 12.8051C79.0457 12.8051 79.604 13.0363 80.0157 13.448C80.4273 13.8597 80.6586 14.418 80.6586 15.0002V17.4392C80.6586 17.8433 80.331 18.1709 79.9269 18.1709C79.5228 18.1709 79.1952 17.8433 79.1952 17.4392V15.0002C79.1952 14.8061 79.1181 14.62 78.9809 14.4828C78.8437 14.3456 78.6576 14.2685 78.4635 14.2685Z" fill="white"/>
<path fill-rule="evenodd" clip-rule="evenodd" d="M81.3903 14.2685C81.1963 14.2685 81.0101 14.3456 80.8729 14.4828C80.7357 14.62 80.6586 14.8061 80.6586 15.0002V17.4392C80.6586 17.8433 80.331 18.1709 79.9269 18.1709C79.5228 18.1709 79.1952 17.8433 79.1952 17.4392V15.0002C79.1952 14.418 79.4265 13.8597 79.8381 13.448C80.2498 13.0363 80.8081 12.8051 81.3903 12.8051C81.9725 12.8051 82.5308 13.0363 82.9425 13.448C83.3542 13.8597 83.5854 14.418 83.5854 15.0002V17.4392C83.5854 17.8433 83.2578 18.1709 82.8537 18.1709C82.4496 18.1709 82.122 17.8433 82.122 17.4392V15.0002C82.122 14.8061 82.0449 14.62 81.9077 14.4828C81.7705 14.3456 81.5844 14.2685 81.3903 14.2685Z" fill="white"/>
<path fill-rule="evenodd" clip-rule="evenodd" d="M70.0832 5.60001C70.8668 5.2049 71.7322 4.99938 72.6098 5C73.4873 4.99938 74.3527 5.2049 75.1363 5.60001C75.9199 5.99511 76.5997 6.56875 77.121 7.27471C77.8358 8.23992 78.221 9.40956 78.2195 10.6106C78.219 11.0147 77.891 11.3419 77.4869 11.3415C77.0828 11.341 76.7556 11.013 76.7561 10.6089C76.7572 9.72186 76.4727 8.85806 75.9447 8.14528L75.944 8.14434C75.5589 7.62262 75.0565 7.19868 74.4774 6.90671C73.8984 6.61473 73.2588 6.46289 72.6104 6.46342H72.6092C71.9607 6.46289 71.3211 6.61473 70.7421 6.90671C70.163 7.19868 69.6607 7.62262 69.2755 8.14434L69.2748 8.14528C68.7468 8.85806 68.4624 9.72186 68.4634 10.6089C68.4639 11.013 68.1367 11.341 67.7326 11.3415C67.3285 11.3419 67.0005 11.0147 67 10.6106C66.9986 9.40956 67.3837 8.23993 68.0985 7.27471C68.6198 6.56876 69.2996 5.99511 70.0832 5.60001ZM72.6098 5C72.61 5 72.6102 5 72.6104 5L72.6098 5.73171L72.6092 5C72.6094 5 72.6096 5 72.6098 5Z" fill="white"/>
<path d="M110 5C109.45 5 109 5.45 109 6V7H101V6C101 5.45 100.55 5 100 5C99.45 5 99 5.45 99 6V7H98C96.89 7 96.01 7.9 96.01 9L96 23C96 24.1 96.89 25 98 25H112C113.1 25 114 24.1 114 23V9C114 7.9 113.1 7 112 7H111V6C111 5.45 110.55 5 110 5ZM112 23H98V13H112V23ZM104 16C104 15.45 104.45 15 105 15C105.55 15 106 15.45 106 16C106 16.55 105.55 17 105 17C104.45 17 104 16.55 104 16ZM100 16C100 15.45 100.45 15 101 15C101.55 15 102 15.45 102 16C102 16.55 101.55 17 101 17C100.45 17 100 16.55 100 16ZM108 16C108 15.45 108.45 15 109 15C109.55 15 110 15.45 110 16C110 16.55 109.55 17 109 17C108.45 17 108 16.55 108 16ZM104 20C104 19.45 104.45 19 105 19C105.55 19 106 19.45 106 20C106 20.55 105.55 21 105 21C104.45 21 104 20.55 104 20ZM100 20C100 19.45 100.45 19 101 19C101.55 19 102 19.45 102 20C102 20.55 101.55 21 101 21C100.45 21 100 20.55 100 20ZM108 20C108 19.45 108.45 19 109 19C109.55 19 110 19.45 110 20C110 20.55 109.55 21 109 21C108.45 21 108 20.55 108 20Z" fill="white"/>
<path d="M129.893 12.9464H131.809V18.9732C131.809 19.6361 132.352 20.1785 133.015 20.1785H137.836C138.499 20.1785 139.042 19.6361 139.042 18.9732V12.9464H140.958C142.031 12.9464 142.573 11.6446 141.814 10.8852L136.281 5.35257C135.811 4.88248 135.052 4.88248 134.582 5.35257L129.049 10.8852C128.29 11.6446 128.82 12.9464 129.893 12.9464ZM127 23.7946C127 24.4576 127.542 25 128.205 25H142.67C143.333 25 143.875 24.4576 143.875 23.7946C143.875 23.1317 143.333 22.5893 142.67 22.5893H128.205C127.542 22.5893 127 23.1317 127 23.7946Z" fill="white"/>
<path fill-rule="evenodd" clip-rule="evenodd" d="M157 15C157 14.4477 157.347 14 157.774 14H172.226C172.653 14 173 14.4477 173 15C173 15.5523 172.653 16 172.226 16H157.774C157.347 16 157 15.5523 157 15Z" fill="#6458D8"/>
<path fill-rule="evenodd" clip-rule="evenodd" d="M164.233 7.22676C164.543 6.92441 165.046 6.92441 165.356 7.22676L172.767 14.4526C173.078 14.7549 173.078 15.2451 172.767 15.5474L165.356 22.7732C165.046 23.0756 164.543 23.0756 164.233 22.7732C163.922 22.4709 163.922 21.9807 164.233 21.6784L171.083 15L164.233 8.32163C163.922 8.01929 163.922 7.5291 164.233 7.22676Z" fill="#6458D8"/>
</svg>
