<svg width="21" height="21" viewBox="0 0 21 21" fill="none" xmlns="http://www.w3.org/2000/svg">
<path fill-rule="evenodd" clip-rule="evenodd" d="M0.428467 10.5C0.428467 7.84784 1.48204 5.3043 3.3574 3.42893C5.23276 1.55357 7.7763 0.5 10.4285 0.5C13.0806 0.5 15.6242 1.55357 17.4995 3.42893C19.3749 5.3043 20.4285 7.84784 20.4285 10.5C20.4285 13.1522 19.3749 15.6957 17.4995 17.5711C15.6242 19.4464 13.0806 20.5 10.4285 20.5C7.7763 20.5 5.23276 19.4464 3.3574 17.5711C1.48204 15.6957 0.428467 13.1522 0.428467 10.5H0.428467ZM9.8578 14.78L15.6151 7.58267L14.5751 6.75067L9.6658 12.8853L6.18847 9.988L5.33513 11.012L9.8578 14.7813V14.78Z" fill="#6458D8"/>
</svg>
