<svg width="228" height="64" viewBox="0 0 228 64" fill="none" xmlns="http://www.w3.org/2000/svg">
<path d="M35.8915 56.1224C35.8915 59.7242 34.2118 63.5822 30.6055 63.9493C28.1057 64.2037 25.5599 63.5011 23.3139 61.8413C19.5435 59.055 14.7607 54.7341 10.7712 48.9279C3.8104 38.859 1.10203 28.614 0.142507 20.8298C-0.90982 12.2927 3.93744 4.40096 12.3154 2.23648C12.8519 2.0979 13.4065 1.9631 13.9795 1.83314C17.8222 0.920153 21.6144 0.275141 25.594 0.0197783C29.3968 -0.224233 32.6071 1.81238 34.3881 4.8676C35.8341 7.3479 33.696 9.98434 31.0619 11.1533C22.9299 14.762 17.2627 22.8677 17.2627 32.2886C17.2627 43.0782 24.6964 52.1427 34.7527 54.7023C35.4111 54.8698 35.8915 55.4471 35.8915 56.1224Z" fill="white"/>
<path d="M52.6625 16.1759C54.5223 16.1759 56.03 14.678 56.03 12.8301C56.03 10.9823 54.5223 9.48433 52.6625 9.48433C50.8027 9.48433 49.295 10.9823 49.295 12.8301C49.295 13.4967 49.4912 14.1178 49.8294 14.6394L45.2091 18.9417C44.6784 19.4359 43.9782 19.7109 43.2508 19.7109H27.6828C27.1556 19.7109 26.7282 20.1356 26.7282 20.6594C26.7282 21.1832 27.1556 21.6078 27.6828 21.6078H43.2508C44.4632 21.6078 45.6301 21.1494 46.5147 20.3257L51.2847 15.884C51.7053 16.0716 52.1716 16.1759 52.6625 16.1759Z" fill="white"/>
<path d="M68.7461 23.1673C70.6059 23.1673 72.1136 21.6693 72.1136 19.8215C72.1136 17.9737 70.6059 16.4757 68.7461 16.4757C67.1878 16.4757 65.8767 17.5273 65.4925 18.9552H60.6542C59.4363 18.9552 58.2644 19.4178 57.3786 20.2483L51.639 25.6294C51.1075 26.1277 50.4044 26.4053 49.6736 26.4053H27.6828C27.1556 26.4053 26.7282 26.8299 26.7282 27.3537C26.7282 27.8775 27.1556 28.3022 27.6828 28.3022H49.6736C50.8916 28.3022 52.0635 27.8395 52.9493 27.009L58.6888 21.6279C59.2203 21.1296 59.9235 20.8521 60.6542 20.8521H65.5413C65.9787 22.1956 67.2482 23.1673 68.7461 23.1673Z" fill="white"/>
<path d="M54.7952 37.1498C56.6551 37.1498 58.1627 35.6518 58.1627 33.804C58.1627 31.9561 56.6551 30.4582 54.7952 30.4582C53.1786 30.4582 51.828 31.5901 51.5025 33.0998H27.6828C27.1556 33.0998 26.7282 33.5244 26.7282 34.0482C26.7282 34.572 27.1556 34.9966 27.6828 34.9966H51.648C52.1316 36.2556 53.3583 37.1498 54.7952 37.1498Z" fill="white"/>
<path d="M27.6828 39.7939C27.1556 39.7939 26.7282 40.2185 26.7282 40.7423C26.7282 41.2661 27.1556 41.6907 27.6828 41.6907H40.9811C41.7145 41.6907 42.4198 41.9703 42.9517 42.4715C42.7766 42.8764 42.6796 43.3225 42.6796 43.7912C42.6796 45.639 44.1873 47.137 46.0471 47.137C47.9069 47.137 49.4146 45.639 49.4146 43.7912C49.4146 41.9433 47.9069 40.4454 46.0471 40.4454C45.3536 40.4454 44.709 40.6537 44.1734 41.0107C43.2984 40.2285 42.1616 39.7939 40.9811 39.7939H27.6828Z" fill="white"/>
<path d="M79.8418 33.8969C78.6811 33.8969 78.1007 33.3 78.1007 32.1062V14.4426C78.1007 13.2489 78.6811 12.652 79.8418 12.652C81.023 12.652 81.6135 13.2489 81.6135 14.4426V32.1062C81.6135 33.3 81.023 33.8969 79.8418 33.8969Z" fill="white"/>
<path d="M87.3818 33.8969C86.221 33.8969 85.6407 33.3 85.6407 32.1062V21.0892C85.6407 19.8955 86.16 19.2986 87.1985 19.2986C88.2371 19.2986 88.7768 19.5616 88.8175 20.0877L88.9091 21.0285C89.3164 20.462 89.8561 19.9764 90.5281 19.5717C91.2001 19.1468 91.9943 18.9344 92.9107 18.9344C94.4381 18.9344 95.6803 19.42 96.6374 20.3912C97.6149 21.3624 98.1036 22.7888 98.1036 24.6705V32.1062C98.1036 33.3 97.5334 33.8969 96.393 33.8969C95.2323 33.8969 94.6519 33.3 94.6519 32.1062V25.49C94.6519 24.3367 94.4177 23.4768 93.9493 22.9102C93.4809 22.3235 92.8496 22.0301 92.0554 22.0301C91.1798 22.0301 90.467 22.3336 89.9172 22.9406C89.3673 23.5273 89.0924 24.4075 89.0924 25.581V32.1062C89.0924 33.3 88.5222 33.8969 87.3818 33.8969Z" fill="white"/>
<path d="M107.153 34.2004C106.237 34.2004 105.361 34.0891 104.526 33.8665C103.711 33.6237 102.958 33.2595 102.266 32.7739C101.756 32.43 101.482 32.0556 101.441 31.651C101.42 31.2261 101.583 30.8214 101.93 30.437C102.276 30.0728 102.632 29.9008 102.999 29.921C103.386 29.9413 103.834 30.093 104.343 30.3763C105.157 30.9428 106.155 31.2261 107.336 31.2261C108.171 31.2261 108.772 31.1148 109.139 30.8922C109.525 30.6494 109.719 30.2144 109.719 29.5872C109.719 29.2837 109.627 29.0409 109.444 28.8588C109.261 28.6565 108.915 28.4744 108.405 28.3125C107.917 28.1506 107.194 27.9787 106.237 27.7966C104.811 27.5133 103.671 27.0479 102.815 26.4005C101.96 25.753 101.532 24.7312 101.532 23.3351C101.532 22.4246 101.777 21.6456 102.266 20.9982C102.754 20.3305 103.416 19.8145 104.251 19.4503C105.086 19.0861 106.013 18.904 107.031 18.904C108.619 18.904 109.963 19.2379 111.063 19.9056C111.613 20.1889 111.918 20.5429 111.979 20.9678C112.061 21.3725 111.949 21.767 111.643 22.1515C111.318 22.5561 110.961 22.7585 110.574 22.7585C110.208 22.7585 109.77 22.6472 109.261 22.4246C108.935 22.2425 108.589 22.111 108.222 22.0301C107.876 21.9491 107.499 21.9087 107.092 21.9087C106.338 21.9087 105.799 22.0402 105.473 22.3032C105.168 22.5663 105.015 22.8799 105.015 23.2441C105.015 23.5071 105.086 23.7297 105.229 23.9118C105.392 24.0939 105.697 24.2659 106.145 24.4277C106.593 24.5896 107.245 24.7717 108.1 24.974C109.729 25.3584 110.992 25.9149 111.888 26.6433C112.784 27.3717 113.232 28.3934 113.232 29.7086C113.232 31.1856 112.662 32.3086 111.521 33.0774C110.401 33.8261 108.945 34.2004 107.153 34.2004Z" fill="white"/>
<path d="M120.897 34.2307C119.37 34.2307 118.117 33.7451 117.14 32.7739C116.183 31.8027 115.704 30.3662 115.704 28.4642V21.0892C115.704 19.8955 116.274 19.2986 117.415 19.2986C118.576 19.2986 119.156 19.8955 119.156 21.0892V27.7055C119.156 28.8183 119.39 29.6681 119.858 30.2549C120.347 30.8417 120.979 31.135 121.752 31.135C122.628 31.135 123.341 30.8315 123.891 30.2245C124.44 29.6175 124.715 28.7273 124.715 27.5538V21.0892C124.715 19.8955 125.296 19.2986 126.457 19.2986C127.597 19.2986 128.167 19.8955 128.167 21.0892V32.1062C128.167 32.6728 128.035 33.1179 127.77 33.4416C127.505 33.7451 127.118 33.8969 126.609 33.8969C125.591 33.8969 125.062 33.6338 125.021 33.1078L124.899 32.1669C124.512 32.7132 123.982 33.1988 123.31 33.6237C122.638 34.0284 121.834 34.2307 120.897 34.2307Z" fill="white"/>
<path d="M133.649 33.8969C132.488 33.8969 131.908 33.3 131.908 32.1062V21.0892C131.908 19.8955 132.509 19.2986 133.71 19.2986C134.117 19.2986 134.474 19.3998 134.779 19.6021C135.085 19.7842 135.237 20.1383 135.237 20.6643V21.3624C135.604 20.634 136.174 20.0472 136.948 19.6021C137.742 19.157 138.577 18.9344 139.453 18.9344C140.084 18.9344 140.563 19.1064 140.889 19.4503C141.235 19.7741 141.408 20.2192 141.408 20.7857C141.408 21.3118 141.276 21.6962 141.011 21.939C140.746 22.1818 140.441 22.283 140.094 22.2425C139.931 22.2223 139.758 22.2122 139.575 22.2122C139.392 22.1919 139.188 22.1818 138.964 22.1818C137.966 22.1818 137.111 22.5056 136.398 23.153C135.706 23.8005 135.36 24.711 135.36 25.8845V32.1062C135.36 33.3 134.789 33.8969 133.649 33.8969Z" fill="white"/>
<path d="M149.498 33.9576C149.05 33.9576 148.622 33.8362 148.215 33.5934C147.807 33.3506 147.512 32.9763 147.329 32.4704L143.083 21.3624C142.839 20.7149 142.808 20.2091 142.991 19.8449C143.195 19.4807 143.623 19.2986 144.274 19.2986C145.333 19.2986 146.026 19.7741 146.351 20.725L149.498 29.5265L152.675 20.725C153 19.7741 153.683 19.2986 154.721 19.2986C155.271 19.2986 155.638 19.4807 155.821 19.8449C156.004 20.2091 155.984 20.7149 155.76 21.3624L151.667 32.4401C151.483 32.9459 151.188 33.3303 150.781 33.5934C150.373 33.8362 149.946 33.9576 149.498 33.9576Z" fill="white" fill-opacity="0.5"/>
<path d="M164.812 34.2307C162.674 34.2307 160.943 33.5934 159.619 32.3187C158.296 31.0238 157.634 29.1117 157.634 26.5826C157.634 25.0044 157.929 23.6487 158.52 22.5157C159.11 21.3624 159.935 20.4822 160.994 19.8752C162.053 19.248 163.265 18.9344 164.629 18.9344C165.993 18.9344 167.154 19.248 168.111 19.8752C169.068 20.5025 169.801 21.3118 170.311 22.3032C170.82 23.2947 171.074 24.3266 171.074 25.3989C171.074 26.1475 170.922 26.6433 170.616 26.8861C170.311 27.1086 169.863 27.2199 169.272 27.2199H161.024C161.106 28.6767 161.493 29.7187 162.185 30.3459C162.878 30.9529 163.774 31.2564 164.873 31.2564C166.116 31.2564 167.083 30.8315 167.775 29.9817C168.183 29.5568 168.559 29.2837 168.905 29.1623C169.272 29.0207 169.659 29.0915 170.066 29.3747C170.474 29.658 170.708 30.0222 170.769 30.4673C170.83 30.9125 170.647 31.3778 170.219 31.8634C169.527 32.693 168.732 33.3 167.836 33.6844C166.94 34.0486 165.932 34.2307 164.812 34.2307ZM161.177 24.5795H167.684C167.521 23.6285 167.164 22.9001 166.614 22.3943C166.085 21.8682 165.403 21.6052 164.568 21.6052C163.672 21.6052 162.929 21.848 162.338 22.3336C161.768 22.8192 161.381 23.5678 161.177 24.5795Z" fill="white" fill-opacity="0.5"/>
<path d="M176.068 33.8969C174.907 33.8969 174.327 33.3 174.327 32.1062V21.0892C174.327 19.8955 174.846 19.2986 175.885 19.2986C176.923 19.2986 177.463 19.5616 177.504 20.0877L177.595 21.0285C178.003 20.462 178.542 19.9764 179.214 19.5717C179.886 19.1468 180.681 18.9344 181.597 18.9344C183.124 18.9344 184.367 19.42 185.324 20.3912C186.301 21.3624 186.79 22.7888 186.79 24.6705V32.1062C186.79 33.3 186.22 33.8969 185.079 33.8969C183.919 33.8969 183.338 33.3 183.338 32.1062V25.49C183.338 24.3367 183.104 23.4768 182.636 22.9102C182.167 22.3235 181.536 22.0301 180.742 22.0301C179.866 22.0301 179.153 22.3336 178.604 22.9406C178.054 23.5273 177.779 24.4075 177.779 25.581V32.1062C177.779 33.3 177.209 33.8969 176.068 33.8969Z" fill="white" fill-opacity="0.5"/>
<path d="M195.976 34.2307C194.53 34.2307 193.42 33.9677 192.646 33.4416C191.893 32.9156 191.516 31.8634 191.516 30.2852V22.2425H190.508C189.307 22.2425 188.706 21.7468 188.706 20.7554C188.706 20.29 188.828 19.9359 189.072 19.6931C189.337 19.4301 189.805 19.2986 190.478 19.2986H191.516V15.9601C191.516 14.7663 192.096 14.1695 193.257 14.1695C194.377 14.1695 194.937 14.7663 194.937 15.9601V19.2986H197.198C198.399 19.2986 199 19.7842 199 20.7554C199 21.7468 198.409 22.2425 197.228 22.2425H194.937V29.4051C194.937 30.093 195.1 30.5584 195.426 30.8012C195.772 31.044 196.261 31.1654 196.892 31.1654C197.544 31.1654 198.053 31.2463 198.42 31.4082C198.807 31.5498 199 31.9342 199 32.5615C199 33.0673 198.847 33.4416 198.542 33.6844C198.257 33.907 197.88 34.0486 197.412 34.1093C196.964 34.1903 196.485 34.2307 195.976 34.2307Z" fill="white" fill-opacity="0.5"/>
<path d="M79.3569 51.0939C78.9369 51.0939 78.5627 50.9952 78.2343 50.7979C77.9059 50.5931 77.6425 50.3085 77.4439 49.9443V50.65C77.4439 50.7638 77.4134 50.8473 77.3523 50.9004C77.2912 50.9459 77.211 50.9687 77.1117 50.9687C76.8903 50.9687 76.7795 50.8435 76.7795 50.5931V43.127C76.7795 42.8766 76.8979 42.7514 77.1346 42.7514C77.3637 42.7514 77.4783 42.8766 77.4783 43.127V46.4731C77.6768 46.1392 77.9365 45.8775 78.2572 45.6878C78.578 45.4905 78.9445 45.3919 79.3569 45.3919C79.8456 45.3919 80.2809 45.5133 80.6628 45.7561C81.0446 45.9913 81.3424 46.3213 81.5562 46.7462C81.7777 47.1711 81.8884 47.6681 81.8884 48.2372C81.8884 48.8062 81.7777 49.307 81.5562 49.7395C81.3424 50.1644 81.0446 50.4982 80.6628 50.741C80.2809 50.9762 79.8456 51.0939 79.3569 51.0939ZM79.3454 50.4451C79.7044 50.4451 80.0213 50.3541 80.2962 50.172C80.5788 49.9899 80.8002 49.7357 80.9606 49.4094C81.121 49.0756 81.2011 48.6848 81.2011 48.2372C81.2011 47.7895 81.121 47.4026 80.9606 47.0763C80.8002 46.75 80.5788 46.4958 80.2962 46.3137C80.0213 46.1316 79.7044 46.0406 79.3454 46.0406C78.8032 46.0406 78.3565 46.2417 78.0052 46.6438C77.6539 47.0384 77.4783 47.5695 77.4783 48.2372C77.4783 48.9049 77.6539 49.4398 78.0052 49.8419C78.3565 50.2441 78.8032 50.4451 79.3454 50.4451Z" fill="white"/>
<path d="M83.3413 53.427C83.2649 53.427 83.1885 53.4232 83.1122 53.4156C83.0434 53.408 82.9709 53.3966 82.8945 53.3815C82.6654 53.3587 82.5509 53.2335 82.5509 53.0059C82.5509 52.8086 82.6501 52.7214 82.8487 52.7441C83.0014 52.7669 83.1503 52.7783 83.2954 52.7783C83.578 52.7783 83.788 52.7138 83.9255 52.5848C84.0629 52.4634 84.1927 52.2471 84.3149 51.9361L84.6815 50.9687L82.6998 45.9496C82.6463 45.8206 82.6387 45.7181 82.6769 45.6423C82.7151 45.5588 82.7876 45.5171 82.8945 45.5171H82.9289C83.1351 45.5171 83.2802 45.6157 83.3642 45.813L85.0022 50.1037L86.583 45.8244C86.6517 45.6195 86.793 45.5171 87.0068 45.5171C87.129 45.5171 87.213 45.5588 87.2589 45.6423C87.3047 45.7181 87.3047 45.8206 87.2589 45.9496L84.9335 52.1523C84.7731 52.5924 84.5708 52.9148 84.3264 53.1197C84.082 53.3246 83.7536 53.427 83.3413 53.427Z" fill="white"/>
<path d="M94.0481 51.0939C93.5518 51.0939 93.1088 50.98 92.7194 50.7524C92.3375 50.5172 92.0359 50.1871 91.8144 49.7623C91.6006 49.3298 91.4937 48.8214 91.4937 48.2372C91.4937 47.6681 91.6006 47.1711 91.8144 46.7462C92.0359 46.3213 92.3375 45.9913 92.7194 45.7561C93.1012 45.5133 93.5365 45.3919 94.0252 45.3919C94.5216 45.3919 94.9416 45.5133 95.2853 45.7561C95.6366 45.9989 95.9038 46.3062 96.0871 46.678C96.2704 47.0497 96.362 47.4291 96.362 47.8161C96.362 47.9526 96.3277 48.0475 96.2589 48.1006C96.1978 48.1537 96.1062 48.1803 95.984 48.1803H92.1924C92.1772 48.8631 92.3375 49.417 92.6735 49.8419C93.0172 50.2592 93.4792 50.4679 94.0596 50.4679C94.7774 50.4679 95.312 50.1454 95.6633 49.5005C95.816 49.3032 95.9726 49.2501 96.1329 49.3411C96.3315 49.4701 96.3582 49.6409 96.2131 49.8533C95.732 50.6803 95.0104 51.0939 94.0481 51.0939ZM92.2383 47.5884H95.6747C95.6366 47.2925 95.5411 47.0232 95.3884 46.7804C95.2433 46.5376 95.0524 46.3441 94.8156 46.1999C94.5865 46.0558 94.3231 45.9837 94.0252 45.9837C93.5594 45.9837 93.1661 46.1279 92.8454 46.4162C92.5323 46.6969 92.3299 47.0877 92.2383 47.5884Z" fill="white"/>
<path d="M99.5337 50.98C99.4497 50.98 99.3695 50.9573 99.2932 50.9118C99.2168 50.8586 99.1595 50.779 99.1213 50.6727L97.2427 45.9496C97.1893 45.8206 97.1816 45.7181 97.2198 45.6423C97.2656 45.5588 97.3496 45.5171 97.4718 45.5171C97.6933 45.5171 97.8384 45.6157 97.9071 45.813L99.5223 49.9785L101.092 45.813C101.176 45.6157 101.321 45.5171 101.527 45.5171C101.641 45.5171 101.718 45.5588 101.756 45.6423C101.794 45.7181 101.79 45.8206 101.745 45.9496L99.9346 50.6614C99.8506 50.8738 99.717 50.98 99.5337 50.98Z" fill="white"/>
<path d="M105.112 51.0939C104.615 51.0939 104.172 50.98 103.783 50.7524C103.401 50.5172 103.099 50.1871 102.878 49.7623C102.664 49.3298 102.557 48.8214 102.557 48.2372C102.557 47.6681 102.664 47.1711 102.878 46.7462C103.099 46.3213 103.401 45.9913 103.783 45.7561C104.165 45.5133 104.6 45.3919 105.089 45.3919C105.585 45.3919 106.005 45.5133 106.349 45.7561C106.7 45.9989 106.967 46.3062 107.151 46.678C107.334 47.0497 107.425 47.4291 107.425 47.8161C107.425 47.9526 107.391 48.0475 107.322 48.1006C107.261 48.1537 107.17 48.1803 107.047 48.1803H103.256C103.241 48.8631 103.401 49.417 103.737 49.8419C104.081 50.2592 104.543 50.4679 105.123 50.4679C105.841 50.4679 106.375 50.1454 106.727 49.5005C106.879 49.3032 107.036 49.2501 107.196 49.3411C107.395 49.4701 107.422 49.6409 107.277 49.8533C106.795 50.6803 106.074 51.0939 105.112 51.0939ZM103.302 47.5884H106.738C106.7 47.2925 106.605 47.0232 106.452 46.7804C106.307 46.5376 106.116 46.3441 105.879 46.1999C105.65 46.0558 105.386 45.9837 105.089 45.9837C104.623 45.9837 104.23 46.1279 103.909 46.4162C103.596 46.6969 103.393 47.0877 103.302 47.5884Z" fill="white"/>
<path d="M109.229 50.9687C108.992 50.9687 108.874 50.8435 108.874 50.5931V45.8926C108.874 45.6423 108.996 45.5171 109.24 45.5171C109.332 45.5171 109.408 45.5436 109.469 45.5967C109.538 45.6423 109.572 45.7219 109.572 45.8357V46.4617C109.725 46.143 109.966 45.8851 110.294 45.6878C110.63 45.4829 111 45.3805 111.405 45.3805C111.604 45.3805 111.76 45.4108 111.875 45.4715C111.989 45.5247 112.047 45.6195 112.047 45.7561C112.047 45.8699 112.012 45.9534 111.943 46.0065C111.882 46.0596 111.806 46.0823 111.714 46.0747C111.661 46.0747 111.6 46.0709 111.531 46.0634C111.47 46.0558 111.405 46.052 111.336 46.052C111.016 46.052 110.722 46.1279 110.454 46.2796C110.187 46.4238 109.973 46.621 109.813 46.8714C109.66 47.1142 109.584 47.3912 109.584 47.7023V50.5931C109.584 50.8435 109.465 50.9687 109.229 50.9687Z" fill="white"/>
<path d="M115.128 50.98C115.044 50.98 114.963 50.9573 114.887 50.9118C114.811 50.8586 114.753 50.779 114.715 50.6727L112.837 45.9496C112.783 45.8206 112.776 45.7181 112.814 45.6423C112.86 45.5588 112.944 45.5171 113.066 45.5171C113.287 45.5171 113.432 45.6157 113.501 45.813L115.116 49.9785L116.686 45.813C116.77 45.6157 116.915 45.5171 117.121 45.5171C117.235 45.5171 117.312 45.5588 117.35 45.6423C117.388 45.7181 117.384 45.8206 117.338 45.9496L115.529 50.6614C115.445 50.8738 115.311 50.98 115.128 50.98Z" fill="white"/>
<path d="M120.705 51.0939C120.209 51.0939 119.766 50.98 119.377 50.7524C118.995 50.5172 118.693 50.1871 118.472 49.7623C118.258 49.3298 118.151 48.8214 118.151 48.2372C118.151 47.6681 118.258 47.1711 118.472 46.7462C118.693 46.3213 118.995 45.9913 119.377 45.7561C119.759 45.5133 120.194 45.3919 120.683 45.3919C121.179 45.3919 121.599 45.5133 121.943 45.7561C122.294 45.9989 122.561 46.3062 122.744 46.678C122.928 47.0497 123.019 47.4291 123.019 47.8161C123.019 47.9526 122.985 48.0475 122.916 48.1006C122.855 48.1537 122.764 48.1803 122.641 48.1803H118.85C118.835 48.8631 118.995 49.417 119.331 49.8419C119.675 50.2592 120.137 50.4679 120.717 50.4679C121.435 50.4679 121.969 50.1454 122.321 49.5005C122.473 49.3032 122.63 49.2501 122.79 49.3411C122.989 49.4701 123.016 49.6409 122.87 49.8533C122.389 50.6803 121.668 51.0939 120.705 51.0939ZM118.896 47.5884H122.332C122.294 47.2925 122.198 47.0232 122.046 46.7804C121.901 46.5376 121.71 46.3441 121.473 46.1999C121.244 46.0558 120.98 45.9837 120.683 45.9837C120.217 45.9837 119.823 46.1279 119.503 46.4162C119.19 46.6969 118.987 47.0877 118.896 47.5884Z" fill="white"/>
<path d="M124.823 50.9687C124.586 50.9687 124.467 50.8435 124.467 50.5931V45.8926C124.467 45.6423 124.578 45.5171 124.8 45.5171C125.021 45.5171 125.132 45.6005 125.132 45.7675L125.143 46.291C125.319 46.033 125.552 45.8168 125.842 45.6423C126.14 45.4677 126.476 45.3805 126.85 45.3805C127.438 45.3805 127.912 45.5664 128.271 45.9382C128.629 46.31 128.809 46.8411 128.809 47.5315V50.5931C128.809 50.8435 128.694 50.9687 128.465 50.9687C128.236 50.9687 128.122 50.8435 128.122 50.5931V47.634C128.122 47.1028 127.992 46.7045 127.732 46.4389C127.48 46.1734 127.152 46.0406 126.747 46.0406C126.442 46.0406 126.167 46.1089 125.922 46.2455C125.686 46.3745 125.498 46.5528 125.361 46.7804C125.231 47.0004 125.166 47.247 125.166 47.5202V50.5931C125.166 50.8435 125.052 50.9687 124.823 50.9687Z" fill="white"/>
<path d="M132.438 51.0939C131.949 51.0939 131.582 50.9914 131.338 50.7866C131.094 50.5817 130.971 50.2137 130.971 49.6826V46.1544H130.158C129.906 46.1544 129.78 46.0444 129.78 45.8244C129.78 45.6195 129.906 45.5171 130.158 45.5171H130.971V43.8896C130.971 43.6392 131.086 43.514 131.315 43.514C131.544 43.514 131.659 43.6392 131.659 43.8896V45.5171H132.953C133.205 45.5171 133.331 45.6195 133.331 45.8244C133.331 46.0444 133.205 46.1544 132.953 46.1544H131.659V49.5688C131.659 49.9102 131.731 50.1454 131.876 50.2744C132.021 50.3958 132.247 50.4565 132.552 50.4565C132.59 50.4565 132.629 50.4565 132.667 50.4565C132.713 50.4489 132.755 50.4451 132.793 50.4451C132.946 50.4375 133.072 50.4451 133.171 50.4679C133.278 50.4831 133.331 50.5627 133.331 50.7069C133.331 50.8738 133.24 50.98 133.056 51.0256C132.873 51.0711 132.667 51.0939 132.438 51.0939Z" fill="white"/>
</svg>
