<svg width="140" height="45" viewBox="0 0 140 45" fill="none" xmlns="http://www.w3.org/2000/svg">
<path d="M25.2362 39.461C25.2362 41.9936 24.0552 44.7062 21.5195 44.9643C19.7618 45.1432 17.9718 44.6492 16.3926 43.4822C13.7415 41.5231 10.3787 38.4849 7.57353 34.4025C2.67918 27.3227 0.774868 20.1192 0.100201 14.646C-0.639717 8.64332 2.76851 3.09443 8.65929 1.57253C9.03647 1.47508 9.42646 1.3803 9.82936 1.28893C12.5313 0.646983 15.1976 0.193458 17.9958 0.0139066C20.6696 -0.157664 22.9268 1.27433 24.1792 3.42253C25.1958 5.16649 23.6925 7.02024 21.8404 7.84215C16.1226 10.3795 12.1378 16.0789 12.1378 22.7029C12.1378 30.2893 17.3646 36.6629 24.4355 38.4625C24.8984 38.5803 25.2362 38.9863 25.2362 39.461Z" fill="white"/>
<path d="M37.0283 11.3737C38.336 11.3737 39.3961 10.3204 39.3961 9.02119C39.3961 7.72193 38.336 6.66867 37.0283 6.66867C35.7206 6.66867 34.6606 7.72193 34.6606 9.02119C34.6606 9.48988 34.7985 9.92656 35.0363 10.2933L31.7877 13.3184C31.4145 13.6659 30.9222 13.8592 30.4107 13.8592H19.4645C19.0938 13.8592 18.7933 14.1578 18.7933 14.5261C18.7933 14.8944 19.0938 15.193 19.4645 15.193H30.4107C31.2632 15.193 32.0837 14.8707 32.7056 14.2915L36.0595 11.1684C36.3553 11.3003 36.6832 11.3737 37.0283 11.3737Z" fill="white"/>
<path d="M48.3371 16.2895C49.6448 16.2895 50.7048 15.2362 50.7048 13.937C50.7048 12.6377 49.6448 11.5845 48.3371 11.5845C47.2414 11.5845 46.3196 12.3239 46.0494 13.3279H42.6475C41.7911 13.3279 40.9672 13.6531 40.3443 14.2371L36.3087 18.0207C35.935 18.3711 35.4406 18.5662 34.9268 18.5662H19.4645C19.0938 18.5662 18.7933 18.8648 18.7933 19.2331C18.7933 19.6014 19.0938 19.9 19.4645 19.9H34.9268C35.7832 19.9 36.6071 19.5747 37.23 18.9907L41.2656 15.2071C41.6393 14.8568 42.1337 14.6616 42.6475 14.6616H46.0838C46.3913 15.6063 47.2839 16.2895 48.3371 16.2895Z" fill="white"/>
<path d="M38.5279 26.1209C39.8356 26.1209 40.8957 25.0677 40.8957 23.7684C40.8957 22.4692 39.8356 21.4159 38.5279 21.4159C37.3912 21.4159 36.4415 22.2118 36.2127 23.2733H19.4645C19.0938 23.2733 18.7933 23.5718 18.7933 23.9401C18.7933 24.3084 19.0938 24.607 19.4645 24.607H36.315C36.655 25.4922 37.5175 26.1209 38.5279 26.1209Z" fill="white"/>
<path d="M19.4645 27.9801C19.0938 27.9801 18.7933 28.2786 18.7933 28.6469C18.7933 29.0152 19.0938 29.3138 19.4645 29.3138H28.8148C29.3305 29.3138 29.8264 29.5104 30.2004 29.8628C30.0773 30.1475 30.0091 30.4612 30.0091 30.7907C30.0091 32.0899 31.0692 33.1432 32.3768 33.1432C33.6845 33.1432 34.7446 32.0899 34.7446 30.7907C34.7446 29.4914 33.6845 28.4382 32.3768 28.4382C31.8892 28.4382 31.436 28.5846 31.0594 28.8356C30.4442 28.2857 29.6449 27.9801 28.8148 27.9801H19.4645Z" fill="white"/>
<path d="M56.1388 23.8337C55.3226 23.8337 54.9145 23.4141 54.9145 22.5747V10.155C54.9145 9.3156 55.3226 8.89592 56.1388 8.89592C56.9693 8.89592 57.3845 9.3156 57.3845 10.155V22.5747C57.3845 23.4141 56.9693 23.8337 56.1388 23.8337Z" fill="white"/>
<path d="M61.4403 23.8337C60.6242 23.8337 60.2161 23.4141 60.2161 22.5747V14.8284C60.2161 13.989 60.5812 13.5693 61.3115 13.5693C62.0417 13.5693 62.4212 13.7543 62.4498 14.1242L62.5142 14.7857C62.8006 14.3873 63.1801 14.0459 63.6526 13.7614C64.1251 13.4626 64.6835 13.3132 65.3279 13.3132C66.4018 13.3132 67.2752 13.6547 67.9482 14.3376C68.6355 15.0204 68.9791 16.0234 68.9791 17.3465V22.5747C68.9791 23.4141 68.5782 23.8337 67.7764 23.8337C66.9602 23.8337 66.5521 23.4141 66.5521 22.5747V17.9226C66.5521 17.1117 66.3874 16.5071 66.0581 16.1088C65.7288 15.6962 65.2849 15.4899 64.7265 15.4899C64.1108 15.4899 63.6096 15.7033 63.223 16.1301C62.8364 16.5427 62.6431 17.1615 62.6431 17.9866V22.5747C62.6431 23.4141 62.2422 23.8337 61.4403 23.8337Z" fill="white"/>
<path d="M75.342 24.0471C74.6976 24.0471 74.0819 23.9689 73.4949 23.8124C72.9221 23.6417 72.3923 23.3856 71.9055 23.0442C71.5475 22.8023 71.3542 22.5391 71.3256 22.2546C71.3113 21.9558 71.4258 21.6713 71.6692 21.401C71.9127 21.1449 72.1632 21.024 72.421 21.0382C72.693 21.0525 73.008 21.1592 73.366 21.3583C73.9388 21.7567 74.6404 21.9558 75.4709 21.9558C76.0579 21.9558 76.4803 21.8776 76.7381 21.7211C77.0101 21.5504 77.1461 21.2445 77.1461 20.8035C77.1461 20.5901 77.0817 20.4194 76.9528 20.2913C76.824 20.1491 76.5806 20.021 76.2226 19.9072C75.8789 19.7934 75.3706 19.6725 74.6976 19.5445C73.6953 19.3453 72.8935 19.0181 72.2921 18.5628C71.6907 18.1076 71.39 17.3891 71.39 16.4075C71.39 15.7673 71.5619 15.2196 71.9055 14.7643C72.2492 14.2949 72.7145 13.9321 73.3016 13.676C73.8886 13.4199 74.5401 13.2919 75.2561 13.2919C76.3729 13.2919 77.318 13.5266 78.0912 13.9961C78.4778 14.1953 78.6926 14.4443 78.7355 14.743C78.7928 15.0275 78.714 15.305 78.4993 15.5753C78.2702 15.8598 78.0196 16.0021 77.7475 16.0021C77.4898 16.0021 77.1819 15.9238 76.824 15.7673C76.5949 15.6393 76.3515 15.5468 76.0937 15.4899C75.8503 15.433 75.5854 15.4045 75.299 15.4045C74.7692 15.4045 74.3898 15.497 74.1607 15.682C73.9459 15.8669 73.8385 16.0874 73.8385 16.3435C73.8385 16.5284 73.8886 16.6849 73.9889 16.813C74.1034 16.941 74.3182 17.0619 74.6332 17.1757C74.9482 17.2895 75.4064 17.4176 76.0078 17.5599C77.1533 17.8302 78.0411 18.2214 78.6711 18.7335C79.3011 19.2457 79.6161 19.9641 79.6161 20.8889C79.6161 21.9274 79.2152 22.717 78.4134 23.2576C77.6258 23.7839 76.602 24.0471 75.342 24.0471Z" fill="white"/>
<path d="M85.0058 24.0685C83.9319 24.0685 83.0513 23.727 82.364 23.0442C81.691 22.3613 81.3545 21.3512 81.3545 20.0139V14.8284C81.3545 13.989 81.7554 13.5693 82.5573 13.5693C83.3734 13.5693 83.7815 13.989 83.7815 14.8284V19.4804C83.7815 20.2629 83.9462 20.8604 84.2755 21.273C84.6191 21.6855 85.063 21.8918 85.6071 21.8918C86.2228 21.8918 86.724 21.6784 87.1106 21.2516C87.4972 20.8248 87.6905 20.1989 87.6905 19.3737V14.8284C87.6905 13.989 88.0986 13.5693 88.9148 13.5693C89.7166 13.5693 90.1175 13.989 90.1175 14.8284V22.5747C90.1175 22.973 90.0245 23.286 89.8383 23.5136C89.6522 23.727 89.3801 23.8337 89.0221 23.8337C88.3062 23.8337 87.9339 23.6488 87.9053 23.2789L87.8194 22.6174C87.5473 23.0015 87.175 23.3429 86.7025 23.6417C86.23 23.9262 85.6644 24.0685 85.0058 24.0685Z" fill="white"/>
<path d="M93.972 23.8337C93.1558 23.8337 92.7477 23.4141 92.7477 22.5747V14.8284C92.7477 13.989 93.1701 13.5693 94.0149 13.5693C94.3013 13.5693 94.5519 13.6405 94.7667 13.7827C94.9815 13.9108 95.0889 14.1597 95.0889 14.5296V15.0204C95.3466 14.5083 95.7475 14.0957 96.2916 13.7827C96.85 13.4697 97.4371 13.3132 98.0528 13.3132C98.4967 13.3132 98.8332 13.4342 99.0623 13.676C99.3057 13.9036 99.4274 14.2166 99.4274 14.615C99.4274 14.9849 99.3343 15.2552 99.1482 15.4259C98.9621 15.5966 98.7473 15.6677 98.5039 15.6393C98.3893 15.6251 98.2676 15.6179 98.1387 15.6179C98.0099 15.6037 97.8667 15.5966 97.7092 15.5966C97.0075 15.5966 96.4062 15.8242 95.905 16.2795C95.4182 16.7347 95.1748 17.3749 95.1748 18.2V22.5747C95.1748 23.4141 94.7738 23.8337 93.972 23.8337Z" fill="white"/>
<path d="M105.116 23.8764C104.801 23.8764 104.5 23.7911 104.213 23.6203C103.927 23.4496 103.719 23.1864 103.591 22.8308L100.605 15.0204C100.433 14.5652 100.412 14.2095 100.541 13.9534C100.684 13.6974 100.985 13.5693 101.443 13.5693C102.187 13.5693 102.674 13.9036 102.903 14.5723L105.116 20.7608L107.349 14.5723C107.578 13.9036 108.058 13.5693 108.788 13.5693C109.175 13.5693 109.433 13.6974 109.562 13.9534C109.69 14.2095 109.676 14.5652 109.519 15.0204L106.641 22.8094C106.512 23.1651 106.304 23.4354 106.018 23.6203C105.731 23.7911 105.431 23.8764 105.116 23.8764Z" fill="white" fill-opacity="0.5"/>
<path d="M115.884 24.0685C114.38 24.0685 113.163 23.6203 112.232 22.7241C111.302 21.8136 110.836 20.4692 110.836 18.6909C110.836 17.5812 111.044 16.628 111.459 15.8313C111.874 15.0204 112.454 14.4016 113.199 13.9748C113.943 13.5338 114.795 13.3132 115.755 13.3132C116.714 13.3132 117.53 13.5338 118.203 13.9748C118.876 14.4158 119.392 14.9849 119.75 15.682C120.108 16.3791 120.287 17.1046 120.287 17.8586C120.287 18.385 120.179 18.7335 119.964 18.9043C119.75 19.0607 119.435 19.139 119.019 19.139H113.22C113.278 20.1633 113.55 20.896 114.036 21.337C114.523 21.7638 115.153 21.9772 115.927 21.9772C116.8 21.9772 117.48 21.6784 117.967 21.0809C118.253 20.7822 118.518 20.5901 118.762 20.5047C119.019 20.4052 119.291 20.4549 119.578 20.6541C119.864 20.8533 120.029 21.1094 120.072 21.4223C120.115 21.7353 119.986 22.0625 119.685 22.404C119.198 22.9873 118.64 23.4141 118.01 23.6844C117.38 23.9404 116.671 24.0685 115.884 24.0685ZM113.328 17.2824H117.903C117.788 16.6138 117.537 16.1016 117.151 15.746C116.779 15.3761 116.299 15.1911 115.712 15.1911C115.082 15.1911 114.559 15.3619 114.144 15.7033C113.743 16.0447 113.471 16.5711 113.328 17.2824Z" fill="white" fill-opacity="0.5"/>
<path d="M123.798 23.8337C122.982 23.8337 122.574 23.4141 122.574 22.5747V14.8284C122.574 13.989 122.939 13.5693 123.669 13.5693C124.399 13.5693 124.779 13.7543 124.807 14.1242L124.872 14.7857C125.158 14.3873 125.538 14.0459 126.01 13.7614C126.483 13.4626 127.041 13.3132 127.685 13.3132C128.759 13.3132 129.633 13.6547 130.306 14.3376C130.993 15.0204 131.337 16.0234 131.337 17.3465V22.5747C131.337 23.4141 130.936 23.8337 130.134 23.8337C129.318 23.8337 128.91 23.4141 128.91 22.5747V17.9226C128.91 17.1117 128.745 16.5071 128.416 16.1088C128.086 15.6962 127.642 15.4899 127.084 15.4899C126.468 15.4899 125.967 15.7033 125.581 16.1301C125.194 16.5427 125.001 17.1615 125.001 17.9866V22.5747C125.001 23.4141 124.6 23.8337 123.798 23.8337Z" fill="white" fill-opacity="0.5"/>
<path d="M137.796 24.0685C136.779 24.0685 135.999 23.8835 135.454 23.5136C134.925 23.1438 134.66 22.404 134.66 21.2943V15.6393H133.951C133.106 15.6393 132.684 15.2907 132.684 14.5936C132.684 14.2664 132.77 14.0175 132.942 13.8467C133.128 13.6618 133.457 13.5693 133.93 13.5693H134.66V11.222C134.66 10.3826 135.068 9.96291 135.884 9.96291C136.672 9.96291 137.065 10.3826 137.065 11.222V13.5693H138.655C139.499 13.5693 139.922 13.9108 139.922 14.5936C139.922 15.2907 139.507 15.6393 138.676 15.6393H137.065V20.6755C137.065 21.1592 137.18 21.4864 137.409 21.6571C137.652 21.8278 137.996 21.9132 138.44 21.9132C138.898 21.9132 139.256 21.9701 139.514 22.0839C139.786 22.1835 139.922 22.4538 139.922 22.8948C139.922 23.2504 139.814 23.5136 139.6 23.6844C139.399 23.8409 139.134 23.9404 138.805 23.9831C138.49 24.04 138.154 24.0685 137.796 24.0685Z" fill="white" fill-opacity="0.5"/>
<path d="M55.7978 35.9254C55.5025 35.9254 55.2394 35.856 55.0085 35.7173C54.7776 35.5733 54.5924 35.3732 54.4528 35.1171V35.6133C54.4528 35.6933 54.4313 35.752 54.3883 35.7893C54.3454 35.8213 54.289 35.8373 54.2192 35.8373C54.0635 35.8373 53.9856 35.7493 53.9856 35.5733V30.3237C53.9856 30.1476 54.0688 30.0596 54.2353 30.0596C54.3964 30.0596 54.4769 30.1476 54.4769 30.3237V32.6764C54.6165 32.4417 54.7991 32.2576 55.0246 32.1242C55.2501 31.9855 55.5079 31.9162 55.7978 31.9162C56.1415 31.9162 56.4475 32.0015 56.716 32.1722C56.9845 32.3376 57.1939 32.5697 57.3442 32.8684C57.5 33.1672 57.5778 33.5166 57.5778 33.9168C57.5778 34.3169 57.5 34.669 57.3442 34.9731C57.1939 35.2718 56.9845 35.5066 56.716 35.6773C56.4475 35.8427 56.1415 35.9254 55.7978 35.9254ZM55.7898 35.4692C56.0421 35.4692 56.265 35.4052 56.4583 35.2772C56.6569 35.1491 56.8127 34.9704 56.9254 34.741C57.0382 34.5063 57.0946 34.2315 57.0946 33.9168C57.0946 33.602 57.0382 33.3299 56.9254 33.1005C56.8127 32.8711 56.6569 32.6924 56.4583 32.5644C56.265 32.4363 56.0421 32.3723 55.7898 32.3723C55.4085 32.3723 55.0944 32.5137 54.8474 32.7964C54.6004 33.0738 54.4769 33.4473 54.4769 33.9168C54.4769 34.3862 54.6004 34.7623 54.8474 35.0451C55.0944 35.3279 55.4085 35.4692 55.7898 35.4692Z" fill="white"/>
<path d="M58.5993 37.5659C58.5456 37.5659 58.4919 37.5632 58.4382 37.5579C58.3899 37.5525 58.3389 37.5445 58.2852 37.5338C58.1241 37.5178 58.0436 37.4298 58.0436 37.2698C58.0436 37.1311 58.1134 37.0697 58.253 37.0857C58.3604 37.1017 58.4651 37.1097 58.5671 37.1097C58.7658 37.1097 58.9134 37.0644 59.0101 36.9737C59.1067 36.8883 59.198 36.7363 59.2839 36.5175L59.5417 35.8373L58.1483 32.3083C58.1107 32.2176 58.1053 32.1456 58.1322 32.0922C58.159 32.0335 58.21 32.0042 58.2852 32.0042H58.3094C58.4543 32.0042 58.5564 32.0735 58.6154 32.2122L59.7672 35.2292L60.8787 32.2203C60.927 32.0762 61.0263 32.0042 61.1767 32.0042C61.2626 32.0042 61.3217 32.0335 61.3539 32.0922C61.3861 32.1456 61.3861 32.2176 61.3539 32.3083L59.7189 36.6696C59.6061 36.979 59.4638 37.2057 59.292 37.3498C59.1202 37.4938 58.8893 37.5659 58.5993 37.5659Z" fill="white"/>
<path d="M66.1276 35.9254C65.7786 35.9254 65.4671 35.8453 65.1933 35.6853C64.9248 35.5199 64.7127 35.2878 64.557 34.9891C64.4067 34.685 64.3315 34.3275 64.3315 33.9168C64.3315 33.5166 64.4067 33.1672 64.557 32.8684C64.7127 32.5697 64.9248 32.3376 65.1933 32.1722C65.4618 32.0015 65.7678 31.9162 66.1115 31.9162C66.4605 31.9162 66.7558 32.0015 66.9975 32.1722C67.2445 32.343 67.4324 32.559 67.5613 32.8204C67.6901 33.0818 67.7546 33.3486 67.7546 33.6207C67.7546 33.7167 67.7304 33.7834 67.6821 33.8207C67.6391 33.8581 67.5747 33.8768 67.4888 33.8768H64.8228C64.8121 34.3569 64.9248 34.7463 65.1611 35.0451C65.4027 35.3385 65.7276 35.4852 66.1357 35.4852C66.6404 35.4852 67.0163 35.2585 67.2633 34.805C67.3706 34.6663 67.4807 34.629 67.5935 34.693C67.7331 34.7837 67.7519 34.9037 67.6499 35.0531C67.3116 35.6346 66.8042 35.9254 66.1276 35.9254ZM64.855 33.4606H67.2713C67.2445 33.2526 67.1773 33.0632 67.0699 32.8925C66.9679 32.7217 66.8337 32.5857 66.6672 32.4843C66.5061 32.383 66.3209 32.3323 66.1115 32.3323C65.784 32.3323 65.5074 32.4337 65.2819 32.6364C65.0618 32.8338 64.9195 33.1085 64.855 33.4606Z" fill="white"/>
<path d="M69.9846 35.8453C69.9256 35.8453 69.8692 35.8293 69.8155 35.7973C69.7618 35.76 69.7215 35.704 69.6947 35.6293L68.3738 32.3083C68.3362 32.2176 68.3308 32.1456 68.3577 32.0922C68.3899 32.0335 68.449 32.0042 68.5349 32.0042C68.6906 32.0042 68.7926 32.0735 68.8409 32.2122L69.9766 35.1411L71.08 32.2122C71.1391 32.0735 71.2411 32.0042 71.3861 32.0042C71.4666 32.0042 71.5203 32.0335 71.5472 32.0922C71.574 32.1456 71.5713 32.2176 71.5391 32.3083L70.2665 35.6213C70.2075 35.7707 70.1135 35.8453 69.9846 35.8453Z" fill="white"/>
<path d="M73.9066 35.9254C73.5575 35.9254 73.2461 35.8453 72.9723 35.6853C72.7038 35.5199 72.4917 35.2878 72.336 34.9891C72.1856 34.685 72.1105 34.3275 72.1105 33.9168C72.1105 33.5166 72.1856 33.1672 72.336 32.8684C72.4917 32.5697 72.7038 32.3376 72.9723 32.1722C73.2407 32.0015 73.5468 31.9162 73.8905 31.9162C74.2395 31.9162 74.5348 32.0015 74.7764 32.1722C75.0234 32.343 75.2113 32.559 75.3402 32.8204C75.4691 33.0818 75.5335 33.3486 75.5335 33.6207C75.5335 33.7167 75.5094 33.7834 75.461 33.8207C75.4181 33.8581 75.3536 33.8768 75.2677 33.8768H72.6018C72.591 34.3569 72.7038 34.7463 72.9401 35.0451C73.1817 35.3385 73.5065 35.4852 73.9146 35.4852C74.4193 35.4852 74.7952 35.2585 75.0422 34.805C75.1496 34.6663 75.2597 34.629 75.3724 34.693C75.5121 34.7837 75.5308 34.9037 75.4288 35.0531C75.0905 35.6346 74.5831 35.9254 73.9066 35.9254ZM72.634 33.4606H75.0503C75.0234 33.2526 74.9563 33.0632 74.8489 32.8925C74.7469 32.7217 74.6127 32.5857 74.4462 32.4843C74.2851 32.383 74.0999 32.3323 73.8905 32.3323C73.5629 32.3323 73.2864 32.4337 73.0609 32.6364C72.8407 32.8338 72.6984 33.1085 72.634 33.4606Z" fill="white"/>
<path d="M76.8014 35.8373C76.6349 35.8373 76.5517 35.7493 76.5517 35.5733V32.2683C76.5517 32.0922 76.6376 32.0042 76.8094 32.0042C76.8739 32.0042 76.9276 32.0229 76.9705 32.0602C77.0188 32.0922 77.043 32.1482 77.043 32.2283V32.6684C77.1504 32.4443 77.3195 32.2629 77.5504 32.1242C77.7867 31.9802 78.0471 31.9082 78.3317 31.9082C78.4713 31.9082 78.5814 31.9295 78.6619 31.9722C78.7425 32.0095 78.7827 32.0762 78.7827 32.1722C78.7827 32.2523 78.7586 32.3109 78.7102 32.3483C78.6673 32.3856 78.6136 32.4016 78.5492 32.3963C78.5116 32.3963 78.4686 32.3936 78.4203 32.3883C78.3773 32.383 78.3317 32.3803 78.2834 32.3803C78.0578 32.3803 77.8511 32.4337 77.6632 32.5403C77.4753 32.6417 77.3249 32.7804 77.2122 32.9565C77.1048 33.1272 77.0511 33.3219 77.0511 33.5406V35.5733C77.0511 35.7493 76.9678 35.8373 76.8014 35.8373Z" fill="white"/>
<path d="M80.9491 35.8453C80.8901 35.8453 80.8337 35.8293 80.78 35.7973C80.7263 35.76 80.686 35.704 80.6592 35.6293L79.3383 32.3083C79.3007 32.2176 79.2953 32.1456 79.3222 32.0922C79.3544 32.0335 79.4135 32.0042 79.4994 32.0042C79.6551 32.0042 79.7571 32.0735 79.8054 32.2122L80.9411 35.1411L82.0445 32.2122C82.1036 32.0735 82.2056 32.0042 82.3506 32.0042C82.4311 32.0042 82.4848 32.0335 82.5117 32.0922C82.5385 32.1456 82.5358 32.2176 82.5036 32.3083L81.231 35.6213C81.172 35.7707 81.078 35.8453 80.9491 35.8453Z" fill="white"/>
<path d="M84.8711 35.9254C84.522 35.9254 84.2106 35.8453 83.9368 35.6853C83.6683 35.5199 83.4562 35.2878 83.3005 34.9891C83.1501 34.685 83.075 34.3275 83.075 33.9168C83.075 33.5166 83.1501 33.1672 83.3005 32.8684C83.4562 32.5697 83.6683 32.3376 83.9368 32.1722C84.2052 32.0015 84.5113 31.9162 84.8549 31.9162C85.204 31.9162 85.4993 32.0015 85.7409 32.1722C85.9879 32.343 86.1758 32.559 86.3047 32.8204C86.4336 33.0818 86.498 33.3486 86.498 33.6207C86.498 33.7167 86.4739 33.7834 86.4255 33.8207C86.3826 33.8581 86.3181 33.8768 86.2322 33.8768H83.5663C83.5555 34.3569 83.6683 34.7463 83.9045 35.0451C84.1462 35.3385 84.471 35.4852 84.8791 35.4852C85.3838 35.4852 85.7597 35.2585 86.0067 34.805C86.1141 34.6663 86.2242 34.629 86.3369 34.693C86.4765 34.7837 86.4953 34.9037 86.3933 35.0531C86.055 35.6346 85.5476 35.9254 84.8711 35.9254ZM83.5985 33.4606H86.0148C85.9879 33.2526 85.9208 33.0632 85.8134 32.8925C85.7114 32.7217 85.5771 32.5857 85.4107 32.4843C85.2496 32.383 85.0644 32.3323 84.8549 32.3323C84.5274 32.3323 84.2509 32.4337 84.0254 32.6364C83.8052 32.8338 83.6629 33.1085 83.5985 33.4606Z" fill="white"/>
<path d="M87.7659 35.8373C87.5994 35.8373 87.5162 35.7493 87.5162 35.5733V32.2683C87.5162 32.0922 87.594 32.0042 87.7498 32.0042C87.9055 32.0042 87.9833 32.0629 87.9833 32.1802L87.9914 32.5484C88.1149 32.367 88.2787 32.2149 88.4827 32.0922C88.6921 31.9695 88.9284 31.9082 89.1915 31.9082C89.6049 31.9082 89.9378 32.0389 90.1902 32.3003C90.4426 32.5617 90.5688 32.9351 90.5688 33.4206V35.5733C90.5688 35.7493 90.4882 35.8373 90.3271 35.8373C90.166 35.8373 90.0855 35.7493 90.0855 35.5733V33.4926C90.0855 33.1192 89.9942 32.8391 89.8116 32.6524C89.6345 32.4657 89.4036 32.3723 89.119 32.3723C88.9042 32.3723 88.7109 32.4203 88.5391 32.5163C88.3726 32.607 88.2411 32.7324 88.1444 32.8925C88.0531 33.0472 88.0075 33.2206 88.0075 33.4126V35.5733C88.0075 35.7493 87.927 35.8373 87.7659 35.8373Z" fill="white"/>
<path d="M93.1203 35.9254C92.7766 35.9254 92.5189 35.8533 92.347 35.7093C92.1752 35.5653 92.0893 35.3065 92.0893 34.9331V32.4523H91.5175C91.3403 32.4523 91.2517 32.375 91.2517 32.2203C91.2517 32.0762 91.3403 32.0042 91.5175 32.0042H92.0893V30.8598C92.0893 30.6838 92.1698 30.5958 92.3309 30.5958C92.492 30.5958 92.5726 30.6838 92.5726 30.8598V32.0042H93.4827C93.6599 32.0042 93.7485 32.0762 93.7485 32.2203C93.7485 32.375 93.6599 32.4523 93.4827 32.4523H92.5726V34.853C92.5726 35.0931 92.6236 35.2585 92.7256 35.3492C92.8276 35.4346 92.986 35.4772 93.2008 35.4772C93.2276 35.4772 93.2545 35.4772 93.2813 35.4772C93.3136 35.4719 93.3431 35.4692 93.3699 35.4692C93.4773 35.4639 93.5659 35.4692 93.6357 35.4852C93.7109 35.4959 93.7485 35.5519 93.7485 35.6533C93.7485 35.7706 93.684 35.8453 93.5552 35.8773C93.4263 35.9094 93.2813 35.9254 93.1203 35.9254Z" fill="white"/>
</svg>
