<svg width="146" height="38" viewBox="0 0 146 38" fill="none" xmlns="http://www.w3.org/2000/svg">
<path d="M84.7319 35.12C84.2359 35.12 83.8239 35.032 83.4959 34.856C83.1759 34.672 82.9159 34.444 82.7159 34.172V34.736C82.7159 34.816 82.6919 34.88 82.6439 34.928C82.5959 34.976 82.5319 35 82.4519 35H82.2479C82.1679 35 82.1039 34.976 82.0559 34.928C82.0079 34.88 81.9839 34.816 81.9839 34.736V26.744C81.9839 26.664 82.0079 26.6 82.0559 26.552C82.1039 26.504 82.1679 26.48 82.2479 26.48H82.4519C82.5319 26.48 82.5959 26.504 82.6439 26.552C82.6919 26.6 82.7159 26.664 82.7159 26.744V29.588C82.9159 29.324 83.1759 29.1 83.4959 28.916C83.8239 28.732 84.2359 28.64 84.7319 28.64C85.2039 28.64 85.5999 28.724 85.9199 28.892C86.2399 29.06 86.4999 29.284 86.6999 29.564C86.8999 29.844 87.0479 30.156 87.1439 30.5C87.2399 30.844 87.2919 31.192 87.2999 31.544C87.3079 31.664 87.3119 31.776 87.3119 31.88C87.3119 31.984 87.3079 32.096 87.2999 32.216C87.2919 32.568 87.2399 32.916 87.1439 33.26C87.0479 33.604 86.8999 33.916 86.6999 34.196C86.4999 34.476 86.2399 34.7 85.9199 34.868C85.5999 35.036 85.2039 35.12 84.7319 35.12ZM84.6599 34.424C85.1319 34.424 85.5039 34.32 85.7759 34.112C86.0479 33.904 86.2439 33.632 86.3639 33.296C86.4839 32.96 86.5519 32.6 86.5679 32.216C86.5759 31.992 86.5759 31.768 86.5679 31.544C86.5519 31.16 86.4839 30.8 86.3639 30.464C86.2439 30.128 86.0479 29.856 85.7759 29.648C85.5039 29.44 85.1319 29.336 84.6599 29.336C84.2199 29.336 83.8559 29.44 83.5679 29.648C83.2879 29.856 83.0759 30.116 82.9319 30.428C82.7959 30.74 82.7239 31.056 82.7159 31.376C82.7079 31.496 82.7039 31.652 82.7039 31.844C82.7039 32.036 82.7079 32.192 82.7159 32.312C82.7319 32.64 82.8039 32.968 82.9319 33.296C83.0679 33.616 83.2759 33.884 83.5559 34.1C83.8359 34.316 84.2039 34.424 84.6599 34.424Z" fill="black"/>
<path d="M89.7662 37.28C89.7022 37.28 89.6462 37.256 89.5982 37.208C89.5502 37.16 89.5262 37.104 89.5262 37.04C89.5262 37.008 89.5302 36.972 89.5382 36.932C89.5542 36.9 89.5742 36.856 89.5982 36.8L90.5222 34.64L88.2302 29.24C88.1822 29.12 88.1582 29.04 88.1582 29C88.1582 28.936 88.1822 28.88 88.2302 28.832C88.2782 28.784 88.3342 28.76 88.3982 28.76H88.6502C88.7302 28.76 88.7902 28.78 88.8302 28.82C88.8782 28.852 88.9102 28.892 88.9262 28.94L90.9422 33.692L93.0062 28.94C93.0302 28.892 93.0622 28.852 93.1022 28.82C93.1422 28.78 93.2022 28.76 93.2822 28.76H93.5222C93.5862 28.76 93.6422 28.784 93.6902 28.832C93.7382 28.88 93.7622 28.936 93.7622 29C93.7622 29.04 93.7382 29.12 93.6902 29.24L90.2822 37.1C90.2582 37.148 90.2262 37.188 90.1862 37.22C90.1462 37.26 90.0862 37.28 90.0062 37.28H89.7662Z" fill="black"/>
<path d="M100.179 35.12C99.4025 35.12 98.7865 34.868 98.3305 34.364C97.8745 33.852 97.6145 33.184 97.5505 32.36C97.5425 32.24 97.5385 32.08 97.5385 31.88C97.5385 31.68 97.5425 31.52 97.5505 31.4C97.5905 30.856 97.7185 30.376 97.9345 29.96C98.1505 29.544 98.4465 29.22 98.8225 28.988C99.2065 28.756 99.6585 28.64 100.179 28.64C100.739 28.64 101.215 28.764 101.607 29.012C101.999 29.26 102.299 29.616 102.507 30.08C102.723 30.544 102.831 31.096 102.831 31.736V31.916C102.831 31.996 102.803 32.06 102.747 32.108C102.699 32.156 102.635 32.18 102.555 32.18H98.2825C98.2825 32.18 98.2825 32.196 98.2825 32.228C98.2825 32.26 98.2825 32.284 98.2825 32.3C98.2985 32.66 98.3825 33.004 98.5345 33.332C98.6865 33.652 98.9025 33.916 99.1825 34.124C99.4625 34.324 99.7945 34.424 100.179 34.424C100.523 34.424 100.807 34.372 101.031 34.268C101.263 34.164 101.447 34.052 101.583 33.932C101.719 33.804 101.807 33.708 101.847 33.644C101.919 33.54 101.975 33.48 102.015 33.464C102.055 33.44 102.119 33.428 102.207 33.428H102.399C102.471 33.428 102.531 33.452 102.579 33.5C102.635 33.54 102.659 33.596 102.651 33.668C102.643 33.78 102.579 33.92 102.459 34.088C102.347 34.248 102.183 34.408 101.967 34.568C101.759 34.728 101.503 34.86 101.199 34.964C100.895 35.068 100.555 35.12 100.179 35.12ZM98.2825 31.508H102.099V31.46C102.099 31.06 102.023 30.7 101.871 30.38C101.719 30.06 101.499 29.808 101.211 29.624C100.923 29.432 100.579 29.336 100.179 29.336C99.7785 29.336 99.4345 29.432 99.1465 29.624C98.8665 29.808 98.6505 30.06 98.4985 30.38C98.3545 30.7 98.2825 31.06 98.2825 31.46V31.508Z" fill="black"/>
<path d="M106.362 35C106.234 35 106.134 34.972 106.062 34.916C105.998 34.86 105.946 34.788 105.906 34.7L103.698 29.132C103.682 29.084 103.674 29.04 103.674 29C103.674 28.936 103.698 28.88 103.746 28.832C103.794 28.784 103.85 28.76 103.914 28.76H104.166C104.246 28.76 104.306 28.784 104.346 28.832C104.394 28.872 104.422 28.908 104.43 28.94L106.458 34.124L108.486 28.94C108.502 28.908 108.53 28.872 108.57 28.832C108.61 28.784 108.67 28.76 108.75 28.76H109.002C109.066 28.76 109.122 28.784 109.17 28.832C109.218 28.88 109.242 28.936 109.242 29C109.242 29.04 109.234 29.084 109.218 29.132L107.01 34.7C106.978 34.788 106.926 34.86 106.854 34.916C106.782 34.972 106.682 35 106.554 35H106.362Z" fill="black"/>
<path d="M112.753 35.12C111.977 35.12 111.361 34.868 110.905 34.364C110.449 33.852 110.189 33.184 110.125 32.36C110.117 32.24 110.113 32.08 110.113 31.88C110.113 31.68 110.117 31.52 110.125 31.4C110.165 30.856 110.293 30.376 110.509 29.96C110.725 29.544 111.021 29.22 111.397 28.988C111.781 28.756 112.233 28.64 112.753 28.64C113.313 28.64 113.789 28.764 114.181 29.012C114.573 29.26 114.873 29.616 115.081 30.08C115.297 30.544 115.405 31.096 115.405 31.736V31.916C115.405 31.996 115.377 32.06 115.321 32.108C115.273 32.156 115.209 32.18 115.129 32.18H110.857C110.857 32.18 110.857 32.196 110.857 32.228C110.857 32.26 110.857 32.284 110.857 32.3C110.873 32.66 110.957 33.004 111.109 33.332C111.261 33.652 111.477 33.916 111.757 34.124C112.037 34.324 112.369 34.424 112.753 34.424C113.097 34.424 113.381 34.372 113.605 34.268C113.837 34.164 114.021 34.052 114.157 33.932C114.293 33.804 114.381 33.708 114.421 33.644C114.493 33.54 114.549 33.48 114.589 33.464C114.629 33.44 114.693 33.428 114.781 33.428H114.973C115.045 33.428 115.105 33.452 115.153 33.5C115.209 33.54 115.233 33.596 115.225 33.668C115.217 33.78 115.153 33.92 115.033 34.088C114.921 34.248 114.757 34.408 114.541 34.568C114.333 34.728 114.077 34.86 113.773 34.964C113.469 35.068 113.129 35.12 112.753 35.12ZM110.857 31.508H114.673V31.46C114.673 31.06 114.597 30.7 114.445 30.38C114.293 30.06 114.073 29.808 113.785 29.624C113.497 29.432 113.153 29.336 112.753 29.336C112.353 29.336 112.009 29.432 111.721 29.624C111.441 29.808 111.225 30.06 111.073 30.38C110.929 30.7 110.857 31.06 110.857 31.46V31.508Z" fill="black"/>
<path d="M117.252 35C117.172 35 117.108 34.976 117.06 34.928C117.012 34.88 116.988 34.816 116.988 34.736V29.036C116.988 28.956 117.012 28.892 117.06 28.844C117.108 28.788 117.172 28.76 117.252 28.76H117.444C117.524 28.76 117.588 28.788 117.636 28.844C117.692 28.892 117.72 28.956 117.72 29.036V29.588C117.864 29.308 118.072 29.1 118.344 28.964C118.616 28.828 118.952 28.76 119.352 28.76H119.796C119.876 28.76 119.94 28.784 119.988 28.832C120.036 28.88 120.06 28.944 120.06 29.024V29.192C120.06 29.272 120.036 29.336 119.988 29.384C119.94 29.432 119.876 29.456 119.796 29.456H119.28C118.8 29.456 118.42 29.596 118.14 29.876C117.86 30.156 117.72 30.536 117.72 31.016V34.736C117.72 34.816 117.692 34.88 117.636 34.928C117.588 34.976 117.524 35 117.444 35H117.252Z" fill="black"/>
<path d="M123.307 35C123.179 35 123.079 34.972 123.007 34.916C122.943 34.86 122.891 34.788 122.851 34.7L120.643 29.132C120.627 29.084 120.619 29.04 120.619 29C120.619 28.936 120.643 28.88 120.691 28.832C120.739 28.784 120.795 28.76 120.859 28.76H121.111C121.191 28.76 121.251 28.784 121.291 28.832C121.339 28.872 121.367 28.908 121.375 28.94L123.403 34.124L125.431 28.94C125.447 28.908 125.475 28.872 125.515 28.832C125.555 28.784 125.615 28.76 125.695 28.76H125.947C126.011 28.76 126.067 28.784 126.115 28.832C126.163 28.88 126.187 28.936 126.187 29C126.187 29.04 126.179 29.084 126.163 29.132L123.955 34.7C123.923 34.788 123.871 34.86 123.799 34.916C123.727 34.972 123.627 35 123.499 35H123.307Z" fill="black"/>
<path d="M129.698 35.12C128.922 35.12 128.306 34.868 127.85 34.364C127.394 33.852 127.134 33.184 127.07 32.36C127.062 32.24 127.058 32.08 127.058 31.88C127.058 31.68 127.062 31.52 127.07 31.4C127.11 30.856 127.238 30.376 127.454 29.96C127.67 29.544 127.966 29.22 128.342 28.988C128.726 28.756 129.178 28.64 129.698 28.64C130.258 28.64 130.734 28.764 131.126 29.012C131.518 29.26 131.818 29.616 132.026 30.08C132.242 30.544 132.35 31.096 132.35 31.736V31.916C132.35 31.996 132.322 32.06 132.266 32.108C132.218 32.156 132.154 32.18 132.074 32.18H127.802C127.802 32.18 127.802 32.196 127.802 32.228C127.802 32.26 127.802 32.284 127.802 32.3C127.818 32.66 127.902 33.004 128.054 33.332C128.206 33.652 128.422 33.916 128.702 34.124C128.982 34.324 129.314 34.424 129.698 34.424C130.042 34.424 130.326 34.372 130.55 34.268C130.782 34.164 130.966 34.052 131.102 33.932C131.238 33.804 131.326 33.708 131.366 33.644C131.438 33.54 131.494 33.48 131.534 33.464C131.574 33.44 131.638 33.428 131.726 33.428H131.918C131.99 33.428 132.05 33.452 132.098 33.5C132.154 33.54 132.178 33.596 132.17 33.668C132.162 33.78 132.098 33.92 131.978 34.088C131.866 34.248 131.702 34.408 131.486 34.568C131.278 34.728 131.022 34.86 130.718 34.964C130.414 35.068 130.074 35.12 129.698 35.12ZM127.802 31.508H131.618V31.46C131.618 31.06 131.542 30.7 131.39 30.38C131.238 30.06 131.018 29.808 130.73 29.624C130.442 29.432 130.098 29.336 129.698 29.336C129.298 29.336 128.954 29.432 128.666 29.624C128.386 29.808 128.17 30.06 128.018 30.38C127.874 30.7 127.802 31.06 127.802 31.46V31.508Z" fill="black"/>
<path d="M134.197 35C134.117 35 134.053 34.976 134.005 34.928C133.957 34.88 133.933 34.816 133.933 34.736V29.024C133.933 28.944 133.957 28.88 134.005 28.832C134.053 28.784 134.117 28.76 134.197 28.76H134.401C134.481 28.76 134.545 28.784 134.593 28.832C134.641 28.88 134.665 28.944 134.665 29.024V29.588C134.881 29.308 135.141 29.08 135.445 28.904C135.757 28.728 136.169 28.64 136.681 28.64C137.225 28.64 137.677 28.76 138.037 29C138.405 29.232 138.677 29.552 138.853 29.96C139.037 30.36 139.129 30.816 139.129 31.328V34.736C139.129 34.816 139.105 34.88 139.057 34.928C139.009 34.976 138.945 35 138.865 35H138.661C138.581 35 138.517 34.976 138.469 34.928C138.421 34.88 138.397 34.816 138.397 34.736V31.388C138.397 30.748 138.241 30.248 137.929 29.888C137.617 29.52 137.161 29.336 136.561 29.336C135.993 29.336 135.533 29.52 135.181 29.888C134.837 30.248 134.665 30.748 134.665 31.388V34.736C134.665 34.816 134.641 34.88 134.593 34.928C134.545 34.976 134.481 35 134.401 35H134.197Z" fill="black"/>
<path d="M143.017 35C142.601 35 142.273 34.912 142.033 34.736C141.793 34.56 141.625 34.32 141.529 34.016C141.433 33.712 141.385 33.372 141.385 32.996V29.456H140.449C140.369 29.456 140.305 29.432 140.257 29.384C140.209 29.336 140.185 29.272 140.185 29.192V29.024C140.185 28.944 140.209 28.88 140.257 28.832C140.305 28.784 140.369 28.76 140.449 28.76H141.385V26.744C141.385 26.664 141.409 26.6 141.457 26.552C141.505 26.504 141.569 26.48 141.649 26.48H141.853C141.933 26.48 141.997 26.504 142.045 26.552C142.093 26.6 142.117 26.664 142.117 26.744V28.76H143.605C143.685 28.76 143.749 28.784 143.797 28.832C143.845 28.88 143.869 28.944 143.869 29.024V29.192C143.869 29.272 143.845 29.336 143.797 29.384C143.749 29.432 143.685 29.456 143.605 29.456H142.117V32.948C142.117 33.372 142.185 33.704 142.321 33.944C142.465 34.184 142.717 34.304 143.077 34.304H143.725C143.805 34.304 143.869 34.328 143.917 34.376C143.965 34.424 143.989 34.488 143.989 34.568V34.736C143.989 34.816 143.965 34.88 143.917 34.928C143.869 34.976 143.805 35 143.725 35H143.017Z" fill="black"/>
<path fill-rule="evenodd" clip-rule="evenodd" d="M86.9616 8.76926C88.1556 7.86557 89.7797 7.5 91.5558 7.5C93.3704 7.5 94.8996 8.0167 95.974 9.04056C97.046 10.062 97.5708 11.4983 97.5708 13.1669C97.5708 13.2883 97.5751 13.4063 97.5793 13.5226C97.5977 14.0311 97.3683 14.7857 97.2695 15.1012C97.1707 15.4167 96.9343 15.4803 96.6134 15.4803C96.2924 15.4803 93.9748 15.5176 91.992 15.5231C91.8269 15.5235 91.6617 15.524 91.497 15.5244C90.124 15.5281 88.7859 15.5316 87.8791 15.5414C87.8633 16.519 87.9699 17.2955 88.2447 17.8736C88.5474 18.5103 89.0804 18.965 90.1473 19.1434C91.3017 19.3266 92.4361 19.2115 93.2681 18.8425C94.0126 18.504 94.2132 18.2288 94.6198 17.6707C94.7343 17.5136 94.865 17.3342 95.0289 17.1246L95.2817 16.8011L95.7108 16.8149C95.9629 16.823 96.2595 16.8477 96.5469 16.9702C96.8569 17.1023 97.067 17.308 97.2325 17.524L97.4148 17.762L97.3774 18.0525C97.3354 18.3792 97.1887 18.6825 97.0308 18.9324C96.8681 19.1898 96.6635 19.4372 96.4519 19.6592C96.0342 20.0973 95.53 20.498 95.1239 20.7324L95.1181 20.7357C93.6475 21.5686 91.2213 21.9408 89.1399 21.441C88.0804 21.1866 87.0584 20.6939 86.2993 19.8687C85.5319 19.0345 85.0874 17.9189 85.0874 16.5195V12.9045C85.0874 11.093 85.7388 9.69483 86.9616 8.76926ZM90.7736 9.91768L90.4672 9.98197C89.9621 10.0879 89.8092 10.1435 89.4381 10.2783C89.3988 10.2926 89.3571 10.3078 89.3123 10.324C88.8696 10.5002 88.6029 10.6732 88.4226 10.8507C88.2449 11.0256 88.1098 11.2454 87.9959 11.5757L87.9932 11.5835C87.9041 11.8328 87.8457 12.2157 87.8311 12.665L87.8308 12.6757L87.8301 12.6864C87.821 12.8314 87.8177 13.0026 87.8165 13.179C89.4339 13.1603 92.5171 13.1872 93.9877 13.214C94.0954 13.2145 94.2352 13.2222 94.3589 13.229C94.3769 13.23 94.3945 13.231 94.4116 13.2319C94.5665 13.2403 94.7211 13.2479 94.8649 13.2487C94.874 13.2487 94.883 13.2487 94.8917 13.2487C94.8945 13.1323 94.8895 12.9918 94.8722 12.8335C94.8222 12.3771 94.6769 11.8294 94.3877 11.3337C94.1022 10.8443 93.686 10.4193 93.0873 10.1561C92.5505 9.92007 91.8065 9.78769 90.7736 9.91768Z" fill="black"/>
<path fill-rule="evenodd" clip-rule="evenodd" d="M125.51 21.1672C125.736 20.4428 125.591 13.8266 125.591 12.5227C125.591 10.0114 125.253 9.54455 126.605 9.15821C127.764 8.80405 129.004 8.54649 130.372 8.62698C133.591 8.85235 133.994 10.6875 133.994 13.73V20.3301C133.994 20.5877 133.817 21.6663 135.089 21.1189C135.266 20.636 135.25 12.2329 135.105 11.3958C134.847 9.9631 134.268 8.90064 133.237 8.27282C131.789 7.41963 128.907 7.45183 127.346 7.83818C125.494 8.33721 124.512 8.36941 124.496 10.0114V17.4325C124.496 21.2155 124.11 21.3604 125.559 21.1833L125.543 21.1672H125.51Z" fill="black"/>
<path fill-rule="evenodd" clip-rule="evenodd" d="M115.126 8.65839C120.712 7.61203 121.001 13.1336 120.615 13.7614C120.438 14.0351 119.343 13.8902 118.957 13.8902C117.315 13.858 113.709 13.8258 112.228 13.858C111.858 13.8741 111.777 13.9385 111.777 13.3268C111.777 13.037 111.777 12.699 111.793 12.4253C111.809 11.8941 111.874 11.3789 112.003 10.9926C112.292 10.0911 112.775 9.54378 113.838 9.09303C114.337 8.89986 114.514 8.81937 115.158 8.67449L115.126 8.65839ZM121.613 14.7434C121.919 14.18 121.822 13.8902 121.822 13.0048C121.822 9.64036 119.858 7.57983 116.462 7.57983C113.017 7.57983 110.634 9.10913 110.634 12.7151V16.7073C110.634 22.1967 117.073 22.245 119.697 20.6513C120.374 20.2328 121.533 19.1059 121.629 18.301C121.388 17.963 121.178 17.8825 120.712 17.8664C120.019 18.8162 119.81 19.4279 118.587 20.0235C117.54 20.5225 116.188 20.6513 114.868 20.4259C112.164 19.943 111.697 17.7537 111.874 14.8078C113.612 14.7595 120.309 14.7917 121.629 14.7273H121.613V14.7434Z" fill="black"/>
<path fill-rule="evenodd" clip-rule="evenodd" d="M97.7241 7.98273C97.7563 8.57835 100.107 13.9228 100.525 14.9209C101.266 16.6112 101.99 18.3337 102.698 20.04C102.908 20.5713 103.053 21.3923 103.841 21.2957C104.421 21.2313 104.63 20.2332 104.839 19.7664C105.725 17.7541 109.798 8.46566 109.717 7.95053C108.944 7.82175 108.655 7.83785 108.445 8.38517C108.075 9.23836 105.306 16.1122 103.777 19.702C103.6 19.541 101.539 14.3736 101.282 13.8102C100.767 12.6511 99.5271 9.47983 98.9476 8.27249C98.7061 7.75736 98.3519 7.98273 97.7241 7.98273V8.01492V7.98273Z" fill="black"/>
<path fill-rule="evenodd" clip-rule="evenodd" d="M139.381 7.91791C137.336 7.9984 136.306 7.54766 136.338 8.51353C136.37 9.33452 137.626 8.94817 139.381 9.01257C139.413 10.6063 139.204 16.7395 139.493 18.0113C139.654 19.3152 140.105 20.3294 141.151 20.9572C141.618 21.2148 144.371 21.907 144.822 21.4723C144.983 21.3435 144.967 21.424 144.983 21.0216C144.983 20.6352 144.983 20.7318 144.838 20.5708C144.612 20.3455 140.781 21.2309 140.588 16.9166L140.604 9.02866C141.489 8.94817 144.387 9.06086 144.677 8.99647C145.144 8.91598 145.031 8.51353 144.95 8.0145C144.017 7.9823 141.731 7.9984 140.62 7.93401C140.556 6.4691 141.055 4.79492 139.96 4.79492C138.946 4.81102 139.574 5.85738 139.365 7.90181V7.91791H139.381Z" fill="black"/>
<path d="M30.8333 7.5H34.1666V21.6667H30.8333V7.5Z" fill="black"/>
<path d="M36.6284 8.18926C37.2301 8.01614 38.0122 7.85168 38.9748 7.69587C39.9375 7.54006 41.0032 7.46216 42.1722 7.46216C43.2723 7.46216 44.192 7.61797 44.9311 7.92958C45.6703 8.22388 46.2548 8.64803 46.6845 9.20201C47.1314 9.73868 47.4409 10.3965 47.6128 11.1756C47.8019 11.9373 47.8964 12.7769 47.8964 13.6945V21.329H44.7764V14.1878C44.7764 13.4607 44.7249 12.8462 44.6217 12.3441C44.5358 11.8248 44.3811 11.4093 44.1576 11.0977C43.9513 10.7687 43.6591 10.535 43.2809 10.3965C42.9199 10.2407 42.473 10.1628 41.9401 10.1628C41.5447 10.1628 41.1322 10.1888 40.7024 10.2407C40.2727 10.2927 39.9547 10.3359 39.7484 10.3706V21.329H36.6284V8.18926Z" fill="black"/>
<path d="M54.2559 19.0697C55.081 19.0697 55.6826 18.9745 56.0608 18.7841C56.439 18.5764 56.6281 18.2301 56.6281 17.7454C56.6281 17.2953 56.4218 16.9231 56.0093 16.6288C55.6139 16.3345 54.9521 16.0142 54.0238 15.6679C53.4566 15.4602 52.9323 15.2438 52.451 15.0187C51.9868 14.7764 51.5829 14.4994 51.2391 14.1878C50.8953 13.8762 50.6202 13.504 50.4139 13.0712C50.2249 12.621 50.1303 12.0757 50.1303 11.4352C50.1303 10.1887 50.5858 9.2106 51.4969 8.50081C52.408 7.77371 53.6456 7.41016 55.2099 7.41016C56.0007 7.41016 56.757 7.48806 57.479 7.64387C58.201 7.78236 58.7424 7.92086 59.1034 8.05935L58.5362 10.6042C58.1924 10.4484 57.754 10.3099 57.2211 10.1887C56.6883 10.0502 56.0694 9.98098 55.3646 9.98098C54.7286 9.98098 54.2129 10.0935 53.8175 10.3186C53.4222 10.5263 53.2245 10.8552 53.2245 11.3053C53.2245 11.5304 53.2589 11.7295 53.3276 11.9026C53.4136 12.0757 53.5511 12.2402 53.7402 12.396C53.9293 12.5345 54.1785 12.6816 54.488 12.8374C54.7974 12.9759 55.1755 13.1231 55.6225 13.2789C56.3616 13.5559 56.9891 13.8329 57.5048 14.1099C58.0205 14.3696 58.4416 14.6725 58.7682 15.0187C59.112 15.3477 59.3613 15.7285 59.516 16.1613C59.6707 16.5941 59.7481 17.1135 59.7481 17.7194C59.7481 19.0178 59.2667 20.0046 58.3041 20.6797C57.3587 21.3376 56.0007 21.6665 54.2301 21.6665C53.044 21.6665 52.09 21.5627 51.368 21.3549C50.646 21.1645 50.1389 21.0087 49.8467 20.8875L50.3882 18.2647C50.8523 18.4552 51.4024 18.6369 52.0384 18.8101C52.6916 18.9832 53.4308 19.0697 54.2559 19.0697Z" fill="black"/>
<path d="M72.891 20.9135C72.2893 21.0693 71.5072 21.2251 70.5445 21.3809C69.5819 21.5541 68.5247 21.6406 67.373 21.6406C66.2901 21.6406 65.379 21.4848 64.6398 21.1732C63.9178 20.8616 63.3334 20.4288 62.8864 19.8748C62.4567 19.3208 62.1473 18.663 61.9582 17.9012C61.7691 17.1222 61.6746 16.2739 61.6746 15.3564V7.7478H64.7945V14.863C64.7945 16.3172 65.0008 17.3559 65.4134 17.9792C65.8431 18.6024 66.5823 18.914 67.6309 18.914C68.009 18.914 68.4044 18.8967 68.817 18.8621C69.2467 18.8274 69.5647 18.7842 69.771 18.7322V7.7478H72.891V20.9135Z" fill="black"/>
<path d="M82.8794 10.5783C82.6216 10.4917 82.2606 10.4052 81.7965 10.3186C81.3495 10.2148 80.8252 10.1628 80.2236 10.1628C79.8798 10.1628 79.5102 10.1974 79.1148 10.2667C78.7367 10.3359 78.4702 10.3965 78.3155 10.4485V21.329H75.1956V8.397C75.7972 8.17195 76.545 7.96421 77.4388 7.77377C78.3499 7.56603 79.3555 7.46216 80.4557 7.46216C80.6619 7.46216 80.9026 7.47947 81.1776 7.5141C81.4527 7.53141 81.7277 7.56603 82.0028 7.61797C82.2778 7.65259 82.5442 7.70453 82.8021 7.77377C83.0599 7.82571 83.2662 7.87764 83.4209 7.92958L82.8794 10.5783Z" fill="black"/>
<path d="M30.8333 6.66675H34.1666V3.33341H30.8333V6.66675Z" fill="black"/>
<path d="M0 6C0 2.685 2.685 0 6 0H19C22.315 0 25 2.685 25 6V19C25 22.315 22.315 25 19 25H6C2.685 25 0 22.315 0 19V6Z" fill="#6458D8"/>
<path d="M13.9584 5H8.61119C8.09742 5 7.59945 5.19822 7.23585 5.54892C6.87226 5.89962 6.66675 6.37611 6.66675 6.87548V15.4615H8.00257V7.2986C8.00257 7.06989 8.09742 6.84879 8.26736 6.68488C8.4373 6.52097 8.66652 6.42948 8.90365 6.42948H13.8517V8.16391C13.8517 8.5108 13.994 8.83863 14.2469 9.08259C14.4999 9.32656 14.8437 9.46379 15.1994 9.46379H16.9976V17.7052C16.9976 17.9339 16.9027 18.155 16.7328 18.3189C16.5629 18.4828 16.3336 18.5743 16.0965 18.5743H8.90365C8.66652 18.5743 8.4373 18.4828 8.26736 18.3189C8.09742 18.155 8.00257 17.9339 8.00257 17.7052V15.2313H6.66675V18.1245C6.66675 18.6201 6.87226 19.1004 7.23585 19.4511C7.59945 19.8018 8.09346 20 8.61119 20H16.389C16.9027 20 17.4007 19.8018 17.7643 19.4511C18.1279 19.1004 18.3334 18.6239 18.3334 18.1245V9.21982L13.9584 5Z" fill="white"/>
<path fill-rule="evenodd" clip-rule="evenodd" d="M13.1345 12.4924C13.7909 11.2681 15.0356 11.502 15.052 12.4607C15.0601 12.9718 14.4391 13.9276 13.3524 12.813C13.2299 12.6946 13.2026 12.6137 13.1345 12.4924ZM11.8789 12.5126C11.7509 12.7985 11.2688 13.2923 10.9529 13.3645C10.4245 13.4685 9.96966 13.044 9.96149 12.5444C9.96149 11.6694 11.1054 11.2334 11.8789 12.5126ZM12.5217 13.1508C13.0555 13.4916 13.2244 14.176 14.3465 14.1298C16.1578 14.046 16.3675 11.32 14.6816 10.8898C13.554 10.5981 13.012 11.5106 12.5408 11.9091C12.3528 11.7099 11.9552 10.8667 10.7813 10.9013C9.40587 10.9244 8.66504 12.5271 9.55295 13.5898C9.90429 14.0142 10.5035 14.2886 11.2389 14.1124C11.9116 13.9536 12.2466 13.3818 12.5326 13.1335L12.5217 13.1508Z" fill="white"/>
</svg>
