<svg width="135" height="49" viewBox="0 0 135 49" fill="none" xmlns="http://www.w3.org/2000/svg">
<g filter="url(#filter0_d_1053_2424)">
<path fill-rule="evenodd" clip-rule="evenodd" d="M25.8092 38.0383C25.8092 38.4126 25.633 38.7661 25.3284 38.9836C23.259 40.4609 20.7494 40.4609 18.6801 38.9836C16.3333 37.3082 13.1905 34.5547 10.6001 30.7603C6.05378 24.1414 4.50357 17.3977 4.04661 12.5462C3.62142 8.03188 6.12792 3.89005 10.4754 2.60209C11.1145 2.41277 11.8033 2.23062 12.5425 2.06187C15.1382 1.44117 17.6958 1.02373 20.4154 0.912504C23.4833 0.787038 25.8092 3.42464 25.8092 6.49509C25.8092 6.67487 25.6819 6.82934 25.5066 6.86898C19.2227 8.28969 14.5303 13.9072 14.5303 20.6206C14.5303 26.5826 18.231 31.6802 23.4606 33.7418C24.788 34.265 25.8092 35.4626 25.8092 36.8894V38.0383Z" fill="#6458D8"/>
</g>
<path fill-rule="evenodd" clip-rule="evenodd" d="M35.9632 10.8019C37.0892 10.8019 38.002 9.88912 38.002 8.76309C38.002 7.63707 37.0892 6.72424 35.9632 6.72424C34.8372 6.72424 33.9243 7.63707 33.9243 8.76309C33.9243 9.19759 34.0602 9.60035 34.2919 9.93116L31.4139 12.6285C31.1359 12.889 30.7691 13.034 30.3881 13.034H20.8392C20.563 13.034 20.3392 13.2578 20.3392 13.534C20.3392 13.8101 20.563 14.034 20.8392 14.034H30.3881C31.0232 14.034 31.6344 13.7923 32.0977 13.3581L35.0532 10.5881C35.3272 10.725 35.6362 10.8019 35.9632 10.8019Z" fill="#6458D8"/>
<path fill-rule="evenodd" clip-rule="evenodd" d="M45.701 15.0623C46.827 15.0623 47.7398 14.1495 47.7398 13.0235C47.7398 11.8974 46.827 10.9846 45.701 10.9846C44.7296 10.9846 43.9168 11.664 43.712 12.5735H40.6779C40.0399 12.5735 39.4261 12.8174 38.9621 13.2552L35.3069 16.7044C35.0285 16.9671 34.6602 17.1134 34.2774 17.1134H20.8392C20.563 17.1134 20.3392 17.3373 20.3392 17.6134C20.3392 17.8895 20.563 18.1134 20.8392 18.1134H34.2774C34.9154 18.1134 35.5292 17.8695 35.9932 17.4317L39.6484 13.9825C39.9268 13.7198 40.2951 13.5735 40.6779 13.5735H43.7372C43.9772 14.4323 44.7655 15.0623 45.701 15.0623Z" fill="#6458D8"/>
<path fill-rule="evenodd" clip-rule="evenodd" d="M37.2544 23.5829C38.3805 23.5829 39.2933 22.6701 39.2933 21.5441C39.2933 20.4181 38.3805 19.5052 37.2544 19.5052C36.2482 19.5052 35.4122 20.2342 35.2457 21.1929H20.8392C20.563 21.1929 20.3392 21.4167 20.3392 21.6929C20.3392 21.969 20.563 22.1929 20.8392 22.1929H35.321C35.592 23.0008 36.3552 23.5829 37.2544 23.5829Z" fill="#6458D8"/>
<path fill-rule="evenodd" clip-rule="evenodd" d="M20.8392 25.2721C20.563 25.2721 20.3392 25.496 20.3392 25.7721C20.3392 26.0482 20.563 26.2721 20.8392 26.2721H29.0159C29.4025 26.2721 29.7743 26.4214 30.0535 26.6889L30.1179 26.7506C29.9904 27.0169 29.919 27.3151 29.919 27.6301C29.919 28.7561 30.8318 29.6689 31.9579 29.6689C33.0839 29.6689 33.9967 28.7561 33.9967 27.6301C33.9967 26.504 33.0839 25.5912 31.9579 25.5912C31.51 25.5912 31.0959 25.7356 30.7595 25.9804L30.7452 25.9667C30.2799 25.5209 29.6603 25.2721 29.0159 25.2721H20.8392Z" fill="#6458D8"/>
<path d="M52.4189 21.6008C51.7161 21.6008 51.3647 21.237 51.3647 20.5096V9.74583C51.3647 9.01839 51.7161 8.65466 52.4189 8.65466C53.134 8.65466 53.4916 9.01839 53.4916 9.74583V20.5096C53.4916 21.237 53.134 21.6008 52.4189 21.6008Z" fill="#6458D8"/>
<path d="M56.984 21.6008C56.2812 21.6008 55.9298 21.237 55.9298 20.5096V13.7961C55.9298 13.0687 56.2442 12.7049 56.8731 12.7049C57.5019 12.7049 57.8286 12.8652 57.8533 13.1858L57.9087 13.7591C58.1553 13.4139 58.4821 13.118 58.8889 12.8714C59.2958 12.6125 59.7767 12.483 60.3315 12.483C61.2562 12.483 62.0083 12.7789 62.5878 13.3707C63.1797 13.9626 63.4756 14.8318 63.4756 15.9785V20.5096C63.4756 21.237 63.1303 21.6008 62.4399 21.6008C61.7371 21.6008 61.3857 21.237 61.3857 20.5096V16.4778C61.3857 15.775 61.2439 15.251 60.9603 14.9058C60.6767 14.5482 60.2945 14.3694 59.8137 14.3694C59.2835 14.3694 58.852 14.5544 58.5191 14.9243C58.1862 15.2818 58.0197 15.8182 58.0197 16.5333V20.5096C58.0197 21.237 57.6745 21.6008 56.984 21.6008Z" fill="#6458D8"/>
<path d="M68.9545 21.7857C68.3997 21.7857 67.8695 21.7179 67.364 21.5823C66.8708 21.4343 66.4146 21.2124 65.9954 20.9165C65.6872 20.7069 65.5207 20.4788 65.4961 20.2322C65.4838 19.9733 65.5824 19.7267 65.792 19.4924C66.0016 19.2705 66.2174 19.1657 66.4393 19.178C66.6736 19.1903 66.9448 19.2828 67.2531 19.4554C67.7462 19.8006 68.3504 19.9733 69.0655 19.9733C69.571 19.9733 69.9347 19.9054 70.1567 19.7698C70.3909 19.6219 70.5081 19.3568 70.5081 18.9746C70.5081 18.7896 70.4526 18.6417 70.3416 18.5307C70.2307 18.4074 70.0211 18.2964 69.7128 18.1978C69.4169 18.0992 68.9792 17.9944 68.3997 17.8834C67.5366 17.7108 66.8462 17.4272 66.3283 17.0326C65.8105 16.6381 65.5516 16.0154 65.5516 15.1647C65.5516 14.6099 65.6995 14.1352 65.9954 13.7406C66.2913 13.3338 66.6921 13.0194 67.1976 12.7974C67.7031 12.5755 68.2641 12.4645 68.8806 12.4645C69.8423 12.4645 70.656 12.668 71.3218 13.0748C71.6547 13.2474 71.8397 13.4632 71.8767 13.7221C71.926 13.9687 71.8582 14.2092 71.6732 14.4434C71.476 14.69 71.2602 14.8133 71.0259 14.8133C70.804 14.8133 70.5389 14.7455 70.2307 14.6099C70.0334 14.4989 69.8238 14.4188 69.6018 14.3694C69.3922 14.3201 69.1641 14.2955 68.9176 14.2955C68.4614 14.2955 68.1346 14.3756 67.9373 14.5359C67.7524 14.6962 67.6599 14.8873 67.6599 15.1092C67.6599 15.2695 67.7031 15.4051 67.7894 15.5161C67.888 15.6271 68.073 15.7319 68.3442 15.8305C68.6155 15.9291 69.01 16.0401 69.5279 16.1634C70.5142 16.3977 71.2787 16.7367 71.8212 17.1806C72.3637 17.6245 72.6349 18.2471 72.6349 19.0485C72.6349 19.9486 72.2897 20.6329 71.5992 21.1014C70.9211 21.5576 70.0395 21.7857 68.9545 21.7857Z" fill="#6458D8"/>
<path d="M77.2759 21.8042C76.3512 21.8042 75.5929 21.5083 75.0011 20.9165C74.4216 20.3247 74.1318 19.4492 74.1318 18.2903V13.7961C74.1318 13.0687 74.4771 12.7049 75.1675 12.7049C75.8703 12.7049 76.2217 13.0687 76.2217 13.7961V17.8279C76.2217 18.506 76.3635 19.0239 76.6471 19.3814C76.943 19.739 77.3252 19.9178 77.7937 19.9178C78.3239 19.9178 78.7554 19.7328 79.0883 19.3629C79.4212 18.9931 79.5877 18.4505 79.5877 17.7354V13.7961C79.5877 13.0687 79.9391 12.7049 80.6419 12.7049C81.3323 12.7049 81.6776 13.0687 81.6776 13.7961V20.5096C81.6776 20.8548 81.5974 21.1261 81.4371 21.3234C81.2768 21.5083 81.0426 21.6008 80.7343 21.6008C80.1179 21.6008 79.7973 21.4405 79.7726 21.1199L79.6987 20.5466C79.4644 20.8795 79.1438 21.1754 78.7369 21.4343C78.3301 21.6809 77.843 21.8042 77.2759 21.8042Z" fill="#6458D8"/>
<path d="M84.9966 21.6008C84.2938 21.6008 83.9424 21.237 83.9424 20.5096V13.7961C83.9424 13.0687 84.3061 12.7049 85.0336 12.7049C85.2802 12.7049 85.4959 12.7666 85.6809 12.8899C85.8658 13.0009 85.9583 13.2166 85.9583 13.5372V13.9626C86.1802 13.5187 86.5255 13.1611 86.994 12.8899C87.4748 12.6186 87.9804 12.483 88.5105 12.483C88.8927 12.483 89.1825 12.5878 89.3798 12.7974C89.5894 12.9947 89.6942 13.2659 89.6942 13.6112C89.6942 13.9317 89.614 14.166 89.4537 14.314C89.2935 14.4619 89.1085 14.5236 88.8989 14.4989C88.8003 14.4866 88.6955 14.4804 88.5845 14.4804C88.4735 14.4681 88.3502 14.4619 88.2146 14.4619C87.6105 14.4619 87.0926 14.6592 86.6611 15.0537C86.2419 15.4483 86.0323 16.0031 86.0323 16.7182V20.5096C86.0323 21.237 85.687 21.6008 84.9966 21.6008Z" fill="#6458D8"/>
<path d="M94.8881 21.8042C93.5935 21.8042 92.5454 21.4158 91.744 20.6391C90.9426 19.85 90.5419 18.6848 90.5419 17.1436C90.5419 16.1819 90.7207 15.3558 91.0782 14.6654C91.4358 13.9626 91.9351 13.4262 92.5763 13.0563C93.2174 12.6741 93.951 12.483 94.7771 12.483C95.6032 12.483 96.306 12.6741 96.8855 13.0563C97.465 13.4386 97.9088 13.9317 98.2171 14.5359C98.5253 15.14 98.6794 15.7689 98.6794 16.4223C98.6794 16.8785 98.587 17.1806 98.402 17.3286C98.2171 17.4642 97.9458 17.532 97.5883 17.532H92.5948C92.6441 18.4197 92.8783 19.0547 93.2976 19.4369C93.7168 19.8068 94.2593 19.9918 94.9251 19.9918C95.6772 19.9918 96.2628 19.7328 96.682 19.215C96.9286 18.9561 97.1567 18.7896 97.3663 18.7156C97.5883 18.6293 97.8225 18.6725 98.0691 18.8451C98.3157 19.0177 98.4575 19.2396 98.4945 19.5109C98.5315 19.7821 98.4205 20.0657 98.1616 20.3616C97.7424 20.8672 97.2615 21.237 96.719 21.4713C96.1765 21.6932 95.5662 21.8042 94.8881 21.8042ZM92.6872 15.923H96.6265C96.5279 15.3435 96.3121 14.8996 95.9792 14.5914C95.6587 14.2708 95.2456 14.1105 94.7401 14.1105C94.1976 14.1105 93.7476 14.2585 93.39 14.5544C93.0448 14.8503 92.8105 15.3065 92.6872 15.923Z" fill="#6458D8"/>
<path d="M104.237 21.6378C103.965 21.6378 103.707 21.5638 103.46 21.4158C103.213 21.2679 103.035 21.0398 102.924 20.7315L100.353 13.9626C100.205 13.568 100.186 13.2598 100.297 13.0378C100.421 12.8159 100.68 12.7049 101.074 12.7049C101.715 12.7049 102.135 12.9947 102.332 13.5742L104.237 18.9376L106.16 13.5742C106.357 12.9947 106.77 12.7049 107.399 12.7049C107.732 12.7049 107.954 12.8159 108.065 13.0378C108.176 13.2598 108.164 13.568 108.028 13.9626L105.55 20.713C105.439 21.0213 105.26 21.2555 105.013 21.4158C104.767 21.5638 104.508 21.6378 104.237 21.6378Z" fill="#6458D8"/>
<path d="M113.509 21.8042C112.214 21.8042 111.166 21.4158 110.365 20.6391C109.563 19.85 109.163 18.6848 109.163 17.1436C109.163 16.1819 109.342 15.3558 109.699 14.6654C110.057 13.9626 110.556 13.4262 111.197 13.0563C111.838 12.6741 112.572 12.483 113.398 12.483C114.224 12.483 114.927 12.6741 115.506 13.0563C116.086 13.4386 116.53 13.9317 116.838 14.5359C117.146 15.14 117.3 15.7689 117.3 16.4223C117.3 16.8785 117.208 17.1806 117.023 17.3286C116.838 17.4642 116.567 17.532 116.209 17.532H111.216C111.265 18.4197 111.499 19.0547 111.918 19.4369C112.338 19.8068 112.88 19.9918 113.546 19.9918C114.298 19.9918 114.884 19.7328 115.303 19.215C115.549 18.9561 115.778 18.7896 115.987 18.7156C116.209 18.6293 116.443 18.6725 116.69 18.8451C116.937 19.0177 117.078 19.2396 117.115 19.5109C117.152 19.7821 117.041 20.0657 116.782 20.3616C116.363 20.8672 115.882 21.237 115.34 21.4713C114.797 21.6932 114.187 21.8042 113.509 21.8042ZM111.308 15.923H115.247C115.149 15.3435 114.933 14.8996 114.6 14.5914C114.28 14.2708 113.866 14.1105 113.361 14.1105C112.818 14.1105 112.368 14.2585 112.011 14.5544C111.666 14.8503 111.431 15.3065 111.308 15.923Z" fill="#6458D8"/>
<path d="M120.324 21.6008C119.621 21.6008 119.27 21.237 119.27 20.5096V13.7961C119.27 13.0687 119.584 12.7049 120.213 12.7049C120.842 12.7049 121.168 12.8652 121.193 13.1858L121.249 13.7591C121.495 13.4139 121.822 13.118 122.229 12.8714C122.636 12.6125 123.117 12.483 123.671 12.483C124.596 12.483 125.348 12.7789 125.928 13.3707C126.519 13.9626 126.815 14.8318 126.815 15.9785V20.5096C126.815 21.237 126.47 21.6008 125.78 21.6008C125.077 21.6008 124.726 21.237 124.726 20.5096V16.4778C124.726 15.775 124.584 15.251 124.3 14.9058C124.017 14.5482 123.634 14.3694 123.153 14.3694C122.623 14.3694 122.192 14.5544 121.859 14.9243C121.526 15.2818 121.36 15.8182 121.36 16.5333V20.5096C121.36 21.237 121.014 21.6008 120.324 21.6008Z" fill="#6458D8"/>
<path d="M132.377 21.8042C131.502 21.8042 130.83 21.6439 130.361 21.3234C129.905 21.0028 129.677 20.3616 129.677 19.3999V14.4989H129.067C128.339 14.4989 127.975 14.1968 127.975 13.5927C127.975 13.3091 128.049 13.0933 128.197 12.9454C128.358 12.7851 128.641 12.7049 129.048 12.7049H129.677V10.6706C129.677 9.94311 130.028 9.57939 130.731 9.57939C131.409 9.57939 131.748 9.94311 131.748 10.6706V12.7049H133.117C133.844 12.7049 134.208 13.0009 134.208 13.5927C134.208 14.1968 133.85 14.4989 133.135 14.4989H131.748V18.8636C131.748 19.2828 131.847 19.5664 132.044 19.7143C132.254 19.8623 132.55 19.9363 132.932 19.9363C133.326 19.9363 133.635 19.9856 133.857 20.0842C134.091 20.1705 134.208 20.4048 134.208 20.787C134.208 21.0953 134.115 21.3234 133.931 21.4713C133.758 21.6069 133.53 21.6932 133.246 21.7302C132.975 21.7795 132.685 21.8042 132.377 21.8042Z" fill="#6458D8"/>
<path d="M52.1253 32.0802C51.871 32.0802 51.6445 32.0201 51.4457 31.8999C51.2469 31.7751 51.0873 31.6017 50.9671 31.3798V31.8098C50.9671 31.8791 50.9486 31.93 50.9117 31.9623C50.8747 31.9901 50.8261 32.004 50.766 32.004C50.6319 32.004 50.5649 31.9277 50.5649 31.7751V27.2255C50.5649 27.0729 50.6365 26.9966 50.7799 26.9966C50.9186 26.9966 50.9879 27.0729 50.9879 27.2255V29.2645C51.1082 29.061 51.2654 28.9015 51.4595 28.7859C51.6537 28.6657 51.8757 28.6056 52.1253 28.6056C52.4213 28.6056 52.6848 28.6796 52.916 28.8275C53.1472 28.9709 53.3275 29.172 53.4569 29.4309C53.591 29.6898 53.6581 29.9927 53.6581 30.3395C53.6581 30.6862 53.591 30.9914 53.4569 31.2549C53.3275 31.5138 53.1472 31.7173 52.916 31.8652C52.6848 32.0086 52.4213 32.0802 52.1253 32.0802ZM52.1184 31.6849C52.3357 31.6849 52.5276 31.6294 52.6941 31.5185C52.8651 31.4075 52.9992 31.2526 53.0963 31.0538C53.1934 30.8504 53.2419 30.6122 53.2419 30.3395C53.2419 30.0667 53.1934 29.8309 53.0963 29.632C52.9992 29.4332 52.8651 29.2783 52.6941 29.1674C52.5276 29.0564 52.3357 29.0009 52.1184 29.0009C51.7901 29.0009 51.5197 29.1234 51.307 29.3685C51.0943 29.6089 50.9879 29.9326 50.9879 30.3395C50.9879 30.7463 51.0943 31.0723 51.307 31.3173C51.5197 31.5624 51.7901 31.6849 52.1184 31.6849Z" fill="black"/>
<path d="M54.5377 33.502C54.4914 33.502 54.4452 33.4997 54.399 33.4951C54.3574 33.4904 54.3134 33.4835 54.2672 33.4743C54.1285 33.4604 54.0591 33.3841 54.0591 33.2454C54.0591 33.1252 54.1192 33.072 54.2395 33.0859C54.3319 33.0997 54.4221 33.1067 54.5099 33.1067C54.681 33.1067 54.8082 33.0674 54.8914 32.9888C54.9746 32.9148 55.0532 32.783 55.1272 32.5935L55.3491 32.004L54.1493 28.9454C54.1169 28.8668 54.1123 28.8044 54.1354 28.7582C54.1585 28.7073 54.2025 28.6819 54.2672 28.6819H54.288C54.4128 28.6819 54.5007 28.742 54.5516 28.8622L55.5433 31.4769L56.5004 28.8691C56.542 28.7443 56.6276 28.6819 56.757 28.6819C56.831 28.6819 56.8818 28.7073 56.9096 28.7582C56.9373 28.8044 56.9373 28.8668 56.9096 28.9454L55.5017 32.7252C55.4046 32.9934 55.2821 33.1899 55.1341 33.3147C54.9862 33.4396 54.7874 33.502 54.5377 33.502Z" fill="black"/>
<path d="M61.0202 32.0802C60.7196 32.0802 60.4515 32.0109 60.2157 31.8722C59.9845 31.7288 59.8019 31.5277 59.6678 31.2688C59.5383 31.0053 59.4736 30.6955 59.4736 30.3395C59.4736 29.9927 59.5383 29.6898 59.6678 29.4309C59.8019 29.172 59.9845 28.9709 60.2157 28.8275C60.4469 28.6796 60.7104 28.6056 61.0063 28.6056C61.3068 28.6056 61.5611 28.6796 61.7692 28.8275C61.9819 28.9755 62.1437 29.1627 62.2547 29.3893C62.3656 29.6159 62.4211 29.847 62.4211 30.0828C62.4211 30.1661 62.4003 30.2239 62.3587 30.2562C62.3217 30.2886 62.2662 30.3048 62.1923 30.3048H59.8966C59.8874 30.7209 59.9845 31.0584 60.1879 31.3173C60.396 31.5716 60.6757 31.6988 61.0271 31.6988C61.4617 31.6988 61.7854 31.5023 61.9981 31.1093C62.0905 30.9891 62.1853 30.9567 62.2824 31.0122C62.4026 31.0908 62.4188 31.1948 62.331 31.3243C62.0397 31.8283 61.6028 32.0802 61.0202 32.0802ZM59.9244 29.9441H62.005C61.9819 29.7638 61.9241 29.5997 61.8316 29.4517C61.7438 29.3038 61.6282 29.1859 61.4849 29.098C61.3461 29.0102 61.1866 28.9662 61.0063 28.9662C60.7243 28.9662 60.4862 29.0541 60.292 29.2298C60.1024 29.4009 59.9799 29.639 59.9244 29.9441Z" fill="black"/>
<path d="M64.3414 32.0109C64.2906 32.0109 64.242 31.997 64.1958 31.9693C64.1495 31.9369 64.1149 31.8884 64.0918 31.8236L62.9543 28.9454C62.922 28.8668 62.9174 28.8044 62.9405 28.7582C62.9682 28.7073 63.0191 28.6819 63.0931 28.6819C63.2271 28.6819 63.315 28.742 63.3566 28.8622L64.3345 31.4006L65.2846 28.8622C65.3355 28.742 65.4234 28.6819 65.5482 28.6819C65.6175 28.6819 65.6638 28.7073 65.6869 28.7582C65.71 28.8044 65.7077 28.8668 65.68 28.9454L64.5842 31.8167C64.5333 31.9462 64.4524 32.0109 64.3414 32.0109Z" fill="black"/>
<path d="M67.7185 32.0802C67.418 32.0802 67.1498 32.0109 66.914 31.8722C66.6829 31.7288 66.5002 31.5277 66.3661 31.2688C66.2367 31.0053 66.1719 30.6955 66.1719 30.3395C66.1719 29.9927 66.2367 29.6898 66.3661 29.4309C66.5002 29.172 66.6829 28.9709 66.914 28.8275C67.1452 28.6796 67.4088 28.6056 67.7047 28.6056C68.0052 28.6056 68.2595 28.6796 68.4676 28.8275C68.6803 28.9755 68.8421 29.1627 68.953 29.3893C69.064 29.6159 69.1195 29.847 69.1195 30.0828C69.1195 30.1661 69.0987 30.2239 69.0571 30.2562C69.0201 30.2886 68.9646 30.3048 68.8906 30.3048H66.595C66.5858 30.7209 66.6829 31.0584 66.8863 31.3173C67.0944 31.5716 67.3741 31.6988 67.7255 31.6988C68.1601 31.6988 68.4837 31.5023 68.6964 31.1093C68.7889 30.9891 68.8837 30.9567 68.9808 31.0122C69.101 31.0908 69.1172 31.1948 69.0293 31.3243C68.738 31.8283 68.3011 32.0802 67.7185 32.0802ZM66.6227 29.9441H68.7034C68.6803 29.7638 68.6225 29.5997 68.53 29.4517C68.4421 29.3038 68.3265 29.1859 68.1832 29.098C68.0445 29.0102 67.885 28.9662 67.7047 28.9662C67.4226 28.9662 67.1845 29.0541 66.9903 29.2298C66.8008 29.4009 66.6782 29.639 66.6227 29.9441Z" fill="black"/>
<path d="M70.2112 32.004C70.0679 32.004 69.9962 31.9277 69.9962 31.7751V28.9108C69.9962 28.7582 70.0702 28.6819 70.2182 28.6819C70.2736 28.6819 70.3199 28.6981 70.3569 28.7304C70.3985 28.7582 70.4193 28.8067 70.4193 28.8761V29.2575C70.5118 29.0633 70.6574 28.9061 70.8562 28.7859C71.0597 28.6611 71.2839 28.5987 71.529 28.5987C71.6492 28.5987 71.744 28.6172 71.8133 28.6541C71.8827 28.6865 71.9173 28.7443 71.9173 28.8275C71.9173 28.8969 71.8965 28.9477 71.8549 28.9801C71.8179 29.0125 71.7717 29.0263 71.7162 29.0217C71.6838 29.0217 71.6469 29.0194 71.6052 29.0148C71.5683 29.0102 71.529 29.0079 71.4873 29.0079C71.2931 29.0079 71.1151 29.0541 70.9533 29.1466C70.7915 29.2344 70.662 29.3546 70.5649 29.5072C70.4725 29.6552 70.4262 29.8239 70.4262 30.0135V31.7751C70.4262 31.9277 70.3546 32.004 70.2112 32.004Z" fill="black"/>
<path d="M73.7828 32.0109C73.7319 32.0109 73.6834 31.997 73.6372 31.9693C73.5909 31.9369 73.5562 31.8884 73.5331 31.8236L72.3957 28.9454C72.3634 28.8668 72.3587 28.8044 72.3818 28.7582C72.4096 28.7073 72.4604 28.6819 72.5344 28.6819C72.6685 28.6819 72.7564 28.742 72.798 28.8622L73.7759 31.4006L74.726 28.8622C74.7769 28.742 74.8647 28.6819 74.9896 28.6819C75.0589 28.6819 75.1052 28.7073 75.1283 28.7582C75.1514 28.8044 75.1491 28.8668 75.1213 28.9454L74.0255 31.8167C73.9747 31.9462 73.8938 32.0109 73.7828 32.0109Z" fill="black"/>
<path d="M77.1599 32.0802C76.8594 32.0802 76.5912 32.0109 76.3554 31.8722C76.1242 31.7288 75.9416 31.5277 75.8075 31.2688C75.678 31.0053 75.6133 30.6955 75.6133 30.3395C75.6133 29.9927 75.678 29.6898 75.8075 29.4309C75.9416 29.172 76.1242 28.9709 76.3554 28.8275C76.5866 28.6796 76.8501 28.6056 77.146 28.6056C77.4466 28.6056 77.7009 28.6796 77.9089 28.8275C78.1216 28.9755 78.2834 29.1627 78.3944 29.3893C78.5054 29.6159 78.5609 29.847 78.5609 30.0828C78.5609 30.1661 78.5401 30.2239 78.4984 30.2562C78.4615 30.2886 78.406 30.3048 78.332 30.3048H76.0364C76.0271 30.7209 76.1242 31.0584 76.3277 31.3173C76.5357 31.5716 76.8155 31.6988 77.1668 31.6988C77.6015 31.6988 77.9251 31.5023 78.1378 31.1093C78.2303 30.9891 78.3251 30.9567 78.4222 31.0122C78.5424 31.0908 78.5586 31.1948 78.4707 31.3243C78.1794 31.8283 77.7425 32.0802 77.1599 32.0802ZM76.0641 29.9441H78.1447C78.1216 29.7638 78.0638 29.5997 77.9714 29.4517C77.8835 29.3038 77.7679 29.1859 77.6246 29.098C77.4859 29.0102 77.3264 28.9662 77.146 28.9662C76.864 28.9662 76.6259 29.0541 76.4317 29.2298C76.2421 29.4009 76.1196 29.639 76.0641 29.9441Z" fill="black"/>
<path d="M79.6526 32.004C79.5093 32.004 79.4376 31.9277 79.4376 31.7751V28.9108C79.4376 28.7582 79.5046 28.6819 79.6387 28.6819C79.7728 28.6819 79.8399 28.7327 79.8399 28.8345L79.8468 29.1535C79.9531 28.9963 80.0942 28.8645 80.2698 28.7582C80.4502 28.6518 80.6536 28.5987 80.8802 28.5987C81.2362 28.5987 81.5228 28.7119 81.7402 28.9385C81.9575 29.1651 82.0661 29.4887 82.0661 29.9095V31.7751C82.0661 31.9277 81.9968 32.004 81.8581 32.004C81.7194 32.004 81.65 31.9277 81.65 31.7751V29.9719C81.65 29.6482 81.5714 29.4055 81.4142 29.2437C81.2616 29.0818 81.0628 29.0009 80.8177 29.0009C80.6328 29.0009 80.4664 29.0425 80.3184 29.1258C80.1751 29.2044 80.0618 29.313 79.9786 29.4517C79.9 29.5858 79.8607 29.7361 79.8607 29.9025V31.7751C79.8607 31.9277 79.7913 32.004 79.6526 32.004Z" fill="black"/>
<path d="M84.2632 32.0802C83.9673 32.0802 83.7453 32.0178 83.5974 31.893C83.4494 31.7681 83.3755 31.5439 83.3755 31.2202V29.0703H82.883C82.7305 29.0703 82.6542 29.0032 82.6542 28.8691C82.6542 28.7443 82.7305 28.6819 82.883 28.6819H83.3755V27.6901C83.3755 27.5375 83.4448 27.4613 83.5835 27.4613C83.7222 27.4613 83.7916 27.5375 83.7916 27.6901V28.6819H84.5753C84.7279 28.6819 84.8041 28.7443 84.8041 28.8691C84.8041 29.0032 84.7279 29.0703 84.5753 29.0703H83.7916V31.1509C83.7916 31.359 83.8355 31.5023 83.9233 31.5809C84.0112 31.6549 84.1476 31.6919 84.3325 31.6919C84.3557 31.6919 84.3788 31.6919 84.4019 31.6919C84.4296 31.6872 84.4551 31.6849 84.4782 31.6849C84.5707 31.6803 84.6469 31.6849 84.7071 31.6988C84.7718 31.708 84.8041 31.7566 84.8041 31.8444C84.8041 31.9462 84.7487 32.0109 84.6377 32.0386C84.5267 32.0664 84.4019 32.0802 84.2632 32.0802Z" fill="black"/>
<defs>
<filter id="filter0_d_1053_2424" x="-6.10352e-05" y="0.908203" width="29.8092" height="47.1833" filterUnits="userSpaceOnUse" color-interpolation-filters="sRGB">
<feFlood flood-opacity="0" result="BackgroundImageFix"/>
<feColorMatrix in="SourceAlpha" type="matrix" values="0 0 0 0 0 0 0 0 0 0 0 0 0 0 0 0 0 0 127 0" result="hardAlpha"/>
<feOffset dy="4"/>
<feGaussianBlur stdDeviation="2"/>
<feComposite in2="hardAlpha" operator="out"/>
<feColorMatrix type="matrix" values="0 0 0 0 1 0 0 0 0 1 0 0 0 0 1 0 0 0 0.12 0"/>
<feBlend mode="normal" in2="BackgroundImageFix" result="effect1_dropShadow_1053_2424"/>
<feBlend mode="normal" in="SourceGraphic" in2="effect1_dropShadow_1053_2424" result="shape"/>
</filter>
</defs>
</svg>
