<svg width="117" height="34" viewBox="0 0 117 34" fill="none" xmlns="http://www.w3.org/2000/svg">
<path d="M18.7997 29.5869C18.7997 29.2309 18.548 28.9266 18.2032 28.8382C12.9357 27.4889 9.04204 22.7102 9.04204 17.0221C9.04204 12.0555 12.0105 7.78232 16.2699 5.87984C17.6496 5.2636 18.7696 3.87371 18.0122 2.56613C17.0793 0.95546 15.3978 -0.118212 13.4059 0.0104268C11.3214 0.14505 9.33513 0.485091 7.32236 0.966407C7.02222 1.03492 6.73169 1.10598 6.45072 1.17904C2.0624 2.32012 -0.476556 6.48055 0.0746442 10.9812C0.577236 15.0849 1.99585 20.4859 5.64188 25.7941C7.73155 28.855 10.2367 31.1329 12.2116 32.6018C13.3881 33.4768 14.7215 33.8473 16.0309 33.7131C17.9199 33.5196 18.7997 31.4857 18.7997 29.5869Z" fill="#6458D8"/>
<path d="M27.5842 8.52772C28.5583 8.52772 29.348 7.73801 29.348 6.76386C29.348 5.78971 28.5583 5 27.5842 5C26.61 5 25.8203 5.78971 25.8203 6.76386C25.8203 7.11528 25.9231 7.44269 26.1002 7.71769L23.6801 9.98578C23.4021 10.2463 23.0354 10.3913 22.6544 10.3913H14.5C14.2239 10.3913 14 10.6152 14 10.8913C14 11.1675 14.2239 11.3913 14.5 11.3913H22.6544C23.2894 11.3913 23.9006 11.1497 24.364 10.7154L26.8625 8.3738C27.0828 8.4727 27.327 8.52772 27.5842 8.52772Z" fill="#6458D8"/>
<path d="M36.0086 12.2135C36.9827 12.2135 37.7724 11.4238 37.7724 10.4496C37.7724 9.47545 36.9827 8.68574 36.0086 8.68574C35.1924 8.68574 34.5056 9.24013 34.3044 9.9929H31.7702C31.1322 9.9929 30.5184 10.2368 30.0544 10.6746L27.0481 13.5115C26.7697 13.7742 26.4014 13.9205 26.0186 13.9205H14.5C14.2239 13.9205 14 14.1444 14 14.4205C14 14.6966 14.2239 14.9205 14.5 14.9205H26.0186C26.6566 14.9205 27.2704 14.6766 27.7344 14.2388L30.7407 11.4019C31.0191 11.1392 31.3874 10.9929 31.7702 10.9929H34.33C34.5591 11.7012 35.224 12.2135 36.0086 12.2135Z" fill="#6458D8"/>
<path d="M28.7013 19.5848C29.6754 19.5848 30.4651 18.7951 30.4651 17.821C30.4651 16.8468 29.6754 16.0571 28.7013 16.0571C27.8545 16.0571 27.147 16.6538 26.9765 17.4497H14.5C14.2239 17.4497 14 17.6736 14 17.9497C14 18.2259 14.2239 18.4497 14.5 18.4497H27.0528C27.306 19.1134 27.9486 19.5848 28.7013 19.5848Z" fill="#6458D8"/>
<path d="M14.5 20.9788C14.2239 20.9788 14 21.2026 14 21.4788C14 21.7549 14.2239 21.9788 14.5 21.9788H21.4655C21.8497 21.9788 22.2191 22.1261 22.4977 22.3904C22.406 22.6038 22.3552 22.839 22.3552 23.0861C22.3552 24.0602 23.1449 24.8499 24.1191 24.8499C25.0932 24.8499 25.8829 24.0602 25.8829 23.0861C25.8829 22.1119 25.0932 21.3222 24.1191 21.3222C23.7558 21.3222 23.4182 21.432 23.1376 21.6202C22.6793 21.2079 22.0839 20.9788 21.4655 20.9788H14.5Z" fill="#6458D8"/>
<path d="M42.2044 24.8699C41.4824 24.8699 41.1214 24.4963 41.1214 23.7489V12.6909C41.1214 11.9436 41.4824 11.5699 42.2044 11.5699C42.9391 11.5699 43.3064 11.9436 43.3064 12.6909V23.7489C43.3064 24.4963 42.9391 24.8699 42.2044 24.8699Z" fill="#6458D8"/>
<path d="M46.8943 24.8699C46.1723 24.8699 45.8113 24.4963 45.8113 23.7489V16.8519C45.8113 16.1046 46.1343 15.7309 46.7803 15.7309C47.4263 15.7309 47.762 15.8956 47.7873 16.2249L47.8443 16.8139C48.0977 16.4593 48.4333 16.1553 48.8513 15.9019C49.2693 15.6359 49.7633 15.5029 50.3333 15.5029C51.2833 15.5029 52.056 15.8069 52.6513 16.4149C53.2593 17.0229 53.5633 17.9159 53.5633 19.0939V23.7489C53.5633 24.4963 53.2087 24.8699 52.4993 24.8699C51.7773 24.8699 51.4163 24.4963 51.4163 23.7489V19.6069C51.4163 18.8849 51.2707 18.3466 50.9793 17.9919C50.688 17.6246 50.2953 17.4409 49.8013 17.4409C49.2567 17.4409 48.8133 17.6309 48.4713 18.0109C48.1293 18.3783 47.9583 18.9293 47.9583 19.6639V23.7489C47.9583 24.4963 47.6037 24.8699 46.8943 24.8699Z" fill="#6458D8"/>
<path d="M59.1921 25.0599C58.6221 25.0599 58.0774 24.9903 57.5581 24.8509C57.0514 24.6989 56.5827 24.4709 56.1521 24.1669C55.8354 23.9516 55.6644 23.7173 55.6391 23.4639C55.6264 23.1979 55.7277 22.9446 55.9431 22.7039C56.1584 22.4759 56.3801 22.3683 56.6081 22.3809C56.8487 22.3936 57.1274 22.4886 57.4441 22.6659C57.9507 23.0206 58.5714 23.1979 59.3061 23.1979C59.8254 23.1979 60.1991 23.1283 60.4271 22.9889C60.6677 22.8369 60.7881 22.5646 60.7881 22.1719C60.7881 21.9819 60.7311 21.8299 60.6171 21.7159C60.5031 21.5893 60.2877 21.4753 59.9711 21.3739C59.6671 21.2726 59.2174 21.1649 58.6221 21.0509C57.7354 20.8736 57.0261 20.5823 56.4941 20.1769C55.9621 19.7716 55.6961 19.1319 55.6961 18.2579C55.6961 17.6879 55.8481 17.2003 56.1521 16.7949C56.4561 16.3769 56.8677 16.0539 57.3871 15.8259C57.9064 15.5979 58.4827 15.4839 59.1161 15.4839C60.1041 15.4839 60.9401 15.6929 61.6241 16.1109C61.9661 16.2883 62.1561 16.5099 62.1941 16.7759C62.2447 17.0293 62.1751 17.2763 61.9851 17.5169C61.7824 17.7703 61.5607 17.8969 61.3201 17.8969C61.0921 17.8969 60.8197 17.8273 60.5031 17.6879C60.3004 17.5739 60.0851 17.4916 59.8571 17.4409C59.6417 17.3903 59.4074 17.3649 59.1541 17.3649C58.6854 17.3649 58.3497 17.4473 58.1471 17.6119C57.9571 17.7766 57.8621 17.9729 57.8621 18.2009C57.8621 18.3656 57.9064 18.5049 57.9951 18.6189C58.0964 18.7329 58.2864 18.8406 58.5651 18.9419C58.8437 19.0433 59.2491 19.1573 59.7811 19.2839C60.7944 19.5246 61.5797 19.8729 62.1371 20.3289C62.6944 20.7849 62.9731 21.4246 62.9731 22.2479C62.9731 23.1726 62.6184 23.8756 61.9091 24.3569C61.2124 24.8256 60.3067 25.0599 59.1921 25.0599Z" fill="#6458D8"/>
<path d="M67.7409 25.0789C66.7909 25.0789 66.0119 24.7749 65.4039 24.1669C64.8086 23.5589 64.5109 22.6596 64.5109 21.4689V16.8519C64.5109 16.1046 64.8656 15.7309 65.5749 15.7309C66.2969 15.7309 66.6579 16.1046 66.6579 16.8519V20.9939C66.6579 21.6906 66.8036 22.2226 67.0949 22.5899C67.3989 22.9573 67.7916 23.1409 68.2729 23.1409C68.8176 23.1409 69.2609 22.9509 69.6029 22.5709C69.9449 22.1909 70.1159 21.6336 70.1159 20.8989V16.8519C70.1159 16.1046 70.4769 15.7309 71.1989 15.7309C71.9082 15.7309 72.2629 16.1046 72.2629 16.8519V23.7489C72.2629 24.1036 72.1806 24.3823 72.0159 24.5849C71.8512 24.7749 71.6106 24.8699 71.2939 24.8699C70.6606 24.8699 70.3312 24.7053 70.3059 24.3759L70.2299 23.7869C69.9892 24.1289 69.6599 24.4329 69.2419 24.6989C68.8239 24.9523 68.3236 25.0789 67.7409 25.0789Z" fill="#6458D8"/>
<path d="M75.6726 24.8699C74.9506 24.8699 74.5896 24.4963 74.5896 23.7489V16.8519C74.5896 16.1046 74.9633 15.7309 75.7106 15.7309C75.964 15.7309 76.1856 15.7943 76.3756 15.9209C76.5656 16.0349 76.6607 16.2566 76.6607 16.5859V17.0229C76.8887 16.5669 77.2433 16.1996 77.7246 15.9209C78.2186 15.6423 78.738 15.5029 79.2826 15.5029C79.6753 15.5029 79.973 15.6106 80.1757 15.8259C80.391 16.0286 80.4986 16.3073 80.4986 16.6619C80.4986 16.9913 80.4163 17.2319 80.2516 17.3839C80.087 17.5359 79.897 17.5993 79.6816 17.5739C79.5803 17.5613 79.4727 17.5549 79.3587 17.5549C79.2447 17.5423 79.118 17.5359 78.9787 17.5359C78.358 17.5359 77.826 17.7386 77.3827 18.1439C76.952 18.5493 76.7366 19.1193 76.7366 19.8539V23.7489C76.7366 24.4963 76.382 24.8699 75.6726 24.8699Z" fill="#6458D8"/>
<path d="M85.5305 24.9079C85.2519 24.9079 84.9859 24.8319 84.7325 24.6799C84.4792 24.5279 84.2955 24.2936 84.1815 23.9769L81.5405 17.0229C81.3885 16.6176 81.3695 16.3009 81.4835 16.0729C81.6102 15.8449 81.8762 15.7309 82.2815 15.7309C82.9402 15.7309 83.3709 16.0286 83.5735 16.6239L85.5305 22.1339L87.5065 16.6239C87.7092 16.0286 88.1335 15.7309 88.7795 15.7309C89.1215 15.7309 89.3495 15.8449 89.4635 16.0729C89.5775 16.3009 89.5649 16.6176 89.4255 17.0229L86.8795 23.9579C86.7655 24.2746 86.5819 24.5153 86.3285 24.6799C86.0752 24.8319 85.8092 24.9079 85.5305 24.9079Z" fill="#B2ABEC"/>
<path d="M95.0562 25.0789C93.7262 25.0789 92.6495 24.6799 91.8262 23.8819C91.0029 23.0713 90.5912 21.8743 90.5912 20.2909C90.5912 19.3029 90.7749 18.4543 91.1422 17.7449C91.5095 17.0229 92.0225 16.4719 92.6812 16.0919C93.3399 15.6993 94.0935 15.5029 94.9422 15.5029C95.7909 15.5029 96.5129 15.6993 97.1082 16.0919C97.7035 16.4846 98.1595 16.9913 98.4762 17.6119C98.7929 18.2326 98.9512 18.8786 98.9512 19.5499C98.9512 20.0186 98.8562 20.3289 98.6662 20.4809C98.4762 20.6203 98.1975 20.6899 97.8302 20.6899H92.7002C92.7509 21.6019 92.9915 22.2543 93.4222 22.6469C93.8529 23.0269 94.4102 23.2169 95.0942 23.2169C95.8669 23.2169 96.4685 22.9509 96.8992 22.4189C97.1525 22.1529 97.3869 21.9819 97.6022 21.9059C97.8302 21.8173 98.0709 21.8616 98.3242 22.0389C98.5775 22.2163 98.7232 22.4443 98.7612 22.7229C98.7992 23.0016 98.6852 23.2929 98.4192 23.5969C97.9885 24.1163 97.4945 24.4963 96.9372 24.7369C96.3799 24.9649 95.7529 25.0789 95.0562 25.0789ZM92.7952 19.0369H96.8422C96.7409 18.4416 96.5192 17.9856 96.1772 17.6689C95.8479 17.3396 95.4235 17.1749 94.9042 17.1749C94.3469 17.1749 93.8845 17.3269 93.5172 17.6309C93.1625 17.9349 92.9219 18.4036 92.7952 19.0369Z" fill="#B2ABEC"/>
<path d="M102.057 24.8699C101.335 24.8699 100.974 24.4963 100.974 23.7489V16.8519C100.974 16.1046 101.297 15.7309 101.943 15.7309C102.589 15.7309 102.925 15.8956 102.95 16.2249L103.007 16.8139C103.261 16.4593 103.596 16.1553 104.014 15.9019C104.432 15.6359 104.926 15.5029 105.496 15.5029C106.446 15.5029 107.219 15.8069 107.814 16.4149C108.422 17.0229 108.726 17.9159 108.726 19.0939V23.7489C108.726 24.4963 108.372 24.8699 107.662 24.8699C106.94 24.8699 106.579 24.4963 106.579 23.7489V19.6069C106.579 18.8849 106.434 18.3466 106.142 17.9919C105.851 17.6246 105.458 17.4409 104.964 17.4409C104.42 17.4409 103.976 17.6309 103.634 18.0109C103.292 18.3783 103.121 18.9293 103.121 19.6639V23.7489C103.121 24.4963 102.767 24.8699 102.057 24.8699Z" fill="#B2ABEC"/>
<path d="M114.44 25.0789C113.541 25.0789 112.85 24.9143 112.369 24.5849C111.9 24.2556 111.666 23.5969 111.666 22.6089V17.5739H111.039C110.292 17.5739 109.918 17.2636 109.918 16.6429C109.918 16.3516 109.994 16.1299 110.146 15.9779C110.311 15.8133 110.602 15.7309 111.02 15.7309H111.666V13.6409C111.666 12.8936 112.027 12.5199 112.749 12.5199C113.446 12.5199 113.794 12.8936 113.794 13.6409V15.7309H115.2C115.947 15.7309 116.321 16.0349 116.321 16.6429C116.321 17.2636 115.954 17.5739 115.219 17.5739H113.794V22.0579C113.794 22.4886 113.895 22.7799 114.098 22.9319C114.313 23.0839 114.617 23.1599 115.01 23.1599C115.415 23.1599 115.732 23.2106 115.96 23.3119C116.201 23.4006 116.321 23.6413 116.321 24.0339C116.321 24.3506 116.226 24.5849 116.036 24.7369C115.859 24.8763 115.624 24.9649 115.333 25.0029C115.054 25.0536 114.757 25.0789 114.44 25.0789Z" fill="#B2ABEC"/>
</svg>
