<svg width="1200" height="226" viewBox="0 0 1200 226" fill="none" xmlns="http://www.w3.org/2000/svg">
<g clip-path="url(#clip0_2127_3781)">
<path d="M824.721 180.251C810.87 180.251 797.02 179.388 783.266 177.54C754.2 173.719 726.596 165.832 701.333 154.247C674.412 141.923 650.515 125.408 630.227 105.32C623.691 98.9111 618.619 91.2701 613.742 83.9988C605.354 71.4281 597.453 59.5969 583.31 54.7904C563.314 47.8889 533.76 56.2694 507.717 63.5406C496.987 66.4985 486.941 69.4563 478.455 70.9352C404.227 84.1221 329.316 96.0765 255.869 106.429C182.812 116.781 107.901 126.024 33.3806 134.035C28.3085 134.528 23.0413 135.144 17.9693 135.76C-11.6828 139.211 -42.4079 142.785 -71.5723 137.979C-104.833 132.556 -130.389 116.904 -149.897 90.0377L-150.092 89.7912H-149.799C-90.2999 97.8019 -27.1917 101.746 42.9395 101.746C44.6952 101.746 46.3534 101.746 48.1091 101.746C117.752 101.499 187.298 97.5555 246.115 93.7349C323.757 88.682 388.816 82.7664 454.167 70.5655C470.359 67.6076 485.868 62.8012 500.791 58.2412C524.006 51.2164 545.855 44.4381 566.923 45.424C590.43 46.41 609.938 56.7623 628.373 77.96C672.754 129.229 725.425 159.423 784.827 167.557C838.474 174.951 897.095 164.722 959.131 136.87C981.467 126.887 1002.44 114.193 1022.63 101.992C1059.01 79.9319 1093.44 59.1039 1135.29 52.6954C1140.46 51.9559 1155.19 51.8326 1177.82 52.3256C1198.79 52.8185 1224.54 53.9277 1250.29 55.4066C1298.08 58.1179 1349.88 62.185 1352.02 65.759C1352.12 66.0055 1352.12 66.1287 1352.12 66.252V66.3752H1352.02C1319.93 69.0865 1286.47 66.745 1254.19 64.4034C1212.44 61.4455 1169.23 58.3645 1128.26 66.252C1088.37 73.893 1051.99 96.0765 1016.68 117.644C994.343 131.324 971.226 145.373 947.328 155.726C909.581 171.87 867.151 180.251 824.721 180.251ZM565.753 51.9559C572.093 51.9559 578.043 52.6954 583.31 54.544C597.551 59.4737 605.549 71.3049 613.84 83.8756C618.717 91.1469 623.789 98.6646 630.227 105.196C650.515 125.285 674.412 141.676 701.333 154C726.693 165.585 754.2 173.473 783.266 177.293C838.962 184.688 897.193 176.923 947.133 155.356C970.933 145.127 994.05 130.954 1016.39 117.274C1051.6 95.7068 1088.08 73.5232 1127.97 65.8822C1168.94 57.9947 1212.15 61.0758 1253.9 64.0336C1286.18 66.3752 1319.54 68.7168 1351.63 66.0055V65.8822C1349.88 63.0476 1310.08 58.9807 1250.09 55.6531C1202.88 53.065 1146.5 51.2164 1135.09 52.9418C1093.15 59.3504 1058.82 80.1783 1022.43 102.239C1002.24 114.44 981.37 127.134 958.936 137.239C896.9 165.092 838.181 175.444 784.534 167.927C725.035 159.669 672.364 129.475 627.983 78.2064C609.646 57.0088 590.138 46.6565 566.728 45.6705C545.66 44.8078 523.811 51.4629 500.694 58.4877C485.77 63.0476 470.261 67.7308 454.07 70.8119C388.718 82.8896 323.659 88.8053 246.017 93.9814C187.201 97.802 117.655 101.869 48.0115 101.992C-24.1679 102.239 -88.8368 98.2949 -149.604 90.1609C-130.194 116.781 -104.638 132.433 -71.5723 137.856C-42.4079 142.662 -11.7804 139.088 17.8717 135.637C22.9438 135.021 28.2109 134.405 33.283 133.912C107.803 126.024 182.714 116.658 255.771 106.306C329.219 95.9533 404.129 83.8755 478.357 70.8119C486.843 69.333 496.89 66.4984 507.619 63.4174C526.834 57.8715 547.903 51.9559 565.753 51.9559Z" fill="white" fill-opacity="0.38"/>
<path d="M906.924 51.2626C893.073 51.2626 879.223 50.3999 865.47 48.5513C836.403 44.7308 808.799 36.8433 783.536 25.2585C756.615 12.9343 732.718 -3.58016 712.43 -23.6686C705.895 -30.0772 700.822 -37.7182 695.945 -44.9895C687.557 -57.5602 679.656 -69.3914 665.513 -74.1979C645.517 -81.0994 615.963 -72.7189 589.92 -65.4476C579.19 -62.4898 569.144 -59.532 560.658 -58.0531C486.43 -44.8662 411.519 -32.9117 338.072 -22.5594C265.015 -12.2071 190.104 -2.96388 115.584 5.04686C110.512 5.53982 105.244 6.15599 100.172 6.7722C70.5203 10.223 39.7953 13.797 10.6309 8.99054C-22.6302 3.56789 -48.1856 -12.0838 -67.6936 -38.9506L-67.8887 -39.1971H-67.5961C-8.09678 -31.1864 55.0115 -27.2426 125.143 -27.2426C126.898 -27.2426 128.556 -27.2426 130.312 -27.2426C199.956 -27.4891 269.501 -31.4328 328.318 -35.2533C405.96 -40.3063 471.019 -46.2219 536.37 -58.4228C552.562 -61.3806 568.071 -66.1871 582.994 -70.747C606.209 -77.7718 628.058 -84.5502 649.126 -83.5642C672.633 -82.5783 692.141 -72.2259 710.576 -51.0283C754.957 0.240408 807.629 30.4347 867.03 38.5686C920.677 45.9632 979.298 35.7341 1041.33 7.88141C1063.67 -2.1012 1084.64 -14.7951 1104.83 -26.9961C1141.21 -49.0564 1175.65 -69.8843 1217.49 -76.2929C1222.66 -77.0324 1237.39 -77.1557 1260.02 -76.6627C1280.99 -76.1697 1306.74 -75.0606 1332.49 -73.5817C1380.28 -70.8703 1432.08 -66.8033 1434.22 -63.2293C1434.32 -62.9828 1434.32 -62.8595 1434.32 -62.7363V-62.6131H1434.22C1402.13 -59.9018 1368.68 -62.2433 1336.39 -64.5849C1294.64 -67.5427 1251.43 -70.6238 1210.47 -62.7363C1170.57 -55.0953 1134.19 -32.9118 1098.88 -11.3444C1076.55 2.33547 1053.43 16.3851 1029.53 26.7374C991.784 42.8821 949.354 51.2626 906.924 51.2626ZM647.956 -77.0324C654.296 -77.0324 660.246 -76.2929 665.513 -74.4443C679.754 -69.5146 687.752 -57.6834 696.043 -45.1127C700.92 -37.8414 705.992 -30.3237 712.43 -23.7918C732.718 -3.70336 756.615 12.6878 783.536 25.012C808.896 36.5968 836.403 44.4843 865.47 48.3048C921.165 55.6993 979.396 47.9351 1029.34 26.3677C1053.14 16.1386 1076.25 1.96575 1098.59 -11.7141C1133.8 -33.2815 1170.28 -55.4651 1210.18 -63.1061C1251.14 -70.9936 1294.35 -67.9125 1336.1 -64.9547C1368.38 -62.6131 1401.74 -60.2715 1433.83 -62.9828V-63.1061C1432.08 -65.9407 1392.28 -70.0076 1332.3 -73.3352C1285.09 -75.9232 1228.71 -77.7719 1217.3 -76.0465C1175.35 -69.6379 1141.02 -48.81 1104.64 -26.7497C1084.45 -14.5487 1063.57 -1.85473 1041.14 8.25112C979.104 36.1038 920.385 46.4562 866.738 38.9384C807.238 30.6812 754.567 0.486832 710.186 -50.7819C691.849 -71.9795 672.341 -82.3318 648.931 -83.3177C627.863 -84.1804 606.014 -77.5254 582.897 -70.5006C567.973 -65.9407 552.464 -61.2575 536.273 -58.1764C470.921 -46.0987 405.862 -40.183 328.22 -35.0068C269.404 -31.1863 199.858 -27.1193 130.215 -26.9961C58.0352 -26.7496 -6.63368 -30.6934 -67.401 -38.8274C-47.9906 -12.2071 -22.4351 3.44467 10.6309 8.86733C39.7953 13.6738 70.4228 10.0998 100.075 6.64898C105.147 6.03277 110.414 5.41654 115.486 4.92357C190.007 -2.96393 264.917 -12.3303 337.974 -22.6826C411.422 -33.035 486.332 -45.1127 560.56 -58.1764C569.046 -59.6553 579.093 -62.4899 589.822 -65.5709C609.037 -71.1168 630.106 -77.0324 647.956 -77.0324Z" fill="white" fill-opacity="0.38"/>
<path d="M751.768 281.352C737.917 281.352 724.066 280.49 710.313 278.641C681.246 274.821 653.643 266.933 628.38 255.348C601.459 243.024 577.562 226.51 557.273 206.421C550.738 200.013 545.666 192.372 540.789 185.1C532.401 172.53 524.5 160.698 510.357 155.892C490.361 148.99 460.807 157.371 434.763 164.642C424.034 167.6 413.987 170.558 405.501 172.037C331.274 185.224 256.363 197.178 182.916 207.53C109.858 217.883 34.9478 227.126 -39.5726 235.137C-44.6446 235.63 -49.9118 236.246 -54.9838 236.862C-84.6359 240.313 -115.361 243.887 -144.525 239.08C-177.786 233.658 -203.342 218.006 -222.85 191.139L-223.045 190.893H-222.752C-163.253 198.903 -100.145 202.847 -30.0137 202.847C-28.2579 202.847 -26.5998 202.847 -24.8441 202.847C44.7994 202.601 114.345 198.657 173.162 194.837C250.803 189.784 315.862 183.868 381.214 171.667C397.406 168.709 412.915 163.903 427.838 159.343C451.053 152.318 472.901 145.54 493.97 146.526C517.477 147.512 536.985 157.864 555.42 179.062C599.801 230.33 652.472 260.524 711.874 268.658C765.521 276.053 824.142 265.824 886.178 237.971C908.514 227.989 929.485 215.295 949.676 203.094C986.058 181.033 1020.49 160.206 1062.33 153.797C1067.5 153.057 1082.23 152.934 1104.86 153.427C1125.83 153.92 1151.58 155.029 1177.33 156.508C1225.13 159.22 1276.92 163.287 1279.07 166.861C1279.17 167.107 1279.17 167.23 1279.17 167.354V167.477H1279.07C1246.98 170.188 1213.52 167.847 1181.24 165.505C1139.49 162.547 1096.28 159.466 1055.31 167.354C1015.42 174.995 979.035 197.178 943.726 218.745C921.389 232.425 898.273 246.475 874.375 256.827C836.627 272.972 794.198 281.352 751.768 281.352ZM492.8 153.057C499.14 153.057 505.09 153.797 510.357 155.646C524.598 160.575 532.596 172.406 540.887 184.977C545.764 192.248 550.836 199.766 557.273 206.298C577.562 226.386 601.459 242.778 628.38 255.102C653.74 266.687 681.246 274.574 710.313 278.395C766.009 285.789 824.24 278.025 874.18 256.458C897.98 246.228 921.097 232.056 943.434 218.376C978.645 196.808 1015.13 174.625 1055.02 166.984C1095.99 159.096 1139.2 162.177 1180.94 165.135C1213.23 167.477 1246.59 169.818 1278.68 167.107V166.984C1276.92 164.149 1237.13 160.082 1177.14 156.755C1129.93 154.167 1073.55 152.318 1062.14 154.043C1020.2 160.452 985.863 181.28 949.481 203.34C929.29 215.541 908.417 228.235 885.983 238.341C823.947 266.194 765.228 276.546 711.581 269.028C652.082 260.771 599.411 230.577 555.03 179.308C536.692 158.11 517.185 147.758 493.775 146.772C472.706 145.909 450.857 152.564 427.741 159.589C412.817 164.149 397.308 168.832 381.117 171.913C315.765 183.991 250.706 189.907 173.064 195.083C114.248 198.904 44.7018 202.97 -24.9416 203.094C-97.121 203.34 -161.79 199.396 -222.557 191.262C-203.147 217.883 -177.591 233.534 -144.525 238.957C-115.361 243.764 -84.7335 240.19 -55.0814 236.739C-50.0093 236.123 -44.7422 235.506 -39.6701 235.013C34.8503 227.126 109.761 217.76 182.818 207.407C256.266 197.055 331.176 184.977 405.404 171.913C413.89 170.435 423.937 167.6 434.666 164.519C453.881 158.973 474.95 153.057 492.8 153.057Z" fill="white" fill-opacity="0.38"/>
<path d="M855.547 154.977C841.696 154.977 827.846 154.115 814.093 152.266C785.026 148.446 757.422 140.558 732.159 128.973C705.238 116.649 681.341 100.135 661.053 80.0462C654.518 73.6376 649.445 65.9967 644.568 58.7254C636.18 46.1547 628.279 34.3234 614.136 29.517C594.14 22.6154 564.586 30.9959 538.543 38.2672C527.813 41.225 517.767 44.1828 509.281 45.6617C435.053 58.8486 360.142 70.8031 286.695 81.1554C213.638 91.5078 138.727 100.751 64.2067 108.762C59.1347 109.255 53.8675 109.871 48.7954 110.487C19.1433 113.938 -11.5817 117.512 -40.7461 112.705C-74.0072 107.283 -99.5626 91.631 -119.071 64.7643L-119.266 64.5178H-118.973C-59.4737 72.5285 3.63452 76.4723 73.7656 76.4723C75.5214 76.4723 77.1795 76.4723 78.9352 76.4723C148.579 76.2258 218.125 72.282 276.941 68.4615C354.583 63.4086 419.642 57.493 484.993 45.292C501.185 42.3342 516.694 37.5278 531.617 32.9678C554.832 25.943 576.681 19.1647 597.749 20.1506C621.256 21.1365 640.764 31.4889 659.199 52.6865C703.58 103.955 756.252 134.15 815.653 142.283C869.3 149.678 927.922 139.449 989.957 111.596C1012.29 101.614 1033.26 88.9197 1053.46 76.7188C1089.84 54.6584 1124.27 33.8305 1166.11 27.4219C1171.28 26.6825 1186.01 26.5592 1208.64 27.0521C1229.61 27.5451 1255.36 28.6543 1281.11 30.1332C1328.91 32.8445 1380.7 36.9115 1382.85 40.4856C1382.94 40.732 1382.94 40.8553 1382.94 40.9785V41.1018H1382.85C1350.76 43.8131 1317.3 41.4715 1285.01 39.1299C1243.27 36.1721 1200.06 33.0911 1159.09 40.9785C1119.2 48.6196 1082.81 70.8031 1047.51 92.3704C1025.17 106.05 1002.05 120.1 978.155 130.452C940.407 146.597 897.977 154.977 855.547 154.977ZM596.579 26.6824C602.919 26.6824 608.869 27.4219 614.136 29.2706C628.377 34.2002 636.375 46.0315 644.666 58.6022C649.543 65.8734 654.615 73.3912 661.053 79.923C681.341 100.011 705.238 116.403 732.159 128.727C757.52 140.312 785.026 148.199 814.093 152.02C869.788 159.414 928.019 151.65 977.96 130.083C1001.76 119.853 1024.88 105.681 1047.21 92.0007C1082.42 70.4334 1118.9 48.2498 1158.8 40.6088C1199.76 32.7213 1242.98 35.8023 1284.72 38.7601C1317.01 41.1017 1350.37 43.4434 1382.46 40.7321V40.6088C1380.7 37.7742 1340.91 33.7072 1280.92 30.3797C1233.71 27.7916 1177.33 25.943 1165.92 27.6683C1123.98 34.0769 1089.64 54.9048 1053.26 76.9652C1033.07 89.1662 1012.2 101.86 989.762 111.966C927.727 139.819 869.008 150.171 815.361 142.653C755.861 134.396 703.19 104.202 658.809 52.933C640.472 31.7353 620.964 21.383 597.554 20.3971C576.486 19.5344 554.637 26.1894 531.52 33.2142C516.596 37.7742 501.087 42.4574 484.896 45.5384C419.544 57.6162 354.485 63.5319 276.843 68.708C218.027 72.5285 148.481 76.5955 78.8377 76.7188C6.65826 76.9652 -58.0106 73.0215 -118.778 64.8875C-99.3675 91.5078 -73.8121 107.16 -40.7461 112.582C-11.5817 117.389 19.0458 113.815 48.6979 110.364C53.77 109.748 59.0371 109.131 64.1092 108.638C138.63 100.751 213.54 91.3846 286.597 81.0322C360.045 70.6799 434.955 58.6021 509.183 45.5384C517.669 44.0595 527.716 41.225 538.445 38.1439C557.661 32.598 578.729 26.6824 596.579 26.6824Z" fill="white" fill-opacity="0.38"/>
<path d="M937.75 25.9872C923.9 25.9872 910.049 25.1245 896.296 23.2759C867.229 19.4554 839.625 11.5679 814.362 -0.0168784C787.441 -12.3411 763.544 -28.8555 743.256 -48.944C736.721 -55.3526 731.649 -62.9936 726.772 -70.2649C718.383 -82.8356 710.482 -94.6668 696.339 -99.4733C676.344 -106.375 646.789 -97.9943 620.746 -90.723C610.016 -87.7652 599.97 -84.8074 591.484 -83.3285C517.256 -70.1416 442.346 -58.1871 368.898 -47.8348C295.841 -37.4825 220.93 -28.2393 146.41 -20.2285C141.338 -19.7356 136.071 -19.1194 130.999 -18.5032C101.346 -15.0524 70.6214 -11.4784 41.457 -16.2848C8.19597 -21.7075 -17.3595 -37.3592 -36.8674 -64.226L-37.0625 -64.4725H-36.7699C22.7294 -56.4617 85.8376 -52.518 155.969 -52.518C157.724 -52.518 159.383 -52.518 161.138 -52.518C230.782 -52.7645 300.328 -56.7082 359.144 -60.5287C436.786 -65.5816 501.845 -71.4972 567.197 -83.6982C583.388 -86.656 598.897 -91.4625 613.821 -96.0224C637.035 -103.047 658.884 -109.826 679.953 -108.84C703.46 -107.854 722.968 -97.5013 741.403 -76.3037C785.783 -25.035 838.455 5.15927 897.856 13.2933C951.503 20.6878 1010.12 10.4587 1072.16 -17.394C1094.5 -27.3766 1115.47 -40.0705 1135.66 -52.2715C1172.04 -74.3318 1206.47 -95.1597 1248.32 -101.568C1253.49 -102.308 1268.22 -102.431 1290.84 -101.938C1311.82 -101.445 1337.57 -100.336 1363.32 -98.8571C1411.11 -96.1457 1462.9 -92.0787 1465.05 -88.5047C1465.15 -88.2582 1465.15 -88.1349 1465.15 -88.0117V-87.8885H1465.05C1432.96 -85.1771 1399.5 -87.5187 1367.22 -89.8603C1325.47 -92.8181 1282.26 -95.8992 1241.29 -88.0117C1201.4 -80.3707 1165.02 -58.1872 1129.71 -36.6198C1107.37 -22.9399 1084.25 -8.89029 1060.36 1.46204C1022.61 17.6068 980.18 25.9872 937.75 25.9872ZM678.782 -102.308C685.122 -102.308 691.072 -101.568 696.339 -99.7197C710.58 -94.79 718.578 -82.9588 726.869 -70.3881C731.746 -63.1168 736.818 -55.599 743.256 -49.0672C763.544 -28.9788 787.441 -12.5876 814.362 -0.263378C839.723 11.3214 867.229 19.2089 896.296 23.0294C951.991 30.4239 1010.22 22.6597 1060.16 1.09233C1083.96 -9.13676 1107.08 -23.3096 1129.42 -36.9895C1164.63 -58.5569 1201.11 -80.7405 1241 -88.3815C1281.97 -96.269 1325.18 -93.1879 1366.93 -90.2301C1399.21 -87.8885 1432.57 -85.5469 1464.66 -88.2582V-88.3815C1462.9 -91.216 1423.11 -95.283 1363.12 -98.6106C1315.91 -101.199 1259.53 -103.047 1248.12 -101.322C1206.18 -94.9133 1171.85 -74.0854 1135.46 -52.0251C1115.27 -39.8241 1094.4 -27.1301 1071.96 -17.0243C1009.93 10.8284 951.211 21.1808 897.564 13.663C838.064 5.40582 785.393 -24.7886 741.012 -76.0573C722.675 -97.2549 703.167 -107.607 679.757 -108.593C658.689 -109.456 636.84 -102.801 613.723 -95.776C598.799 -91.216 583.291 -86.5328 567.099 -83.4518C501.747 -71.3741 436.688 -65.4584 359.047 -60.2822C300.23 -56.4617 230.684 -52.3947 161.041 -52.2715C88.8614 -52.025 24.1925 -55.9688 -36.5748 -64.1028C-17.1644 -37.4825 8.39104 -21.8307 41.457 -16.4081C70.6214 -11.6016 101.249 -15.1756 130.901 -18.6264C135.973 -19.2426 141.24 -19.8589 146.312 -20.3518C220.833 -28.2393 295.743 -37.6057 368.801 -47.958C442.248 -58.3103 517.159 -70.3881 591.386 -83.4518C599.872 -84.9307 609.919 -87.7653 620.648 -90.8463C639.864 -96.3922 660.932 -102.308 678.782 -102.308Z" fill="white" fill-opacity="0.38"/>
<path d="M782.594 256.077C768.743 256.077 754.893 255.214 741.139 253.366C712.073 249.545 684.469 241.658 659.206 230.073C632.285 217.749 608.388 201.234 588.1 181.146C581.564 174.737 576.492 167.096 571.615 159.825C563.227 147.254 555.326 135.423 541.183 130.617C521.187 123.715 491.633 132.096 465.59 139.367C454.86 142.325 444.814 145.282 436.328 146.761C362.1 159.948 287.189 171.903 213.742 182.255C140.685 192.607 65.774 201.851 -8.74641 209.861C-13.8185 210.354 -19.0856 210.971 -24.1577 211.587C-53.8098 215.037 -84.5348 218.612 -113.699 213.805C-146.96 208.382 -172.516 192.731 -192.024 165.864L-192.219 165.617H-191.926C-132.427 173.628 -69.3186 177.572 0.812489 177.572C2.5682 177.572 4.22638 177.572 5.9821 177.572C75.6255 177.325 145.171 173.382 203.988 169.561C281.63 164.508 346.689 158.593 412.04 146.392C428.232 143.434 443.741 138.627 458.664 134.067C481.879 127.043 503.728 120.264 524.796 121.25C548.303 122.236 567.811 132.589 586.246 153.786C630.627 205.055 683.298 235.249 742.7 243.383C796.347 250.778 854.968 240.549 917.004 212.696C939.34 202.713 960.311 190.019 980.502 177.818C1016.88 155.758 1051.32 134.93 1093.16 128.522C1098.33 127.782 1113.06 127.659 1135.69 128.152C1156.66 128.645 1182.41 129.754 1208.16 131.233C1255.95 133.944 1307.75 138.011 1309.89 141.585C1309.99 141.832 1309.99 141.955 1309.99 142.078V142.201H1309.89C1277.8 144.913 1244.35 142.571 1212.06 140.23C1170.31 137.272 1127.1 134.191 1086.14 142.078C1046.24 149.719 1009.86 171.903 974.552 193.47C952.215 207.15 929.099 221.2 905.201 231.552C867.453 247.697 825.024 256.077 782.594 256.077ZM523.626 127.782C529.966 127.782 535.916 128.522 541.183 130.37C555.424 135.3 563.422 147.131 571.713 159.702C576.59 166.973 581.662 174.491 588.1 181.023C608.388 201.111 632.285 217.502 659.206 229.827C684.566 241.411 712.073 249.299 741.139 253.119C796.835 260.514 855.066 252.75 905.006 231.182C928.806 220.953 951.923 206.78 974.26 193.1C1009.47 171.533 1045.95 149.349 1085.84 141.708C1126.81 133.821 1170.02 136.902 1211.77 139.86C1244.05 142.201 1277.41 144.543 1309.5 141.832V141.708C1307.75 138.874 1267.95 134.807 1207.96 131.479C1160.76 128.891 1104.38 127.043 1092.97 128.768C1051.02 135.177 1016.69 156.004 980.307 178.065C960.116 190.266 939.243 202.96 916.809 213.066C854.773 240.918 796.054 251.271 742.407 243.753C682.908 235.496 630.237 205.301 585.856 154.033C567.519 132.835 548.011 122.483 524.601 121.497C503.532 120.634 481.684 127.289 458.567 134.314C443.643 138.874 428.134 143.557 411.943 146.638C346.591 158.716 281.532 164.631 203.89 169.808C145.074 173.628 75.528 177.695 5.88455 177.818C-66.2949 178.065 -130.964 174.121 -191.731 165.987C-172.321 192.607 -146.765 208.259 -113.699 213.682C-84.5348 218.488 -53.9073 214.914 -24.2552 211.464C-19.1832 210.847 -13.916 210.231 -8.84396 209.738C65.6764 201.851 140.587 192.484 213.644 182.132C287.092 171.78 362.002 159.702 436.23 146.638C444.716 145.159 454.763 142.325 465.492 139.244C484.707 133.698 505.776 127.782 523.626 127.782Z" fill="white" fill-opacity="0.38"/>
<path d="M709.639 357.177C695.788 357.177 681.938 356.314 668.184 354.465C639.118 350.645 611.514 342.757 586.251 331.173C559.33 318.848 535.433 302.334 515.145 282.245C508.609 275.837 503.537 268.196 498.66 260.925C490.272 248.354 482.371 236.523 468.228 231.716C448.232 224.815 418.678 233.195 392.635 240.466C381.905 243.424 371.859 246.382 363.373 247.861C289.145 261.048 214.234 273.002 140.787 283.355C67.7295 293.707 -7.18106 302.95 -81.7015 310.961C-86.7735 311.454 -92.0407 312.07 -97.1128 312.686C-126.765 316.137 -157.49 319.711 -186.654 314.905C-219.915 309.482 -245.471 293.83 -264.979 266.963L-265.174 266.717H-264.881C-205.382 274.728 -142.274 278.671 -72.1426 278.671C-70.3868 278.671 -68.7287 278.671 -66.973 278.671C2.67046 278.425 72.2163 274.481 131.033 270.661C208.675 265.608 273.734 259.692 339.085 247.491C355.277 244.533 370.786 239.727 385.709 235.167C408.924 228.142 430.773 221.364 451.841 222.35C475.348 223.336 494.856 233.688 513.291 254.886C557.672 306.154 610.343 336.349 669.745 344.483C723.392 351.877 782.013 341.648 844.049 313.795C866.385 303.813 887.356 291.119 907.547 278.918C943.929 256.858 978.361 236.03 1020.21 229.621C1025.38 228.882 1040.1 228.758 1062.73 229.251C1083.7 229.744 1109.45 230.853 1135.2 232.332C1183 235.044 1234.79 239.111 1236.94 242.685C1237.04 242.931 1237.04 243.055 1237.04 243.178V243.301H1236.94C1204.85 246.012 1171.39 243.671 1139.11 241.329C1097.36 238.371 1054.15 235.29 1013.18 243.178C973.289 250.819 936.907 273.002 901.597 294.57C879.261 308.25 856.144 322.299 832.246 332.651C794.498 348.796 752.069 357.177 709.639 357.177ZM450.671 228.882C457.011 228.882 462.961 229.621 468.228 231.47C482.469 236.399 490.467 248.231 498.758 260.801C503.635 268.073 508.707 275.59 515.145 282.122C535.433 302.211 559.33 318.602 586.251 330.926C611.611 342.511 639.118 350.398 668.184 354.219C723.88 361.613 782.111 353.849 832.051 332.282C855.851 322.053 878.968 307.88 901.305 294.2C936.516 272.633 972.996 250.449 1012.89 242.808C1053.86 234.92 1097.07 238.002 1138.81 240.959C1171.1 243.301 1204.46 245.643 1236.55 242.931V242.808C1234.79 239.973 1195 235.906 1135.01 232.579C1087.8 229.991 1031.42 228.142 1020.01 229.868C978.068 236.276 943.734 257.104 907.352 279.164C887.161 291.365 866.288 304.059 843.854 314.165C781.818 342.018 723.099 352.37 669.452 344.852C609.953 336.595 557.282 306.401 512.901 255.132C494.564 233.935 475.056 223.582 451.646 222.596C430.577 221.734 408.729 228.389 385.612 235.413C370.688 239.973 355.179 244.657 338.988 247.738C273.636 259.815 208.577 265.731 130.935 270.907C72.1188 274.728 2.57292 278.795 -67.0705 278.918C-139.25 279.164 -203.919 275.221 -264.686 267.087C-245.276 293.707 -219.72 309.359 -186.654 314.781C-157.49 319.588 -126.862 316.014 -97.2103 312.563C-92.1382 311.947 -86.8711 311.331 -81.799 310.838C-7.27861 302.95 67.632 293.584 140.689 283.231C214.137 272.879 289.047 260.801 363.275 247.738C371.761 246.259 381.808 243.424 392.537 240.343C411.752 234.797 432.821 228.882 450.671 228.882Z" fill="white" fill-opacity="0.38"/>
<path d="M865.822 129.702C851.972 129.702 838.121 128.839 824.368 126.991C795.301 123.17 767.697 115.283 742.434 103.698C715.514 91.3738 691.616 74.8593 671.328 54.7708C664.793 48.3623 659.721 40.7213 654.844 33.45C646.455 20.8793 638.555 9.04802 624.411 4.24158C604.416 -2.65997 574.861 5.72053 548.818 12.9918C538.089 15.9496 528.042 18.9074 519.556 20.3863C445.328 33.5732 370.418 45.5277 296.97 55.88C223.913 66.2324 149.002 75.4756 74.4821 83.4863C69.41 83.9793 64.1429 84.5954 59.0708 85.2117C29.4187 88.6624 -1.30631 92.2364 -30.4707 87.43C-63.7318 82.0073 -89.2872 66.3556 -108.795 39.4889L-108.99 39.2424H-108.698C-49.1983 47.2531 13.9099 51.1969 84.041 51.1969C85.7967 51.1969 87.4549 51.1969 89.2106 51.1969C158.854 50.9504 228.4 47.0066 287.216 43.1861C364.858 38.1332 429.917 32.2176 495.269 20.0166C511.46 17.0588 526.969 12.2524 541.893 7.69242C565.107 0.667623 586.956 -6.11072 608.025 -5.12479C631.532 -4.13885 651.04 6.21351 669.475 27.4112C713.855 78.6799 766.527 108.874 825.929 117.008C879.575 124.403 938.197 114.174 1000.23 86.3209C1022.57 76.3383 1043.54 63.6443 1063.73 51.4434C1100.11 29.383 1134.54 8.55512 1176.39 2.14653C1181.56 1.40708 1196.29 1.28377 1218.92 1.77674C1239.89 2.26971 1265.64 3.37889 1291.39 4.85779C1339.18 7.56912 1390.98 11.6361 1393.12 15.2102C1393.22 15.4566 1393.22 15.5799 1393.22 15.7032V15.8264H1393.12C1361.03 18.5377 1327.58 16.1961 1295.29 13.8545C1253.54 10.8967 1210.33 7.81566 1169.37 15.7032C1129.47 23.3442 1093.09 45.5277 1057.78 67.095C1035.44 80.7749 1012.33 94.8246 988.43 105.177C950.682 121.322 908.252 129.702 865.822 129.702ZM606.854 1.40703C613.194 1.40703 619.144 2.14653 624.411 3.99516C638.652 8.92484 646.65 20.7561 654.941 33.3268C659.818 40.598 664.89 48.1158 671.328 54.6476C691.616 74.7361 715.514 91.1273 742.434 103.451C767.795 115.036 795.301 122.924 824.368 126.744C880.063 134.139 938.294 126.375 988.235 104.807C1012.03 94.5781 1035.15 80.4052 1057.49 66.7253C1092.7 45.158 1129.18 22.9744 1169.07 15.3334C1210.04 7.44588 1253.25 10.5269 1295 13.4847C1327.28 15.8263 1360.64 18.168 1392.73 15.4567V15.3334C1390.98 12.4988 1351.18 8.43183 1291.19 5.10429C1243.98 2.51621 1187.61 0.667563 1176.19 2.39295C1134.25 8.80154 1099.92 29.6295 1063.54 51.6898C1043.34 63.8908 1022.47 76.5847 1000.04 86.6906C938.002 114.543 879.283 124.896 825.636 117.378C766.137 109.121 713.465 78.9263 669.085 27.6576C650.747 6.45994 631.239 -3.89235 607.83 -4.87829C586.761 -5.74098 564.912 0.914047 541.795 7.93885C526.872 12.4988 511.363 17.182 495.171 20.2631C429.819 32.3408 364.76 38.2565 287.119 43.4326C228.302 47.2531 158.756 51.3201 89.1131 51.4434C16.9336 51.6898 -47.7353 47.7461 -108.503 39.6121C-89.0921 66.2324 -63.5367 81.8841 -30.4707 87.3068C-1.30631 92.1132 29.3212 88.5392 58.9733 85.0884C64.0454 84.4722 69.3125 83.856 74.3846 83.363C148.905 75.4755 223.816 66.1092 296.873 55.7568C370.32 45.4045 445.231 33.3267 519.459 20.2631C527.945 18.7841 537.991 15.9496 548.721 12.8685C567.936 7.32264 589.004 1.40703 606.854 1.40703Z" fill="white" fill-opacity="0.38"/>
<path d="M948.025 0.711871C934.175 0.711871 920.324 -0.150839 906.571 -1.99947C877.504 -5.81998 849.9 -13.7075 824.638 -25.2923C797.717 -37.6165 773.819 -54.1309 753.531 -74.2194C746.996 -80.628 741.924 -88.269 737.047 -95.5403C728.658 -108.111 720.758 -119.942 706.614 -124.749C686.619 -131.65 657.064 -123.27 631.021 -115.998C620.292 -113.041 610.245 -110.083 601.759 -108.604C527.531 -95.417 452.621 -83.4625 379.173 -73.1102C306.116 -62.7578 231.206 -53.5147 156.685 -45.5039C151.613 -45.0109 146.346 -44.3948 141.274 -43.7786C111.622 -40.3278 80.8968 -36.7538 51.7324 -41.5602C18.4714 -46.9829 -7.08407 -62.6346 -26.592 -89.5014L-26.7871 -89.7479H-26.4945C33.0048 -81.7371 96.113 -77.7934 166.244 -77.7934C168 -77.7934 169.658 -77.7934 171.414 -77.7934C241.057 -78.0398 310.603 -81.9836 369.419 -85.8041C447.061 -90.857 512.12 -96.7726 577.472 -108.974C593.663 -111.931 609.172 -116.738 624.096 -121.298C647.31 -128.323 669.159 -135.101 690.228 -134.115C713.735 -133.129 733.243 -122.777 751.678 -101.579C796.058 -50.3104 848.73 -20.1161 908.132 -11.9821C961.779 -4.5876 1020.4 -14.8166 1082.44 -42.6694C1104.77 -52.652 1125.74 -65.3459 1145.93 -77.5469C1182.32 -99.6072 1216.75 -120.435 1258.59 -126.844C1263.76 -127.583 1278.49 -127.706 1301.12 -127.213C1322.09 -126.721 1347.84 -125.611 1373.59 -124.132C1421.39 -121.421 1473.18 -117.354 1475.33 -113.78C1475.42 -113.534 1475.42 -113.41 1475.42 -113.287V-113.164H1475.33C1443.23 -110.453 1409.78 -112.794 1377.49 -115.136C1335.75 -118.094 1292.54 -121.175 1251.57 -113.287C1211.68 -105.646 1175.29 -83.4625 1139.98 -61.8952C1117.65 -48.2153 1094.53 -34.1657 1070.63 -23.8133C1032.89 -7.66862 990.455 0.711871 948.025 0.711871ZM689.057 -127.583C695.397 -127.583 701.347 -126.844 706.614 -124.995C720.855 -120.065 728.854 -108.234 737.144 -95.6635C742.021 -88.3922 747.094 -80.8744 753.531 -74.3426C773.819 -54.2541 797.717 -37.863 824.638 -25.5388C849.998 -13.954 877.504 -6.06648 906.571 -2.24597C962.266 5.14856 1020.5 -2.61568 1070.44 -24.183C1094.24 -34.4121 1117.35 -48.585 1139.69 -62.2649C1174.9 -83.8323 1211.38 -106.016 1251.28 -113.657C1292.24 -121.544 1335.45 -118.463 1377.2 -115.505C1409.49 -113.164 1442.84 -110.822 1474.94 -113.534V-113.657C1473.18 -116.491 1433.38 -120.558 1373.4 -123.886C1326.19 -126.474 1269.81 -128.323 1258.4 -126.597C1216.45 -120.189 1182.12 -99.3608 1145.74 -77.3004C1125.55 -65.0995 1104.67 -52.4055 1082.24 -42.2997C1020.2 -14.4469 961.486 -4.09457 907.839 -11.6123C848.34 -19.8696 795.668 -50.0639 751.288 -101.333C732.95 -122.53 713.442 -132.883 690.033 -133.869C668.964 -134.731 647.115 -128.076 623.998 -121.051C609.075 -116.491 593.566 -111.808 577.374 -108.727C512.023 -96.6495 446.964 -90.7338 369.322 -85.5576C310.505 -81.7371 240.96 -77.6701 171.316 -77.5469C99.1368 -77.3004 34.4679 -81.2442 -26.2994 -89.3782C-6.88899 -62.7579 18.6664 -47.1061 51.7324 -41.6834C80.8968 -36.877 111.524 -40.451 141.176 -43.9018C146.248 -44.518 151.516 -45.1342 156.588 -45.6272C231.108 -53.5147 306.019 -62.8811 379.076 -73.2334C452.523 -83.5857 527.434 -95.6635 601.662 -108.727C610.148 -110.206 620.194 -113.041 630.924 -116.122C650.139 -121.668 671.208 -127.583 689.057 -127.583Z" fill="white" fill-opacity="0.38"/>
<path d="M792.869 230.802C779.019 230.802 765.168 229.939 751.415 228.09C722.348 224.27 694.744 216.382 669.481 204.798C642.56 192.473 618.663 175.959 598.375 155.87C591.84 149.462 586.768 141.821 581.891 134.55C573.502 121.979 565.602 110.148 551.458 105.341C531.463 98.4396 501.908 106.82 475.865 114.091C465.136 117.049 455.089 120.007 446.603 121.486C372.375 134.673 297.465 146.627 224.017 156.98C150.96 167.332 76.0494 176.575 1.529 184.586C-3.54307 185.079 -8.81022 185.695 -13.8823 186.311C-43.5344 189.762 -74.2594 193.336 -103.424 188.53C-136.685 183.107 -162.24 167.455 -181.748 140.588L-181.943 140.342H-181.651C-122.151 148.353 -59.0432 152.296 11.0879 152.296C12.8436 152.296 14.5018 152.296 16.2575 152.296C85.9009 152.05 155.447 148.106 214.263 144.286C291.905 139.233 356.964 133.317 422.316 121.116C438.507 118.158 454.016 113.352 468.94 108.792C492.154 101.767 514.003 94.9889 535.072 95.9748C558.579 96.9608 578.087 107.313 596.522 128.511C640.902 179.779 693.574 209.974 752.976 218.108C806.622 225.502 865.244 215.273 927.279 187.42C949.616 177.438 970.587 164.744 990.778 152.543C1027.16 130.483 1061.59 109.655 1103.44 103.246C1108.61 102.507 1123.33 102.383 1145.96 102.876C1166.93 103.369 1192.68 104.478 1218.44 105.957C1266.23 108.669 1318.02 112.736 1320.17 116.31C1320.27 116.556 1320.27 116.68 1320.27 116.803V116.926H1320.17C1288.08 119.637 1254.62 117.296 1222.34 114.954C1180.59 111.996 1137.38 108.915 1096.41 116.803C1056.52 124.444 1020.14 146.627 984.828 168.195C962.491 181.875 939.374 195.924 915.477 206.277C877.729 222.421 835.299 230.802 792.869 230.802ZM533.901 102.507C540.241 102.507 546.191 103.246 551.458 105.095C565.699 110.024 573.697 121.856 581.988 134.426C586.865 141.698 591.937 149.215 598.375 155.747C618.663 175.836 642.56 192.227 669.481 204.551C694.842 216.136 722.348 224.023 751.415 227.844C807.11 235.238 865.341 227.474 915.282 205.907C939.082 195.678 962.198 181.505 984.535 167.825C1019.75 146.258 1056.23 124.074 1096.12 116.433C1137.09 108.545 1180.3 111.627 1222.04 114.584C1254.33 116.926 1287.69 119.268 1319.78 116.556V116.433C1318.02 113.598 1278.23 109.531 1218.24 106.204C1171.03 103.616 1114.65 101.767 1103.24 103.493C1061.3 109.901 1026.96 130.729 990.582 152.789C970.392 164.99 949.518 177.684 927.084 187.79C865.049 215.643 806.33 225.995 752.683 218.478C693.184 210.22 640.512 180.026 596.132 128.757C577.794 107.56 558.286 97.2073 534.877 96.2213C513.808 95.3586 491.959 102.014 468.842 109.038C453.919 113.598 438.41 118.282 422.218 121.363C356.866 133.44 291.807 139.356 214.166 144.532C155.349 148.353 85.8034 152.42 16.16 152.543C-56.0195 152.789 -120.688 148.846 -181.456 140.712C-162.045 167.332 -136.49 182.984 -103.424 188.406C-74.2594 193.213 -43.6319 189.639 -13.9798 186.188C-8.90775 185.572 -3.64061 184.956 1.43145 184.463C75.9519 176.575 150.862 167.209 223.92 156.856C297.367 146.504 372.278 134.426 446.506 121.363C454.991 119.884 465.038 117.049 475.767 113.968C494.983 108.422 516.051 102.507 533.901 102.507Z" fill="white" fill-opacity="0.38"/>
<path d="M719.914 331.901C706.064 331.901 692.213 331.039 678.46 329.19C649.393 325.369 621.789 317.482 596.526 305.897C569.605 293.573 545.708 277.059 525.42 256.97C518.885 250.561 513.813 242.92 508.936 235.649C500.547 223.079 492.647 211.247 478.503 206.441C458.508 199.539 428.953 207.92 402.91 215.191C392.181 218.149 382.134 221.107 373.648 222.586C299.42 235.772 224.51 247.727 151.062 258.079C78.0049 268.432 3.09433 277.675 -71.4261 285.686C-76.4981 286.179 -81.7653 286.795 -86.8374 287.411C-116.489 290.862 -147.215 294.436 -176.379 289.629C-209.64 284.207 -235.195 268.555 -254.703 241.688L-254.898 241.442H-254.606C-195.107 249.452 -131.998 253.396 -61.8672 253.396C-60.1115 253.396 -58.4533 253.396 -56.6976 253.396C12.9459 253.15 82.4917 249.206 141.308 245.385C218.95 240.332 284.009 234.417 349.361 222.216C365.552 219.258 381.061 214.452 395.985 209.892C419.199 202.867 441.048 196.088 462.117 197.074C485.624 198.06 505.132 208.413 523.567 229.61C567.947 280.879 620.619 311.073 680.02 319.207C733.667 326.602 792.289 316.373 854.324 288.52C876.661 278.537 897.632 265.844 917.822 253.643C954.205 231.582 988.636 210.754 1030.48 204.346C1035.65 203.606 1050.38 203.483 1073.01 203.976C1093.98 204.469 1119.73 205.578 1145.48 207.057C1193.27 209.768 1245.07 213.835 1247.21 217.409C1247.31 217.656 1247.31 217.779 1247.31 217.902V218.026H1247.21C1215.12 220.737 1181.67 218.395 1149.38 216.054C1107.63 213.096 1064.42 210.015 1023.46 217.902C983.564 225.543 947.182 247.727 911.873 269.294C889.536 282.974 866.419 297.024 842.522 307.376C804.774 323.521 762.344 331.901 719.914 331.901ZM460.946 203.606C467.286 203.606 473.236 204.346 478.503 206.194C492.744 211.124 500.742 222.955 509.033 235.526C513.91 242.797 518.982 250.315 525.42 256.847C545.708 276.935 569.605 293.326 596.526 305.651C621.887 317.235 649.393 325.123 678.46 328.943C734.155 336.338 792.386 328.574 842.327 307.006C866.126 296.777 889.243 282.604 911.58 268.925C946.792 247.357 983.272 225.174 1023.17 217.533C1064.13 209.645 1107.34 212.726 1149.09 215.684C1181.38 218.026 1214.73 220.367 1246.82 217.656V217.533C1245.07 214.698 1205.27 210.631 1145.29 207.304C1098.08 204.715 1041.7 202.867 1030.29 204.592C988.344 211.001 954.01 231.829 917.627 253.889C897.437 266.09 876.563 278.784 854.129 288.89C792.094 316.743 733.375 327.095 679.728 319.577C620.229 311.32 567.557 281.126 523.176 229.857C504.839 208.659 485.331 198.307 461.921 197.321C440.853 196.458 419.004 203.113 395.887 210.138C380.963 214.698 365.455 219.381 349.263 222.462C283.911 234.54 218.852 240.456 141.211 245.632C82.3942 249.452 12.8483 253.519 -56.7951 253.643C-128.975 253.889 -193.643 249.945 -254.411 241.811C-235 268.432 -209.445 284.083 -176.379 289.506C-147.215 294.312 -116.587 290.738 -86.9349 287.288C-81.8628 286.671 -76.5957 286.055 -71.5236 285.562C2.99678 277.675 77.9073 268.308 150.965 257.956C224.412 247.604 299.323 235.526 373.55 222.462C382.036 220.983 392.083 218.149 402.812 215.068C422.028 209.522 443.096 203.606 460.946 203.606Z" fill="white" fill-opacity="0.38"/>
<path d="M887.401 107.913C873.55 107.913 859.699 107.05 845.946 105.202C816.879 101.381 789.276 93.4937 764.013 81.9089C737.092 69.5847 713.195 53.0702 692.906 32.9818C686.371 26.5732 681.299 18.9322 676.422 11.6609C668.034 -0.909783 660.133 -12.741 645.99 -17.5475C625.994 -24.449 596.439 -16.0685 570.396 -8.79725C559.667 -5.83944 549.62 -2.88163 541.134 -1.40272C466.907 11.7842 391.996 23.7387 318.549 34.091C245.491 44.4433 170.581 53.6865 96.0602 61.6972C90.9882 62.1902 85.721 62.8064 80.649 63.4226C50.9969 66.8734 20.2718 70.4474 -8.89257 65.6409C-42.1536 60.2183 -67.7091 44.5666 -87.217 17.6998L-87.4121 17.4533H-87.1195C-27.6202 25.464 35.488 29.4078 105.619 29.4078C107.375 29.4078 109.033 29.4078 110.789 29.4078C180.432 29.1613 249.978 25.2176 308.795 21.3971C386.436 16.3441 451.495 10.4285 516.847 -1.77243C533.039 -4.73024 548.547 -9.53668 563.471 -14.0966C586.685 -21.1214 608.534 -27.8998 629.603 -26.9138C653.11 -25.9279 672.618 -15.5755 691.053 5.62209C735.434 56.8908 788.105 87.0851 847.507 95.219C901.154 102.614 959.775 92.3845 1021.81 64.5318C1044.15 54.5492 1065.12 41.8553 1085.31 29.6543C1121.69 7.59397 1156.12 -13.2339 1197.97 -19.6425C1203.14 -20.382 1217.87 -20.5053 1240.49 -20.0123C1261.47 -19.5194 1287.22 -18.4102 1312.97 -16.9313C1360.76 -14.2199 1412.55 -10.1529 1414.7 -6.5789C1414.8 -6.33242 1414.8 -6.20915 1414.8 -6.08591V-5.96269H1414.7C1382.61 -3.25137 1349.15 -5.59294 1316.87 -7.93454C1275.12 -10.8923 1231.91 -13.9734 1190.94 -6.08591C1151.05 1.5551 1114.67 23.7386 1079.36 45.306C1057.02 58.9859 1033.91 73.0355 1010.01 83.3878C972.26 99.5325 929.83 107.913 887.401 107.913ZM628.432 -20.382C634.772 -20.382 640.722 -19.6425 645.99 -17.7939C660.23 -12.8642 668.229 -1.03299 676.52 11.5377C681.397 18.809 686.469 26.3267 692.906 32.8586C713.195 52.947 737.092 69.3382 764.013 81.6624C789.373 93.2472 816.879 101.135 845.946 104.955C901.641 112.35 959.873 104.585 1009.81 83.0181C1033.61 72.789 1056.73 58.6161 1079.07 44.9363C1114.28 23.3689 1150.76 1.18532 1190.65 -6.45569C1231.62 -14.3432 1274.83 -11.2621 1316.58 -8.30432C1348.86 -5.96272 1382.22 -3.62108 1414.31 -6.33241V-6.45569C1412.55 -9.29026 1372.76 -13.3572 1312.77 -16.6848C1265.56 -19.2729 1209.18 -21.1215 1197.77 -19.3961C1155.83 -12.9875 1121.5 7.84039 1085.11 29.9007C1064.92 42.1017 1044.05 54.7957 1021.62 64.9015C959.58 92.7542 900.861 103.107 847.214 95.5888C787.715 87.3316 735.043 57.1372 690.663 5.86852C672.325 -15.3291 652.817 -25.6814 629.408 -26.6673C608.339 -27.53 586.49 -20.875 563.373 -13.8502C548.45 -9.29026 532.941 -4.60706 516.749 -1.52601C451.398 10.5517 386.339 16.4674 308.697 21.6436C249.881 25.4641 180.335 29.5311 110.691 29.6543C38.5118 29.9008 -26.1571 25.957 -86.9244 17.823C-67.514 44.4433 -41.9586 60.0951 -8.89257 65.5177C20.2718 70.3242 50.8993 66.7502 80.5514 63.2994C85.6235 62.6832 90.8906 62.0669 95.9627 61.574C170.483 53.6865 245.394 44.3201 318.451 33.9678C391.898 23.6154 466.809 11.5377 541.037 -1.52601C549.523 -3.00491 559.569 -5.83948 570.299 -8.92053C589.514 -14.4664 610.583 -20.382 628.432 -20.382Z" fill="white" fill-opacity="0.38"/>
<path d="M814.446 209.013C800.595 209.013 786.744 208.15 772.991 206.301C743.924 202.481 716.321 194.593 691.058 183.008C664.137 170.684 640.239 154.17 619.951 134.081C613.416 127.673 608.344 120.032 603.467 112.761C595.079 100.19 587.178 88.3586 573.035 83.5521C553.039 76.6506 523.484 85.0311 497.441 92.3024C486.712 95.2602 476.665 98.218 468.179 99.6969C393.951 112.884 319.041 124.838 245.593 135.191C172.536 145.543 97.6256 154.786 23.1052 162.797C18.0331 163.29 12.766 163.906 7.69389 164.522C-21.9582 167.973 -52.6832 171.547 -81.8476 166.741C-115.109 161.318 -140.664 145.666 -160.172 118.799L-160.367 118.553H-160.075C-100.575 126.564 -37.467 130.507 32.6641 130.507C34.4198 130.507 36.078 130.507 37.8337 130.507C107.477 130.261 177.023 126.317 235.839 122.497C313.481 117.444 378.54 111.528 443.892 99.3272C460.083 96.3694 475.592 91.5629 490.516 87.003C513.73 79.9782 535.579 73.1998 556.648 74.1858C580.155 75.1717 599.663 85.5241 618.098 106.722C662.479 157.99 715.15 188.185 774.552 196.319C828.199 203.713 886.82 193.484 948.855 165.631C971.192 155.649 992.163 142.955 1012.35 130.754C1048.74 108.694 1083.17 87.8657 1125.01 81.4571C1130.18 80.7176 1144.91 80.5943 1167.54 81.0873C1188.51 81.5803 1214.26 82.6894 1240.01 84.1683C1287.81 86.8797 1339.6 90.9467 1341.75 94.5207C1341.84 94.7672 1341.84 94.8905 1341.84 95.0137V95.1369H1341.75C1309.66 97.8482 1276.2 95.5067 1243.91 93.1651C1202.17 90.2073 1158.96 87.1262 1117.99 95.0137C1078.1 102.655 1041.71 124.838 1006.4 146.406C984.067 160.085 960.95 174.135 937.053 184.487C899.305 200.632 856.875 209.013 814.446 209.013ZM555.477 80.7176C561.817 80.7176 567.767 81.4571 573.035 83.3057C587.275 88.2354 595.274 100.067 603.564 112.637C608.441 119.909 613.514 127.426 619.951 133.958C640.239 154.047 664.137 170.438 691.058 182.762C716.418 194.347 743.924 202.234 772.991 206.055C828.686 213.449 886.918 205.685 936.858 184.118C960.658 173.889 983.775 159.716 1006.11 146.036C1041.32 124.469 1077.8 102.285 1117.7 94.6439C1158.66 86.7564 1201.87 89.8375 1243.62 92.7953C1275.91 95.1369 1309.26 97.4785 1341.36 94.7672V94.6439C1339.6 91.8093 1299.8 87.7424 1239.82 84.4148C1192.61 81.8268 1136.23 79.9781 1124.82 81.7035C1082.88 88.1121 1048.54 108.94 1012.16 131C991.968 143.201 971.094 155.895 948.66 166.001C886.625 193.854 827.906 204.206 774.259 196.688C714.76 188.431 662.088 158.237 617.708 106.968C599.37 85.7705 579.862 75.4182 556.453 74.4323C535.384 73.5696 513.535 80.2246 490.418 87.2494C475.495 91.8093 459.986 96.4925 443.794 99.5736C378.443 111.651 313.384 117.567 235.742 122.743C176.925 126.564 107.38 130.631 37.7362 130.754C-34.4433 131 -99.1122 127.057 -159.879 118.923C-140.469 145.543 -114.914 161.195 -81.8476 166.617C-52.6832 171.424 -22.0557 167.85 7.59636 164.399C12.6684 163.783 17.9356 163.167 23.0076 162.674C97.528 154.786 172.439 145.42 245.496 135.067C318.943 124.715 393.854 112.637 468.082 99.5736C476.568 98.0947 486.614 95.2601 497.344 92.1791C516.559 86.6332 537.628 80.7176 555.477 80.7176Z" fill="white" fill-opacity="0.38"/>
<path d="M896.648 80.0224C882.798 80.0224 868.947 79.1597 855.194 77.3111C826.127 73.4906 798.523 65.603 773.261 54.0183C746.34 41.6941 722.442 25.1796 702.154 5.09116C695.619 -1.31743 690.547 -8.95843 685.67 -16.2297C677.282 -28.8004 669.381 -40.6317 655.238 -45.4381C635.242 -52.3397 605.687 -43.9592 579.644 -36.6879C568.915 -33.7301 558.868 -30.7722 550.382 -29.2933C476.154 -16.1064 401.244 -4.15197 327.797 6.20037C254.739 16.5527 179.829 25.7959 105.308 33.8066C100.236 34.2996 94.9691 34.9158 89.897 35.532C60.2449 38.9828 29.5199 42.5568 0.355462 37.7503C-32.9056 32.3277 -58.461 16.676 -77.969 -10.1908L-78.1641 -10.4373H-77.8714C-18.3722 -2.42658 44.7361 1.51718 114.867 1.51718C116.623 1.51718 118.281 1.51718 120.037 1.51718C189.68 1.2707 259.226 -2.67305 318.043 -6.49355C395.684 -11.5465 460.743 -17.4621 526.095 -29.6631C542.286 -32.6209 557.795 -37.4273 572.719 -41.9873C595.933 -49.0121 617.782 -55.7904 638.851 -54.8045C662.358 -53.8185 681.866 -43.4662 700.301 -22.2685C744.682 29.0002 797.353 59.1944 856.755 67.3284C910.402 74.7229 969.023 64.4939 1031.06 36.6412C1053.39 26.6586 1074.37 13.9646 1094.56 1.76368C1130.94 -20.2967 1165.37 -41.1246 1207.22 -47.5332C1212.38 -48.2726 1227.11 -48.3959 1249.74 -47.9029C1270.71 -47.41 1296.46 -46.3008 1322.21 -44.8219C1370.01 -42.1106 1421.8 -38.0435 1423.95 -34.4695C1424.05 -34.223 1424.05 -34.0998 1424.05 -33.9765V-33.8533H1423.95C1391.86 -31.142 1358.4 -33.4836 1326.12 -35.8252C1284.37 -38.783 1241.16 -41.864 1200.19 -33.9765C1160.3 -26.3355 1123.92 -4.152 1088.61 17.4154C1066.27 31.0952 1043.15 45.1449 1019.26 55.4972C981.508 71.6419 939.078 80.0224 896.648 80.0224ZM637.68 -48.2727C644.02 -48.2727 649.97 -47.5332 655.238 -45.6845C669.478 -40.7548 677.477 -28.9236 685.767 -16.3529C690.644 -9.08164 695.717 -1.56389 702.154 4.96795C722.442 25.0564 746.34 41.4476 773.261 53.7718C798.621 65.3565 826.127 73.2441 855.194 77.0646C910.889 84.4591 969.121 76.6949 1019.06 55.1275C1042.86 44.8984 1065.98 30.7255 1088.31 17.0457C1123.53 -4.52171 1160.01 -26.7053 1199.9 -34.3463C1240.87 -42.2338 1284.08 -39.1528 1325.82 -36.1949C1358.11 -33.8533 1391.47 -31.5117 1423.56 -34.223V-34.3463C1421.8 -37.1809 1382.01 -41.2479 1322.02 -44.5754C1274.81 -47.1635 1218.43 -49.0121 1207.02 -47.2867C1165.08 -40.8781 1130.74 -20.0502 1094.36 2.01011C1074.17 14.2111 1053.3 26.905 1030.86 37.0109C968.828 64.8636 910.109 75.216 856.462 67.6982C796.963 59.441 744.291 29.2466 699.911 -22.0221C681.573 -43.2197 662.065 -53.572 638.656 -54.558C617.587 -55.4207 595.738 -48.7656 572.621 -41.7408C557.698 -37.1809 542.189 -32.4977 525.997 -29.4166C460.646 -17.3389 395.587 -11.4232 317.945 -6.24706C259.129 -2.42655 189.583 1.64044 119.939 1.76368C47.7598 2.01017 -16.9091 -1.93363 -77.6764 -10.0676C-58.2659 16.5527 -32.7105 32.2045 0.355462 37.6271C29.5199 42.4335 60.1474 38.8595 89.7995 35.4088C94.8715 34.7926 100.139 34.1763 105.211 33.6833C179.731 25.7958 254.642 16.4295 327.699 6.07716C401.146 -4.27518 476.057 -16.353 550.285 -29.4166C558.771 -30.8955 568.817 -33.7301 579.547 -36.8112C598.762 -42.3571 619.831 -48.2727 637.68 -48.2727Z" fill="white" fill-opacity="0.38"/>
<path d="M741.492 310.114C727.642 310.114 713.791 309.252 700.038 307.403C670.971 303.582 643.367 295.695 618.105 284.11C591.184 271.786 567.286 255.271 546.998 235.183C540.463 228.774 535.391 221.133 530.514 213.862C522.125 201.291 514.225 189.46 500.081 184.654C480.086 177.752 450.531 186.133 424.488 193.404C413.759 196.362 403.712 199.32 395.226 200.798C320.998 213.985 246.088 225.94 172.64 236.292C99.583 246.645 24.6725 255.888 -49.8479 263.898C-54.92 264.391 -60.1872 265.008 -65.2592 265.624C-94.9113 269.075 -125.636 272.649 -154.801 267.842C-188.062 262.419 -213.617 246.768 -233.125 219.901L-233.32 219.654H-233.028C-173.528 227.665 -110.42 231.609 -40.289 231.609C-38.5333 231.609 -36.8751 231.609 -35.1194 231.609C34.524 231.363 104.07 227.419 162.886 223.598C240.528 218.545 305.587 212.63 370.939 200.429C387.13 197.471 402.639 192.664 417.563 188.105C440.777 181.08 462.626 174.301 483.695 175.287C507.202 176.273 526.71 186.626 545.145 207.823C589.525 259.092 642.197 289.286 701.599 297.42C755.246 304.815 813.867 294.586 875.902 266.733C898.239 256.75 919.21 244.056 939.401 231.855C975.783 209.795 1010.21 188.967 1052.06 182.559C1057.23 181.819 1071.96 181.696 1094.59 182.189C1115.56 182.682 1141.31 183.791 1167.06 185.27C1214.85 187.981 1266.65 192.048 1268.79 195.622C1268.89 195.869 1268.89 195.992 1268.89 196.115V196.238H1268.79C1236.7 198.95 1203.25 196.608 1170.96 194.267C1129.21 191.309 1086 188.228 1045.04 196.115C1005.14 203.756 968.76 225.94 933.451 247.507C911.114 261.187 887.997 275.237 864.1 285.589C826.352 301.734 783.922 310.114 741.492 310.114ZM482.524 181.819C488.864 181.819 494.814 182.559 500.081 184.407C514.322 189.337 522.32 201.168 530.611 213.739C535.488 221.01 540.56 228.528 546.998 235.06C567.286 255.148 591.184 271.539 618.105 283.864C643.465 295.448 670.971 303.336 700.038 307.156C755.733 314.551 813.965 306.787 863.905 285.219C887.705 274.99 910.822 260.817 933.158 247.137C968.37 225.57 1004.85 203.386 1044.74 195.745C1085.71 187.858 1128.92 190.939 1170.67 193.897C1202.95 196.238 1236.31 198.58 1268.4 195.869V195.745C1266.65 192.911 1226.85 188.844 1166.86 185.516C1119.65 182.928 1063.28 181.08 1051.86 182.805C1009.92 189.214 975.588 210.042 939.206 232.102C919.015 244.303 898.141 256.997 875.707 267.103C813.672 294.955 754.953 305.308 701.306 297.79C641.807 289.533 589.135 259.338 544.755 208.07C526.417 186.872 506.909 176.52 483.5 175.534C462.431 174.671 440.582 181.326 417.465 188.351C402.542 192.911 387.033 197.594 370.841 200.675C305.49 212.753 240.431 218.669 162.789 223.845C103.972 227.665 34.4264 231.732 -35.217 231.855C-107.396 232.102 -172.065 228.158 -232.833 220.024C-213.422 246.644 -187.867 262.296 -154.801 267.719C-125.636 272.525 -95.0089 268.951 -65.3568 265.501C-60.2847 264.884 -55.0176 264.268 -49.9455 263.775C24.5749 255.888 99.4855 246.521 172.543 236.169C245.99 225.817 320.901 213.739 395.129 200.675C403.615 199.196 413.661 196.362 424.391 193.281C443.606 187.735 464.674 181.819 482.524 181.819Z" fill="white" fill-opacity="0.38"/>
</g>
<defs>
<clipPath id="clip0_2127_3781">
<rect width="1200" height="226" fill="white"/>
</clipPath>
</defs>
</svg>
