<svg width="1440" height="796" viewBox="0 0 1440 796" fill="none" xmlns="http://www.w3.org/2000/svg">
<path d="M0 29.4981C585.928 -92.3483 900.235 -87.2903 1440 29.4981M0 75.4981C585.928 -46.3483 900.235 -41.2903 1440 75.4981M0 121.498C585.928 -0.348335 900.235 4.70975 1440 121.498M0 167.498C585.928 45.6517 900.235 50.7097 1440 167.498M0 213.498C585.928 91.6517 900.235 96.7097 1440 213.498M0 259.498C585.928 137.652 900.235 142.71 1440 259.498M0 305.498C585.928 183.652 900.235 188.71 1440 305.498M0 351.498C585.928 229.652 900.235 234.71 1440 351.498M0 397.498C585.928 275.652 900.235 280.71 1440 397.498M0 443.498C585.928 321.652 900.235 326.71 1440 443.498M0 489.498C585.928 367.652 900.235 372.71 1440 489.498M0 535.498C585.928 413.652 900.235 418.71 1440 535.498M0 581.498C585.928 459.652 900.235 464.71 1440 581.498M0 627.498C585.928 505.652 900.235 510.71 1440 627.498M0 673.498C585.928 551.652 900.235 556.71 1440 673.498" stroke="url(#paint0_linear_93_403)" stroke-width="3"/>
<path d="M97.4904 795C-35.2371 538.064 -29.7273 272.004 97.4903 3.06567e-05M147.598 795C14.8708 538.064 20.3805 272.004 147.598 2.84669e-05M197.706 795C64.9786 538.064 70.4884 272.004 197.706 2.62771e-05M247.814 795C115.086 538.064 120.596 272.004 247.814 2.40874e-05M297.922 795C165.194 538.064 170.704 272.004 297.922 2.18976e-05M348.03 795C215.302 538.064 220.812 272.004 348.029 1.97078e-05M398.137 795C265.41 538.064 270.92 272.004 398.137 1.75181e-05M448.245 795C315.518 538.064 321.028 272.004 448.245 1.53283e-05M498.353 795C365.626 538.064 371.135 272.004 498.353 1.31386e-05M548.461 795C415.733 538.064 421.243 272.004 548.461 1.09488e-05M598.569 795C465.841 538.064 471.351 272.004 598.569 8.75904e-06M648.677 795C515.949 538.064 521.459 272.004 648.676 6.56928e-06M698.784 795C566.057 538.064 571.567 272.004 698.784 4.37952e-06M748.892 795C616.165 538.064 621.675 272.004 748.892 2.18976e-06M799 795C666.273 538.064 671.782 272.004 799 0" stroke="url(#paint1_linear_93_403)" stroke-width="3"/>
<defs>
<linearGradient id="paint0_linear_93_403" x1="1.13814e-05" y1="240.5" x2="1097" y2="265.5" gradientUnits="userSpaceOnUse">
<stop stop-color="#EEECFF" stop-opacity="0.7"/>
<stop offset="0.639198" stop-color="#EAE8FF" stop-opacity="0.7"/>
<stop offset="1" stop-color="white" stop-opacity="0"/>
</linearGradient>
<linearGradient id="paint1_linear_93_403" x1="399.5" y1="3.29471e-07" x2="410.5" y2="871" gradientUnits="userSpaceOnUse">
<stop stop-color="#EEECFF" stop-opacity="0.7"/>
<stop offset="0.723958" stop-color="#EAE8FF" stop-opacity="0.7"/>
<stop offset="1" stop-color="white" stop-opacity="0"/>
</linearGradient>
</defs>
</svg>
