<svg width="185" height="222" viewBox="0 0 185 222" fill="none" xmlns="http://www.w3.org/2000/svg">
<path d="M18.4995 28.1736L12.1016 32.0277C11.819 32.2076 11.5235 32.2847 11.2152 32.259C10.9068 32.2333 10.637 32.1305 10.4058 31.9507C10.1745 31.7708 9.99467 31.5462 9.8662 31.2769C9.73772 31.0066 9.71203 30.7045 9.78911 30.3704L11.4849 23.0861L5.81932 18.1913C5.56238 17.96 5.40204 17.6964 5.33832 17.4004C5.27357 17.1054 5.29258 16.8166 5.39536 16.534C5.49814 16.2513 5.65231 16.0201 5.85786 15.8402C6.06342 15.6604 6.34606 15.5447 6.70578 15.4934L14.1829 14.8382L17.0735 7.97773C17.202 7.6694 17.4013 7.43815 17.6717 7.28398C17.9409 7.12982 18.2169 7.05273 18.4995 7.05273C18.7822 7.05273 19.0586 7.12982 19.3289 7.28398C19.5982 7.43815 19.7971 7.6694 19.9256 7.97773L22.8162 14.8382L30.2933 15.4934C30.653 15.5447 30.9356 15.6604 31.1412 15.8402C31.3468 16.0201 31.5009 16.2513 31.6037 16.534C31.7065 16.8166 31.726 17.1054 31.6623 17.4004C31.5975 17.6964 31.4367 17.96 31.1797 18.1913L25.5141 23.0861L27.2099 30.3704C27.287 30.7045 27.2613 31.0066 27.1329 31.2769C27.0044 31.5462 26.8245 31.7708 26.5933 31.9507C26.362 32.1305 26.0922 32.2333 25.7839 32.259C25.4756 32.2847 25.1801 32.2076 24.8974 32.0277L18.4995 28.1736Z" fill="#D0D0D0"/>
<path d="M55.4995 28.1736L49.1016 32.0277C48.819 32.2076 48.5235 32.2847 48.2152 32.259C47.9068 32.2333 47.637 32.1305 47.4058 31.9507C47.1745 31.7708 46.9947 31.5462 46.8662 31.2769C46.7377 31.0066 46.712 30.7045 46.7891 30.3704L48.4849 23.0861L42.8193 18.1913C42.5624 17.96 42.402 17.6964 42.3383 17.4004C42.2736 17.1054 42.2926 16.8166 42.3954 16.534C42.4981 16.2513 42.6523 16.0201 42.8579 15.8402C43.0634 15.6604 43.3461 15.5447 43.7058 15.4934L51.1829 14.8382L54.0735 7.97773C54.202 7.6694 54.4013 7.43815 54.6717 7.28398C54.9409 7.12982 55.2169 7.05273 55.4995 7.05273C55.7822 7.05273 56.0586 7.12982 56.3289 7.28398C56.5982 7.43815 56.7971 7.6694 56.9256 7.97773L59.8162 14.8382L67.2933 15.4934C67.653 15.5447 67.9356 15.6604 68.1412 15.8402C68.3468 16.0201 68.5009 16.2513 68.6037 16.534C68.7065 16.8166 68.726 17.1054 68.6623 17.4004C68.5975 17.6964 68.4367 17.96 68.1797 18.1913L62.5141 23.0861L64.2099 30.3704C64.287 30.7045 64.2613 31.0066 64.1329 31.2769C64.0044 31.5462 63.8245 31.7708 63.5933 31.9507C63.362 32.1305 63.0922 32.2333 62.7839 32.259C62.4756 32.2847 62.1801 32.2076 61.8974 32.0277L55.4995 28.1736Z" fill="#D0D0D0"/>
<path d="M92.4995 28.1736L86.1016 32.0277C85.819 32.2076 85.5235 32.2847 85.2152 32.259C84.9068 32.2333 84.637 32.1305 84.4058 31.9507C84.1745 31.7708 83.9947 31.5462 83.8662 31.2769C83.7377 31.0066 83.712 30.7045 83.7891 30.3704L85.4849 23.0861L79.8193 18.1913C79.5624 17.96 79.402 17.6964 79.3383 17.4004C79.2736 17.1054 79.2926 16.8166 79.3954 16.534C79.4981 16.2513 79.6523 16.0201 79.8579 15.8402C80.0634 15.6604 80.3461 15.5447 80.7058 15.4934L88.1829 14.8382L91.0735 7.97773C91.202 7.6694 91.4013 7.43815 91.6717 7.28398C91.9409 7.12982 92.2169 7.05273 92.4995 7.05273C92.7822 7.05273 93.0586 7.12982 93.3289 7.28398C93.5982 7.43815 93.7971 7.6694 93.9256 7.97773L96.8162 14.8382L104.293 15.4934C104.653 15.5447 104.936 15.6604 105.141 15.8402C105.347 16.0201 105.501 16.2513 105.604 16.534C105.706 16.8166 105.726 17.1054 105.662 17.4004C105.598 17.6964 105.437 17.96 105.18 18.1913L99.5141 23.0861L101.21 30.3704C101.287 30.7045 101.261 31.0066 101.133 31.2769C101.004 31.5462 100.825 31.7708 100.593 31.9507C100.362 32.1305 100.092 32.2333 99.7839 32.259C99.4756 32.2847 99.1801 32.2076 98.8974 32.0277L92.4995 28.1736Z" fill="#D0D0D0"/>
<path d="M129.5 28.1736L123.102 32.0277C122.819 32.2076 122.523 32.2847 122.215 32.259C121.907 32.2333 121.637 32.1305 121.406 31.9507C121.175 31.7708 120.995 31.5462 120.866 31.2769C120.738 31.0066 120.712 30.7045 120.789 30.3704L122.485 23.0861L116.819 18.1913C116.562 17.96 116.402 17.6964 116.338 17.4004C116.274 17.1054 116.293 16.8166 116.395 16.534C116.498 16.2513 116.652 16.0201 116.858 15.8402C117.063 15.6604 117.346 15.5447 117.706 15.4934L125.183 14.8382L128.073 7.97773C128.202 7.6694 128.401 7.43815 128.672 7.28398C128.941 7.12982 129.217 7.05273 129.5 7.05273C129.782 7.05273 130.059 7.12982 130.329 7.28398C130.598 7.43815 130.797 7.6694 130.926 7.97773L133.816 14.8382L141.293 15.4934C141.653 15.5447 141.936 15.6604 142.141 15.8402C142.347 16.0201 142.501 16.2513 142.604 16.534C142.706 16.8166 142.726 17.1054 142.662 17.4004C142.598 17.6964 142.437 17.96 142.18 18.1913L136.514 23.0861L138.21 30.3704C138.287 30.7045 138.261 31.0066 138.133 31.2769C138.004 31.5462 137.825 31.7708 137.593 31.9507C137.362 32.1305 137.092 32.2333 136.784 32.259C136.476 32.2847 136.18 32.2076 135.897 32.0277L129.5 28.1736Z" fill="#D0D0D0"/>
<path d="M166.5 28.1736L160.102 32.0277C159.819 32.2076 159.523 32.2847 159.215 32.259C158.907 32.2333 158.637 32.1305 158.406 31.9507C158.175 31.7708 157.995 31.5462 157.866 31.2769C157.738 31.0066 157.712 30.7045 157.789 30.3704L159.485 23.0861L153.819 18.1913C153.562 17.96 153.402 17.6964 153.338 17.4004C153.274 17.1054 153.293 16.8166 153.395 16.534C153.498 16.2513 153.652 16.0201 153.858 15.8402C154.063 15.6604 154.346 15.5447 154.706 15.4934L162.183 14.8382L165.073 7.97773C165.202 7.6694 165.401 7.43815 165.672 7.28398C165.941 7.12982 166.217 7.05273 166.5 7.05273C166.782 7.05273 167.059 7.12982 167.329 7.28398C167.598 7.43815 167.797 7.6694 167.926 7.97773L170.816 14.8382L178.293 15.4934C178.653 15.5447 178.936 15.6604 179.141 15.8402C179.347 16.0201 179.501 16.2513 179.604 16.534C179.706 16.8166 179.726 17.1054 179.662 17.4004C179.598 17.6964 179.437 17.96 179.18 18.1913L173.514 23.0861L175.21 30.3704C175.287 30.7045 175.261 31.0066 175.133 31.2769C175.004 31.5462 174.825 31.7708 174.593 31.9507C174.362 32.1305 174.092 32.2333 173.784 32.259C173.476 32.2847 173.18 32.2076 172.897 32.0277L166.5 28.1736Z" fill="#D0D0D0"/>
<path d="M18.4995 65.1736L12.1016 69.0277C11.819 69.2076 11.5235 69.2847 11.2152 69.259C10.9068 69.2333 10.637 69.1305 10.4058 68.9507C10.1745 68.7708 9.99467 68.5462 9.8662 68.2769C9.73772 68.0066 9.71203 67.7045 9.78911 67.3704L11.4849 60.0861L5.81932 55.1913C5.56238 54.96 5.40204 54.6964 5.33832 54.4004C5.27357 54.1054 5.29258 53.8166 5.39536 53.534C5.49814 53.2513 5.65231 53.0201 5.85786 52.8402C6.06342 52.6604 6.34606 52.5447 6.70578 52.4934L14.1829 51.8382L17.0735 44.9777C17.202 44.6694 17.4013 44.4382 17.6717 44.284C17.9409 44.1298 18.2169 44.0527 18.4995 44.0527C18.7822 44.0527 19.0586 44.1298 19.3289 44.284C19.5982 44.4382 19.7971 44.6694 19.9256 44.9777L22.8162 51.8382L30.2933 52.4934C30.653 52.5447 30.9356 52.6604 31.1412 52.8402C31.3468 53.0201 31.5009 53.2513 31.6037 53.534C31.7065 53.8166 31.726 54.1054 31.6623 54.4004C31.5975 54.6964 31.4367 54.96 31.1797 55.1913L25.5141 60.0861L27.2099 67.3704C27.287 67.7045 27.2613 68.0066 27.1329 68.2769C27.0044 68.5462 26.8245 68.7708 26.5933 68.9507C26.362 69.1305 26.0922 69.2333 25.7839 69.259C25.4756 69.2847 25.1801 69.2076 24.8974 69.0277L18.4995 65.1736Z" fill="#DFC903"/>
<path d="M55.4995 65.1736L49.1016 69.0277C48.819 69.2076 48.5235 69.2847 48.2152 69.259C47.9068 69.2333 47.637 69.1305 47.4058 68.9507C47.1745 68.7708 46.9947 68.5462 46.8662 68.2769C46.7377 68.0066 46.712 67.7045 46.7891 67.3704L48.4849 60.0861L42.8193 55.1913C42.5624 54.96 42.402 54.6964 42.3383 54.4004C42.2736 54.1054 42.2926 53.8166 42.3954 53.534C42.4981 53.2513 42.6523 53.0201 42.8579 52.8402C43.0634 52.6604 43.3461 52.5447 43.7058 52.4934L51.1829 51.8382L54.0735 44.9777C54.202 44.6694 54.4013 44.4382 54.6717 44.284C54.9409 44.1298 55.2169 44.0527 55.4995 44.0527C55.7822 44.0527 56.0586 44.1298 56.3289 44.284C56.5982 44.4382 56.7971 44.6694 56.9256 44.9777L59.8162 51.8382L67.2933 52.4934C67.653 52.5447 67.9356 52.6604 68.1412 52.8402C68.3468 53.0201 68.5009 53.2513 68.6037 53.534C68.7065 53.8166 68.726 54.1054 68.6623 54.4004C68.5975 54.6964 68.4367 54.96 68.1797 55.1913L62.5141 60.0861L64.2099 67.3704C64.287 67.7045 64.2613 68.0066 64.1329 68.2769C64.0044 68.5462 63.8245 68.7708 63.5933 68.9507C63.362 69.1305 63.0922 69.2333 62.7839 69.259C62.4756 69.2847 62.1801 69.2076 61.8974 69.0277L55.4995 65.1736Z" fill="#D0D0D0"/>
<path d="M92.4995 65.1736L86.1016 69.0277C85.819 69.2076 85.5235 69.2847 85.2152 69.259C84.9068 69.2333 84.637 69.1305 84.4058 68.9507C84.1745 68.7708 83.9947 68.5462 83.8662 68.2769C83.7377 68.0066 83.712 67.7045 83.7891 67.3704L85.4849 60.0861L79.8193 55.1913C79.5624 54.96 79.402 54.6964 79.3383 54.4004C79.2736 54.1054 79.2926 53.8166 79.3954 53.534C79.4981 53.2513 79.6523 53.0201 79.8579 52.8402C80.0634 52.6604 80.3461 52.5447 80.7058 52.4934L88.1829 51.8382L91.0735 44.9777C91.202 44.6694 91.4013 44.4382 91.6717 44.284C91.9409 44.1298 92.2169 44.0527 92.4995 44.0527C92.7822 44.0527 93.0586 44.1298 93.3289 44.284C93.5982 44.4382 93.7971 44.6694 93.9256 44.9777L96.8162 51.8382L104.293 52.4934C104.653 52.5447 104.936 52.6604 105.141 52.8402C105.347 53.0201 105.501 53.2513 105.604 53.534C105.706 53.8166 105.726 54.1054 105.662 54.4004C105.598 54.6964 105.437 54.96 105.18 55.1913L99.5141 60.0861L101.21 67.3704C101.287 67.7045 101.261 68.0066 101.133 68.2769C101.004 68.5462 100.825 68.7708 100.593 68.9507C100.362 69.1305 100.092 69.2333 99.7839 69.259C99.4756 69.2847 99.1801 69.2076 98.8974 69.0277L92.4995 65.1736Z" fill="#D0D0D0"/>
<path d="M129.5 65.1736L123.102 69.0277C122.819 69.2076 122.523 69.2847 122.215 69.259C121.907 69.2333 121.637 69.1305 121.406 68.9507C121.175 68.7708 120.995 68.5462 120.866 68.2769C120.738 68.0066 120.712 67.7045 120.789 67.3704L122.485 60.0861L116.819 55.1913C116.562 54.96 116.402 54.6964 116.338 54.4004C116.274 54.1054 116.293 53.8166 116.395 53.534C116.498 53.2513 116.652 53.0201 116.858 52.8402C117.063 52.6604 117.346 52.5447 117.706 52.4934L125.183 51.8382L128.073 44.9777C128.202 44.6694 128.401 44.4382 128.672 44.284C128.941 44.1298 129.217 44.0527 129.5 44.0527C129.782 44.0527 130.059 44.1298 130.329 44.284C130.598 44.4382 130.797 44.6694 130.926 44.9777L133.816 51.8382L141.293 52.4934C141.653 52.5447 141.936 52.6604 142.141 52.8402C142.347 53.0201 142.501 53.2513 142.604 53.534C142.706 53.8166 142.726 54.1054 142.662 54.4004C142.598 54.6964 142.437 54.96 142.18 55.1913L136.514 60.0861L138.21 67.3704C138.287 67.7045 138.261 68.0066 138.133 68.2769C138.004 68.5462 137.825 68.7708 137.593 68.9507C137.362 69.1305 137.092 69.2333 136.784 69.259C136.476 69.2847 136.18 69.2076 135.897 69.0277L129.5 65.1736Z" fill="#D0D0D0"/>
<path d="M166.5 65.1736L160.102 69.0277C159.819 69.2076 159.523 69.2847 159.215 69.259C158.907 69.2333 158.637 69.1305 158.406 68.9507C158.175 68.7708 157.995 68.5462 157.866 68.2769C157.738 68.0066 157.712 67.7045 157.789 67.3704L159.485 60.0861L153.819 55.1913C153.562 54.96 153.402 54.6964 153.338 54.4004C153.274 54.1054 153.293 53.8166 153.395 53.534C153.498 53.2513 153.652 53.0201 153.858 52.8402C154.063 52.6604 154.346 52.5447 154.706 52.4934L162.183 51.8382L165.073 44.9777C165.202 44.6694 165.401 44.4382 165.672 44.284C165.941 44.1298 166.217 44.0527 166.5 44.0527C166.782 44.0527 167.059 44.1298 167.329 44.284C167.598 44.4382 167.797 44.6694 167.926 44.9777L170.816 51.8382L178.293 52.4934C178.653 52.5447 178.936 52.6604 179.141 52.8402C179.347 53.0201 179.501 53.2513 179.604 53.534C179.706 53.8166 179.726 54.1054 179.662 54.4004C179.598 54.6964 179.437 54.96 179.18 55.1913L173.514 60.0861L175.21 67.3704C175.287 67.7045 175.261 68.0066 175.133 68.2769C175.004 68.5462 174.825 68.7708 174.593 68.9507C174.362 69.1305 174.092 69.2333 173.784 69.259C173.476 69.2847 173.18 69.2076 172.897 69.0277L166.5 65.1736Z" fill="#D0D0D0"/>
<path d="M18.4995 102.174L12.1016 106.028C11.819 106.208 11.5235 106.285 11.2152 106.259C10.9068 106.233 10.637 106.131 10.4058 105.951C10.1745 105.771 9.99467 105.546 9.8662 105.277C9.73772 105.007 9.71203 104.704 9.78911 104.37L11.4849 97.0861L5.81932 92.1913C5.56238 91.96 5.40204 91.6964 5.33832 91.4004C5.27357 91.1054 5.29258 90.8166 5.39536 90.534C5.49814 90.2513 5.65231 90.0201 5.85786 89.8402C6.06342 89.6604 6.34606 89.5447 6.70578 89.4934L14.1829 88.8382L17.0735 81.9777C17.202 81.6694 17.4013 81.4382 17.6717 81.284C17.9409 81.1298 18.2169 81.0527 18.4995 81.0527C18.7822 81.0527 19.0586 81.1298 19.3289 81.284C19.5982 81.4382 19.7971 81.6694 19.9256 81.9777L22.8162 88.8382L30.2933 89.4934C30.653 89.5447 30.9356 89.6604 31.1412 89.8402C31.3468 90.0201 31.5009 90.2513 31.6037 90.534C31.7065 90.8166 31.726 91.1054 31.6623 91.4004C31.5975 91.6964 31.4367 91.96 31.1797 92.1913L25.5141 97.0861L27.2099 104.37C27.287 104.704 27.2613 105.007 27.1329 105.277C27.0044 105.546 26.8245 105.771 26.5933 105.951C26.362 106.131 26.0922 106.233 25.7839 106.259C25.4756 106.285 25.1801 106.208 24.8974 106.028L18.4995 102.174Z" fill="#DFC903"/>
<path d="M55.4995 102.174L49.1016 106.028C48.819 106.208 48.5235 106.285 48.2152 106.259C47.9068 106.233 47.637 106.131 47.4058 105.951C47.1745 105.771 46.9947 105.546 46.8662 105.277C46.7377 105.007 46.712 104.704 46.7891 104.37L48.4849 97.0861L42.8193 92.1913C42.5624 91.96 42.402 91.6964 42.3383 91.4004C42.2736 91.1054 42.2926 90.8166 42.3954 90.534C42.4981 90.2513 42.6523 90.0201 42.8579 89.8402C43.0634 89.6604 43.3461 89.5447 43.7058 89.4934L51.1829 88.8382L54.0735 81.9777C54.202 81.6694 54.4013 81.4382 54.6717 81.284C54.9409 81.1298 55.2169 81.0527 55.4995 81.0527C55.7822 81.0527 56.0586 81.1298 56.3289 81.284C56.5982 81.4382 56.7971 81.6694 56.9256 81.9777L59.8162 88.8382L67.2933 89.4934C67.653 89.5447 67.9356 89.6604 68.1412 89.8402C68.3468 90.0201 68.5009 90.2513 68.6037 90.534C68.7065 90.8166 68.726 91.1054 68.6623 91.4004C68.5975 91.6964 68.4367 91.96 68.1797 92.1913L62.5141 97.0861L64.2099 104.37C64.287 104.704 64.2613 105.007 64.1329 105.277C64.0044 105.546 63.8245 105.771 63.5933 105.951C63.362 106.131 63.0922 106.233 62.7839 106.259C62.4756 106.285 62.1801 106.208 61.8974 106.028L55.4995 102.174Z" fill="#DFC903"/>
<path d="M92.4995 102.174L86.1016 106.028C85.819 106.208 85.5235 106.285 85.2152 106.259C84.9068 106.233 84.637 106.131 84.4058 105.951C84.1745 105.771 83.9947 105.546 83.8662 105.277C83.7377 105.007 83.712 104.704 83.7891 104.37L85.4849 97.0861L79.8193 92.1913C79.5624 91.96 79.402 91.6964 79.3383 91.4004C79.2736 91.1054 79.2926 90.8166 79.3954 90.534C79.4981 90.2513 79.6523 90.0201 79.8579 89.8402C80.0634 89.6604 80.3461 89.5447 80.7058 89.4934L88.1829 88.8382L91.0735 81.9777C91.202 81.6694 91.4013 81.4382 91.6717 81.284C91.9409 81.1298 92.2169 81.0527 92.4995 81.0527C92.7822 81.0527 93.0586 81.1298 93.3289 81.284C93.5982 81.4382 93.7971 81.6694 93.9256 81.9777L96.8162 88.8382L104.293 89.4934C104.653 89.5447 104.936 89.6604 105.141 89.8402C105.347 90.0201 105.501 90.2513 105.604 90.534C105.706 90.8166 105.726 91.1054 105.662 91.4004C105.598 91.6964 105.437 91.96 105.18 92.1913L99.5141 97.0861L101.21 104.37C101.287 104.704 101.261 105.007 101.133 105.277C101.004 105.546 100.825 105.771 100.593 105.951C100.362 106.131 100.092 106.233 99.7839 106.259C99.4756 106.285 99.1801 106.208 98.8974 106.028L92.4995 102.174Z" fill="#D0D0D0"/>
<path d="M129.5 102.174L123.102 106.028C122.819 106.208 122.523 106.285 122.215 106.259C121.907 106.233 121.637 106.131 121.406 105.951C121.175 105.771 120.995 105.546 120.866 105.277C120.738 105.007 120.712 104.704 120.789 104.37L122.485 97.0861L116.819 92.1913C116.562 91.96 116.402 91.6964 116.338 91.4004C116.274 91.1054 116.293 90.8166 116.395 90.534C116.498 90.2513 116.652 90.0201 116.858 89.8402C117.063 89.6604 117.346 89.5447 117.706 89.4934L125.183 88.8382L128.073 81.9777C128.202 81.6694 128.401 81.4382 128.672 81.284C128.941 81.1298 129.217 81.0527 129.5 81.0527C129.782 81.0527 130.059 81.1298 130.329 81.284C130.598 81.4382 130.797 81.6694 130.926 81.9777L133.816 88.8382L141.293 89.4934C141.653 89.5447 141.936 89.6604 142.141 89.8402C142.347 90.0201 142.501 90.2513 142.604 90.534C142.706 90.8166 142.726 91.1054 142.662 91.4004C142.598 91.6964 142.437 91.96 142.18 92.1913L136.514 97.0861L138.21 104.37C138.287 104.704 138.261 105.007 138.133 105.277C138.004 105.546 137.825 105.771 137.593 105.951C137.362 106.131 137.092 106.233 136.784 106.259C136.476 106.285 136.18 106.208 135.897 106.028L129.5 102.174Z" fill="#D0D0D0"/>
<path d="M166.5 102.174L160.102 106.028C159.819 106.208 159.523 106.285 159.215 106.259C158.907 106.233 158.637 106.131 158.406 105.951C158.175 105.771 157.995 105.546 157.866 105.277C157.738 105.007 157.712 104.704 157.789 104.37L159.485 97.0861L153.819 92.1913C153.562 91.96 153.402 91.6964 153.338 91.4004C153.274 91.1054 153.293 90.8166 153.395 90.534C153.498 90.2513 153.652 90.0201 153.858 89.8402C154.063 89.6604 154.346 89.5447 154.706 89.4934L162.183 88.8382L165.073 81.9777C165.202 81.6694 165.401 81.4382 165.672 81.284C165.941 81.1298 166.217 81.0527 166.5 81.0527C166.782 81.0527 167.059 81.1298 167.329 81.284C167.598 81.4382 167.797 81.6694 167.926 81.9777L170.816 88.8382L178.293 89.4934C178.653 89.5447 178.936 89.6604 179.141 89.8402C179.347 90.0201 179.501 90.2513 179.604 90.534C179.706 90.8166 179.726 91.1054 179.662 91.4004C179.598 91.6964 179.437 91.96 179.18 92.1913L173.514 97.0861L175.21 104.37C175.287 104.704 175.261 105.007 175.133 105.277C175.004 105.546 174.825 105.771 174.593 105.951C174.362 106.131 174.092 106.233 173.784 106.259C173.476 106.285 173.18 106.208 172.897 106.028L166.5 102.174Z" fill="#D0D0D0"/>
<path d="M18.4995 139.174L12.1016 143.028C11.819 143.208 11.5235 143.285 11.2152 143.259C10.9068 143.233 10.637 143.131 10.4058 142.951C10.1745 142.771 9.99467 142.546 9.8662 142.277C9.73772 142.007 9.71203 141.704 9.78911 141.37L11.4849 134.086L5.81932 129.191C5.56238 128.96 5.40204 128.696 5.33832 128.4C5.27357 128.105 5.29258 127.817 5.39536 127.534C5.49814 127.251 5.65231 127.02 5.85786 126.84C6.06342 126.66 6.34606 126.545 6.70578 126.493L14.1829 125.838L17.0735 118.978C17.202 118.669 17.4013 118.438 17.6717 118.284C17.9409 118.13 18.2169 118.053 18.4995 118.053C18.7822 118.053 19.0586 118.13 19.3289 118.284C19.5982 118.438 19.7971 118.669 19.9256 118.978L22.8162 125.838L30.2933 126.493C30.653 126.545 30.9356 126.66 31.1412 126.84C31.3468 127.02 31.5009 127.251 31.6037 127.534C31.7065 127.817 31.726 128.105 31.6623 128.4C31.5975 128.696 31.4367 128.96 31.1797 129.191L25.5141 134.086L27.2099 141.37C27.287 141.704 27.2613 142.007 27.1329 142.277C27.0044 142.546 26.8245 142.771 26.5933 142.951C26.362 143.131 26.0922 143.233 25.7839 143.259C25.4756 143.285 25.1801 143.208 24.8974 143.028L18.4995 139.174Z" fill="#DFC903"/>
<path d="M55.4995 139.174L49.1016 143.028C48.819 143.208 48.5235 143.285 48.2152 143.259C47.9068 143.233 47.637 143.131 47.4058 142.951C47.1745 142.771 46.9947 142.546 46.8662 142.277C46.7377 142.007 46.712 141.704 46.7891 141.37L48.4849 134.086L42.8193 129.191C42.5624 128.96 42.402 128.696 42.3383 128.4C42.2736 128.105 42.2926 127.817 42.3954 127.534C42.4981 127.251 42.6523 127.02 42.8579 126.84C43.0634 126.66 43.3461 126.545 43.7058 126.493L51.1829 125.838L54.0735 118.978C54.202 118.669 54.4013 118.438 54.6717 118.284C54.9409 118.13 55.2169 118.053 55.4995 118.053C55.7822 118.053 56.0586 118.13 56.3289 118.284C56.5982 118.438 56.7971 118.669 56.9256 118.978L59.8162 125.838L67.2933 126.493C67.653 126.545 67.9356 126.66 68.1412 126.84C68.3468 127.02 68.5009 127.251 68.6037 127.534C68.7065 127.817 68.726 128.105 68.6623 128.4C68.5975 128.696 68.4367 128.96 68.1797 129.191L62.5141 134.086L64.2099 141.37C64.287 141.704 64.2613 142.007 64.1329 142.277C64.0044 142.546 63.8245 142.771 63.5933 142.951C63.362 143.131 63.0922 143.233 62.7839 143.259C62.4756 143.285 62.1801 143.208 61.8974 143.028L55.4995 139.174Z" fill="#DFC903"/>
<path d="M92.4995 139.174L86.1016 143.028C85.819 143.208 85.5235 143.285 85.2152 143.259C84.9068 143.233 84.637 143.131 84.4058 142.951C84.1745 142.771 83.9947 142.546 83.8662 142.277C83.7377 142.007 83.712 141.704 83.7891 141.37L85.4849 134.086L79.8193 129.191C79.5624 128.96 79.402 128.696 79.3383 128.4C79.2736 128.105 79.2926 127.817 79.3954 127.534C79.4981 127.251 79.6523 127.02 79.8579 126.84C80.0634 126.66 80.3461 126.545 80.7058 126.493L88.1829 125.838L91.0735 118.978C91.202 118.669 91.4013 118.438 91.6717 118.284C91.9409 118.13 92.2169 118.053 92.4995 118.053C92.7822 118.053 93.0586 118.13 93.3289 118.284C93.5982 118.438 93.7971 118.669 93.9256 118.978L96.8162 125.838L104.293 126.493C104.653 126.545 104.936 126.66 105.141 126.84C105.347 127.02 105.501 127.251 105.604 127.534C105.706 127.817 105.726 128.105 105.662 128.4C105.598 128.696 105.437 128.96 105.18 129.191L99.5141 134.086L101.21 141.37C101.287 141.704 101.261 142.007 101.133 142.277C101.004 142.546 100.825 142.771 100.593 142.951C100.362 143.131 100.092 143.233 99.7839 143.259C99.4756 143.285 99.1801 143.208 98.8974 143.028L92.4995 139.174Z" fill="#DFC903"/>
<path d="M129.5 139.174L123.102 143.028C122.819 143.208 122.523 143.285 122.215 143.259C121.907 143.233 121.637 143.131 121.406 142.951C121.175 142.771 120.995 142.546 120.866 142.277C120.738 142.007 120.712 141.704 120.789 141.37L122.485 134.086L116.819 129.191C116.562 128.96 116.402 128.696 116.338 128.4C116.274 128.105 116.293 127.817 116.395 127.534C116.498 127.251 116.652 127.02 116.858 126.84C117.063 126.66 117.346 126.545 117.706 126.493L125.183 125.838L128.073 118.978C128.202 118.669 128.401 118.438 128.672 118.284C128.941 118.13 129.217 118.053 129.5 118.053C129.782 118.053 130.059 118.13 130.329 118.284C130.598 118.438 130.797 118.669 130.926 118.978L133.816 125.838L141.293 126.493C141.653 126.545 141.936 126.66 142.141 126.84C142.347 127.02 142.501 127.251 142.604 127.534C142.706 127.817 142.726 128.105 142.662 128.4C142.598 128.696 142.437 128.96 142.18 129.191L136.514 134.086L138.21 141.37C138.287 141.704 138.261 142.007 138.133 142.277C138.004 142.546 137.825 142.771 137.593 142.951C137.362 143.131 137.092 143.233 136.784 143.259C136.476 143.285 136.18 143.208 135.897 143.028L129.5 139.174Z" fill="#D0D0D0"/>
<path d="M166.5 139.174L160.102 143.028C159.819 143.208 159.523 143.285 159.215 143.259C158.907 143.233 158.637 143.131 158.406 142.951C158.175 142.771 157.995 142.546 157.866 142.277C157.738 142.007 157.712 141.704 157.789 141.37L159.485 134.086L153.819 129.191C153.562 128.96 153.402 128.696 153.338 128.4C153.274 128.105 153.293 127.817 153.395 127.534C153.498 127.251 153.652 127.02 153.858 126.84C154.063 126.66 154.346 126.545 154.706 126.493L162.183 125.838L165.073 118.978C165.202 118.669 165.401 118.438 165.672 118.284C165.941 118.13 166.217 118.053 166.5 118.053C166.782 118.053 167.059 118.13 167.329 118.284C167.598 118.438 167.797 118.669 167.926 118.978L170.816 125.838L178.293 126.493C178.653 126.545 178.936 126.66 179.141 126.84C179.347 127.02 179.501 127.251 179.604 127.534C179.706 127.817 179.726 128.105 179.662 128.4C179.598 128.696 179.437 128.96 179.18 129.191L173.514 134.086L175.21 141.37C175.287 141.704 175.261 142.007 175.133 142.277C175.004 142.546 174.825 142.771 174.593 142.951C174.362 143.131 174.092 143.233 173.784 143.259C173.476 143.285 173.18 143.208 172.897 143.028L166.5 139.174Z" fill="#D0D0D0"/>
<path d="M18.4995 176.174L12.1016 180.028C11.819 180.208 11.5235 180.285 11.2152 180.259C10.9068 180.233 10.637 180.131 10.4058 179.951C10.1745 179.771 9.99467 179.546 9.8662 179.277C9.73772 179.007 9.71203 178.704 9.78911 178.37L11.4849 171.086L5.81932 166.191C5.56238 165.96 5.40204 165.696 5.33832 165.4C5.27357 165.105 5.29258 164.817 5.39536 164.534C5.49814 164.251 5.65231 164.02 5.85786 163.84C6.06342 163.66 6.34606 163.545 6.70578 163.493L14.1829 162.838L17.0735 155.978C17.202 155.669 17.4013 155.438 17.6717 155.284C17.9409 155.13 18.2169 155.053 18.4995 155.053C18.7822 155.053 19.0586 155.13 19.3289 155.284C19.5982 155.438 19.7971 155.669 19.9256 155.978L22.8162 162.838L30.2933 163.493C30.653 163.545 30.9356 163.66 31.1412 163.84C31.3468 164.02 31.5009 164.251 31.6037 164.534C31.7065 164.817 31.726 165.105 31.6623 165.4C31.5975 165.696 31.4367 165.96 31.1797 166.191L25.5141 171.086L27.2099 178.37C27.287 178.704 27.2613 179.007 27.1329 179.277C27.0044 179.546 26.8245 179.771 26.5933 179.951C26.362 180.131 26.0922 180.233 25.7839 180.259C25.4756 180.285 25.1801 180.208 24.8974 180.028L18.4995 176.174Z" fill="#DFC903"/>
<path d="M55.4995 176.174L49.1016 180.028C48.819 180.208 48.5235 180.285 48.2152 180.259C47.9068 180.233 47.637 180.131 47.4058 179.951C47.1745 179.771 46.9947 179.546 46.8662 179.277C46.7377 179.007 46.712 178.704 46.7891 178.37L48.4849 171.086L42.8193 166.191C42.5624 165.96 42.402 165.696 42.3383 165.4C42.2736 165.105 42.2926 164.817 42.3954 164.534C42.4981 164.251 42.6523 164.02 42.8579 163.84C43.0634 163.66 43.3461 163.545 43.7058 163.493L51.1829 162.838L54.0735 155.978C54.202 155.669 54.4013 155.438 54.6717 155.284C54.9409 155.13 55.2169 155.053 55.4995 155.053C55.7822 155.053 56.0586 155.13 56.3289 155.284C56.5982 155.438 56.7971 155.669 56.9256 155.978L59.8162 162.838L67.2933 163.493C67.653 163.545 67.9356 163.66 68.1412 163.84C68.3468 164.02 68.5009 164.251 68.6037 164.534C68.7065 164.817 68.726 165.105 68.6623 165.4C68.5975 165.696 68.4367 165.96 68.1797 166.191L62.5141 171.086L64.2099 178.37C64.287 178.704 64.2613 179.007 64.1329 179.277C64.0044 179.546 63.8245 179.771 63.5933 179.951C63.362 180.131 63.0922 180.233 62.7839 180.259C62.4756 180.285 62.1801 180.208 61.8974 180.028L55.4995 176.174Z" fill="#DFC903"/>
<path d="M92.4995 176.174L86.1016 180.028C85.819 180.208 85.5235 180.285 85.2152 180.259C84.9068 180.233 84.637 180.131 84.4058 179.951C84.1745 179.771 83.9947 179.546 83.8662 179.277C83.7377 179.007 83.712 178.704 83.7891 178.37L85.4849 171.086L79.8193 166.191C79.5624 165.96 79.402 165.696 79.3383 165.4C79.2736 165.105 79.2926 164.817 79.3954 164.534C79.4981 164.251 79.6523 164.02 79.8579 163.84C80.0634 163.66 80.3461 163.545 80.7058 163.493L88.1829 162.838L91.0735 155.978C91.202 155.669 91.4013 155.438 91.6717 155.284C91.9409 155.13 92.2169 155.053 92.4995 155.053C92.7822 155.053 93.0586 155.13 93.3289 155.284C93.5982 155.438 93.7971 155.669 93.9256 155.978L96.8162 162.838L104.293 163.493C104.653 163.545 104.936 163.66 105.141 163.84C105.347 164.02 105.501 164.251 105.604 164.534C105.706 164.817 105.726 165.105 105.662 165.4C105.598 165.696 105.437 165.96 105.18 166.191L99.5141 171.086L101.21 178.37C101.287 178.704 101.261 179.007 101.133 179.277C101.004 179.546 100.825 179.771 100.593 179.951C100.362 180.131 100.092 180.233 99.7839 180.259C99.4756 180.285 99.1801 180.208 98.8974 180.028L92.4995 176.174Z" fill="#DFC903"/>
<path d="M129.5 176.174L123.102 180.028C122.819 180.208 122.523 180.285 122.215 180.259C121.907 180.233 121.637 180.131 121.406 179.951C121.175 179.771 120.995 179.546 120.866 179.277C120.738 179.007 120.712 178.704 120.789 178.37L122.485 171.086L116.819 166.191C116.562 165.96 116.402 165.696 116.338 165.4C116.274 165.105 116.293 164.817 116.395 164.534C116.498 164.251 116.652 164.02 116.858 163.84C117.063 163.66 117.346 163.545 117.706 163.493L125.183 162.838L128.073 155.978C128.202 155.669 128.401 155.438 128.672 155.284C128.941 155.13 129.217 155.053 129.5 155.053C129.782 155.053 130.059 155.13 130.329 155.284C130.598 155.438 130.797 155.669 130.926 155.978L133.816 162.838L141.293 163.493C141.653 163.545 141.936 163.66 142.141 163.84C142.347 164.02 142.501 164.251 142.604 164.534C142.706 164.817 142.726 165.105 142.662 165.4C142.598 165.696 142.437 165.96 142.18 166.191L136.514 171.086L138.21 178.37C138.287 178.704 138.261 179.007 138.133 179.277C138.004 179.546 137.825 179.771 137.593 179.951C137.362 180.131 137.092 180.233 136.784 180.259C136.476 180.285 136.18 180.208 135.897 180.028L129.5 176.174Z" fill="#DFC903"/>
<path d="M166.5 176.174L160.102 180.028C159.819 180.208 159.523 180.285 159.215 180.259C158.907 180.233 158.637 180.131 158.406 179.951C158.175 179.771 157.995 179.546 157.866 179.277C157.738 179.007 157.712 178.704 157.789 178.37L159.485 171.086L153.819 166.191C153.562 165.96 153.402 165.696 153.338 165.4C153.274 165.105 153.293 164.817 153.395 164.534C153.498 164.251 153.652 164.02 153.858 163.84C154.063 163.66 154.346 163.545 154.706 163.493L162.183 162.838L165.073 155.978C165.202 155.669 165.401 155.438 165.672 155.284C165.941 155.13 166.217 155.053 166.5 155.053C166.782 155.053 167.059 155.13 167.329 155.284C167.598 155.438 167.797 155.669 167.926 155.978L170.816 162.838L178.293 163.493C178.653 163.545 178.936 163.66 179.141 163.84C179.347 164.02 179.501 164.251 179.604 164.534C179.706 164.817 179.726 165.105 179.662 165.4C179.598 165.696 179.437 165.96 179.18 166.191L173.514 171.086L175.21 178.37C175.287 178.704 175.261 179.007 175.133 179.277C175.004 179.546 174.825 179.771 174.593 179.951C174.362 180.131 174.092 180.233 173.784 180.259C173.476 180.285 173.18 180.208 172.897 180.028L166.5 176.174Z" fill="#D0D0D0"/>
<path d="M18.4995 213.174L12.1016 217.028C11.819 217.208 11.5235 217.285 11.2152 217.259C10.9068 217.233 10.637 217.131 10.4058 216.951C10.1745 216.771 9.99467 216.546 9.8662 216.277C9.73772 216.007 9.71203 215.704 9.78911 215.37L11.4849 208.086L5.81932 203.191C5.56238 202.96 5.40204 202.696 5.33832 202.4C5.27357 202.105 5.29258 201.817 5.39536 201.534C5.49814 201.251 5.65231 201.02 5.85786 200.84C6.06342 200.66 6.34606 200.545 6.70578 200.493L14.1829 199.838L17.0735 192.978C17.202 192.669 17.4013 192.438 17.6717 192.284C17.9409 192.13 18.2169 192.053 18.4995 192.053C18.7822 192.053 19.0586 192.13 19.3289 192.284C19.5982 192.438 19.7971 192.669 19.9256 192.978L22.8162 199.838L30.2933 200.493C30.653 200.545 30.9356 200.66 31.1412 200.84C31.3468 201.02 31.5009 201.251 31.6037 201.534C31.7065 201.817 31.726 202.105 31.6623 202.4C31.5975 202.696 31.4367 202.96 31.1797 203.191L25.5141 208.086L27.2099 215.37C27.287 215.704 27.2613 216.007 27.1329 216.277C27.0044 216.546 26.8245 216.771 26.5933 216.951C26.362 217.131 26.0922 217.233 25.7839 217.259C25.4756 217.285 25.1801 217.208 24.8974 217.028L18.4995 213.174Z" fill="#DFC903"/>
<path d="M55.4995 213.174L49.1016 217.028C48.819 217.208 48.5235 217.285 48.2152 217.259C47.9068 217.233 47.637 217.131 47.4058 216.951C47.1745 216.771 46.9947 216.546 46.8662 216.277C46.7377 216.007 46.712 215.704 46.7891 215.37L48.4849 208.086L42.8193 203.191C42.5624 202.96 42.402 202.696 42.3383 202.4C42.2736 202.105 42.2926 201.817 42.3954 201.534C42.4981 201.251 42.6523 201.02 42.8579 200.84C43.0634 200.66 43.3461 200.545 43.7058 200.493L51.1829 199.838L54.0735 192.978C54.202 192.669 54.4013 192.438 54.6717 192.284C54.9409 192.13 55.2169 192.053 55.4995 192.053C55.7822 192.053 56.0586 192.13 56.3289 192.284C56.5982 192.438 56.7971 192.669 56.9256 192.978L59.8162 199.838L67.2933 200.493C67.653 200.545 67.9356 200.66 68.1412 200.84C68.3468 201.02 68.5009 201.251 68.6037 201.534C68.7065 201.817 68.726 202.105 68.6623 202.4C68.5975 202.696 68.4367 202.96 68.1797 203.191L62.5141 208.086L64.2099 215.37C64.287 215.704 64.2613 216.007 64.1329 216.277C64.0044 216.546 63.8245 216.771 63.5933 216.951C63.362 217.131 63.0922 217.233 62.7839 217.259C62.4756 217.285 62.1801 217.208 61.8974 217.028L55.4995 213.174Z" fill="#DFC903"/>
<path d="M92.4995 213.174L86.1016 217.028C85.819 217.208 85.5235 217.285 85.2152 217.259C84.9068 217.233 84.637 217.131 84.4058 216.951C84.1745 216.771 83.9947 216.546 83.8662 216.277C83.7377 216.007 83.712 215.704 83.7891 215.37L85.4849 208.086L79.8193 203.191C79.5624 202.96 79.402 202.696 79.3383 202.4C79.2736 202.105 79.2926 201.817 79.3954 201.534C79.4981 201.251 79.6523 201.02 79.8579 200.84C80.0634 200.66 80.3461 200.545 80.7058 200.493L88.1829 199.838L91.0735 192.978C91.202 192.669 91.4013 192.438 91.6717 192.284C91.9409 192.13 92.2169 192.053 92.4995 192.053C92.7822 192.053 93.0586 192.13 93.3289 192.284C93.5982 192.438 93.7971 192.669 93.9256 192.978L96.8162 199.838L104.293 200.493C104.653 200.545 104.936 200.66 105.141 200.84C105.347 201.02 105.501 201.251 105.604 201.534C105.706 201.817 105.726 202.105 105.662 202.4C105.598 202.696 105.437 202.96 105.18 203.191L99.5141 208.086L101.21 215.37C101.287 215.704 101.261 216.007 101.133 216.277C101.004 216.546 100.825 216.771 100.593 216.951C100.362 217.131 100.092 217.233 99.7839 217.259C99.4756 217.285 99.1801 217.208 98.8974 217.028L92.4995 213.174Z" fill="#DFC903"/>
<path d="M129.5 213.174L123.102 217.028C122.819 217.208 122.523 217.285 122.215 217.259C121.907 217.233 121.637 217.131 121.406 216.951C121.175 216.771 120.995 216.546 120.866 216.277C120.738 216.007 120.712 215.704 120.789 215.37L122.485 208.086L116.819 203.191C116.562 202.96 116.402 202.696 116.338 202.4C116.274 202.105 116.293 201.817 116.395 201.534C116.498 201.251 116.652 201.02 116.858 200.84C117.063 200.66 117.346 200.545 117.706 200.493L125.183 199.838L128.073 192.978C128.202 192.669 128.401 192.438 128.672 192.284C128.941 192.13 129.217 192.053 129.5 192.053C129.782 192.053 130.059 192.13 130.329 192.284C130.598 192.438 130.797 192.669 130.926 192.978L133.816 199.838L141.293 200.493C141.653 200.545 141.936 200.66 142.141 200.84C142.347 201.02 142.501 201.251 142.604 201.534C142.706 201.817 142.726 202.105 142.662 202.4C142.598 202.696 142.437 202.96 142.18 203.191L136.514 208.086L138.21 215.37C138.287 215.704 138.261 216.007 138.133 216.277C138.004 216.546 137.825 216.771 137.593 216.951C137.362 217.131 137.092 217.233 136.784 217.259C136.476 217.285 136.18 217.208 135.897 217.028L129.5 213.174Z" fill="#DFC903"/>
<path d="M166.5 213.174L160.102 217.028C159.819 217.208 159.523 217.285 159.215 217.259C158.907 217.233 158.637 217.131 158.406 216.951C158.175 216.771 157.995 216.546 157.866 216.277C157.738 216.007 157.712 215.704 157.789 215.37L159.485 208.086L153.819 203.191C153.562 202.96 153.402 202.696 153.338 202.4C153.274 202.105 153.293 201.817 153.395 201.534C153.498 201.251 153.652 201.02 153.858 200.84C154.063 200.66 154.346 200.545 154.706 200.493L162.183 199.838L165.073 192.978C165.202 192.669 165.401 192.438 165.672 192.284C165.941 192.13 166.217 192.053 166.5 192.053C166.782 192.053 167.059 192.13 167.329 192.284C167.598 192.438 167.797 192.669 167.926 192.978L170.816 199.838L178.293 200.493C178.653 200.545 178.936 200.66 179.141 200.84C179.347 201.02 179.501 201.251 179.604 201.534C179.706 201.817 179.726 202.105 179.662 202.4C179.598 202.696 179.437 202.96 179.18 203.191L173.514 208.086L175.21 215.37C175.287 215.704 175.261 216.007 175.133 216.277C175.004 216.546 174.825 216.771 174.593 216.951C174.362 217.131 174.092 217.233 173.784 217.259C173.476 217.285 173.18 217.208 172.897 217.028L166.5 213.174Z" fill="#DFC903"/>
</svg>
