<svg width="1200" height="436" viewBox="0 0 1200 436" fill="none" xmlns="http://www.w3.org/2000/svg">
<g opacity="0.36">
<path d="M1152.24 376.615L1197.5 436H1023.22L991.228 376.615H1152.24Z" fill="#EECACA"/>
<path d="M1134.14 353.013L1152.25 376.615H991.228L1023.22 436H991.859L962.182 376.615H823.265L841.577 436H574.899L579.74 292.359H507.124L486.076 436H454.715L455.346 432.447H111.422L109.317 436H93.5311L95.8464 432.447H7.23438L28.0719 405.038H113.737L186.984 292.105H114.158L137.1 261.905H286.752L319.166 199.22H184.879L195.193 185.769H326.111L366.734 106.843H255.18L262.336 97.4529H371.575L407.778 27.9162H315.798L320.639 21.5716H411.145L422.301 0.253783H445.454L435.771 21.5716H534.697L538.486 0.253783H561.638L559.113 21.5716H747.703L739.284 0H753.175L772.118 43.1432H897.985L903.458 50.2491H846.839L889.566 119.278H956.078L963.866 129.683H810.005L817.372 146.687H976.705L977.757 148.21L991.649 166.482H758.437L772.539 212.163H1026.59L1037.95 227.136H939.029L1013.54 353.52H1134.14V353.013ZM999.437 353.013L927.453 226.629H777.17L815.898 353.013H999.437ZM880.305 119.278L838.84 50.2491H775.276L805.585 119.278H880.305ZM797.797 146.433L791.062 129.43H693.188L696.346 146.433H797.797ZM787.483 428.894L754.649 292.105H622.467L627.098 428.894H787.483ZM786.852 119.278L759.279 50.2491H677.823L691.294 119.278H786.852ZM756.543 43.1432L750.439 27.9162H602.261V43.1432H756.543ZM747.282 261.905L724.339 166.228H618.258L621.415 261.905H747.282ZM676.771 146.433L674.245 129.43H546.905L545.01 146.433H676.771ZM672.561 119.278L662.037 50.2491H555.956L547.957 119.278H672.561ZM594.473 43.1432L594.684 27.9162H558.481L556.797 43.1432H594.473ZM583.318 185.769L583.949 166.228H508.597L519.332 107.097H397.464L362.103 186.023H583.318V185.769ZM580.582 261.905L582.686 199.22H355.579L327.374 261.905H580.582ZM520.805 97.4529L533.434 27.6624H432.825L401.463 97.4529H520.805ZM460.187 405.038L481.235 292.105H199.613L128.681 405.038H460.187Z" fill="white"/>
<path d="M1037.95 226.629L1134.14 353.013H1013.54L939.029 226.629H1037.95Z" fill="#EECACA"/>
<path d="M977.968 147.956L1037.95 226.629L1026.59 211.655H772.539L758.437 166.228H991.649L977.968 147.956Z" fill="#E8E8E8"/>
<path d="M927.781 226.629L999.765 353.013H816.226L777.498 226.629H927.781Z" fill="#EECACA"/>
<path d="M943.416 376.615L973.094 436H822.6L804.499 376.615H943.416Z" fill="#EECACA"/>
<path d="M963.865 129.683L976.705 146.433H817.582L810.215 129.683H963.865Z" fill="#B5B5B5"/>
<path d="M903.458 50.2491L956.078 119.278H889.566L846.839 50.2491H903.458Z" fill="#E8E8E8"/>
<path d="M864.94 0L897.985 43.1432H772.118L753.175 0H864.94Z" fill="#79A653"/>
<path d="M838.84 50.2491L880.305 119.278H805.585L775.276 50.2491H838.84Z" fill="#E8E8E8"/>
<path d="M791.061 129.683L797.797 146.433H696.556L693.188 129.683H791.061Z" fill="#E8E8E8"/>
<path d="M754.648 292.105L787.483 428.894H626.887L622.257 292.105H754.648Z" fill="#B5B5B5"/>
<path d="M759.279 50.2491L786.852 119.278H691.294L677.823 50.2491H759.279Z" fill="#B5B5B5"/>
<path d="M750.439 27.9162L756.543 43.1432H602.261V27.9162H750.439Z" fill="#E8E8E8"/>
<path d="M739.283 0L747.913 21.3178H559.113L561.638 0H739.283Z" fill="#79A653"/>
<path d="M724.339 166.228L747.282 261.905H621.415L618.047 166.228H724.339Z" fill="#81989C"/>
<path d="M674.035 129.683L676.771 146.433H545.01L546.905 129.683H674.035Z" fill="#E8E8E8"/>
<path d="M662.037 50.2491L672.561 119.278H547.957L555.955 50.2491H662.037Z" fill="#79A653"/>
<path d="M594.684 27.9162L594.473 43.1432H556.797L558.481 27.9162H594.684Z" fill="#E8E8E8"/>
<path d="M583.949 166.228L583.318 185.769H361.683L397.254 107.097H519.121L508.387 166.228H583.949Z" fill="#79A653"/>
<path d="M582.686 199.22L580.582 261.905H327.585L355.579 199.22H582.686Z" fill="#79A653"/>
<path d="M579.74 292.105L574.899 436H485.866L506.914 292.105H579.74Z" fill="#E8E8E8"/>
<path d="M538.486 0L534.487 21.3178H435.771L445.243 0H538.486Z" fill="#E8E8E8"/>
<path d="M533.434 27.9162L520.805 97.4529H401.463L432.825 27.9162H533.434Z" fill="#81989C"/>
<path d="M481.446 292.105L460.187 405.038H128.681L199.613 292.105H481.446Z" fill="#81989C"/>
<path d="M422.09 0L411.145 21.3178H320.639L337.056 0H422.09Z" fill="#E8E8E8"/>
<path d="M366.945 107.097L326.111 185.769H195.193L255.39 107.097H366.945Z" fill="#E8E8E8"/>
<path d="M262.546 97.4528L255.39 107.097L262.546 97.4528Z" fill="white"/>
<path d="M186.984 292.105L113.527 405.038H28.0719L114.158 292.105H186.984Z" fill="#81989C"/>
</g>
<rect width="1200" height="436" fill="url(#paint0_linear_1_51)"/>
<defs>
<linearGradient id="paint0_linear_1_51" x1="600" y1="0" x2="600" y2="436" gradientUnits="userSpaceOnUse">
<stop offset="0.234375" stop-color="white"/>
<stop offset="1" stop-color="white" stop-opacity="0"/>
</linearGradient>
</defs>
</svg>
