<svg width="31" height="31" viewBox="0 0 31 31" fill="none" xmlns="http://www.w3.org/2000/svg">
<path d="M9.90069 13.4464H11.8172V19.4732C11.8172 20.1361 12.3596 20.6785 13.0226 20.6785H17.844C18.507 20.6785 19.0494 20.1361 19.0494 19.4732V13.4464H20.9659C22.0387 13.4464 22.5811 12.1446 21.8217 11.3852L16.2891 5.85257C15.819 5.38248 15.0596 5.38248 14.5896 5.85257L9.05693 11.3852C8.29755 12.1446 8.82791 13.4464 9.90069 13.4464ZM7.00781 24.2946C7.00781 24.9576 7.55023 25.5 8.21318 25.5H22.6775C23.3405 25.5 23.8829 24.9576 23.8829 24.2946C23.8829 23.6317 23.3405 23.0893 22.6775 23.0893H8.21318C7.55023 23.0893 7.00781 23.6317 7.00781 24.2946Z" fill="white"/>
</svg>
